<?xml version="1.0" encoding="utf-8"?>
<!-- Generator: Adobe Illustrator 23.0.1, SVG Export Plug-In . SVG Version: 6.00 Build 0)  -->
<svg version="1.1" id="Layer_1" xmlns="http://www.w3.org/2000/svg" xmlns:xlink="http://www.w3.org/1999/xlink" x="0px" y="0px"
	 viewBox="0 0 1500 1000" style="enable-background:new 0 0 1500 1000;" xml:space="preserve">
<style type="text/css">
	.st0{fill:#677678;fill-opacity:0.9961;}
	.st1{fill-opacity:0.9961;}
	.st2{fill:#FFFFFF;fill-opacity:0.9961;}
	.st3{fill:#FFFFFF;}
	.st4{fill:#3C464F;fill-opacity:0.9961;}
	.st5{fill:#222B32;}
	.st6{fill:#222B32;fill-opacity:0.9961;}
	.st7{fill:#5FB4FF;fill-opacity:0.9961;}
	.st8{fill:#FFB193;}
	.st9{fill:#F4C700;}
	.st10{fill:#FF7300;}
	.st11{fill:#FCB826;}
	.st12{fill:#A9A9A9;}
	.st13{fill:#2F8694;}
	.st14{fill:#62E4B8;}
	.st15{fill:#62B99C;}
	.st16{fill:#26936E;}
	.st17{fill:#11C286;}
	.st18{fill:#FFF300;fill-opacity:0.9961;}
	.st19{fill-opacity:0.5216;}
</style>
<g id="layer1">
	<g>
		<path class="st0" d="M1158.5,747.3L1158.5,747.3l6.1,6.2l0,0l5.4,5.6l0,0.1l-124.3-0.9l0,0l-125-1l0,0l-1.2-4.4l0,0l0,0
			c-0.6-2.1-0.9-3.9-1-4.6l0,0l0,0l0-0.1c3.2-0.2,31.3-0.4,65.1-0.5l0,0l0,0l4.5,0l1,0l1,0c35.7-0.1,85-0.1,113.5-0.2l0,0l0,0
			L1158.5,747.3z"/>
	</g>
	<g>
		<path class="st0" d="M841.5,746.3L841.5,746.3c0.6,0,1.9,0.1,3.9,0.2l0,0l7.6,0.3l14.7,0.6l0,0c13.2,0.5,24.2,1,25.8,1.2l0,0.1
			l0,0c0,0,0,0,0,0v0l0-0.1c0.2,0.6,0.9,2.5,1.5,4.7v0l1.2,4.1l-0.1,0.1l-55.1-0.3l-0.1-0.1l0-5.4
			C841.1,749.1,841.2,747,841.5,746.3L841.5,746.3L841.5,746.3z"/>
	</g>
	<g>
		<path class="st1" d="M1119.6,750.8L1119.6,750.8L1119.6,750.8L1119.6,750.8z"/>
	</g>
	<g>
		<path class="st2" d="M1299.3,709.3L1299.3,709.3C1299.3,709.3,1299.3,709.3,1299.3,709.3z"/>
	</g>
	<g>
		<path class="st3" d="M1162.6,822.7L1162.6,822.7L1162.6,822.7z"/>
	</g>
	<g>
		<path class="st4" d="M1265.9,330.4L1265.9,330.4L1265.9,330.4L1265.9,330.4L1265.9,330.4L1265.9,330.4L1265.9,330.4
			C1265.9,330.4,1265.9,330.4,1265.9,330.4z"/>
	</g>
	<g>
		<path class="st4" d="M1255.4,317.9L1255.4,317.9L1255.4,317.9L1255.4,317.9L1255.4,317.9L1255.4,317.9L1255.4,317.9
			C1255.4,317.9,1255.4,317.9,1255.4,317.9z"/>
	</g>
	<g>
		<path class="st5" d="M1261.3,330.2L1261.3,330.2L1261.3,330.2L1261.3,330.2L1261.3,330.2z M841.1,746.4
			C841.1,746.4,841.1,746.4,841.1,746.4L841.1,746.4L841.1,746.4L841.1,746.4z M918.3,748.3C918.2,748.3,918.2,748.3,918.3,748.3
			L918.3,748.3C918.2,748.3,918.2,748.3,918.3,748.3L918.3,748.3z M893.7,748.7C893.7,748.7,893.7,748.7,893.7,748.7L893.7,748.7
			C893.7,748.7,893.7,748.7,893.7,748.7L893.7,748.7z M1158.5,747.4l-54.7,0.1l0,0c-29.1,0.1-79.7,0.2-115.6,0.2l-4.5,0l0,0
			c-33.8,0.1-61.9,0.3-65.1,0.5l0,0c0,0.7,0.4,2.5,1,4.6l0,0l1.2,4.4l125,1l0,0l124.3,0.9l-5.4-5.6L1158.5,747.4z M841.5,746.4
			c-0.2,0.7-0.3,2.7-0.3,5.3l0,5.4l55.1,0.3l-1.2-4.1c-0.6-2.2-1.3-4.1-1.5-4.7l0,0c-1.6-0.2-12.6-0.7-25.8-1.2v0l-14.7-0.6
			l-7.6-0.3v0C843.4,746.5,842,746.4,841.5,746.4L841.5,746.4z M1263,809.1L1263,809.1L1263,809.1L1263,809.1L1263,809.1z
			 M1257.1,330.1C1257.1,330.1,1257.1,330.1,1257.1,330.1l4.2,0.1v0l0,0c2.3,0.1,9.7,0.5,16.3,1.1l0,0l0,0v0l0,0l0,0
			c12.1,0.9,12.3,0.9,37.3,8v0c22.9,6.3,25.6,7.1,25.2,9l0,0l0,0c-0.4,1.8-16.5,99.5-36.1,218l-7.3,44.3l-5.6,34.1
			c-24.7,150.1-26.9,163-27.6,164.2v0c-0.1,0.2-0.3,0.3-0.5,0.3l0,0c-0.1,0.2-0.4,0.8-0.4,1.8l0,2c0,0.1-0.1,0.2-0.1,0.3
			c-0.1,0.1-0.2,0.1-0.3,0.1l-462-2.8c-0.3,0-0.5-0.2-0.5-0.5l-0.3-14.7c-0.2-8.1-0.3-24.2-0.3-35.8l0.1-21.1c0-0.3,0.2-0.5,0.5-0.5
			l386.7,2.3l0-2.7l0-3.2c0-0.2,0.1-0.3,0.2-0.4c0.1,0,0.1-0.1,0.2-0.1c0.1,0,0.2,0,0.3,0.1l1.7,1.1l0,0c0.5,0.3,0.8,0.5,1,0.6v0
			c0.8-6,27.9-169.8,28.6-172.7l0,0c0,0,0-0.1,0.1-0.2l0,0c0.1-0.2,0.3-0.2,0.4-0.2l0,0c0.2,0,0.5-0.1,0.9,0c1.9,0,6.4,0.3,11.6,0.7
			l0,0c5,0.3,8,0.5,9.9,0.5c2.3,0,3-0.2,3.7-0.7l0,0c1.7-1,2.5-3.3,1.9-5.4l0,0c-0.6-2.1-3.6-3-15.4-3.7l0,0
			c-6.4-0.3-10.3-0.7-11.1-1.3l0,0c-0.1-0.1-0.3-0.2-0.3-0.5c0,0,0-0.1,0-0.1v0c0.1-1,8.2-50.9,18.2-111.4v0l18.2-110.5
			C1256.6,330.2,1256.8,330.1,1257.1,330.1z"/>
	</g>
	<g>
		<path class="st6" d="M1233.2,518.9l-5.3-0.4l-5.3-0.4c-1.6,21.8-3.3,43.6-4.9,65.5c3.5,0.3,7.1,0.5,10.6,0.8
			C1229.9,562.6,1231.6,540.7,1233.2,518.9z"/>
	</g>
	<g>
		<path class="st7" d="M1312.3,359.6l-25.9-8.1l-25.9-8.1l-60.9,385.5c14.9,14.8,29.7,29.5,44.6,44.3L1312.3,359.6z"/>
	</g>
	<g>
		<path class="st8" d="M829.9,373.8c2.6-1.9,5.8-2.1,10-0.5c1.1,0.4,2.2,0.8,2.5,0.9c0.3,0.1,0.9,0.3,1.3,0.5
			c0.4,0.2,1.4,0.5,2.2,0.7c3.4,0.7,4.6,1.1,6,1.7c0.8,0.4,2,0.9,2.7,1.2c0.7,0.3,1.4,0.6,1.5,0.7c0.2,0.1,0.7,0.3,1.2,0.4
			c0.5,0.1,1,0.3,1.1,0.3c0.1,0.1,0.5,0.2,1,0.3c0.5,0.1,1.2,0.4,1.7,0.7c1.3,0.7,3.8,1.8,4.9,2.1c0.9,0.2,4,1,6.4,1.6
			c0.7,0.2,1.5,0.3,1.7,0.3c1.4,0,5.5,1.7,7.9,3.2c0.8,0.5,1.8,1,2.1,1.1c0.4,0.1,1,0.5,1.4,0.8c1,0.8,6.5,3.9,7.4,4.1
			c0.4,0.1,1.3,0.5,1.9,0.7c0.6,0.3,1.8,0.8,2.7,1.2c0.9,0.4,1.8,0.8,2,0.8c0.6,0.1,4,2.1,6,3.5c1.9,1.4,3.5,2.2,4.7,2.7
			c0.5,0.2,1.2,0.5,1.5,0.8c0.3,0.3,1.1,0.7,1.7,1c0.6,0.3,2,1.1,3.1,1.8c1.1,0.7,2.1,1.3,2.2,1.3c0.2,0,0.9,0.4,4.9,3
			c3,1.9,4.5,2.3,5,1.1c0.2-0.5,0.1-2.6-0.2-2.8c-0.1-0.1-0.3-0.6-0.4-1.1c-0.1-0.5-0.4-1.4-0.6-1.9c-0.7-1.6-1.8-4.1-2-4.5
			c-0.1-0.2-0.3-0.5-0.4-0.7c-0.4-1.2-2.1-4.1-2.9-5c-0.4-0.4-0.9-1.1-1.2-1.6c-0.9-1.3-4.5-5.4-5.4-6.2c-0.5-0.4-1.1-1.1-1.3-1.5
			c-1.4-2.5-2.4-3.5-4.8-5.3c-5.6-4.1-7.9-5.7-8.9-5.9c-0.5-0.2-1.7-0.7-2.7-1.2c-1.4-0.8-1.8-1.1-2.5-2c-1.2-1.4-2.8-4.8-3.2-6.7
			c-0.5-2.5,0.2-4.9,2-6.2c0.9-0.6,3.3-1,3.7-0.7c0.2,0.1,0.8,0.3,1.4,0.5c0.9,0.2,1.6,0.6,4,2.4c1.6,1.2,3.4,2.4,4.1,2.7
			c0.7,0.3,1.7,0.9,2.3,1.4c0.6,0.5,1.8,1.2,2.6,1.6c0.8,0.4,1.8,0.9,2.2,1.2c0.4,0.3,1.1,0.7,1.6,1c0.6,0.3,1.6,1.1,2.7,2.3
			c1.6,1.5,2.2,2,3.8,2.9c1.7,0.9,3.4,2.2,11,8.3c10.6,8.5,9.5,7.2,11,12.3c1.1,3.6,1.3,4,2,5.6c0.3,0.8,0.9,2.2,1.4,3.2
			c0.4,1,0.8,2,0.9,2.3c0,0.2,0.1,0.5,0.2,0.6c0.1,0.1,0.3,0.6,0.4,1.1c0.2,0.8,1.2,3.7,2.2,6.1c0.3,0.8,2.1,4.7,3,6.4
			c0.7,1.4,1.6,2.9,2.1,3.2c0.2,0.1,0.5,0.6,0.7,1c0.2,0.4,1.1,1.6,2.1,2.6c1.4,1.7,1.8,2,2.9,2.6c0.7,0.3,1.6,0.9,2.2,1.2
			c0.5,0.3,1.3,0.6,1.7,0.7c0.4,0.1,1.1,0.3,1.5,0.5c0.5,0.2,1.5,0.6,2.4,0.9c0.8,0.3,2,0.7,2.5,1c1,0.5,3.7,1.5,4.2,1.4
			c0.2,0,1.3,0.4,2.5,0.8c3.2,1.2,4.1,1.5,4.7,1.5c0.3,0,0.9,0.2,1.3,0.4c0.4,0.2,1.5,0.5,2.6,0.8c1.1,0.3,2,0.6,2.2,0.6
			c0.1,0.1,0.6,0.2,1.1,0.3c0.5,0.1,0.9,0.2,1,0.2c0.3,0.3,7.1,1.8,7.4,1.7c0.1,0,0.5,0.1,0.8,0.3c0.8,0.4,3,1,3.6,1
			c0.2,0,0.7,0.1,0.9,0.2c0.3,0.1,0.9,0.2,1.3,0.3c0.4,0,2.5,0.4,4.6,0.9c5.7,1.3,7,1.4,13.6,1.1c8.2-0.4,10.5-0.9,13.6-2.9
			c0.9-0.6,2-1.3,2.6-1.7c0.5-0.3,1.7-1.1,2.6-1.7c0.9-0.6,1.8-1.1,2.1-1.1c0.2,0,0.5-0.1,0.6-0.2c0.1-0.1,1.4-0.3,2.9-0.5
			c1.6-0.2,2.8-0.4,2.9-0.5c0-0.1,1.1-0.1,2.3-0.1c1.2,0,2.3,0,2.3-0.1c0.1,0,1.2-0.1,2.6,0c1.3,0,3.2,0.1,4.2,0c1,0,2,0,2.4,0.1
			c1.1,0.2,7,0.3,8.8,0.1c0.7-0.1,1.9-0.1,2.6-0.1c2.1,0,17,5.6,15.7,7.6c-1.3,2-3,2.7-3,2.8c-2.4,8.7-10.2,4.5-27.6,26.1
			c-16.9,21-30.8,38.1-30.8,38c-0.1-0.1-0.4,0-0.7,0.1c-0.3,0.1-1.4,0.6-2.6,1.1c-1.1,0.5-2.8,1.2-3.7,1.6c-0.9,0.4-1.8,0.7-2,0.7
			c-0.2,0-0.4,0.1-0.5,0.1c-0.1,0.1-1.3,0.6-2.8,1.1c-2.6,0.8-3.9,1.3-4.3,1.3c-0.7,0.1-4.1,1.6-5,2.2c-0.4,0.3-1,0.6-1.3,0.7
			c-0.3,0.1-0.7,0.4-0.7,0.4c-0.1,0.2-3.7,1.9-4.8,2.4c-0.3,0.1-1.2,0.5-2,0.9c-0.8,0.4-1.9,0.8-2.5,1c-0.6,0.2-1.4,0.5-1.8,0.7
			c-0.4,0.2-1.2,0.5-1.8,0.7c-0.6,0.2-1.7,0.6-2.4,0.9c-0.7,0.3-1.8,0.7-2.4,0.9c-0.9,0.3-2.5,0.9-4.6,1.8c-1.3,0.6-6.8,3.2-6.9,3.4
			c-0.1,0.1-0.3,0.2-0.5,0.1c-0.2,0-0.6,0.2-0.9,0.4c-0.2,0.2-1.6,0.9-3.1,1.6c-1.5,0.7-2.8,1.4-3.1,1.5c-0.2,0.2-1,0.5-1.6,0.6
			c-0.6,0.2-1.4,0.4-1.7,0.5c-1,0.3-2.5,0.8-3.8,1.1c-0.7,0.2-1.9,0.6-2.6,0.8c-0.7,0.2-1.8,0.6-2.4,0.7c-0.6,0.2-1.4,0.4-1.8,0.6
			c-2,0.8-5.9,2.2-6.9,2.6c-0.6,0.2-1.5,0.5-1.9,0.7c-0.8,0.3-2.9,0.9-3.8,1.1c-0.2,0-1.3,0.3-2.5,0.5c-1.1,0.2-2.4,0.5-2.8,0.7
			c-1.7,0.5-2,0.7-2.6,0.9c-0.3,0.1-1,0.4-1.5,0.5c-0.4,0.1-1.6,0.6-2.6,1c-1.2,0.5-2.4,0.8-3.8,1c-2.6,0.3-4-0.2-7.4-2.6
			c-1.3-0.9-2.5-1.6-2.7-1.7c-0.3,0-1-0.4-1.6-0.8c-1.4-0.9-4.1-2.1-4.7-2.1c-0.2,0-0.9-0.2-1.5-0.4c-4.2-1.8-5.5-2.2-7.3-2.5
			c-2.3-0.4-7.4-1.5-8.9-2c-4.6-1.5-5.9-2.3-6.3-4c-0.3-1.1,0.1-2.7,0.7-3.5c0.5-0.6,0.8-2.3,0.6-2.8c-0.1-0.2-1.5-1.5-3.2-3
			c-3.2-2.8-6.6-6.2-7.9-7.9c-0.4-0.6-1-1.2-1.3-1.5c-1.1-0.9-1.9-3.1-2.1-5.7c-0.1-1.3-0.2-2.5-0.1-2.6c0.1-0.1,0.1-0.7,0.1-1.3
			c0-0.6,0-1.4,0.1-1.7c0-0.3,0.1-1.6,0.2-2.8c0.3-3.7,0.4-4.4,0.7-5.5c0.1-0.4,0.4-1.7,0.6-2.7c0.3-1,0.5-2,0.6-2.1
			c0.1-0.2,0.9-3.2,1.3-5.4c0.1-0.7,0.5-2.5,0.9-4c0.3-1.5,0.7-3.1,0.8-3.6c0.2-1.2,1.2-2.4,2.7-3.4c1.3-0.9,3.4-1.9,4-2
			c0.5-0.1,4.5-1.9,7-3.2c0.9-0.5,1.9-0.9,2.1-1c0.2-0.1,1-0.4,1.8-0.8c0.8-0.4,1.7-0.8,2-0.9c0.3-0.1,1.3-0.5,2.2-0.9
			c0.9-0.4,2-0.8,2.6-1c2-0.6,3.3-1.3,4-2.1c0.9-1,0.9-1.6,0.4-4.3c-0.4-1.9-0.8-2.8-2.2-4.7c-0.8-1-4.5-3.8-5.4-4
			c-0.4-0.1-2.1-0.6-3.7-1.1c-1.6-0.5-3.7-1.1-4.6-1.4c-0.9-0.2-1.9-0.5-2.1-0.6c-0.3-0.1-1.2-0.3-2-0.3c-2-0.2-2.1-0.2-5.1-0.9
			c-3.6-0.8-4.3-0.9-5.1-1c-0.5,0-1.9-0.5-3.8-1.3c-0.7-0.3-1.5-0.6-1.8-0.7c-0.9-0.4-4.9-1.1-5.7-1.1c-0.4,0-1.4-0.1-2-0.1
			c-0.7-0.1-1.7-0.2-2.2-0.2c-2.4-0.2-3.5-0.3-3.8-0.3c-0.2,0-0.6,0-0.9-0.1c-0.3-0.1-1.1-0.1-1.8-0.1c-1.2,0-2.8,0-4.3-0.2
			c-2.2-0.3-3.2-0.3-4.6-0.2c-2.3,0.2-5.4,0.1-8.1-0.1c-2.6-0.2-4.6-0.2-8,0c-1.1,0.1-3,0.1-4.1,0.1c-7.4-0.2-10.2-0.1-10.6,0.3
			c-0.2,0.2-3.6,0.1-4.6-0.2c-0.6-0.1-1.6-0.4-2.4-0.6c-0.7-0.2-1.4-0.4-1.6-0.5c-0.1-0.1-0.8-0.4-1.4-0.6c-2.6-0.9-5.6-3.3-6.7-5.5
			c-1.6-3.3-0.1-7.9,3-9.1c1.2-0.5,3.8-0.9,5.1-0.9c0.5,0,2.2-0.1,3.6-0.2c1.4-0.1,3.3-0.3,4.2-0.3c0.9-0.1,2.4-0.3,3.2-0.4
			c0.9-0.2,2.4-0.3,3.5-0.3c1,0,3-0.1,4.3-0.3c1.3-0.1,3.2-0.3,4.2-0.3c1.7,0,4.2-0.2,6.1-0.4c0.4,0,1.1,0,1.5,0
			c0.4,0,0.9,0,1.2-0.1c1.3-0.5,5.1-1.6,6.4-1.9c4.3-0.7,9.7-1.1,11.8-0.8c2,0.3,7.8-0.1,15.1-0.9c4.6-0.5,6-0.5,8.7-0.2
			c0.3,0.1,1.4,0.3,2.3,0.6c4.2,1.2,5.4,1.3,5.9,0.6c0.2-0.3,0.4-0.7,0.3-0.9c-0.1-0.7-1.4-1.7-3.1-2.7c-1-0.5-2.5-1.6-3.5-2.3
			c-0.9-0.8-2-1.5-2.3-1.6c-0.3-0.1-1.5-0.8-2.6-1.5c-1.1-0.7-2.9-1.7-3.8-2.2c-1-0.5-2.1-1.1-2.4-1.4c-0.4-0.3-1.4-0.9-2.2-1.3
			c-0.8-0.4-2.7-1.4-4.1-2.1c-2.7-1.5-3.6-1.9-4.5-2.3c-0.4-0.1-1.5-0.6-2.5-1c-1-0.4-2.2-0.9-2.6-1c-0.4-0.1-1.1-0.3-1.5-0.5
			c-1.8-0.9-4.2-2-4.6-2c-0.3,0-1.1-0.5-1.9-0.9c-0.8-0.5-1.8-1-2.2-1.1c-0.4-0.1-1.2-0.5-1.7-0.8c-0.6-0.3-2-0.8-3.7-1.2
			c-1.7-0.4-3.2-0.8-3.9-1.2c-0.7-0.4-2.6-1.9-4.7-3.7c-3.5-2.9-3.6-3.1-4.2-4.3c-0.8-1.6-0.9-3.8-0.2-5.7
			C828.8,374.8,829,374.5,829.9,373.8L829.9,373.8L829.9,373.8z M897.8,498.4c-0.2,0.9-0.4,1.9-0.4,2.1c-0.2,1.4-0.7,2.9-1.1,3.7
			c-1,1.7-1,2.9-0.2,4.7c0.8,1.7,1.7,3.4,1.9,3.5c0.1,0.1,0.6,0.7,1,1.4c0.8,1.3,1.1,2.5,0.9,4.3c-0.2,2.4-0.2,4.9,0.1,5.3
			c0.7,1,2,0.9,4.7-0.3c1.7-0.8,3.9-0.9,7.4-0.6c0.6,0.1,2.7-0.1,4.8-0.3c2.1-0.2,4.2-0.3,4.7-0.3c1.9,0.2,3.3,0.5,3.6,0.8
			c1,0.8,1.6,1,2.6,0.7c0.5-0.2,1.2-0.5,1.5-0.7c0.4-0.4,1-0.6,3.8-1.9c0.4-0.1,1.1-0.4,1.6-0.5c0.5-0.1,1.3-0.4,1.7-0.5
			c0.4-0.2,1.5-0.5,2.5-0.8c2.1-0.6,5.9-2.1,6.1-2.4c0.1-0.1,0.3-0.2,0.6-0.2c0.7,0,2.1-2,2.5-3.4c0.2-1,0.2-3.8-0.1-6.4
			c-0.1-0.4-0.1-1.6-0.2-2.5c-0.1-1-0.3-2.9-0.5-4.3c-0.3-1.4-0.5-2.7-0.5-2.9c-0.1-1.3-1.6-6.8-2.2-7.9c-0.4-0.9-1.5-1.6-2.2-1.6
			c-0.4,0-1.6-0.1-2.8-0.2c-1.2-0.1-2.3-0.2-2.5-0.2c-1.7,0-3.4-0.1-4.6-0.3c-0.8-0.1-1.6-0.3-1.9-0.3c-0.2,0-0.5,0-0.6-0.1
			c-0.4-0.3-5-0.1-7.1,0.3c-0.3,0.1-1.1,0.2-1.9,0.4c-1.4,0.3-3.4,1-3.7,1.4c-0.3,0.4-5.8,3-7.7,3.6c-0.8,0.3-1.5,0.5-1.5,0.6
			c0,0.1-0.5,0.2-0.9,0.4c-0.5,0.2-1.9,0.6-3.1,1c-3.7,1.2-4.8,1.7-5.4,2.4C898.3,496.5,898,497.5,897.8,498.4L897.8,498.4
			L897.8,498.4z"/>
	</g>
	<g>
		<path class="st8" d="M949.3,515.3l-23.5,5.5c-7.1-1-13.8-1.7-20-2c-4.9-0.1-7.8-0.1-8.5,0.1c-1.7,0.1-3.3,0.4-4.6,0.7
			c-6.1,1.8-8.5,5.1-7.2,10.1c1.6,4.1,6.1,7.3,13.5,9.7c7.3,2.5,19.1,5,35.6,7.6L949.3,515.3"/>
	</g>
	<g>
		<path class="st3" d="M1008.9,522.6l4.9-42.3l4.9-42.3c7.3,0.8,14.6,1.7,22,2.5c-3.3,28.2-6.5,56.5-9.8,84.7
			C1023.5,524.3,1016.2,523.4,1008.9,522.6"/>
	</g>
	<g>
		<path class="st8" d="M904.8,539.3l-2.2,0c-6.5-0.1-11-0.6-13.6-1.6c-1.1-0.4-2-0.8-2.9-1.4l-1.2-0.9c-1.1-1-1.9-2.3-2.4-3.9
			c-0.3-0.8-0.4-1.7-0.5-2.6c-0.1-0.9,0-1.9,0.1-2.8l0.3-1.4c0.4-1.9,1.3-3.6,2.4-5.1c1.1-1.5,2.7-2.6,5-3.4l1.9-0.4
			c1.3-0.2,2.7-0.3,4.2-0.2l2.3,0.1c1.6,0.2,3.2,0.4,5,0.7c2.5,0.4,7,1.5,13.6,3.3L904.8,539.3"/>
	</g>
	<g>
		<path d="M1273.9,450l-122.6-10l-122.6-10c-2.6,32.4-5.3,64.8-7.9,97.2c81.8,6.7,163.5,13.3,245.3,20
			C1268.6,514.8,1271.3,482.4,1273.9,450"/>
	</g>
	<g>
		<path class="st9" d="M836.9,722.4l86.8-139.6c1.9-3.7,1.3-7.8-1.9-10.1l-106.6-76.5c-3.1-2.2-7.2-1.6-10.1,1.5L699.8,625.1
			c-1.6,1.7-2.5,4-2.4,6.3c0.2,2.3,1.2,4.5,2.8,5.7l124.8,89.6l0,0c3.4,2.4,8.2,1.2,10.8-2.4C836.5,723.5,836.8,723.1,836.9,722.4z"
			/>
	</g>
	<g>
		<path class="st10" d="M820.3,529.3c-1.7,2.4-5,2.9-7.4,1.2c-2.4-1.7-2.9-5-1.2-7.4l0.2-0.2l20.8-5.1
			C827.9,520.6,823.7,524.5,820.3,529.3z"/>
	</g>
	<g>
		<path class="st11" d="M885.3,511.2c-23.8-17.1-56.8-11.6-73.8,12.1c-1.7,2.4-1.2,5.7,1.2,7.4c2.4,1.7,5.7,1.2,7.4-1.2
			c13.6-19,40-23.3,59-9.7c19,13.6,23.3,40,9.7,59c-1.7,2.4-1.2,5.7,1.2,7.4c2.4,1.7,5.7,1.2,7.4-1.2
			C914.4,561.2,909,528.2,885.3,511.2z"/>
	</g>
	<g>
		<path class="st11" d="M890.1,586c-2.4-1.7-2.9-5-1.2-7.4c10-13.9,10.2-32,2-45.9c11,15.6,12.9,36.2,4.2,53.9
			C893.5,587.3,891.6,587,890.1,586z"/>
	</g>
	<g>
		<path class="st11" d="M820.3,529.3c-1.7,2.4-5,2.9-7.4,1.2c-1.7-1.2-2.2-3-2-4.7c13.8-13.7,34-18.5,52.4-13.3
			C847.3,509.4,830.2,515.3,820.3,529.3z"/>
	</g>
	<g>
		<path class="st12" d="M699.8,625.1c-1.6,1.7-2.5,4-2.4,6.3c0.2,2.3,1.2,4.5,2.8,5.7l124.8,89.6l0,0c3.4,2.4,8.2,1.2,10.8-2.4
			c0.5-0.7,0.9-1.2,1-1.9"/>
	</g>
	<g>
		<path class="st8" d="M908.7,516.9l-1.9-0.6c-2.6-0.8-5.1-1.5-7.6-2c-2.5-0.5-4.9-0.6-7.2-0.4c-3.7,0.6-6.5,2.1-8.6,4.6
			c-1.9,2-3.2,4.2-3.9,6.7c-0.6,2.6-0.7,4.5-0.3,5.7c0.4,1.5,1.3,2.9,2.8,4.1l1.6,1.1c1.2,0.7,2.6,1.3,4.2,1.7l2.5,0.7
			c1.8,0.4,3.6,0.8,5.6,1.1c2.9,0.5,8.4,1.1,16.3,1.7L908.7,516.9"/>
	</g>
	<g>
		<g>
			<path class="st8" d="M623.5,353.8c-2.7-1.7-5.9-1.7-10,0.2c-1,0.5-2.1,1-2.5,1c-0.3,0.1-0.9,0.3-1.3,0.6s-1.3,0.6-2.2,0.8
				c-3.3,1-4.5,1.4-5.8,2.2c-0.8,0.4-1.9,1-2.6,1.4c-0.7,0.3-1.3,0.7-1.5,0.8c-0.1,0.1-0.7,0.3-1.2,0.5c-0.5,0.2-1,0.3-1.1,0.4
				c-0.1,0.1-0.5,0.3-1,0.4c-0.4,0.1-1.2,0.5-1.6,0.8c-1.2,0.8-3.7,2.1-4.7,2.4c-0.9,0.3-4,1.3-6.3,2c-0.7,0.2-1.4,0.4-1.7,0.4
				c-1.4,0.1-5.3,2.1-7.6,3.8c-0.8,0.6-1.7,1.2-2,1.3c-0.3,0.1-0.9,0.5-1.3,0.9c-1,0.9-6.2,4.3-7.1,4.7c-0.4,0.2-1.3,0.6-1.9,0.9
				c-0.6,0.3-1.8,1-2.6,1.4c-0.8,0.4-1.7,0.9-2,0.9c-0.6,0.2-3.9,2.4-5.8,4c-1.8,1.5-3.3,2.5-4.5,3c-0.5,0.2-1.1,0.6-1.5,0.9
				c-0.3,0.3-1.1,0.8-1.7,1.1c-0.6,0.3-1.9,1.2-3,2c-1,0.8-2,1.5-2.1,1.5c-0.2,0.1-0.8,0.5-4.6,3.4c-2.9,2.2-4.3,2.6-4.9,1.4
				c-0.3-0.5-0.2-2.6,0-2.8c0.1-0.1,0.2-0.6,0.3-1.1c0.1-0.5,0.3-1.4,0.5-2c0.5-1.7,1.5-4.2,1.7-4.6c0.1-0.2,0.2-0.6,0.3-0.8
				c0.3-1.2,1.8-4.2,2.5-5.2c0.3-0.4,0.8-1.2,1.1-1.7c0.8-1.4,4.1-5.7,5-6.5c0.4-0.4,1-1.2,1.2-1.6c1.2-2.6,2.1-3.6,4.4-5.6
				c5.3-4.5,7.5-6.2,8.4-6.6c0.5-0.2,1.7-0.8,2.6-1.4c1.3-0.9,1.7-1.3,2.4-2.2c1.1-1.5,2.4-5,2.7-6.9c0.4-2.5-0.6-4.9-2.4-6.1
				c-0.9-0.6-3.3-0.8-3.8-0.4c-0.1,0.1-0.8,0.4-1.3,0.6c-0.9,0.3-1.5,0.8-3.8,2.7c-1.5,1.3-3.3,2.6-3.9,3c-0.6,0.4-1.6,1.1-2.2,1.6
				c-0.6,0.5-1.7,1.3-2.5,1.7c-0.8,0.4-1.8,1.1-2.1,1.4c-0.4,0.3-1,0.8-1.5,1.1c-0.5,0.3-1.5,1.2-2.6,2.4c-1.5,1.6-2,2.1-3.6,3.2
				c-1.6,1.1-3.2,2.5-10.3,9.1c-9.9,9.2-8.9,7.9-10.1,13.1c-0.9,3.7-1,4-1.6,5.7c-0.3,0.8-0.8,2.2-1.1,3.3c-0.4,1-0.7,2.1-0.7,2.3
				c0,0.2-0.1,0.5-0.2,0.6c-0.1,0.1-0.2,0.6-0.3,1.1c-0.1,0.8-1,3.7-1.7,6.2c-0.2,0.8-1.8,4.8-2.5,6.6c-0.6,1.5-1.4,3-1.8,3.3
				c-0.2,0.2-0.5,0.6-0.7,1.1c-0.2,0.4-1,1.7-1.9,2.8c-1.3,1.8-1.7,2.2-2.7,2.8c-0.6,0.4-1.6,1-2.1,1.3c-0.5,0.3-1.2,0.7-1.6,0.8
				c-0.4,0.1-1,0.4-1.5,0.7c-0.4,0.2-1.5,0.7-2.3,1c-0.8,0.3-1.9,0.9-2.4,1.2c-1,0.6-3.6,1.7-4.1,1.7c-0.2,0-1.3,0.5-2.5,1
				c-3.1,1.4-3.9,1.8-4.6,1.9c-0.3,0.1-0.9,0.3-1.2,0.5c-0.4,0.2-1.5,0.7-2.5,1c-1.1,0.3-2,0.7-2.1,0.8c-0.1,0.1-0.6,0.3-1,0.4
				c-0.4,0.1-0.9,0.2-1,0.3c-0.3,0.3-6.9,2.4-7.2,2.3c-0.1,0-0.5,0.1-0.8,0.3c-0.7,0.4-2.9,1.2-3.5,1.2c-0.2,0-0.6,0.1-0.9,0.3
				c-0.3,0.1-0.9,0.3-1.2,0.4c-0.4,0-2.4,0.6-4.5,1.2c-5.6,1.7-6.9,1.9-13.4,2.1c-8.2,0.2-10.6-0.1-13.8-1.9
				c-0.9-0.5-2.1-1.2-2.7-1.5c-0.5-0.3-1.8-1-2.7-1.5c-1-0.5-1.9-1-2.1-1c-0.2,0-0.5-0.1-0.6-0.2c-0.1-0.1-1.4-0.2-3-0.3
				c-1.6-0.1-2.9-0.2-2.9-0.3c0,0-1.1,0-2.3,0.1c-1.2,0.1-2.2,0.1-2.3,0.1c-0.1,0-1.2,0-2.6,0.2c-1.3,0.1-3.2,0.3-4.2,0.3
				c-1,0-2,0.1-2.3,0.2c-1.1,0.3-7,0.8-8.8,0.8c-0.8,0-1.9,0-2.6,0.1c-2.1,0.2-16.6,6.8-15.1,8.7c1.5,1.9,3.1,2.4,3.2,2.5
				c3.1,8.5,10.5,3.8,29.4,24c18.4,19.7,33.5,35.7,33.5,35.7c0.1-0.1,0.4,0,0.7,0.1c0.3,0.1,1.5,0.5,2.6,0.9c1.2,0.4,2.9,1,3.8,1.3
				c0.9,0.3,1.9,0.6,2.1,0.6s0.4,0,0.5,0.1c0.1,0.1,1.3,0.5,2.9,0.9c2.6,0.6,4,1,4.4,1c0.7,0.1,4.2,1.3,5.1,1.8
				c0.4,0.2,1,0.5,1.4,0.6c0.3,0.1,0.7,0.3,0.8,0.4c0.2,0.2,3.8,1.7,5,2c0.3,0.1,1.3,0.4,2.1,0.7c0.8,0.3,2,0.7,2.6,0.8
				c0.6,0.1,1.4,0.4,1.8,0.5c0.4,0.2,1.2,0.4,1.9,0.6c0.6,0.2,1.7,0.5,2.4,0.7c0.7,0.2,1.8,0.6,2.4,0.7c0.9,0.2,2.5,0.7,4.7,1.5
				c1.3,0.5,7,2.7,7.1,2.9c0.1,0.1,0.3,0.1,0.5,0.1c0.2,0,0.6,0.1,0.9,0.3c0.3,0.2,1.7,0.8,3.2,1.4c1.5,0.6,2.9,1.2,3.2,1.3
				c0.3,0.1,1,0.4,1.6,0.5c0.7,0.1,1.4,0.3,1.7,0.4c1.1,0.3,2.6,0.6,3.9,0.8c0.7,0.2,1.9,0.4,2.7,0.6c0.7,0.2,1.8,0.4,2.4,0.6
				c0.6,0.1,1.4,0.3,1.9,0.5c2,0.6,6,1.8,7,2.1c0.6,0.2,1.5,0.4,2,0.5c0.8,0.2,3,0.7,3.9,0.9c0.2,0,1.3,0.2,2.5,0.3
				c1.1,0.2,2.4,0.4,2.8,0.5c1.7,0.4,2.1,0.5,2.7,0.7c0.3,0.1,1,0.3,1.5,0.4c0.5,0.1,1.6,0.5,2.6,0.8c1.2,0.4,2.5,0.7,3.8,0.7
				c2.6,0.1,4-0.5,7.2-3.1c1.2-1,2.4-1.8,2.6-1.9c0.2-0.1,1-0.5,1.6-1c1.4-1,4-2.4,4.6-2.4c0.2,0,0.9-0.3,1.4-0.5
				c4-2.1,5.3-2.6,7.1-3c2.3-0.6,7.2-2.1,8.8-2.7c4.5-1.8,5.7-2.8,6-4.5c0.2-1.1-0.3-2.7-1-3.4c-0.5-0.6-1-2.2-0.8-2.7
				c0.1-0.2,1.4-1.6,3-3.2c3-3.1,6.2-6.7,7.3-8.5c0.4-0.6,0.9-1.3,1.2-1.6c1-0.9,1.7-3.2,1.7-5.8c0-1.3,0-2.5-0.1-2.6
				c-0.1-0.1-0.2-0.7-0.2-1.3c-0.1-0.6-0.1-1.4-0.2-1.7c-0.1-0.3-0.3-1.5-0.4-2.7c-0.6-3.7-0.8-4.4-1.1-5.5
				c-0.2-0.4-0.5-1.6-0.8-2.7c-0.3-1-0.7-1.9-0.7-2c-0.2-0.2-1.1-3.2-1.7-5.3c-0.2-0.7-0.7-2.5-1.2-3.9c-0.4-1.5-0.9-3.1-1.1-3.5
				c-0.3-1.1-1.4-2.3-3-3.2c-1.4-0.8-3.5-1.6-4.1-1.7c-0.5-0.1-4.6-1.6-7.2-2.6c-1-0.4-1.9-0.8-2.1-0.8c-0.2-0.1-1-0.4-1.8-0.7
				c-0.8-0.3-1.7-0.7-2-0.8c-0.3-0.1-1.3-0.4-2.2-0.7c-0.9-0.3-2.1-0.7-2.6-0.8c-2.1-0.5-3.4-1.1-4.2-1.8c-0.9-0.9-1-1.5-0.7-4.3
				c0.2-1.9,0.6-2.8,1.9-4.9c0.7-1.1,4.2-4.1,5.1-4.4c0.4-0.1,2-0.7,3.6-1.4c1.6-0.6,3.6-1.4,4.5-1.7c0.9-0.3,1.8-0.6,2.1-0.8
				c0.3-0.1,1.1-0.3,1.9-0.5c2-0.3,2.1-0.4,5.1-1.3c3.5-1.1,4.2-1.3,5-1.3c0.4-0.1,1.9-0.7,3.7-1.6c0.7-0.3,1.4-0.7,1.7-0.8
				c0.9-0.4,4.8-1.5,5.6-1.5c0.4,0,1.4-0.2,2-0.3c0.7-0.1,1.6-0.3,2.2-0.4c2.4-0.4,3.5-0.6,3.8-0.6c0.2,0,0.6-0.1,0.9-0.2
				c0.3-0.1,1.1-0.2,1.8-0.2c1.2-0.1,2.8-0.2,4.2-0.5c2.1-0.4,3.2-0.5,4.5-0.6c2.3,0,5.4-0.3,8.1-0.7c2.6-0.4,4.6-0.6,8-0.6
				c1.2,0,3-0.1,4.1-0.2c7.4-0.7,10.2-0.8,10.6-0.5c0.2,0.2,3.6-0.2,4.6-0.5c0.6-0.2,1.6-0.5,2.3-0.8c0.7-0.2,1.4-0.5,1.5-0.7
				c0.1-0.1,0.8-0.4,1.4-0.7c2.6-1.1,5.4-3.7,6.3-6c1.4-3.4-0.5-7.9-3.6-8.8c-1.3-0.4-3.9-0.6-5.1-0.5c-0.5,0.1-2.2,0.1-3.6,0.1
				c-1.4,0-3.3,0-4.2,0c-0.9,0-2.4-0.1-3.2-0.2c-0.9-0.1-2.5-0.1-3.5,0c-1,0.1-3,0.1-4.3,0.1c-1.3,0-3.2,0-4.2,0
				c-1.7,0.1-4.2,0.1-6.1,0.1c-0.4,0-1.1,0-1.5,0.1c-0.4,0.1-0.9,0-1.2-0.1c-1.4-0.4-5.2-1.3-6.5-1.4c-4.3-0.4-9.8-0.4-11.8,0
				c-2,0.4-7.8,0.5-15.2,0.2c-4.6-0.2-6-0.1-8.6,0.4c-0.3,0.1-1.4,0.4-2.3,0.7c-4.1,1.5-5.3,1.7-5.9,1c-0.2-0.3-0.4-0.6-0.4-0.8
				c0.1-0.7,1.2-1.8,2.9-2.9c0.9-0.6,2.4-1.7,3.3-2.6c0.9-0.8,1.9-1.6,2.2-1.7c0.3-0.1,1.4-0.9,2.5-1.7c1.1-0.8,2.7-1.9,3.6-2.5
				c0.9-0.6,2-1.3,2.3-1.6c0.3-0.3,1.3-1,2.1-1.4c0.8-0.5,2.6-1.6,3.9-2.4c2.6-1.7,3.4-2.2,4.4-2.6c0.4-0.2,1.5-0.7,2.5-1.2
				c1-0.5,2.1-1,2.6-1.1c0.4-0.1,1.1-0.4,1.5-0.7c1.7-1,4-2.3,4.4-2.4c0.2-0.1,1.1-0.5,1.8-1.1c0.7-0.5,1.7-1.1,2.1-1.2
				c0.4-0.1,1.1-0.5,1.6-0.9c0.5-0.4,2-1,3.6-1.4c1.7-0.5,3.1-1,3.8-1.5c0.6-0.4,2.4-2.1,4.4-4c3.2-3.2,3.3-3.3,3.9-4.6
				c0.6-1.6,0.6-3.8-0.2-5.7C624.7,354.7,624.5,354.4,623.5,353.8L623.5,353.8L623.5,353.8z M564.9,483c0.3,0.9,0.5,1.8,0.6,2
				c0.4,1.4,0.9,2.8,1.4,3.6c1.1,1.6,1.2,2.8,0.5,4.7c-0.7,1.8-1.5,3.5-1.7,3.7c-0.1,0.1-0.5,0.8-0.9,1.5c-0.7,1.3-0.9,2.6-0.6,4.4
				c0.4,2.4,0.5,4.9,0.3,5.3c-0.7,1.1-2,1.1-4.7,0.1c-1.7-0.6-4-0.6-7.4-0.1c-0.6,0.1-2.7,0.1-4.8,0.1c-2.1,0-4.2,0-4.7,0.1
				c-1.9,0.3-3.2,0.7-3.6,1c-0.9,0.9-1.6,1.1-2.5,0.9c-0.5-0.1-1.2-0.4-1.5-0.6c-0.4-0.3-1-0.6-3.9-1.6c-0.4-0.1-1.1-0.3-1.6-0.4
				c-0.5-0.1-1.3-0.3-1.7-0.4c-0.4-0.1-1.6-0.4-2.5-0.6c-2.1-0.5-6-1.7-6.2-1.9c-0.1-0.1-0.3-0.2-0.6-0.1c-0.7,0-2.3-1.8-2.7-3.2
				c-0.3-1-0.5-3.8-0.4-6.4c0-0.4,0-1.6,0-2.5c0-1,0.1-2.9,0.2-4.4c0.2-1.4,0.3-2.7,0.3-2.9c0-1.3,1.1-6.9,1.6-8.1
				c0.4-0.9,1.3-1.7,2.1-1.8c0.4,0,1.6-0.2,2.8-0.4c1.2-0.2,2.3-0.3,2.5-0.4c1.7-0.1,3.4-0.3,4.6-0.6c0.8-0.2,1.6-0.4,1.8-0.4
				c0.2,0,0.5-0.1,0.6-0.1c0.4-0.3,5-0.4,7.1-0.2c0.3,0,1.1,0.1,1.9,0.2c1.4,0.2,3.5,0.8,3.8,1.1c0.4,0.4,6,2.6,7.9,3
				c0.8,0.2,1.5,0.4,1.6,0.5c0,0,0.5,0.2,1,0.3c0.5,0.1,1.9,0.5,3.2,0.8c3.8,0.9,4.9,1.3,5.5,2C564.2,481.1,564.7,482.1,564.9,483
				L564.9,483L564.9,483z"/>
		</g>
		<g>
			<path class="st8" d="M514.7,503.6l23.9,3.7c7-1.5,13.6-2.7,19.8-3.5c4.9-0.5,7.7-0.7,8.4-0.6c1.7,0,3.3,0.1,4.7,0.4
				c6.2,1.3,8.8,4.5,7.9,9.6c-1.3,4.2-5.6,7.7-12.8,10.7c-7.1,3-18.7,6.4-35,10.2L514.7,503.6"/>
		</g>
		<g>
			<path class="st3" d="M455.9,515.2l-8-41.9l-8-41.9c-7.2,1.4-14.5,2.8-21.7,4.1c5.3,27.9,10.6,55.8,16,83.7
				C441.4,518,448.7,516.6,455.9,515.2"/>
		</g>
		<g>
			<path class="st8" d="M560.9,524.3l2.1-0.2c6.5-0.6,10.9-1.4,13.4-2.6c1-0.4,2-1,2.8-1.6l1.1-1c1-1.1,1.7-2.5,2.1-4.1
				c0.2-0.9,0.3-1.8,0.3-2.7c0-0.9-0.1-1.9-0.3-2.8l-0.4-1.4c-0.6-1.9-1.5-3.5-2.8-4.9c-1.2-1.4-2.9-2.4-5.2-3l-1.9-0.3
				c-1.3-0.1-2.7-0.1-4.2,0.1l-2.3,0.3c-1.6,0.3-3.2,0.6-4.9,1.1c-2.5,0.6-6.9,2.1-13.3,4.3L560.9,524.3"/>
		</g>
		<g>
			<path class="st13" d="M536.1,586.1c-0.1-0.9,0-1.8,0.3-2.7l0,0l0,0c0,0,0,0,0,0l0.6-1.9l-0.6,1.9l0,0
				C536.1,584.3,536,585.2,536.1,586.1L536.1,586.1z"/>
		</g>
		<g>
			<path class="st13" d="M683.3,543.6l-16.5,56.2L683.3,543.6L683.3,543.6z"/>
		</g>
		<g>
			<path class="st14" d="M678.4,534.7l-110.7-32.5c-3.8-1.1-7.8,1.1-8.9,4.9l-22.4,76.4c-1.1,3.8,1.1,7.8,4.9,8.9l110.7,32.5
				c3.8,1.1,7.8-1.1,8.9-4.9l22.4-76.4C684.4,539.8,682.2,535.8,678.4,534.7"/>
		</g>
		<g>
			<path class="st15" d="M666.8,599.8l-2.3,7.9l-3,10.3l-124.5-36.5l5.3-18.2L666.8,599.8z"/>
		</g>
		<g>
			<path class="st16" d="M652.6,552.8c2.1-7.1-2-14.6-9.1-16.7c-7.1-2.1-14.6,2-16.7,9.1c-2.1,7.1,2,14.6,9.1,16.7
				C643.1,564,650.5,559.9,652.6,552.8"/>
		</g>
		<g>
			<path class="st17" d="M667.7,557.2c2.1-7.1-2-14.6-9.1-16.7c-7.1-2.1-14.6,2-16.7,9.1c-2.1,7.1,2,14.6,9.1,16.7
				C658.1,568.4,665.6,564.3,667.7,557.2"/>
		</g>
		<g>
			<path class="st18" d="M585.3,565.7l2.3-7.7l2.3-7.7c-9.3-2.7-18.6-5.5-27.9-8.2c-1.5,5.1-3,10.3-4.5,15.4
				C566.6,560.3,575.9,563,585.3,565.7"/>
		</g>
		<g>
			<path class="st0" d="M306,747.3L306,747.3l-6.1,6.2l0,0l-5.4,5.6l0,0.1l124.3-0.9l0,0l125-1l0,0l1.2-4.4h0l0,0
				c0.6-2.1,0.9-3.9,1-4.6l0,0l0,0l0-0.1c-3.2-0.2-31.3-0.4-65.1-0.5l0,0l0,0l-4.5,0l-1,0l-1,0c-35.7-0.1-85-0.1-113.5-0.2l0,0l0,0
				L306,747.3z"/>
		</g>
		<g>
			<path class="st0" d="M623.1,746.3L623.1,746.3c-0.6,0-1.9,0.1-3.9,0.2l0,0l-7.6,0.3l-14.7,0.6l0,0c-13.2,0.5-24.2,1-25.8,1.2
				l0,0.1l0,0c0,0,0,0,0,0v0l0-0.1c-0.2,0.6-0.9,2.5-1.5,4.7v0l-1.2,4.1l0.1,0.1l55.1-0.3l0.1-0.1l0-5.4
				C623.4,749.1,623.3,747,623.1,746.3L623.1,746.3L623.1,746.3z"/>
		</g>
		<g>
			<path class="st1" d="M344.9,750.8L344.9,750.8L344.9,750.8L344.9,750.8z"/>
		</g>
		<g>
			<path class="st2" d="M267.4,687.2L267.4,687.2C267.4,687.2,267.4,687.2,267.4,687.2z"/>
		</g>
		<g>
			<path class="st3" d="M301.9,822.7L301.9,822.7L301.9,822.7z"/>
		</g>
		<g>
			<path class="st4" d="M198.6,330.4L198.6,330.4L198.6,330.4L198.6,330.4L198.6,330.4L198.6,330.4L198.6,330.4
				C198.6,330.4,198.6,330.4,198.6,330.4z"/>
		</g>
		<g>
			<path class="st4" d="M209.1,317.9L209.1,317.9L209.1,317.9L209.1,317.9L209.1,317.9L209.1,317.9L209.1,317.9
				C209.1,317.9,209.1,317.9,209.1,317.9z"/>
		</g>
		<g>
			<path class="st5" d="M203.2,330.2L203.2,330.2L203.2,330.2L203.2,330.2L203.2,330.2z M623.5,746.4
				C623.4,746.4,623.4,746.4,623.5,746.4L623.5,746.4L623.5,746.4L623.5,746.4z M546.3,748.3C546.3,748.3,546.3,748.3,546.3,748.3
				L546.3,748.3C546.3,748.3,546.3,748.3,546.3,748.3L546.3,748.3z M570.9,748.7C570.9,748.7,570.9,748.7,570.9,748.7L570.9,748.7
				C570.9,748.7,570.9,748.7,570.9,748.7L570.9,748.7z M306,747.4l54.7,0.1l0,0c29.1,0.1,79.7,0.2,115.6,0.2l4.5,0l0,0
				c33.8,0.1,61.9,0.3,65.1,0.5l0,0c0,0.7-0.4,2.5-1,4.6l0,0l-1.2,4.4l-125,1l0,0l-124.3,0.9l5.4-5.6L306,747.4z M623.1,746.4
				c0.2,0.7,0.3,2.7,0.3,5.3l0,5.4l-55.1,0.3l1.2-4.1c0.6-2.2,1.3-4.1,1.5-4.7l0,0c1.6-0.2,12.6-0.7,25.8-1.2v0l14.7-0.6l7.6-0.3v0
				C621.2,746.5,622.5,746.4,623.1,746.4L623.1,746.4z M201.5,809.1L201.5,809.1L201.5,809.1L201.5,809.1L201.5,809.1z M207.5,330.1
				C207.5,330.1,207.5,330.1,207.5,330.1l-4.2,0.1v0l0,0c-2.3,0.1-9.7,0.5-16.3,1.1l0,0l0,0v0l0,0l0,0c-12.1,0.9-12.3,0.9-37.3,8v0
				c-22.9,6.3-25.6,7.1-25.2,9l0,0l0,0c0.4,1.8,16.5,99.5,36.1,218l7.3,44.3l5.6,34.1c24.7,150.1,26.9,163,27.6,164.2v0
				c0.1,0.2,0.3,0.3,0.5,0.3l0,0c0.1,0.2,0.4,0.8,0.4,1.8l0,2c0,0.1,0.1,0.2,0.1,0.3c0.1,0.1,0.2,0.1,0.3,0.1l462-2.8
				c0.3,0,0.5-0.2,0.5-0.5l0.3-14.7c0.2-8.1,0.3-24.2,0.3-35.8l-0.1-21.1c0-0.3-0.2-0.5-0.5-0.5l-386.7,2.3l0-2.7l0-3.2
				c0-0.2-0.1-0.3-0.2-0.4c-0.1,0-0.1-0.1-0.2-0.1c-0.1,0-0.2,0-0.3,0.1l-1.7,1.1l0,0c-0.5,0.3-0.8,0.5-1,0.6l0,0
				c-0.8-6-27.9-169.8-28.6-172.7l0,0c0,0,0-0.1-0.1-0.2l0,0c-0.1-0.2-0.3-0.2-0.4-0.2l0,0c-0.2,0-0.5-0.1-0.9,0
				c-1.9,0-6.4,0.3-11.6,0.7l0,0c-5,0.3-8,0.5-9.9,0.5c-2.3,0-3-0.2-3.7-0.7l0,0c-1.7-1-2.5-3.3-1.9-5.4l0,0c0.6-2.1,3.6-3,15.4-3.7
				l0,0c6.4-0.3,10.3-0.7,11.1-1.3l0,0c0.1-0.1,0.3-0.2,0.3-0.5c0,0,0-0.1,0-0.1l0,0c-0.1-1-8.2-50.9-18.2-111.4v0l-18.2-110.5
				C207.9,330.2,207.7,330.1,207.5,330.1z"/>
		</g>
		<g>
			<path class="st6" d="M231.3,518.9l5.3-0.4l5.3-0.4c1.6,21.8,3.3,43.6,4.9,65.5c-3.5,0.3-7.1,0.5-10.6,0.8
				C234.6,562.6,233,540.7,231.3,518.9z"/>
		</g>
		<g>
			<path class="st7" d="M152.3,359.6l25.9-8.1l25.9-8.1L265,728.8c-14.9,14.8-29.7,29.5-44.6,44.3L152.3,359.6z"/>
		</g>
		<g>
			<path d="M186.3,462.1l121.6-18.9l121.6-18.9c5,32.1,10,64.2,15,96.3c-81.1,12.6-162.1,25.2-243.2,37.8
				C196.3,526.4,191.3,494.2,186.3,462.1"/>
		</g>
		<g>
			<path class="st8" d="M549.4,508.1L549.4,508.1l21-9.9c3.6,2.5,6.2,4.5,7.5,6.1c1.8,1.9,2.7,4,2.8,6.3c0,2.4-0.9,4.9-2.8,7.4
				c-1.7,2-2.9,3.2-3.5,3.5c-0.9,0.7-1.9,1.4-3,2.1c-4.2,2.7-12.9,5.3-26.2,7.7L549.4,508.1"/>
		</g>
	</g>
	<g>
		<path class="st19" d="M1434.7,796.3l-6.2,5.2c-29.5,10.4-115.8,18.7-259,25c-144.2,6.2-313.9,8.8-509.3,7.6
			c-186.4-1.6-335.6-6.5-447.4-14.5c-35.8-2.6-65.3-5.4-88.5-8.4l-29.2-4.7c-16.1-3.2-24.2-6.6-24.4-10.1
			c4.9-10.8,71.5-19.8,199.8-26.9s289-10.9,482.2-11.2c193.2,0.3,354,4,482.2,11.2C1363.3,776.5,1429.9,785.5,1434.7,796.3"/>
	</g>
</g>
</svg>
