<?xml version="1.0" encoding="utf-8"?>
<!-- Generator: Adobe Illustrator 23.0.1, SVG Export Plug-In . SVG Version: 6.00 Build 0)  -->
<svg version="1.1" id="Layer_1" xmlns="http://www.w3.org/2000/svg" xmlns:xlink="http://www.w3.org/1999/xlink" x="0px" y="0px"
	 viewBox="0 0 950 679" style="enable-background:new 0 0 950 679;" xml:space="preserve">
<style type="text/css">
	.st0{fill-opacity:0.2549;}
	.st1{fill:#5FB4FF;}
	.st2{fill:#D7EDF9;}
	.st3{fill:#FFB79F;}
	.st4{fill:#71CFEB;}
	.st5{fill:#FFFFFF;}
	.st6{fill:#C9D6DE;}
	.st7{fill:#222B32;}
	.st8{fill:#00BCE9;}
	.st9{fill:#FF8688;}
	.st10{fill:#F9AA0E;}
	.st11{fill:#FFC044;}
	.st12{fill:#7D8B96;fill-opacity:0.9961;}
	.st13{fill:#3C464F;fill-opacity:0.9961;}
	.st14{fill:#FBBB8C;}
	.st15{fill:#FCB826;}
	.st16{fill:#4F798E;}
</style>
<g id="layer1">
	<g>
	</g>
	<g>
		<path class="st0" d="M775.8,606.1l-2.8,0.6c-5.8,0.6-16.6,1.1-32.3,1.5c-7.9,0.2-17,0.4-27.3,0.7c-3.6,0.1-21.9,0.4-54.9,0.8
			c-28.3,0.3-58.9,0.6-91.7,0.7c-16.4,0.1-33.3,0.1-50.9,0.2c-8.1,0-35.6,0-82.6,0c-44.4-0.1-70-0.3-76.9-0.3
			c-15.9-0.1-30.9-0.2-45.2-0.4c-28.5-0.3-53.7-0.6-75.6-1.1c-49-1-69.4-2.1-61.1-3.2c3.7-0.6,12.7-1.1,27.1-1.5
			c7.2-0.2,15.8-0.5,25.7-0.7c3.4-0.1,21.2-0.4,53.2-0.9c53.2-0.7,117.8-1,193.7-1.1c37.9,0,73.1,0.1,105.3,0.3
			c16.1,0.1,31.6,0.2,46.3,0.3c35.6,0.4,56.1,0.6,61.5,0.7c25.2,0.4,45,0.8,59.4,1.3c7.2,0.2,13.1,0.5,17.6,0.7
			C773.5,605.6,777.2,606,775.8,606.1"/>
	</g>
	<g>
		<path class="st1" d="M259.7,287.9C259.7,287.9,259.6,287.9,259.7,287.9L259.7,287.9c-6.9,0-12.2,5.3-12.2,12.2l0,245.6
			c0,6.9,5.3,12.2,12.2,12.2l0,0l419.6,0l0,0c6.9,0,12.2-5.3,12.2-12.2V300.1c0-6.9-5.3-12.2-12.1-12.2l0,0c0,0,0,0,0,0L259.7,287.9
			z"/>
	</g>
	<g>
		<path d="M259.7,272.8c-15,0-27.3,12.3-27.3,27.3v245.6c0,15,12.3,27.3,27.3,27.3l419.6,0c15,0,27.3-12.3,27.3-27.3l0-245.6
			c0-15-12.3-27.3-27.3-27.3L259.7,272.8L259.7,272.8z M259.7,288.4l419.6,0c6.6,0,11.7,5.1,11.7,11.7v245.6
			c0,6.6-5.1,11.7-11.7,11.7l-419.6,0c-6.6,0-11.7-5.1-11.7-11.7l0-245.6C248,293.5,253.1,288.4,259.7,288.4L259.7,288.4z"/>
	</g>
	<g>
		<path d="M430.4,583.8l78.1,0c1.2,0,2.2,1,2.2,2.2c0,1.2-1,2.2-2.2,2.2l-78.1,0c-1.2,0-2.2-1-2.2-2.2
			C428.3,584.8,429.2,583.8,430.4,583.8z"/>
	</g>
	<g>
		<path class="st2" d="M523.1,639.8L523.1,639.8L523.1,639.8L523.1,639.8"/>
	</g>
	<g>
		<path class="st3" d="M705.5,521.3L705.5,521.3L705.5,521.3L705.5,521.3"/>
	</g>
	<g>
		<path d="M207.4,577.5c0,16.5,11.4,29.8,25.5,29.8l473.1,0c14.1,0,25.5-13.3,25.5-29.8H207.4L207.4,577.5z"/>
	</g>
	<g>
		<path class="st4" d="M637.1,388.5c4.9-0.7,8.3-5.3,7.6-10.2c-0.7-4.9-5.3-8.3-10.2-7.6c-4.9,0.7-8.3,5.3-7.6,10.2
			C627.6,385.9,632.2,389.3,637.1,388.5z"/>
	</g>
	<g>
		<path class="st4" d="M642.8,386.8c-1.5,1.6-3.6,2.8-6,3.1c-2.3,0.3-4.6-0.1-6.5-1.2c-5.5,1.7-9.1,7.3-8.2,13.2
			c1,6.6,5.7,1.5,12.2,0.5l9.6-1.4c6.6-1,12.5,2.5,11.5-4.1C654.5,390.9,649,386.5,642.8,386.8z"/>
	</g>
	<g>
		<path class="st5" d="M538.4,379.1l77.7-11.5l77.7-11.5c6.7,45.4,13.4,90.9,20.2,136.3l-155.5,23
			C551.9,470,545.2,424.6,538.4,379.1"/>
	</g>
	<g>
		<path class="st6" d="M573.1,432.2l51.5-7.6l51.5-7.6c1,6.7,2,13.4,3,20c-34.3,5.1-68.6,10.1-102.9,15.2
			C575.1,445.6,574.1,438.9,573.1,432.2"/>
	</g>
	<g>
		<path class="st7" d="M586.1,434.8l0.7,4.4l-4.2-0.7l-0.5,3.2l4.2,0.7l-2.1,3.9l2.8,1.5l2.1-4l3.1,3.2l2.3-2.2l-3-3l3.9-2L594,437
			l-4.1,2l-0.7-4.7L586.1,434.8z"/>
	</g>
	<g>
		<path class="st7" d="M602.3,432.4l0.7,4.4l-4.2-0.7l-0.5,3.2l4.2,0.7l-2.1,3.9l2.8,1.5l2.1-4l3.1,3.2l2.3-2.2l-3-3l3.9-2l-1.4-2.8
			l-4.1,2l-0.7-4.7L602.3,432.4z"/>
	</g>
	<g>
		<path class="st7" d="M618.6,430l0.7,4.4l-4.2-0.7l-0.5,3.2l4.2,0.7l-2.1,3.9l2.8,1.5l2.1-4l3.1,3.2l2.3-2.2l-3-3l3.9-2l-1.4-2.8
			l-4.1,2l-0.7-4.7L618.6,430z"/>
	</g>
	<g>
		<path class="st7" d="M634.9,427.6l0.7,4.4l-4.2-0.7l-0.5,3.2l4.2,0.7l-2.1,3.9l2.8,1.5l2.1-4l3.1,3.2l2.3-2.2l-3-3l3.9-2l-1.4-2.8
			l-4.1,2l-0.7-4.7L634.9,427.6z"/>
	</g>
	<g>
		<path class="st6" d="M577,458.6L680,443.3l3,20L580,478.6L577,458.6"/>
	</g>
	<g>
		<path class="st7" d="M589.9,459.2l0.7,4.4l-4.2-0.7l-0.5,3.2l4.2,0.7l-2.1,3.9l2.8,1.5l2.1-4l3.1,3.2l2.3-2.2l-3-3l3.9-2l-1.4-2.8
			l-4.1,2l-0.7-4.7L589.9,459.2z"/>
	</g>
	<g>
		<path class="st7" d="M606.2,456.8l0.7,4.4l-4.2-0.7l-0.5,3.2l4.2,0.7l-2.1,3.9l2.8,1.5l2.1-4l3.1,3.2l2.3-2.2l-3-3l3.9-2l-1.4-2.8
			l-4.1,2l-0.7-4.7L606.2,456.8z"/>
	</g>
	<g>
		<path class="st7" d="M622.5,454.4l0.7,4.4l-4.2-0.7l-0.5,3.2l4.2,0.7l-2.1,3.9l2.8,1.5l2.1-4l3.1,3.2l2.3-2.2l-3-3l3.9-2l-1.4-2.8
			l-4.1,2l-0.7-4.7L622.5,454.4z"/>
	</g>
	<g>
		<path class="st8" d="M601.8,483.8l30.9-4.6l30.9-4.6c0.8,5.7,1.7,11.4,2.5,17.1c-20.6,3-41.2,6.1-61.8,9.1
			C603.5,495.2,602.6,489.5,601.8,483.8"/>
	</g>
	<g>
		<path class="st5" d="M638.3,481c-0.1,0-0.2,0-0.3,0.1c-0.1,0-0.2,0.1-0.3,0.1c0,0.1,0,0.2,0,0.3c0,0.1,0,0.2,0,0.3
			c0,0.1,0,0.2,0.1,0.3c0,0.1,0,0.2,0.1,0.3c0.1,0,0.2,0,0.4,0c0.1,0,0.2,0,0.3,0c0.1,0,0.2,0,0.3-0.1c0.1,0,0.2-0.1,0.3-0.1
			c0-0.1,0-0.2,0-0.3c0-0.1,0-0.2,0-0.3c0-0.1,0-0.2-0.1-0.3c0-0.1,0-0.2-0.1-0.3c-0.1,0-0.2,0-0.3,0C638.5,481,638.4,481,638.3,481
			z M633.4,485.3c0.4-0.1,0.8,0,1.1,0.2c0.3,0.2,0.4,0.5,0.5,0.9c0.1,0.4,0,0.7-0.2,1c-0.2,0.3-0.5,0.5-0.9,0.5
			c-0.4,0.1-0.8,0-1.1-0.2c-0.2-0.2-0.4-0.5-0.5-0.9c-0.1-0.4,0-0.7,0.2-1C632.7,485.5,633,485.3,633.4,485.3z M626.6,486.4
			c0.6-0.1,1,0.1,1.4,0.4c0.3,0.4,0.6,0.9,0.7,1.7c0.1,0.7,0.1,1.3-0.2,1.8c-0.2,0.5-0.6,0.7-1.2,0.8c-0.6,0.1-1-0.1-1.4-0.4
			c-0.3-0.4-0.5-0.9-0.7-1.7c-0.1-0.7-0.1-1.3,0.2-1.8C625.6,486.7,626,486.5,626.6,486.4z M637.5,483.9c0,0.1,0,0.1,0,0.2
			c0,0.1,0,0.2,0,0.3c0,0.1,0,0.2,0.1,0.3c0,0.1,0,0.2,0.1,0.2l0.8-0.1l0.8,5.4c0.1,0,0.2,0,0.3,0c0.1,0,0.2,0,0.3,0
			c0.1,0,0.2,0,0.3-0.1c0.1,0,0.2-0.1,0.3-0.1l-0.9-6.4L637.5,483.9z M644.7,482.7c-0.3,0-0.5,0.1-0.7,0.2c-0.2,0.1-0.4,0.2-0.5,0.4
			c-0.1,0.1-0.3,0.3-0.4,0.4c-0.1,0.2-0.2,0.3-0.2,0.5c0-0.1-0.1-0.3-0.1-0.5c-0.1-0.2-0.1-0.4-0.1-0.5c-0.1,0-0.2,0-0.3,0
			c-0.1,0-0.2,0-0.3,0c-0.1,0-0.2,0-0.3,0.1c-0.1,0-0.2,0-0.3,0.1l0.9,6.4c0.1,0,0.2,0,0.3,0s0.2,0,0.3,0c0.1,0,0.2,0,0.3-0.1
			c0.1,0,0.2-0.1,0.3-0.1l-0.5-3.2c-0.1-0.4-0.1-0.7,0-1c0.1-0.3,0.1-0.5,0.3-0.7c0.1-0.2,0.3-0.4,0.5-0.5c0.2-0.1,0.4-0.2,0.6-0.2
			c0.4-0.1,0.7,0,0.9,0.3c0.2,0.2,0.4,0.7,0.5,1.3l0.5,3.7c0.1,0,0.2,0,0.3,0c0.1,0,0.2,0,0.3,0c0.1,0,0.2,0,0.3-0.1
			c0.1,0,0.2-0.1,0.3-0.1l-0.6-4c-0.1-0.8-0.4-1.4-0.8-1.8C646,482.7,645.4,482.6,644.7,482.7z M620.3,483.6c-0.1,0-0.2,0-0.3,0.1
			c-0.1,0-0.2,0.1-0.3,0.1l1.1,7.5c0,0.3,0.1,0.6,0.3,0.8c0.1,0.2,0.3,0.4,0.5,0.5c0.2,0.1,0.4,0.2,0.6,0.2c0.2,0,0.4,0,0.7,0
			c0.1,0,0.3-0.1,0.5-0.1c0.2,0,0.3-0.1,0.4-0.1c-0.1-0.3-0.1-0.6-0.3-0.9c-0.1,0-0.1,0.1-0.2,0.1c-0.1,0-0.2,0-0.2,0
			c-0.1,0-0.2,0-0.3,0c-0.1,0-0.2,0-0.3-0.1c-0.1-0.1-0.1-0.1-0.2-0.3c-0.1-0.1-0.1-0.3-0.1-0.5l-1.1-7.2c-0.1,0-0.2,0-0.3,0
			C620.5,483.6,620.4,483.6,620.3,483.6z M626.4,485.4c-0.5,0.1-0.9,0.2-1.3,0.5c-0.3,0.2-0.6,0.5-0.8,0.8c-0.2,0.3-0.3,0.7-0.4,1.1
			c-0.1,0.4,0,0.9,0,1.3c0.1,0.5,0.2,0.9,0.4,1.3c0.2,0.4,0.4,0.7,0.7,1c0.3,0.3,0.6,0.5,1,0.6c0.4,0.1,0.8,0.1,1.3,0.1
			c0.5-0.1,0.9-0.2,1.3-0.5c0.3-0.2,0.6-0.5,0.8-0.8c0.2-0.3,0.3-0.7,0.4-1.1c0.1-0.4,0-0.9,0-1.3c-0.1-0.5-0.2-0.9-0.4-1.3
			c-0.2-0.4-0.4-0.7-0.7-1c-0.3-0.3-0.6-0.5-1-0.6C627.4,485.3,626.9,485.3,626.4,485.4z M633.7,491.1
			C633.7,491.1,633.7,491.1,633.7,491.1l1.5-0.2c0.4-0.1,0.7,0,0.9,0.1c0.2,0.1,0.3,0.3,0.3,0.5c0,0.3-0.1,0.6-0.4,0.9
			c-0.3,0.3-0.8,0.5-1.5,0.6c-0.2,0-0.4,0-0.6,0c-0.2,0-0.4,0-0.5-0.1c-0.1,0-0.3-0.1-0.4-0.2c-0.1-0.1-0.2-0.2-0.2-0.4
			c0-0.3,0-0.6,0.2-0.8C633.1,491.3,633.3,491.2,633.7,491.1z M633.3,484.4c-0.4,0.1-0.8,0.2-1.1,0.3s-0.6,0.4-0.7,0.6
			c-0.2,0.2-0.3,0.5-0.4,0.8c-0.1,0.3-0.1,0.6,0,0.9c0.1,0.4,0.2,0.7,0.4,1c0.2,0.3,0.5,0.5,0.8,0.6c-0.2,0.2-0.4,0.4-0.5,0.7
			c-0.1,0.2-0.1,0.5-0.1,0.8c0,0.2,0.1,0.4,0.3,0.6c0.1,0.1,0.3,0.3,0.5,0.3c-0.3,0.2-0.5,0.5-0.6,0.8c-0.1,0.3-0.2,0.6-0.1,0.9
			c0.1,0.6,0.4,1,0.9,1.2c0.5,0.2,1.2,0.2,2,0.1c0.5-0.1,0.9-0.2,1.3-0.4c0.4-0.2,0.7-0.4,1-0.6c0.3-0.2,0.5-0.5,0.6-0.8
			c0.1-0.3,0.2-0.6,0.1-0.9c-0.1-0.5-0.3-0.9-0.7-1.2c-0.4-0.2-0.9-0.3-1.7-0.2l-1.7,0.2c-0.4,0-0.6,0-0.7-0.1
			c-0.1-0.1-0.2-0.2-0.2-0.4c0-0.2,0-0.3,0.1-0.5c0.1-0.1,0.2-0.3,0.3-0.3c0.3,0,0.6,0,0.9,0c0.4-0.1,0.7-0.2,1-0.3
			c0.3-0.1,0.6-0.3,0.8-0.6c0.2-0.2,0.3-0.5,0.4-0.8c0.1-0.3,0.1-0.6,0.1-0.9c0-0.2-0.1-0.4-0.2-0.6c-0.1-0.2-0.2-0.3-0.3-0.4
			l1.1-0.2c0-0.1,0-0.2,0-0.3c0-0.1,0-0.2,0-0.3c0-0.2-0.1-0.4-0.1-0.5c-0.3,0.1-0.6,0.1-0.9,0.3c-0.3,0.1-0.5,0.3-0.6,0.4
			c-0.2-0.1-0.5-0.2-0.8-0.3C634,484.3,633.7,484.3,633.3,484.4z"/>
	</g>
	<g>
		<path class="st9" d="M719.5,282c0.2,0.4,0.4,0.9,0.6,1.3c2.1,3.3,6.5,4.3,9.8,2.3c3.3-2.1,4.3-6.5,2.3-9.8
			c-2.1-3.3-6.5-4.3-9.8-2.3C719.5,275.2,718.3,278.9,719.5,282z"/>
	</g>
	<g>
		<path class="st10" d="M731.3,305.8c1.4,3.7,5.5,5.5,9.2,4.1c3.7-1.4,5.5-5.5,4.1-9.2c-1.4-3.7-5.5-5.5-9.2-4.1
			C731.8,298,729.9,302.1,731.3,305.8z"/>
	</g>
	<g>
		<path class="st11" d="M738,330.2c0.1,0.5,0.2,0.9,0.4,1.3c1.2,3.1,4.5,5.1,7.9,4.5c3.9-0.6,6.5-4.4,5.8-8.3
			c-0.7-3.9-4.3-6.5-8.3-5.8C739.9,322.6,737.3,326.3,738,330.2z"/>
	</g>
	<g>
		<path class="st12" d="M725.7,323.8L725.7,323.8L725.7,323.8L725.7,323.8"/>
	</g>
	<g>
		<path class="st13" d="M712.1,314.9L712.1,314.9L712.1,314.9L712.1,314.9L712.1,314.9L712.1,314.9L712.1,314.9
			C712.1,314.9,712.1,314.9,712.1,314.9"/>
	</g>
	<g>
		<path class="st13" d="M717,315L717,315L717,315L717,315L717,315L717,315L717,315L717,315"/>
	</g>
	<g>
		<path class="st14" d="M659.4,260.6L659.4,260.6L659.4,260.6L659.4,260.6L659.4,260.6c1.9,0.4,4.1,0.8,4.7,0.9
			c2.6,0.5,10.2,1.6,12.6,1.9c1.5,0.2,4.1,0.5,5.8,0.8c3.9,0.6,22.2,2.4,26.9,2.7c1.9,0.1,4.1,0.3,4.9,0.4c0.8,0.1,3.1,0.2,5.2,0.3
			c2.1,0.1,4.9,0.2,6.3,0.3c6.9,0.4,31.9-4.3,39.7-7.5c9.3-3.8,12.5-5,15.1-5.9c1.6-0.5,4.5-1.6,6.5-2.4c2-0.8,6.3-2.1,9.6-2.9
			c8-1.6,17.3-1.2,17.3-1.2c2.7,0.1,7,0.3,11.7,0.5c7,0.3,9,0.4,10.6,0.6c0.9,0.1,2.7,0.2,3.7,0.2c3.8,0.1,7.1,0.3,8.3,0.5
			c0.6,0.1,2.7,0.2,4.6,0.3c6.5,0.3-37.7-1.6,0.4-0.2l20.5,3.5c6.6,71.4-1.1,69.5-1.1,69.5c-0.7-0.2-1.7-0.5-2.2-0.6
			c-0.5-0.1-1.3-0.3-1.8-0.4c-0.5-0.1-3.6-0.8-6.9-1.6c-3.3-0.8-7.6-1.8-9.5-2.1c-1.9-0.4-4.6-0.9-5.9-1.1
			c-7.1-1.4-12.6-1.9-20.4-2.2c-3.1-0.1-9.2,1.3-11.5,2.6c-3,1.7-5.6,3.9-7.8,6.3c-2.1,2.4-3.4,3.7-4.6,4.6c-0.4,0.3-2,1.8-3.5,3.3
			c-7.3,7-14.5,11-31.9,18.2c-12.6,5.2-23.3,12-30.7,19.6c-1.4,1.4-3,3-3.6,3.5c-0.9,0.7-6.3,7.1-9.3,10.8c-0.8,1-6.8,9.3-10.6,14.7
			c-2.7,3.9-6.4,7-8.2,6.9c-3.7-0.1-7.7-4-8.7-8.4c-0.5-2.4-0.3-8.4,0.4-9.1c0.2-0.3,0.3-0.8,0.2-1.2c-0.2-1,2.3-6.8,5.2-12.1
			c2.3-4.2,9.3-14.1,13.1-18.6c1.2-1.5,2.5-2.9,2.7-3.2c1.4-1.8,9.4-10.5,9.7-10.6c0.2,0,0.9-0.8,1.7-1.7c2.2-2.5,8.5-8.5,9-8.6
			c0.3-0.1,0.9-0.7,1.2-1.4c0.7-1.2,0.3-1.3-10.5-2.2c-6.1-0.6-11.8-1.1-12.6-1.1c-8-0.8-21.3,1.5-27.8,4.8
			c-4.7,2.4-11.6,6.3-13.4,7.6c-0.8,0.6-1.8,1.2-2.1,1.3c-0.3,0.1-1,0.5-1.4,0.9c-0.4,0.4-2.6,1.9-4.7,3.4
			c-5.5,3.7-7.1,4.8-12.6,8.9c-1.8,1.4-3.5,2.5-3.8,2.6c-0.3,0.1-1.1,0.6-1.8,1.2c-2.4,2-4.9,3.7-5.6,3.9c-0.4,0.1-0.9,0.5-1.1,0.8
			c-0.2,0.3-1.7,1.3-3.2,2.2c-1.5,0.9-3.3,2-3.9,2.4c-0.7,0.4-3.3,1.6-5.8,2.6c-4,1.7-5,1.9-8.9,1.9c-9.5,0.1-14.7-2.9-13.2-7.9
			c0.9-3,3.6-5,11.7-8.7c9.8-4.6,17.1-9.7,21.1-14.8c3.2-4.1,11.6-12.7,17-17.3c6.9-6,6.9-6.6-0.4-5c-2.8,0.6-7,1.2-9.5,1.3
			c-2.5,0.1-5.3,0.3-6.1,0.5c-2.5,0.6-9.6,0.5-15.1-0.2c-8.6-1.1-16.3-3.7-21-7c-4.7-3.3-5.6-6.7-3.2-10.6c1.6-2.5,2.6-2.7,5.7-1.6
			c1.4,0.5,2.8,0.8,3.2,0.7c0.4-0.1,1,0,1.3,0.2c0.9,0.6,14.5,2.5,15.8,2.2c0.6-0.1,2.2-0.1,3.7,0.1c2.8,0.3,16.8-2.6,20.8-4.3
			c2.2-1,2.6-2.5,0.6-2.4c-0.6,0-3.5-0.2-6.3-0.5c-19.4-2.1-30.4-7.4-26-12.7c1.6-2,2.9-2.6,5.5-2.5c2.5,0,7.5,0,15.6-0.3
			c2.6-0.1,5.9-0.2,7.3-0.2c2.6,0,6.8-0.3,13.7-0.9c2.1-0.2,5-0.4,6.4-0.4c3.6,0,10-0.9,10.5-1.4c0.4-0.4-3.5-2.3-4.3-2.1
			c-0.2,0-1.3-0.3-2.4-0.9c-1.1-0.5-2.2-0.9-2.4-0.9c-0.2,0-1.5-0.4-2.8-1.1c-1.3-0.6-2.6-1.1-2.8-1.1c-0.3,0.1-1.5-0.5-2.7-1.1
			c-1.2-0.7-3-1.4-3.8-1.6c-1.6-0.5-6.4-3.6-6.6-4.4c-0.1-0.3,0.2-1.1,0.6-1.8C652.6,260.5,655.4,259.8,659.4,260.6L659.4,260.6
			L659.4,260.6L659.4,260.6L659.4,260.6z"/>
	</g>
	<g>
		<path d="M949.4,211.9l-142.2,12.9l11,121.4l131.2-11.9L949.4,211.9z"/>
	</g>
	<g>
		<path class="st5" d="M949.4,211.9l-11.2,1l11,121.4l0.1,0L949.4,211.9z"/>
	</g>
	<g>
		<path class="st5" d="M892.3,339.5c-3.7-40.5-7.4-80.9-11-121.4l6.4-0.6c1.9-0.2,3.9-0.4,5.8-0.5l0,0c-4.1,0.4-8.2,0.7-12.2,1.1
			l14.1-1.3l0,0c-0.6,0.1-1.2,0.1-1.9,0.2l0,0c0.9-0.1,1.8-0.2,2.7-0.2l0,0l-0.8,0.1l0,0c5.3-0.5,10.6-1,15.8-1.4
			c3.7,40.5,7.4,80.9,11.1,121.4L892.3,339.5L892.3,339.5z"/>
	</g>
	<g>
		<path class="st5" d="M835.4,344.7l-11-121.4c10-0.9,20-1.8,29.9-2.7L865.3,342L835.4,344.7z"/>
	</g>
	<g>
		<path class="st15" d="M551.7,321.7c-24.7-0.1-44.7,19.8-44.7,44.5l-0.1,49.6l12.4,0l0.1-49.6c0-17.8,14.5-32.2,32.3-32.1
			c17.8,0.1,32.2,14.5,32.1,32.3l-0.1,49.6l12.4,0l0.1-49.6C596.3,341.7,576.5,321.8,551.7,321.7z"/>
	</g>
	<g>
		<path class="st15" d="M528.5,412.6l-136.4-0.4l-0.3,105.6l136.4,0.4L528.5,412.6z M528.5,412.6l-136.4-0.4l-0.3,105.6l136.4,0.4
			L528.5,412.6z M528.5,412.6l-136.4-0.4l-0.3,105.6l136.4,0.4L528.5,412.6z M528.5,412.6l-136.4-0.4l-0.3,105.6l136.4,0.4
			L528.5,412.6z"/>
	</g>
	<g>
		<path class="st16" d="M447.1,469.4l0.2,1.5c0.7,3,2.3,5.3,4.9,7c2.6,1.7,5.6,2.2,9,1.7c3.2-0.7,5.7-2.2,7.5-4.7
			c0.6-0.8,1-1.6,1.4-2.5l0.4-1.4c0.2-1,0.3-1.9,0.2-3c-0.3-3.1-1.6-5.7-3.9-7.6c-2.3-1.9-5.2-2.9-8.6-2.7c-3.3,0.3-6.1,1.5-8.2,3.7
			C448,463.6,447,466.3,447.1,469.4"/>
	</g>
	<g>
		<path class="st16" d="M454.5,472.9L454.5,472.9l-6.1,34.3c7.5-0.1,14.9-0.3,22.4-0.4c-2.7-11.5-5.3-23.1-8-34.6L454.5,472.9"/>
	</g>
</g>
</svg>
