<?xml version="1.0" encoding="utf-8"?>
<!-- Generator: Adobe Illustrator 23.0.1, SVG Export Plug-In . SVG Version: 6.00 Build 0)  -->
<svg version="1.1" id="Layer_1" xmlns="http://www.w3.org/2000/svg" xmlns:xlink="http://www.w3.org/1999/xlink" x="0px" y="0px"
	 viewBox="0 0 3412.9 3000" style="enable-background:new 0 0 3412.9 3000;" xml:space="preserve">
<style type="text/css">
	.st0{fill:#7209B7;stroke:#FF00A5;stroke-miterlimit:10;}
	.st1{fill:#FF9100;stroke:#FF9100;stroke-miterlimit:10;}
	.st2{fill:#F1C28C;}
	.st3{display:none;}
	.st4{display:inline;}
	.st5{fill:#7A3613;}
	.st6{fill:#161813;}
	.st7{fill:#FED6A7;}
	.st8{fill:#FFD7A7;}
	.st9{fill:#007BD0;stroke:#D08100;stroke-miterlimit:10;}
	.st10{fill:#1B1209;}
	.st11{fill:#1A1208;}
	.st12{fill:#FED7A6;}
	.st13{fill-opacity:0;stroke:#8C8E9F;stroke-width:3;}
	.st14{fill:#303CB0;}
	.st15{fill:#1E2CB0;}
	.st16{fill:#313DB0;}
</style>
<g>
	<g>
		<g>
			<g>
				<path id="a1EtNsCAdY" class="st0" d="M3258.4,1411.3c0,778.9-679.5,1411.2-1516.5,1411.2S225.4,2190.1,225.4,1411.3
					S904.9,0,1741.9,0S3258.4,632.4,3258.4,1411.3z"/>
			</g>
		</g>
		<g>
			<g>
				<g>
					<path id="f7aEAFpF" class="st1" d="M1344.3,531.8c16.6,0,30,13.4,30,30c0,6.2,0-5.1,0,1.1c0,16.6-13.4,30-30,30
						c-125.9,0-473.6,0-599.5,0c-16.5,0-30-13.4-30-30c0-6.2,0,5.1,0-1.1c0-16.5,13.4-30,30-30
						C870.7,531.8,1218.4,531.8,1344.3,531.8z"/>
				</g>
			</g>
			<g>
				<g>
					<path id="a1f6wZnKYF" class="st1" d="M1859.7,531.8c11.3,0,20.4,9.2,20.4,20.4c0,8.1,0,12,0,20.2c0,11.3-9.2,20.4-20.4,20.4
						c-85.8,0-322.9,0-408.7,0c-11.3,0-20.4-9.2-20.4-20.4c0-8.1,0-12,0-20.2c0-11.3,9.1-20.4,20.4-20.4
						C1536.8,531.8,1773.8,531.8,1859.7,531.8z"/>
				</g>
			</g>
			<g>
				<g>
					<path id="b4gUSdimuD" class="st1" d="M2760,531.8c16.8,0,30.5,13.7,30.5,30.5c0,6.1,0-6.1,0,0c0,16.8-13.7,30.5-30.5,30.5
						c-166.3,0-634.5,0-800.7,0c-16.8,0-30.5-13.7-30.5-30.5c0-6.1,0,6.1,0,0c0-16.8,13.7-30.5,30.5-30.5
						C2125.6,531.8,2593.8,531.8,2760,531.8z"/>
				</g>
			</g>
			<g>
				<g>
					<path id="e2QlLaaBzh" class="st1" d="M1549.8,665.3c16.8,0,30.5,13.7,30.5,30.5c0,6.1,0-6.1,0,0c0,16.8-13.7,30.5-30.5,30.5
						c-166.2,0-634.5,0-800.7,0c-16.9,0-30.5-13.7-30.5-30.5c0-6.1,0,6.1,0,0c0-16.8,13.7-30.5,30.5-30.5
						C915.4,665.3,1383.6,665.3,1549.8,665.3z"/>
				</g>
			</g>
			<g>
				<g>
					<path id="a6khcWcu1J" class="st1" d="M2050.7,665.3c11.3,0,20.4,9.1,20.4,20.4c0,8.1,0,12,0,20.2c0,11.3-9.1,20.4-20.4,20.4
						c-85.8,0-322.9,0-408.7,0c-11.3,0-20.4-9.2-20.4-20.4c0-8.1,0-12,0-20.2c0-11.3,9.2-20.4,20.4-20.4
						C1727.8,665.3,1964.9,665.3,2050.7,665.3z"/>
				</g>
			</g>
			<g>
				<g>
					<path id="d1JdSrYFf" class="st1" d="M2537.8,665.3c11.3,0,20.4,9.1,20.4,20.4c0,8.1,0,12,0,20.2c0,11.3-9.1,20.4-20.4,20.4
						c-85.8,0-322.9,0-408.7,0c-11.3,0-20.4-9.2-20.4-20.4c0-8.1,0-12,0-20.2c0-11.3,9.1-20.4,20.4-20.4
						C2214.9,665.3,2452,665.3,2537.8,665.3z"/>
				</g>
			</g>
			<g>
				<g>
					<path id="dxbTbM5o5" class="st1" d="M2774.2,665.3c4.9,0,8.9,4,8.9,8.8c0,10.4,0,32.9,0,43.3c0,4.9-4,8.9-8.9,8.9
						c-37.2,0-139.9,0-177.1,0c-4.9,0-8.9-4-8.9-8.9c0-10.4,0-32.9,0-43.3c0-4.9,4-8.8,8.9-8.8
						C2634.3,665.3,2737,665.3,2774.2,665.3z"/>
				</g>
			</g>
			<g>
				<g>
					<path id="b1w0BP5goR" class="st1" d="M1418.7,787.4c16.9,0,30.5,13.7,30.5,30.5c0,6.1,0-6.1,0,0c0,16.9-13.7,30.5-30.5,30.5
						c-140,0-529.6,0-669.6,0c-16.9,0-30.5-13.7-30.5-30.5c0-6.1,0,6.1,0,0c0-16.8,13.7-30.5,30.5-30.5
						C889.2,787.4,1278.7,787.4,1418.7,787.4z"/>
				</g>
			</g>
			<g>
				<g>
					<path id="c3h6TN90Ag" class="st1" d="M1919.6,787.4c11.3,0,20.4,9.2,20.4,20.4c0,8.1,0,12,0,20.2c0,11.3-9.1,20.4-20.4,20.4
						c-85.8,0-322.9,0-408.7,0c-11.3,0-20.4-9.2-20.4-20.4c0-8.1,0-12,0-20.2c0-11.3,9.2-20.4,20.4-20.4
						C1596.7,787.4,1833.8,787.4,1919.6,787.4z"/>
				</g>
			</g>
			<g>
				<g>
					<path id="d2g2MMIHI1" class="st1" d="M2756.3,791.2c16.8,0,30.5,13.7,30.5,30.5c0,6.1,0-6.1,0,0c0,16.8-13.7,30.5-30.5,30.5
						c-157.3,0-598.5,0-755.8,0c-16.9,0-30.5-13.7-30.5-30.5c0-6.1,0,6.1,0,0c0-16.9,13.7-30.5,30.5-30.5
						C2157.8,791.2,2599,791.2,2756.3,791.2z"/>
				</g>
			</g>
			<g>
				<g>
					<path id="ajY6Y00na" class="st1" d="M2161.1,928.5c-16.6,0-30,13.4-30,30c0,6.2,0-5.1,0,1.1c0,16.5,13.4,30,30,30
						c125.9,0,473.6,0,599.5,0c16.6,0,30-13.4,30-30c0-6.2,0,5.1,0-1.1c0-16.6-13.4-30-30-30C2634.7,928.5,2287,928.5,2161.1,928.5z
						"/>
				</g>
			</g>
			<g>
				<g>
					<path id="caD0Uka0d" class="st1" d="M1645.8,928.5c-11.3,0-20.4,9.2-20.4,20.4c0,8.1,0,12,0,20.2c0,11.3,9.2,20.4,20.4,20.4
						c85.8,0,322.9,0,408.7,0c11.3,0,20.4-9.2,20.4-20.4c0-8.1,0-12,0-20.2c0-11.3-9.1-20.4-20.4-20.4
						C1968.7,928.5,1731.6,928.5,1645.8,928.5z"/>
				</g>
			</g>
			<g>
				<g>
					<path id="bEas5YiM8" class="st1" d="M745.4,928.5c-16.8,0-30.5,13.7-30.5,30.5c0,6.1,0-6.1,0,0c0,16.8,13.7,30.5,30.5,30.5
						c166.2,0,634.5,0,800.7,0c16.8,0,30.5-13.7,30.5-30.5c0-6.1,0,6.1,0,0c0-16.9-13.7-30.5-30.5-30.5
						C1379.9,928.5,911.6,928.5,745.4,928.5z"/>
				</g>
			</g>
			<g>
				<g>
					<path id="aYMqr52dD" class="st1" d="M1955.6,1062c-16.8,0-30.5,13.7-30.5,30.5c0,6.1,0-6.1,0,0c0,16.9,13.7,30.5,30.5,30.5
						c166.2,0,634.5,0,800.7,0c16.8,0,30.5-13.7,30.5-30.5c0-6.1,0,6.1,0,0c0-16.8-13.7-30.5-30.5-30.5
						C2590,1062,2121.8,1062,1955.6,1062z"/>
				</g>
			</g>
			<g>
				<g>
					<path id="a511i28sX" class="st1" d="M1454.7,1062c-11.3,0-20.4,9.2-20.4,20.4c0,8.1,0,12,0,20.2c0,11.3,9.1,20.4,20.4,20.4
						c85.8,0,322.9,0,408.7,0c11.3,0,20.4-9.1,20.4-20.4c0-8.1,0-12,0-20.2c0-11.3-9.2-20.4-20.4-20.4
						C1777.6,1062,1540.5,1062,1454.7,1062z"/>
				</g>
			</g>
			<g>
				<g>
					<path id="a66UffyFLH" class="st1" d="M967.6,1062c-11.3,0-20.4,9.2-20.4,20.4c0,8.1,0,12,0,20.2c0,11.3,9.1,20.4,20.4,20.4
						c85.8,0,322.9,0,408.7,0c11.3,0,20.4-9.1,20.4-20.4c0-8.1,0-12,0-20.2c0-11.3-9.2-20.4-20.4-20.4
						C1290.5,1062,1053.4,1062,967.6,1062z"/>
				</g>
			</g>
			<g>
				<g>
					<path id="g3Uz9g8LQ" class="st1" d="M731.2,1062c-4.9,0-8.9,4-8.9,8.9c0,10.4,0,32.9,0,43.3c0,4.9,4,8.9,8.9,8.9
						c37.2,0,139.9,0,177.1,0c4.9,0,8.9-4,8.9-8.9c0-10.4,0-32.9,0-43.3c0-4.9-4-8.9-8.9-8.9C871.2,1062,768.4,1062,731.2,1062z"/>
				</g>
			</g>
			<g>
				<g>
					<path id="aTFZGwcRy" class="st1" d="M2086.7,1184.1c-16.9,0-30.5,13.7-30.5,30.5c0,6.1,0-6.1,0,0c0,16.8,13.7,30.5,30.5,30.5
						c140,0,529.6,0,669.6,0c16.8,0,30.5-13.7,30.5-30.5c0-6.1,0,6.1,0,0c0-16.8-13.7-30.5-30.5-30.5
						C2616.3,1184.1,2226.7,1184.1,2086.7,1184.1z"/>
				</g>
			</g>
			<g>
				<g>
					<path id="cnZ5qU55s" class="st1" d="M1585.8,1184.1c-11.3,0-20.4,9.1-20.4,20.4c0,8.1,0,12,0,20.2c0,11.3,9.2,20.4,20.4,20.4
						c85.8,0,322.9,0,408.7,0c11.3,0,20.4-9.2,20.4-20.4c0-8.1,0-12,0-20.2c0-11.3-9.2-20.4-20.4-20.4
						C1908.7,1184.1,1671.6,1184.1,1585.8,1184.1z"/>
				</g>
			</g>
			<g>
				<g>
					<path id="aszJIX1w9" class="st1" d="M749.1,1187.9c-16.9,0-30.5,13.7-30.5,30.5c0,6.1,0-6.1,0,0c0,16.9,13.7,30.5,30.5,30.5
						c157.3,0,598.5,0,755.7,0c16.8,0,30.5-13.7,30.5-30.5c0-6.1,0,6.1,0,0c0-16.9-13.7-30.5-30.5-30.5
						C1347.6,1187.9,906.4,1187.9,749.1,1187.9z"/>
				</g>
			</g>
			<g>
				<g>
					<path id="cQbDEXp9J" class="st1" d="M1349.7,1312.8c16.6,0,30,13.4,30,30c0,6.2,0-5.1,0,1.1c0,16.6-13.4,30-30,30
						c-125.9,0-473.6,0-599.5,0c-16.6,0-30-13.4-30-30c0-6.2,0,5.1,0-1.1c0-16.6,13.4-30,30-30
						C876.2,1312.8,1223.8,1312.8,1349.7,1312.8z"/>
				</g>
			</g>
			<g>
				<g>
					<path id="aw0REwauj" class="st1" d="M1865.1,1312.8c11.3,0,20.4,9.2,20.4,20.4c0,8.1,0,12,0,20.2c0,11.3-9.2,20.4-20.4,20.4
						c-85.8,0-322.9,0-408.7,0c-11.3,0-20.4-9.2-20.4-20.4c0-8.1,0-12,0-20.2c0-11.3,9.2-20.4,20.4-20.4
						C1542.2,1312.8,1779.2,1312.8,1865.1,1312.8z"/>
				</g>
			</g>
			<g>
				<g>
					<path id="cJaaZsoQs" class="st1" d="M2765.4,1312.8c16.9,0,30.5,13.7,30.5,30.5c0,6.1,0-6.1,0,0c0,16.9-13.7,30.5-30.5,30.5
						c-166.3,0-634.5,0-800.7,0c-16.8,0-30.5-13.7-30.5-30.5c0-6.1,0,6.1,0,0c0-16.8,13.7-30.5,30.5-30.5
						C2131,1312.8,2599.2,1312.8,2765.4,1312.8z"/>
				</g>
			</g>
			<g>
				<g>
					<path id="bkl5XeocZ" class="st1" d="M1555.3,1446.3c16.9,0,30.5,13.7,30.5,30.5c0,6.1,0-6.1,0,0c0,16.9-13.7,30.5-30.5,30.5
						c-166.2,0-634.5,0-800.7,0c-16.9,0-30.5-13.7-30.5-30.5c0-6.1,0,6.1,0,0c0-16.8,13.7-30.5,30.5-30.5
						C920.8,1446.3,1389,1446.3,1555.3,1446.3z"/>
				</g>
			</g>
			<g>
				<g>
					<path id="bivRHUCRG" class="st1" d="M2056.1,1446.3c11.3,0,20.4,9.1,20.4,20.4c0,8.1,0,12,0,20.2c0,11.3-9.1,20.4-20.4,20.4
						c-85.8,0-322.9,0-408.7,0c-11.3,0-20.4-9.2-20.4-20.4c0-8.1,0-12,0-20.2c0-11.3,9.2-20.4,20.4-20.4
						C1733.3,1446.3,1970.3,1446.3,2056.1,1446.3z"/>
				</g>
			</g>
			<g>
				<g>
					<path id="fpUYmY8aG" class="st1" d="M2543.2,1446.3c11.3,0,20.4,9.1,20.4,20.4c0,8.1,0,12,0,20.2c0,11.3-9.2,20.4-20.4,20.4
						c-85.8,0-322.9,0-408.7,0c-11.3,0-20.4-9.2-20.4-20.4c0-8.1,0-12,0-20.2c0-11.3,9.1-20.4,20.4-20.4
						C2220.3,1446.3,2457.4,1446.3,2543.2,1446.3z"/>
				</g>
			</g>
			<g>
				<g>
					<path id="a1CPM69hc6" class="st1" d="M2779.6,1446.3c4.9,0,8.9,4,8.9,8.9c0,10.4,0,32.9,0,43.3c0,4.9-4,8.8-8.9,8.8
						c-37.2,0-139.9,0-177.1,0c-4.9,0-8.9-4-8.9-8.8c0-10.4,0-32.9,0-43.3c0-4.9,4-8.9,8.9-8.9
						C2639.7,1446.3,2742.4,1446.3,2779.6,1446.3z"/>
				</g>
			</g>
			<g>
				<g>
					<path id="ccwcS1xwO" class="st1" d="M1424.1,1568.3c16.8,0,30.5,13.7,30.5,30.5c0,6.1,0-6.1,0,0c0,16.8-13.7,30.5-30.5,30.5
						c-140,0-529.6,0-669.6,0c-16.9,0-30.5-13.7-30.5-30.5c0-6.1,0,6.1,0,0c0-16.8,13.7-30.5,30.5-30.5
						C894.6,1568.3,1284.1,1568.3,1424.1,1568.3z"/>
				</g>
			</g>
			<g>
				<g>
					<path id="i167bnzkQM" class="st1" d="M1925,1568.3c11.3,0,20.4,9.2,20.4,20.4c0,8.1,0,12,0,20.1c0,11.3-9.2,20.4-20.4,20.4
						c-85.8,0-322.9,0-408.7,0c-11.3,0-20.4-9.2-20.4-20.4c0-8.1,0-12,0-20.1c0-11.3,9.2-20.4,20.4-20.4
						C1602.1,1568.3,1839.2,1568.3,1925,1568.3z"/>
				</g>
			</g>
			<g>
				<g>
					<path id="a2vEH8PWAr" class="st1" d="M2761.7,1572.1c16.9,0,30.5,13.7,30.5,30.5c0,6.1,0-6.1,0,0c0,16.9-13.7,30.5-30.5,30.5
						c-157.3,0-598.5,0-755.8,0c-16.8,0-30.5-13.7-30.5-30.5c0-6.1,0,6.1,0,0c0-16.9,13.7-30.5,30.5-30.5
						C2163.2,1572.1,2604.4,1572.1,2761.7,1572.1z"/>
				</g>
			</g>
			<g>
				<g>
					<path id="m5QMNx2tq" class="st1" d="M2166.5,1709.5c-16.6,0-30,13.4-30,30c0,6.2,0-5.1,0,1.1c0,16.5,13.4,30,30,30
						c125.9,0,473.6,0,599.5,0c16.6,0,30-13.4,30-30c0-6.2,0,5.1,0-1.1c0-16.6-13.4-30-30-30
						C2640.1,1709.5,2292.4,1709.5,2166.5,1709.5z"/>
				</g>
			</g>
			<g>
				<g>
					<path id="a6AcJGvWl" class="st1" d="M1651.2,1709.5c-11.3,0-20.4,9.2-20.4,20.4c0,8.1,0,12,0,20.1c0,11.3,9.2,20.4,20.4,20.4
						c85.8,0,322.9,0,408.7,0c11.3,0,20.4-9.2,20.4-20.4c0-8.1,0-12,0-20.1c0-11.3-9.1-20.4-20.4-20.4
						C1974.1,1709.5,1737,1709.5,1651.2,1709.5z"/>
				</g>
			</g>
			<g>
				<g>
					<path id="c1L3eUisSD" class="st1" d="M750.8,1709.5c-16.9,0-30.5,13.7-30.5,30.5c0,6.1,0-6.1,0,0c0,16.8,13.7,30.5,30.5,30.5
						c166.2,0,634.5,0,800.7,0c16.8,0,30.5-13.7,30.5-30.5c0-6.1,0,6.1,0,0c0-16.8-13.7-30.5-30.5-30.5
						C1385.3,1709.5,917,1709.5,750.8,1709.5z"/>
				</g>
			</g>
			<g>
				<g>
					<path id="c4bFPeUk3i" class="st1" d="M1961,1843c-16.8,0-30.5,13.7-30.5,30.5c0,6.1,0-6.1,0,0c0,16.9,13.7,30.5,30.5,30.5
						c166.3,0,634.5,0,800.7,0c16.9,0,30.5-13.7,30.5-30.5c0-6.1,0,6.1,0,0c0-16.8-13.7-30.5-30.5-30.5
						C2595.4,1843,2127.2,1843,1961,1843z"/>
				</g>
			</g>
			<g>
				<g>
					<path id="b4WnhoWf2F" class="st1" d="M1460.1,1843c-11.3,0-20.4,9.2-20.4,20.4c0,8.1,0,12,0,20.1c0,11.3,9.2,20.4,20.4,20.4
						c85.8,0,322.9,0,408.7,0c11.3,0,20.4-9.2,20.4-20.4c0-8.1,0-12,0-20.1c0-11.3-9.2-20.4-20.4-20.4
						C1783,1843,1545.9,1843,1460.1,1843z"/>
				</g>
			</g>
			<g>
				<g>
					<path id="i13lTE5kp" class="st1" d="M973,1843c-11.3,0-20.4,9.2-20.4,20.4c0,8.1,0,12,0,20.1c0,11.3,9.2,20.4,20.4,20.4
						c85.8,0,322.9,0,408.7,0c11.3,0,20.4-9.2,20.4-20.4c0-8.1,0-12,0-20.1c0-11.3-9.1-20.4-20.4-20.4
						C1295.9,1843,1058.9,1843,973,1843z"/>
				</g>
			</g>
			<g>
				<g>
					<path id="a1vx4mkvud" class="st1" d="M736.6,1843c-4.9,0-8.9,4-8.9,8.9c0,10.4,0,32.9,0,43.3c0,4.9,4,8.9,8.9,8.9
						c37.2,0,139.9,0,177.1,0c4.9,0,8.9-4,8.9-8.9c0-10.4,0-32.9,0-43.3c0-4.9-4-8.9-8.9-8.9C876.6,1843,773.8,1843,736.6,1843z"/>
				</g>
			</g>
			<g>
				<g>
					<path id="h2Xtf89jfv" class="st1" d="M2092.1,1965c-16.9,0-30.5,13.7-30.5,30.5c0,6.1,0-6.1,0,0c0,16.8,13.7,30.5,30.5,30.5
						c140,0,529.5,0,669.6,0c16.9,0,30.5-13.7,30.5-30.5c0-6.1,0,6.1,0,0c0-16.9-13.7-30.5-30.5-30.5
						C2621.7,1965,2232.1,1965,2092.1,1965z"/>
				</g>
			</g>
			<g>
				<g>
					<path id="c9BXG7c4H" class="st1" d="M1591.2,1965c-11.3,0-20.4,9.1-20.4,20.4c0,8.1,0,12,0,20.2c0,11.3,9.1,20.4,20.4,20.4
						c85.8,0,322.9,0,408.7,0c11.3,0,20.4-9.1,20.4-20.4c0-8.1,0-12,0-20.2c0-11.3-9.2-20.4-20.4-20.4
						C1914.1,1965,1677.1,1965,1591.2,1965z"/>
				</g>
			</g>
			<g>
				<g>
					<path id="d1ftn6gpf" class="st1" d="M754.6,1968.8c-16.9,0-30.5,13.7-30.5,30.5c0,6.1,0-6.1,0,0c0,16.8,13.7,30.5,30.5,30.5
						c157.3,0,598.5,0,755.7,0c16.9,0,30.5-13.7,30.5-30.5c0-6.1,0,6.1,0,0c0-16.8-13.7-30.5-30.5-30.5
						C1353,1968.8,911.8,1968.8,754.6,1968.8z"/>
				</g>
			</g>
		</g>
		<g>
			<g>
				<g>
					<path id="bc54Py0C2" class="st2" d="M1096.2,1938.8l159.6,47.7l-6.5,356.6c-94.8-0.9-154.1-1.4-177.8-1.7
						c-17-0.2-32.8-8.7-42.3-22.8c-3.9-5.8,6.8,10.1,4.7,7c-15.5-23.2-22.5-51.1-19.8-78.9c3.1-31.5,0.6-6.1,1.8-18.3
						c9.2-92.2,30.6-182.8,63.8-269.3c0.3-0.9,1.2-3.1,2.5-6.6L1096.2,1938.8z"/>
				</g>
			</g>
			<g>
				<g>
					<path id="c1rdwVAfID" class="st2" d="M2357.1,1933.4l-159.6,48.2l6.6,360.5c94.7-0.9,153.8-1.4,177.5-1.7
						c17.2-0.2,33.2-8.8,42.6-23.2c3.9-5.8-6.9,10.4-4.8,7.3c15.6-23.6,22.6-51.8,19.8-79.9c-3.1-31.8-0.6-6.1-1.8-18.5
						c-9.2-93.2-30.7-184.8-63.8-272.4c-0.3-0.9-1.1-3-2.4-6.5L2357.1,1933.4z"/>
				</g>
			</g>
		</g>
		<g class="st3">
			<g class="st4">
				<g>
					<path id="d3FmDHJxS" class="st5" d="M115.3,2450.8h3188.1V3000H115.3V2450.8z"/>
				</g>
			</g>
			<g class="st4">
				<g>
					<path id="c8sE964we" class="st6" d="M0,2344h3412.9v106.8H0V2344z"/>
				</g>
			</g>
		</g>
		<g>
			<g>
				<path id="c7e6kIDaI" class="st7" d="M1590.3,1380.4h292v200.3h-292V1380.4z"/>
			</g>
		</g>
		<g>
			<g>
				<path id="c6oLzZ7aCr" class="st8" d="M1495.4,1200.9l128.7,179.5h246.4l103.8-216.6l25.9-269.9l-72.5-123.8l-390.4,2.7
					l-63.9,121.1L1495.4,1200.9z"/>
			</g>
		</g>
		<g>
			<g>
				<path id="c13WLFUNY" class="st9" d="M2197.3,1601.3l1.7,0.6l1.7,0.6l1.7,0.7l1.7,0.7l1.6,0.7l1.6,0.8l1.6,0.8l1.6,0.8l1.6,0.9
					l1.5,0.9l1.5,0.9l1.5,1l1.5,1l1.5,1l1.4,1.1l1.4,1.1l1.4,1.1l1.4,1.1l1.3,1.2l1.3,1.2l1.3,1.2l1.3,1.3l1.2,1.3l1.2,1.3l1.2,1.3
					l1.2,1.4l1.1,1.4l1.1,1.4l1.1,1.4l1,1.5l1,1.5l1,1.5l0.9,1.5l0.9,1.6l0.9,1.6l0.8,1.6l0.8,1.6l0.8,1.6l0.7,1.7l132.5,305.6
					l-163.6,37.8l2-244.5l-965.8-3.8l-12,248.3l-163.6-42l143.1-310.3l0.8-1.7l0.8-1.7l0.9-1.7l0.9-1.6l0.9-1.6l1-1.6l1-1.6l1-1.5
					l1.1-1.5l1.1-1.5l1.1-1.5l1.2-1.4l1.2-1.4l1.2-1.4l1.3-1.3l1.3-1.3l1.3-1.3l1.3-1.3l1.4-1.2l1.4-1.2l1.4-1.2l1.4-1.1l1.5-1.1
					l1.5-1.1l1.5-1l1.5-1l1.6-1l1.6-1l1.6-0.9l1.6-0.9l1.7-0.8l1.7-0.8l1.7-0.8l1.7-0.7l1.7-0.7l1.7-0.7l1.8-0.6l1.8-0.6l1.8-0.6
					l1.8-0.5l309-84.2l7-0.1l0.9,2.1l1.8,3.6l2,3.5l2.2,3.5l2.4,3.4l2.6,3.3l2.8,3.3l3,3.2l3.2,3.1l3.3,3l3.5,2.9l3.7,2.8l3.8,2.7
					l4,2.6l4.2,2.6l4.3,2.4l4.5,2.3l4.6,2.2l4.7,2.1l4.9,2l5,1.9l5.1,1.8l5.2,1.6l5.3,1.5l5.5,1.4l5.6,1.3l5.6,1.1l5.8,1l5.8,0.8
					l5.9,0.7l6,0.5l6.1,0.4l6.1,0.2l6.2,0.1l6.2-0.1l6.1-0.2l6.1-0.4l6-0.5l5.9-0.7l5.8-0.8l5.7-1l5.7-1.1l5.6-1.3l5.4-1.4l5.4-1.5
					l5.2-1.6l5.1-1.8l5-1.9l4.9-2l4.7-2.1l4.6-2.2l4.5-2.3l4.3-2.4l4.2-2.6l4-2.6l3.8-2.7l3.7-2.8l3.5-2.9l3.3-3l3.2-3.1l3-3.2
					l2.8-3.3l2.6-3.3l2.4-3.4l2.2-3.5l2-3.5l1.8-3.6l1.5-3.6l0.8-2.1l3.6-0.1l309,96.8L2197.3,1601.3z"/>
			</g>
		</g>
		<g>
			<g>
				<g>
					<path id="a4hVuqJfE" class="st10" d="M1733,836.5l-2,0.2l-2,0.2l-2,0.1l-2,0.1l-2,0l-2,0l-2-0.1l-2-0.1l-2-0.2l-1.9-0.2
						l-1.9-0.3l-1.9-0.3l-1.9-0.4l-1.9-0.4l-1.9-0.5l-1.9-0.5l-1.9-0.6l-1.9-0.6l-1.9-0.7l-1.9-0.7l-1.8-0.8l-1.8-0.8l-1.8-0.9
						l-1.8-0.9l-1.8-1l-1.7-1l-1.7-1.1l-30.9-20.3l-1.8-1.2l-1.9-1.1l-1.9-1.1l-1.9-1l-1.9-1l-1.9-0.9l-2-0.9l-2-0.8l-2-0.7l-2-0.7
						l-2-0.6l-2-0.6l-2-0.5l-2.1-0.5l-2.1-0.4l-2.1-0.4l-2.1-0.3l-2.1-0.3l-2.1-0.2l-2.1-0.1l-2.1-0.1l-2.1,0l-2.1,0l-2.1,0.1
						l-2.1,0.1l-2.1,0.2l-2.1,0.2l-2.1,0.3l-2.1,0.3l-2.1,0.4l-2.1,0.5l-2.1,0.5l-2.1,0.6l-2,0.6l-2,0.7l-2,0.7l-2,0.8l-2,0.8
						l-2,0.9l-2,1l-11.8,5.9l-1.3,0.7l-1.3,0.7l-1.3,0.7l-1.3,0.7l-1.3,0.7l-1.3,0.8l-1.3,0.8l-1.3,0.8l-1.3,0.8l-1.3,0.8l-1.3,0.8
						l-1.2,0.8l-1.2,0.8l-1.2,0.8l-1.2,0.9l-1.2,0.9l-1.2,0.9l-1.2,0.9l-1.2,0.9l-1.2,0.9l-1.2,0.9l-1.1,1l-1.1,1l-1.1,1l-1.1,1
						l-1.1,1l-1.1,1l-1.1,1l-1.1,1l-1.1,1l-1.1,1.1l-1,1.1l-1,1.1l-1,1.1l-1,1.1l-1,1.1l-1,1.1l-1,1.1l-1,1.1l-1,1.2l-0.3,0.3
						l-1.2,1.5l-1.2,1.5l-1.2,1.5l-1.1,1.6l-1.1,1.6l-1.1,1.6l-1.1,1.6l-1,1.6l-1,1.6l-1,1.7l-0.9,1.7l-0.9,1.7l-0.9,1.7l-0.8,1.7
						l-0.8,1.7l-0.8,1.7l-0.8,1.8l-0.7,1.8l-0.7,1.8l-0.7,1.8l-0.6,1.8l-0.6,1.8l-0.6,1.8l-0.6,1.8l-0.5,1.8l-0.5,1.9l-0.5,1.9
						l-0.4,1.9l-0.4,1.9l-0.4,1.9l-0.3,1.9l-0.3,1.9l-0.3,1.9l-0.2,1.9l-0.2,1.9l-0.2,1.9l-0.1,1.9l-0.1,1.9l-0.1,1.9l0,1.9
						l-1.3,98.3l-39.4-4.8l-3.1-15.9l-0.3-1.6l-0.3-1.6l-0.3-1.6l-0.3-1.6l-0.3-1.6l-0.3-1.6l-0.3-1.6l-0.3-1.6l-0.2-1.6l-0.2-1.6
						l-0.2-1.6l-0.2-1.6l-0.2-1.6l-0.2-1.6l-0.2-1.6l-0.2-1.6l-0.2-1.6l-0.2-1.6l-0.2-1.6l-0.1-1.6l-0.1-1.6l-0.1-1.6l-0.1-1.6
						l-0.1-1.6l-0.1-1.6l-0.1-1.6l-0.1-1.6l-0.1-1.6l-0.1-1.6l-0.1-1.6l-0.1-1.6l0-1.6l0-1.6l0-1.6l0-1.6l0-1.6l0-1.6l0-1.6l0-1.6
						l0-1.6l1-68.3l0-1.3l0-1.3l0.1-1.3l0.1-1.3l0.1-1.3l0.1-1.3l0.1-1.3l0.1-1.3l0.1-1.3l0.1-1.3l0.1-1.3l0.2-1.3l0.2-1.3l0.2-1.3
						l0.2-1.3l0.2-1.3l0.2-1.3l0.2-1.3l0.2-1.3l0.3-1.3l0.3-1.2l0.3-1.3l0.3-1.2l0.3-1.2l0.3-1.2l0.3-1.2l0.3-1.2l0.4-1.2l0.4-1.2
						l0.4-1.2l0.4-1.2l0.4-1.2l0.4-1.2l0.4-1.2l0.4-1.2l0.4-1.2l0.4-1.2l0.5-1.2l0.5-1.2l0.5-1.2l6-14.2l0.8-1.8l0.8-1.8l0.8-1.8
						l0.8-1.8l0.8-1.7l0.8-1.7l0.8-1.7l0.9-1.7l0.9-1.7l0.9-1.7l0.9-1.7l0.9-1.7l0.9-1.7l0.9-1.7l1-1.7l1-1.7l1-1.6l1-1.7l1-1.6
						l1-1.6l1-1.6l1-1.6l1.1-1.6l1.1-1.6l1.1-1.6l1.1-1.6l1.1-1.6l1.1-1.6l1.1-1.5l1.1-1.5l1.2-1.5l1.2-1.5l1.2-1.5l1.2-1.5l1.2-1.5
						l1.2-1.5l1.3-1.5l1.3-1.5l1.3-1.5l1.3-1.5l1.1-1.2l1.1-1.2l1.1-1.2l1.1-1.2l1.1-1.1l1.1-1.1l1.1-1.1l1.1-1.1l1.1-1.1l1.1-1.1
						l1.2-1.1l1.2-1.1l1.2-1.1l1.2-1l1.2-1l1.2-1l1.2-1l1.2-1l1.2-1l1.2-1l1.2-1l1.3-1l1.3-1l1.3-1l1.3-0.9l1.3-0.9l1.3-0.9l1.3-0.9
						l1.3-0.9l1.3-0.9l1.3-0.9l1.3-0.9l1.3-0.8l1.4-0.8l1.4-0.8l1.4-0.8l1.4-0.8l1.4-0.8l1.4-0.8l1.4-0.8l1.4-0.7l14.9-7.8l1.8-0.9
						l1.8-0.9l1.8-0.9l1.8-0.9l1.8-0.9l1.8-0.9l1.8-0.9l1.8-0.8l1.8-0.8l1.8-0.8l1.8-0.8l1.8-0.8l1.8-0.8l1.8-0.8l1.8-0.8l1.8-0.8
						l1.8-0.8l1.8-0.8l1.8-0.7l1.9-0.7l1.8-0.7l1.9-0.7l1.9-0.7l1.9-0.7l1.9-0.7l1.9-0.7l1.9-0.7l1.9-0.6l1.9-0.6l1.9-0.6l1.9-0.6
						l1.9-0.6l1.9-0.6l1.9-0.6l1.9-0.6l1.9-0.6l1.9-0.6l1.9-0.5l1.9-0.5l1.9-0.5l0.9-0.3l1.2-0.3l1.3-0.3l1.3-0.3l1.3-0.3l1.3-0.3
						l1.3-0.3l1.3-0.3l1.3-0.3l1.3-0.3l1.3-0.3l1.3-0.2l1.3-0.2l1.3-0.2l1.3-0.2l1.3-0.2l1.3-0.2l1.3-0.2l1.3-0.2l1.3-0.2l1.3-0.2
						l1.3-0.2l1.3-0.2l1.3-0.1l1.3-0.1l1.3-0.1l1.3-0.1l1.3-0.1l1.3-0.1l1.3-0.1l1.3-0.1l1.3-0.1l1.3-0.1l1.3-0.1l1.3,0l1.3-0.1
						l1.3,0l1.3,0l1.3,0l1.3,0h1.3h47.7v189.3L1733,836.5z"/>
				</g>
			</g>
			<g>
				<g>
					<path id="g5n6gHJbL" class="st10" d="M1774.7,647.1l1.3,0l1.3,0l1.3,0l1.3,0.1l1.3,0l1.3,0.1l1.3,0.1l1.3,0.1l1.3,0.1l1.3,0.1
						l1.3,0.1l1.3,0.1l1.3,0.1l1.3,0.1l1.3,0.1l1.3,0.1l1.3,0.2l1.3,0.2l1.3,0.2l1.3,0.2l1.3,0.2l1.3,0.2l1.3,0.2l1.3,0.2l1.3,0.2
						l1.3,0.2l1.3,0.2l1.3,0.2l1.3,0.3l1.3,0.3l1.3,0.3l1.3,0.3l1.3,0.3l1.3,0.3l1.3,0.3l1.3,0.3l1.2,0.3l1.3,0.3l0.9,0.3l1.9,0.5
						l1.9,0.5l1.9,0.5l1.9,0.6l1.9,0.6l1.9,0.6l1.9,0.6l1.9,0.6l1.9,0.6l1.9,0.6l1.9,0.6l1.9,0.6l1.9,0.6l1.9,0.7l1.9,0.7l1.9,0.7
						l1.9,0.7l1.9,0.7l1.8,0.7l1.9,0.7l1.8,0.7l1.8,0.7l1.8,0.8l1.8,0.8l1.8,0.8l1.8,0.8l1.8,0.8l1.8,0.8l1.8,0.8l1.8,0.8l1.8,0.8
						l1.8,0.8l1.8,0.8l1.8,0.9l1.8,0.9l1.8,0.9l1.8,0.9l1.8,0.9l1.8,0.9l1.8,0.9l14.9,7.8l1.4,0.7l1.4,0.8l1.4,0.8l1.4,0.8l1.4,0.8
						l1.4,0.8l1.3,0.8l1.3,0.8l1.3,0.8l1.3,0.9l1.3,0.9l1.3,0.9l1.3,0.9l1.3,0.9l1.3,0.9l1.3,0.9l1.3,0.9l1.3,1l1.3,1l1.3,1l1.2,1
						l1.2,1l1.2,1l1.2,1l1.2,1l1.2,1l1.2,1l1.2,1l1.2,1.1l1.2,1.1l1.2,1.1l1.1,1.1l1.1,1.1l1.1,1.1l1.1,1.1l1.1,1.1l1.1,1.1l1.1,1.2
						l1.1,1.2l1.1,1.2l1.1,1.2l1.3,1.5l1.3,1.5l1.3,1.5l1.2,1.5l1.2,1.5l1.2,1.5l1.2,1.5l1.2,1.5l1.2,1.5l1.2,1.5l1.1,1.5l1.1,1.5
						l1.1,1.6l1.1,1.6l1.1,1.6l1.1,1.6l1.1,1.6l1.1,1.6l1,1.6l1,1.6l1,1.6l1,1.6l1,1.7l1,1.6l1,1.7l1,1.7l0.9,1.7l0.9,1.7l0.9,1.7
						l0.9,1.7l0.9,1.7l0.9,1.7l0.9,1.7l0.8,1.7l0.8,1.7l0.8,1.7l0.8,1.8l0.8,1.8l0.8,1.8l0.8,1.8l6,14.2l0.5,1.2l0.5,1.2l0.5,1.2
						l0.5,1.2l0.4,1.2l0.4,1.2l0.4,1.2l0.4,1.2l0.4,1.2l0.4,1.2l0.4,1.2l0.4,1.2l0.3,1.2l0.3,1.2l0.3,1.2l0.3,1.2l0.3,1.2l0.3,1.2
						l0.3,1.3l0.3,1.2l0.3,1.3l0.3,1.3l0.2,1.3l0.2,1.3l0.2,1.3l0.2,1.3l0.2,1.3l0.2,1.3l0.2,1.3l0.2,1.3l0.1,1.3l0.1,1.3l0.1,1.3
						l0.1,1.3l0.1,1.3l0.1,1.3l0.1,1.3l0.1,1.3l0,1.3l0,1.3l1.1,68.3l0,1.6l0,1.6v1.6v1.6l0,1.6l0,1.6l0,1.6l0,1.6l-0.1,1.6
						l-0.1,1.6l-0.1,1.6l-0.1,1.6l-0.1,1.6l-0.1,1.6l-0.1,1.6l-0.1,1.6l-0.1,1.6l-0.1,1.6l-0.1,1.6l-0.1,1.6l-0.2,1.6l-0.1,1.6
						l-0.2,1.6l-0.2,1.6l-0.2,1.6l-0.2,1.6l-0.2,1.6l-0.2,1.6l-0.2,1.6l-0.2,1.6l-0.2,1.6l-0.2,1.6l-0.2,1.6l-0.3,1.6l-0.3,1.6
						l-0.3,1.6l-0.3,1.6l-0.3,1.6l-0.3,1.6l-0.3,1.6l-3.1,15.9l-30.4,4.8l-7.7-98.4l-0.2-2l-0.2-1.9l-0.2-1.9l-0.3-1.9l-0.3-1.9
						l-0.3-1.9l-0.3-1.9l-0.4-1.9l-0.4-1.9l-0.4-1.9l-0.5-1.9l-0.5-1.9l-0.5-1.9l-0.5-1.9l-0.6-1.9l-0.6-1.8l-0.6-1.8l-0.7-1.8
						l-0.7-1.8l-0.7-1.8l-0.7-1.8l-0.8-1.8l-0.8-1.8l-0.8-1.8l-0.8-1.7l-0.9-1.7l-0.9-1.7l-0.9-1.7l-0.9-1.7l-1-1.7l-1-1.7l-1-1.7
						l-1.1-1.6l-1.1-1.6l-1.1-1.6l-1.1-1.6l-1.2-1.6l-1.2-1.6l-1.2-1.5l-1.2-1.5l-0.3-0.3l-0.9-1.2l-1-1.1l-1-1.1l-1-1.1l-1-1.1
						l-1-1.1l-1-1.1l-1-1.1l-1.1-1.1l-1.1-1.1l-1.1-1l-1.1-1l-1.1-1l-1.1-1l-1.1-1l-1.1-1l-1.1-1l-1.1-1l-1.1-1l-1.2-0.9l-1.2-0.9
						l-1.2-0.9l-1.2-0.9l-1.2-0.9l-1.2-0.9l-1.2-0.9l-1.2-0.8l-1.2-0.8l-1.3-0.8l-1.3-0.8l-1.3-0.8l-1.3-0.8l-1.3-0.8l-1.3-0.8
						l-1.3-0.8l-1.3-0.7l-1.3-0.7l-1.3-0.7l-1.3-0.7l-1.3-0.7l-11.8-5.9l-2-1l-2-0.9l-2-0.8l-2-0.8l-2-0.7l-2-0.7l-2.1-0.6l-2.1-0.6
						l-2.1-0.5l-2.1-0.5l-2.1-0.4l-2.1-0.3l-2.1-0.3l-2.1-0.2l-2.1-0.2l-2.1-0.1l-2.1-0.1l-2.1,0l-2.1,0l-2.1,0.1l-2.1,0.1l-2.1,0.2
						l-2.1,0.3l-2.1,0.3l-2.1,0.4l-2.1,0.4l-2.1,0.5l-2,0.5l-2,0.6l-2,0.6l-2,0.7l-2,0.7l-2,0.8l-2,0.9l-1.9,0.9l-1.9,1l-1.9,1
						l-1.9,1.1l-1.9,1.1l-1.8,1.2l-30.8,20.3l-1.7,1.1l-1.7,1l-1.8,1l-1.8,0.9l-1.8,0.9l-1.8,0.8l-1.8,0.8l-1.8,0.7l-1.9,0.7
						l-1.9,0.6l-1.9,0.6l-1.9,0.5l-1.9,0.5l-1.9,0.4l-1.9,0.4l-1.9,0.3l-2,0.3l-1.9,0.2l-1.9,0.2l-2,0.1l-2,0.1l-2,0l-2,0l-2-0.1
						l-2-0.1l-2-0.2l-2-0.2l-0.9-0.1V647.1h47.7h1.3L1774.7,647.1z"/>
				</g>
			</g>
		</g>
		<g>
			<g>
				<g>
					<path id="c2ctPpAT0X" class="st11" d="M1795.2,1223.3c-12-4.8-24.9-7.2-37.9-7c-11.6,0.2-30.5,0.4-43.1,0.5
						c-9.9,0.1-19.7,2-28.9,5.6c-13.4,5.2-41.9,16.2-55.9,21.6c-6.7,2.6-11.1,9-11.1,16.2c0,5.3,0,8.9,0,14.1
						c0,6.7,5.4,12.1,12.1,12.1c3.6,0,4.8,0,9,0c4.8,0,8.8-3.9,8.8-8.8c0-2.1,0,0.5,0-1.6c0-5.2,3.3-9.9,8.2-11.6
						c8.9-3.2,21.9-7.9,29.4-10.6c10.2-3.7,20.9-5.5,31.6-5.5c12.1,0,33.8,0,46.3,0c9.4,0,18.7,1.8,27.4,5.2
						c7.1,2.8,18.1,7.1,26,10.2c5.7,2.3,9.7,7.6,10.1,13.8c0.1,1.8-0.1-1.7,0,0.4c0.3,4.8,4.3,8.6,9.2,8.6c4.3,0,9.4,0,13.9,0
						c4.1,0,7.4-3.3,7.4-7.4c0-6.1,0-9.8,0-14.1c0-10.1-6.1-19.1-15.5-22.8C1829.3,1236.9,1807.8,1228.3,1795.2,1223.3z"/>
				</g>
			</g>
			<g>
				<g>
					<path id="c4PmwZiPmG" class="st11" d="M1501.5,1127.3l0.7,4.2l0.7,4.2l0.8,4.2l0.8,4.2l0.9,4.2l0.9,4.2l1,4.1l1,4.1l1.1,4.1
						l1.1,4.1l1.2,4.1l1.2,4.1l1.3,4l1.3,4l1.4,4l1.4,4l1.5,4l1.5,4l1.5,3.9l1.6,3.9l1.6,3.9l1.7,3.9l1.7,3.9l1.8,3.8l1.8,3.8
						l1.9,3.8l1.9,3.8l2,3.8l2,3.7l2,3.7l2.1,3.7l2.1,3.7l2.2,3.7l2.2,3.6l2.3,3.6l2.3,3.6l2.4,3.5l2.4,3.5l2.5,3.5l31,43.7l1.5,2.1
						l1.6,2.1l1.6,2l1.7,2l1.7,1.9l1.8,1.9l1.8,1.8l1.8,1.8l1.9,1.8l1.9,1.7l2,1.7l2,1.6l2,1.6l2.1,1.5l2.1,1.4l2.1,1.4l2.2,1.3
						l2.2,1.3l2.2,1.2l2.3,1.2l2.3,1.1l2.3,1.1l2.3,1l2.4,1l2.4,0.9l2.4,0.8l2.4,0.8l2.5,0.7l2.5,0.7l2.5,0.6l2.5,0.6l2.5,0.5
						l2.5,0.4l2.5,0.4l2.6,0.3l2.6,0.3l2.6,0.2l2.6,0.1l2.6,0.1h2.6l59-0.7v70.4h-50.8l-1.2,0l-1.2,0l-1.2,0l-1.2-0.1l-1.2-0.1
						l-1.2-0.1l-1.2-0.1l-1.2-0.1l-1.2-0.1l-1.2-0.1l-1.2-0.1l-1.2-0.2l-1.2-0.2l-1.2-0.2l-1.2-0.2l-1.2-0.2l-1.2-0.2l-1.2-0.2
						l-1.2-0.2l-1.2-0.3l-1.2-0.3l-1.1-0.3l-1.1-0.3l-1.1-0.3l-1.1-0.3l-1.1-0.3l-1.1-0.3l-1.1-0.4l-1.1-0.4l-1.1-0.4l-1.1-0.4
						l-1.1-0.4l-1.1-0.4l-1.1-0.4l-1.1-0.4l-1.1-0.5l-1.1-0.5l-1.1-0.5l-1.1-0.5l-1.1-0.5l-1.4-0.7l-0.8-0.4l-0.8-0.4l-0.8-0.4
						l-0.8-0.4l-0.8-0.4l-0.8-0.4l-0.8-0.4l-0.8-0.4l-0.8-0.4l-0.8-0.4l-0.8-0.4l-0.8-0.4l-0.8-0.4l-0.8-0.4l-0.8-0.4l-0.8-0.5
						l-0.8-0.5l-0.8-0.5l-0.8-0.5l-0.8-0.5l-0.8-0.5l-0.8-0.5l-0.8-0.5l-0.8-0.5l-0.8-0.5l-0.8-0.5l-0.8-0.5l-0.8-0.5l-0.8-0.5
						l-0.8-0.5l-0.8-0.5l-0.8-0.5l-0.8-0.5l-0.8-0.5l-0.8-0.5l-0.8-0.5l-0.8-0.5l-0.8-0.5l-0.8-0.5l-0.8-0.5l-1.2-0.8l-1.2-0.8
						l-1.2-0.8l-1.2-0.8l-1.1-0.9l-1.1-0.8l-1.1-0.9l-1.1-0.9l-1.1-0.9l-1.1-0.9l-1.1-0.9l-1.1-0.9l-1.1-0.9l-1.1-0.9l-1.1-0.9
						l-1.1-0.9l-1.1-0.9l-1.1-1l-1.1-1l-1-1l-1-1l-1-1l-1-1l-1-1l-1-1l-1-1l-1-1l-1-1l-1-1l-1-1l-1-1l-1-1.1l-0.9-1.1l-0.9-1.1
						l-0.9-1.1l-0.9-1.1l-0.9-1.1l-0.9-1.1l-0.9-1.1l-0.9-1.1l-0.9-1.1l-1-1.3l-2-2.6l-2-2.6l-2-2.7l-2-2.6l-2-2.7l-1.9-2.7
						l-1.9-2.7l-1.9-2.7l-1.9-2.7l-1.9-2.7l-1.9-2.7l-1.8-2.8l-1.8-2.8l-1.8-2.8l-1.8-2.8l-1.8-2.8l-1.7-2.8l-1.7-2.8l-1.7-2.8
						l-1.7-2.8l-1.7-2.9l-1.7-2.9l-1.6-2.9l-1.6-2.9l-1.6-2.9l-1.6-2.9l-1.6-2.9l-1.5-2.9l-1.5-2.9l-1.5-2.9l-1.5-3l-1.5-3l-1.4-3
						l-1.4-3l-1.4-3l-1.4-3l-1.4-3l-1.3-3l-1.3-3l-1.3-3.1l-0.3-0.8l-1.1-2.6l-1-2.6l-1-2.6l-1-2.6l-1-2.6l-1-2.6l-0.9-2.6l-0.9-2.6
						l-0.9-2.6l-0.8-2.6l-0.8-2.6l-0.8-2.6l-0.8-2.6l-0.7-2.7l-0.7-2.7l-0.7-2.7l-0.7-2.7l-0.6-2.7l-0.6-2.7l-0.6-2.7l-0.6-2.7
						l-0.5-2.7l-0.5-2.7l-0.5-2.7l-0.5-2.7l-0.4-2.7l-0.4-2.7l-0.4-2.7l-0.3-2.7l-0.3-2.7l-0.3-2.7l-0.3-2.8l-0.3-2.8l-0.2-2.8
						l-0.2-2.8l-0.2-2.8l-0.1-2.8l-0.1-2.8l-0.1-2.8l-0.1-2.8l-2-116.7l11.3-0.7l0,0l13.9,95.6L1501.5,1127.3z"/>
				</g>
			</g>
			<g>
				<g>
					<path id="afXgamqgv" class="st11" d="M1991.9,1144.9l-0.1,2.8l-0.1,2.8l-0.1,2.8l-0.1,2.8l-0.2,2.8l-0.2,2.8l-0.2,2.8l-0.2,2.8
						l-0.3,2.8l-0.3,2.7l-0.3,2.7l-0.4,2.7l-0.4,2.7l-0.4,2.7l-0.4,2.7l-0.4,2.7l-0.5,2.7l-0.5,2.7l-0.5,2.7l-0.6,2.7l-0.6,2.7
						l-0.6,2.7l-0.6,2.7l-0.7,2.7l-0.7,2.7l-0.7,2.7l-0.7,2.7l-0.8,2.6l-0.8,2.6l-0.8,2.6l-0.9,2.6l-0.9,2.6l-0.9,2.6l-0.9,2.6
						l-0.9,2.6l-1,2.6l-1,2.6l-1,2.6l-1,2.6l-1.1,2.6l-0.3,0.8l-1.3,3.1l-1.3,3l-1.3,3l-1.4,3l-1.4,3l-1.4,3l-1.4,3l-1.4,3l-1.5,3
						l-1.5,3l-1.5,2.9l-1.5,2.9l-1.5,2.9l-1.6,2.9l-1.6,2.9l-1.6,2.9l-1.6,2.9l-1.6,2.9l-1.7,2.9l-1.7,2.9l-1.7,2.8l-1.7,2.8
						l-1.7,2.8l-1.8,2.8l-1.8,2.8l-1.8,2.8l-1.8,2.8l-1.8,2.8l-1.8,2.8l-1.9,2.7l-1.9,2.7l-1.9,2.7l-1.9,2.7l-1.9,2.7l-1.9,2.7
						l-2,2.7l-2,2.6l-2,2.7l-2,2.6l-2,2.6l-1.1,1.3l-0.9,1.1l-0.9,1.1l-0.9,1.1l-0.9,1.1l-0.9,1.1l-0.9,1.1l-0.9,1.1l-0.9,1.1
						l-1,1.1l-0.9,1.1l-1,1l-1,1l-1,1l-1,1l-1,1l-1,1l-1,1l-1,1l-1,1l-1,1l-1,1l-1.1,1l-1,1l-1.1,1l-1.1,0.9l-1.1,0.9l-1.1,0.9
						l-1.1,0.9l-1.1,0.9l-1.1,0.9l-1.1,0.9l-1.1,0.9l-1.1,0.9l-1.1,0.9l-1.1,0.9l-1.1,0.8l-1.1,0.9l-1.2,0.8l-1.2,0.8l-1.2,0.8
						l-1.2,0.8l-0.8,0.5l-0.8,0.5l-0.8,0.5l-0.8,0.5l-0.8,0.5l-0.8,0.5l-0.8,0.5l-0.8,0.5l-0.8,0.5l-0.8,0.5l-0.8,0.5l-0.8,0.5
						l-0.8,0.5l-0.8,0.5l-0.8,0.5l-0.8,0.5l-0.8,0.5l-0.8,0.5l-0.8,0.5l-0.8,0.5l-0.8,0.5l-0.8,0.5l-0.8,0.5l-0.8,0.5l-0.8,0.5
						l-0.8,0.4l-0.8,0.4l-0.8,0.4l-0.8,0.4l-0.8,0.4l-0.8,0.4l-0.8,0.4l-0.8,0.4l-0.8,0.4l-0.8,0.4l-0.8,0.4l-0.8,0.4l-0.8,0.4
						l-0.8,0.4l-0.8,0.4l-1.4,0.7l-1.1,0.5l-1.1,0.5l-1.1,0.5l-1.1,0.5l-1.1,0.5l-1.1,0.4l-1.1,0.4l-1.1,0.4l-1.1,0.4l-1.1,0.4
						l-1.1,0.4l-1.1,0.4l-1.1,0.4l-1.1,0.3l-1.1,0.3l-1.1,0.3l-1.1,0.3l-1.1,0.3l-1.2,0.3l-1.2,0.3l-1.1,0.3l-1.2,0.2l-1.2,0.2
						l-1.2,0.2l-1.2,0.2l-1.2,0.2l-1.2,0.2l-1.2,0.2l-1.2,0.2l-1.2,0.1l-1.2,0.1l-1.2,0.1l-1.2,0.1l-1.2,0.1l-1.2,0.1l-1.2,0.1
						l-1.2,0.1l-1.2,0l-1.2,0l-1.2,0h-50.8v-70.4l58.9,0.7h2.6l2.6-0.1l2.6-0.1l2.6-0.2l2.6-0.3l2.6-0.3l2.6-0.4l2.5-0.4l2.5-0.5
						l2.5-0.6l2.5-0.6l2.5-0.7l2.4-0.7l2.4-0.8l2.4-0.8l2.4-0.9l2.4-1l2.3-1l2.3-1.1l2.3-1.1l2.3-1.2l2.2-1.2l2.2-1.3l2.2-1.3
						l2.1-1.4l2.1-1.4l2.1-1.5l2-1.6l2-1.6l2-1.7l1.9-1.7l1.9-1.8l1.8-1.8l1.8-1.8l1.8-1.9l1.7-1.9l1.7-2l1.6-2l1.6-2.1l1.5-2.1
						l31-43.7l2.4-3.5l2.4-3.5l2.4-3.5l2.3-3.6l2.3-3.6l2.2-3.6l2.2-3.7l2.1-3.7l2.1-3.7l2-3.7l2-3.7l2-3.8l1.9-3.8l1.9-3.8l1.8-3.8
						l1.8-3.8l1.7-3.9l1.7-3.9l1.6-3.9l1.6-3.9l1.6-3.9l1.5-4l1.5-4l1.4-4l1.4-4l1.3-4l1.3-4l1.2-4.1l1.2-4.1l1.1-4.1l1.1-4.1l1-4.1
						l1-4.1l0.9-4.2l0.9-4.2l0.8-4.2l0.8-4.2l0.7-4.2l0.7-4.2l0.6-4.2l13.9-95.6l0,0l11.3,0.7L1991.9,1144.9z"/>
				</g>
			</g>
			<g>
				<g>
					<path id="gwImuNxy6" class="st11" d="M1760.4,1309.8c5.3,0,9.5,4.3,9.5,9.5c0,2.5,0,0.4,0,2.9c0,5.3-4.3,9.5-9.5,9.5
						c-11.5,0-36.3,0-47.8,0c-5.3,0-9.5-4.3-9.5-9.5c0-2.5,0-0.4,0-2.9c0-5.3,4.3-9.5,9.5-9.5
						C1724.1,1309.8,1748.9,1309.8,1760.4,1309.8z"/>
				</g>
			</g>
		</g>
		<g>
			<g>
				<g>
					<path id="b5W5lBHCp" class="st12" d="M1457.4,1164.5c-3.6,3.4-8.7,4.8-13.5,3.9c-3.2-0.6-1-0.2-3.2-0.6
						c-8.1-1.6-15.1-6.6-19.3-13.8c-1.5-2.6,1.2,2-0.1-0.3c-4.8-8.3-7.5-17.6-7.7-27.2c-0.4-14.3-0.9-37.7-1.3-50.8
						c-0.3-13.7,1.3-27.4,4.7-40.7c1.5-5.7,2.6-9.8,4.5-17.3c1.8-7,6.9-12.6,13.7-15.2c1.9-0.7-1.5,0.6,0.8-0.3
						c5.7-2.2,12-1.9,17.5,0.7c2.1,1-1.2-0.6,0.7,0.3c6.3,3,11.5,7.7,15.2,13.5c1.6,2.5,0.6,1,2.2,3.5c3.7,5.9,5.6,12.7,5.7,19.6
						c0.3,25.9,1.1,95.5,1.4,122c0,3.5-3.6,5.8-6.8,4.3c-2.1-1-3.8-1.8-6.5-3.1c-2.6-1.3-5.7-0.8-7.8,1.2
						C1456.5,1165.4,1458.2,1163.8,1457.4,1164.5z"/>
				</g>
			</g>
			<g>
				<g>
					<path id="e4Qq9S6vc" class="st12" d="M2012.2,1166.5c3.6,3.4,8.7,4.8,13.5,3.9c3.2-0.7,1-0.2,3.2-0.7
						c8.1-1.6,15.1-6.6,19.3-13.8c1.5-2.6-1.2,2,0.2-0.3c4.8-8.3,7.5-17.6,7.7-27.2c0.3-14.3,0.9-37.7,1.3-50.8
						c0.3-13.7-1.3-27.4-4.7-40.7c-1.5-5.7-2.6-9.8-4.5-17.3c-1.8-7-6.9-12.6-13.7-15.2c-1.9-0.7,1.5,0.6-0.8-0.3
						c-5.7-2.2-12-1.9-17.5,0.7c-2.1,1,1.2-0.5-0.7,0.3c-6.3,3-11.8,7.4-16,13c-1.8,2.4-0.8,1-2.6,3.4c-4.2,5.5-6.4,12.2-6.4,19.1
						c0.1,26.2,0.3,96.5,0.4,123.3c0,3.5,3.7,5.8,6.9,4.3c2.2-1,3.8-1.9,6.5-3.2c2.6-1.3,5.7-0.8,7.8,1.2
						C2013.2,1167.4,2011.5,1165.8,2012.2,1166.5z"/>
				</g>
			</g>
		</g>
		<g>
			<g>
				<g>
					<g>
						<path id="aWQdUK99U" class="st13" d="M1536.3,1018.2c0.5,6.4,1,21.4,1.6,45.1c0.3,11.3,3,22.4,8,32.5c1.5,3-5.1-10.2-4.4-8.9
							c7.5,15.2,20.8,26.9,36.9,32.4c2.8,0.9-8.2-2.8-4-1.4c11.8,4,24.2,6,36.6,5.8c7.5-0.1,10.8-0.2,18.3-0.3
							c12.6-0.2,24.9-3.4,36.1-9.2c2.7-1.4-6.1,3.2-3.3,1.8c10.9-5.7,20.3-13.9,27.5-23.8c1.7-2.3-4.3,5.9-2.6,3.6
							c7.1-9.9,11-21.8,11-34c0-13.1,0-31.2,0-43.7c0-12.5-9.2-23-21.5-24.8c-11.5-1.6-14.4-2-23.3-3.3c-22.5-3.2-45.4-3.1-67.9,0.3
							c-6.8,1-7,1.1-17.2,2.6c-10.6,1.6-20.1,7.7-25.9,16.6C1541.3,1010.6,1539.4,1013.5,1536.3,1018.2l-79.8-0.2"/>
					</g>
				</g>
			</g>
			<g>
				<g>
					<g>
						<path id="a216SVs00w" class="st13" d="M1929.7,1018.6c-0.5,6.4-1,21.4-1.6,45.1c-0.3,11.3-3,22.4-8,32.5
							c-1.5,3,5.1-10.2,4.4-8.9c-7.5,15.2-20.8,26.9-36.9,32.4c-2.8,0.9,8.2-2.8,4-1.4c-11.8,4-24.2,6-36.6,5.8
							c-7.5-0.1-10.8-0.2-18.3-0.3c-12.6-0.2-25-3.4-36.1-9.2c-2.6-1.4,6.1,3.2,3.4,1.8c-10.9-5.7-20.3-13.9-27.5-23.8
							c-1.7-2.3,4.3,5.9,2.6,3.6c-7.1-9.9-11-21.8-11-34c0-13.1,0-31.2,0-43.7c0-12.5,9.2-23,21.5-24.8c11.5-1.6,14.4-2,23.3-3.3
							c22.5-3.2,45.4-3.1,67.9,0.3c6.8,1,7,1,17.2,2.6c10.6,1.6,20.1,7.6,25.9,16.6C1924.8,1011,1926.7,1014,1929.7,1018.6l97.8-0.6
							"/>
					</g>
				</g>
			</g>
			<g>
				<g>
					<g>
						<path id="cXICXO8K" class="st13" d="M1768.1,1013.4H1694"/>
					</g>
				</g>
			</g>
		</g>
		<g>
			<g>
				<g>
					<path id="g1bsnT4oCi" class="st14" d="M2263.3,2295.8c13.1,0,23.7,10.6,23.7,23.7c0,4.7,0-4.7,0,0c0,13.1-10.6,23.7-23.7,23.7
						c-214.8,0-835.4,0-1050.2,0c-13.1,0-23.7-10.6-23.7-23.7c0-4.7,0,4.7,0,0c0-13.1,10.6-23.7,23.7-23.7
						C1427.9,2295.8,2048.5,2295.8,2263.3,2295.8z"/>
				</g>
			</g>
			<g>
				<g>
					<path id="g2iX47pgG" class="st15" d="M1189.4,2295.7l1097.5,0.2v21.7l-1097.5-0.2L1189.4,2295.7z"/>
				</g>
			</g>
			<g>
				<g>
					<path id="d1IEHrSqjo" class="st16" d="M2208.9,1723.6c21.1,0,38.1,17.1,38.1,38.1c0,111.3,0,407,0,518.2
						c0,21.1-17.1,38.1-38.1,38.1c-195.6,0-744.4,0-940.1,0c-21.1,0-38.1-17.1-38.1-38.1c0-111.3,0-406.9,0-518.2
						c0-21.1,17.1-38.1,38.1-38.1C1464.5,1723.6,2013.2,1723.6,2208.9,1723.6z"/>
				</g>
			</g>
			<g>
				<g>
					<path id="c3874rekr" class="st15" d="M2181.8,1748.6c19.9,0,36,16.1,36,35.9c0,104.9,0,383.6,0,488.5c0,19.9-16.1,36-36,36
						c-184.4,0-701.5,0-885.9,0c-19.8,0-36-16.1-36-36c0-104.9,0-383.6,0-488.5c0-19.9,16.1-35.9,36-35.9
						C1480.3,1748.6,1997.4,1748.6,2181.8,1748.6z"/>
				</g>
			</g>
			<g>
				<g>
					<path id="aI8AS6bKp" class="st16" d="M1289.2,1990.6l311.3,291.9h-311.3V1990.6z"/>
				</g>
			</g>
			<g>
				<g>
					<path id="aSvsQ20Eu" class="st16" d="M2188.5,2066.9L1877.2,1775h311.3V2066.9z"/>
				</g>
			</g>
		</g>
	</g>
</g>
</svg>
