<?xml version="1.0" encoding="utf-8"?>
<!-- Generator: Adobe Illustrator 24.2.3, SVG Export Plug-In . SVG Version: 6.00 Build 0)  -->
<svg version="1.1" id="Layer_1" xmlns="http://www.w3.org/2000/svg" xmlns:xlink="http://www.w3.org/1999/xlink" x="0px" y="0px"
	 viewBox="0 0 15 15" style="enable-background:new 0 0 15 15;" xml:space="preserve">
<style type="text/css">
	.st0{fill:#99D9EA;}
</style>
<path class="st0" d="M10.9,9c-0.4,0-0.7,0.3-0.7,0.7V12H3.5V5.3h2.2c0.4,0,0.7-0.3,0.7-0.7S6.1,3.8,5.7,3.8H3.5C2.7,3.8,2,4.4,2,5.3
	V12c0,0.8,0.7,1.5,1.5,1.5h6.7c0.8,0,1.5-0.7,1.5-1.5V9.7C11.7,9.3,11.3,9,10.9,9z M13.7,1.8c-0.1-0.1-0.3-0.2-0.5-0.2H9.4
	C9,1.6,8.7,1.9,8.7,2.3C8.7,2.7,9,3,9.4,3h1.9L6.1,8.3c-0.3,0.3-0.3,0.8,0,1.1c0.3,0.3,0.8,0.3,1.1,0l5.2-5.3V6
	c0,0.4,0.3,0.7,0.7,0.7s0.8-0.3,0.8-0.7V2.3C13.9,2.1,13.8,1.9,13.7,1.8z"/>
</svg>
