<?xml version="1.0" encoding="utf-8"?>
<!-- Generator: Adobe Illustrator 24.2.3, SVG Export Plug-In . SVG Version: 6.00 Build 0)  -->
<svg version="1.1" id="Layer_1" xmlns="http://www.w3.org/2000/svg" xmlns:xlink="http://www.w3.org/1999/xlink" x="0px" y="0px"
	 viewBox="0 0 997 547.7" style="enable-background:new 0 0 997 547.7;" xml:space="preserve">
<style type="text/css">
	.st0{fill:#9ADAEA;}
	.st1{opacity:0.3;}
</style>
<symbol  id="svg_14" viewBox="-205.9 -261.6 411.8 523.3">
	<g transform="matrix(-1,0,0,1,412,0)">
		<path class="st0" d="M464.1,12.8c79.2-8.3,65.9-131.1,2.1-164.6c-42.3-22.2-99.3-21.2-137.5-6.3C256.2-129.7,237-93.5,226.6-22.6
			c-10.4,70.8,24.5,258.2,108.3,279.2c75,18.8,103.9-17.6,95.8-52.1c-8.3-35.4-49.4-81.3-52.1-112.5C372.4,19,464.1,12.8,464.1,12.8
			L464.1,12.8z"/>
		<path class="st0" d="M605.1-160.1c-21.2,30.8-61.4,39.9-89.9,20.3c-28.4-19.6-34.3-60.4-13.1-91.2c21.2-30.8,61.4-39.9,89.9-20.3
			C620.5-231.7,626.4-190.9,605.1-160.1z"/>
		<path class="st0" d="M441.7-179.5c-18.1,3.1-35.3-8.7-38.3-26.2c-3-17.6,8.6-44,26.7-47.1c18.1-3.1,35.3,8.7,38.3,26.2
			C471.4-209,459.8-182.6,441.7-179.5z"/>
		<path class="st0" d="M382.8-192.2c-10.3,14.6-25.3,17.4-40.4,6.8c-15-10.6-18.6-40.9-8.3-55.4c10.3-14.6,25.3-17.4,40.4-6.8
			C389.5-237,393.1-206.8,382.8-192.2L382.8-192.2z"/>
		<path class="st0" d="M320-181.3c-3.2,15.2-19,24.8-35.3,21.4s-29.6-26.5-26.5-41.7c3.2-15.2,19-24.8,35.3-21.4
			C309.8-219.5,323.1-196.5,320-181.3z"/>
		<path class="st0" d="M253.6-159.5c9.3,13.9,7.5,31.3-3.9,39c-11.5,7.7-28.3,2.7-37.6-11.2c-9.3-13.9-7.5-31.3,3.9-39
			S244.3-173.3,253.6-159.5z"/>
	</g>
</symbol>
<g id="svg_16_1_" transform="rotate(-10, 205.791, 261.613)" class="st1">
	<path id="svg_1_1_" class="st0" d="M49.5,209c5.6,4.6,12.6-4.1,10.7-10.4c-1.3-4.1-5-7.7-8.4-9.2c-6.5-2.8-10-1.8-15.2,2.1
		c-5.2,3.9-15,18.1-11,24.8c3.6,6,7.8,5.6,9.5,2.8c1.7-2.8,2.1-8.4,3.9-10.5C43.2,203.5,49.5,209,49.5,209L49.5,209z"/>
	<path id="svg_2_1_" class="st0" d="M69.6,207c-3.3,0.6-6.5-1.4-7.1-4.5c-0.6-3.1,1.7-6.1,5-6.7c3.3-0.6,6.5,1.4,7.1,4.5
		C75.2,203.4,72.9,206.4,69.6,207z"/>
	<path id="svg_3_1_" class="st0" d="M60.4,195.3c-1.4-1-1.7-2.8-0.8-4.1c0.9-1.3,3.4-2.3,4.7-1.3c1.4,1,1.7,2.8,0.8,4.1
		S61.8,196.2,60.4,195.3z"/>
	<path id="svg_4_1_" class="st0" d="M57.5,190.7c-1.6,0.3-2.7-0.5-3-2.2s1.4-3.8,3-4.1c1.6-0.3,2.7,0.5,3,2.2
		C60.8,188.2,59.1,190.4,57.5,190.7L57.5,190.7z"/>
	<path id="svg_5_1_" class="st0" d="M52.7,187.3c-1.2,0.8-2.8,0.4-3.6-0.9c-0.8-1.3-0.2-3.6,1-4.4c1.2-0.8,2.8-0.4,3.6,0.9
		C54.6,184.2,53.9,186.5,52.7,187.3z"/>
	<path id="svg_6_1_" class="st0" d="M47.1,184.4c-0.3,1.5-1.5,2.5-2.8,2.2c-1.2-0.2-2-1.6-1.7-3.1c0.3-1.5,1.5-2.5,2.8-2.2
		C46.6,181.6,47.4,183,47.1,184.4z"/>
</g>
<g class="st1">
	<defs>
		
			<rect id="SVGID_1_" x="113.5" y="179.1" transform="matrix(0.8706 -0.4919 0.4919 0.8706 -80.2175 94.6046)" class="st1" width="52.5" height="41.4"/>
	</defs>
	<use xlink:href="#SVGID_1_"  style="overflow:visible;fill:#FFFFFF;"/>
	<clipPath id="SVGID_2_">
		<use xlink:href="#SVGID_1_"  style="overflow:visible;"/>
	</clipPath>
	<g transform="matrix(1 0 0 1 0 1.525879e-05)" style="clip-path:url(#SVGID_2_);">
		
			<use xlink:href="#svg_14"  width="411.8" height="523.3" id="svg_15_1_" x="-205.9" y="-261.6" transform="matrix(4.464433e-02 7.901835e-02 -7.897729e-02 4.462114e-02 138.5152 199.7438)" style="overflow:visible;"/>
	</g>
</g>
<g id="svg_16_3_" transform="rotate(-10, 205.791, 261.613)" class="st1">
	<path id="svg_1_3_" class="st0" d="M218.5,135.6c1.3,7.1,12.3,5,14.9-1.1c1.7-4,1.2-9.1-0.5-12.5c-3.1-6.3-6.5-7.8-13-8.2
		c-6.5-0.4-23.1,4.2-24.4,11.9c-1.1,6.9,2.4,9.3,5.4,8.3c3.1-1,7-5.1,9.8-5.6C217.3,127.3,218.5,135.6,218.5,135.6L218.5,135.6z"/>
	<path id="svg_2_3_" class="st0" d="M235.2,147c-2.9-1.7-4.1-5.3-2.5-8c1.6-2.7,5.2-3.6,8.1-1.9c2.9,1.7,4.1,5.3,2.5,8
		C241.8,147.9,238.2,148.7,235.2,147z"/>
	<path id="svg_3_3_" class="st0" d="M235.7,132.1c-0.4-1.6,0.5-3.3,2.1-3.7c1.6-0.4,4,0.4,4.5,2.1c0.4,1.6-0.5,3.3-2.1,3.7
		C238.6,134.6,236.2,133.7,235.7,132.1z"/>
	<path id="svg_4_3_" class="st0" d="M236.4,126.7c-1.4-0.8-1.8-2.2-0.9-3.6c0.8-1.4,3.6-2,4.9-1.2c1.4,0.8,1.8,2.2,0.9,3.6
		C240.5,127,237.8,127.5,236.4,126.7L236.4,126.7z"/>
	<path id="svg_5_3_" class="st0" d="M235,121.1c-1.4-0.2-2.4-1.5-2.2-3c0.2-1.5,2.2-2.9,3.6-2.7c1.4,0.2,2.4,1.5,2.2,3
		C238.4,119.9,236.4,121.3,235,121.1z"/>
	<path id="svg_6_3_" class="st0" d="M232.5,115.3c-1.2,0.9-2.8,0.9-3.6-0.1c-0.8-1-0.5-2.5,0.7-3.5c1.2-0.9,2.8-0.9,3.6,0.1
		C234,112.8,233.7,114.3,232.5,115.3z"/>
</g>
<g id="svg_16_4_" transform="rotate(-10, 205.791, 261.613)" class="st1">
	<path id="svg_1_4_" class="st0" d="M441.6,194c-2.8,6.7,7.6,10.9,13,7.3c3.6-2.4,6-7,6.5-10.7c0.9-7-1.2-10.1-6.4-14
		s-21.6-9.2-26.9-3.5c-4.7,5.2-3.1,9,0,9.9c3.2,0.9,8.6-0.4,11.2,0.7C445,186.5,441.6,194,441.6,194L441.6,194z"/>
	<path id="svg_2_4_" class="st0" d="M449.2,212.8c-1.5-3-0.5-6.6,2.3-8c2.8-1.4,6.3-0.1,7.8,2.9s0.5,6.6-2.3,8
		C454.3,217.1,450.8,215.8,449.2,212.8z"/>
	<path id="svg_3_4_" class="st0" d="M457.9,200.6c0.5-1.6,2.2-2.4,3.7-1.9c1.5,0.5,3.1,2.6,2.6,4.2c-0.5,1.6-2.2,2.4-3.7,1.9
		C458.9,204.2,457.3,202.2,457.9,200.6z"/>
	<path id="svg_4_4_" class="st0" d="M461.4,196.4c-0.7-1.5-0.3-2.8,1.2-3.5c1.5-0.7,4.1,0.3,4.8,1.7c0.7,1.5,0.3,2.8-1.2,3.5
		C464.7,198.9,462.1,197.9,461.4,196.4L461.4,196.4z"/>
	<path id="svg_5_4_" class="st0" d="M463.3,191c-1.1-0.9-1.2-2.6-0.2-3.7c1-1.2,3.4-1.2,4.5-0.3c1.1,0.9,1.2,2.6,0.2,3.7
		C466.8,191.8,464.3,191.9,463.3,191z"/>
	<path id="svg_6_4_" class="st0" d="M464.4,184.7c-1.5,0.1-2.8-0.8-2.9-2c-0.1-1.2,1-2.4,2.5-2.5c1.5-0.1,2.8,0.8,2.9,2
		C467,183.5,465.9,184.6,464.4,184.7z"/>
</g>
<g class="st1">
	<defs>
		
			<rect id="SVGID_3_" x="290.6" y="133.1" transform="matrix(0.129 -0.9916 0.9916 0.129 113.1112 447.5838)" class="st1" width="41.4" height="52.5"/>
	</defs>
	<use xlink:href="#SVGID_3_"  style="overflow:visible;fill:#FFFFFF;"/>
	<clipPath id="SVGID_4_">
		<use xlink:href="#SVGID_3_"  style="overflow:visible;"/>
	</clipPath>
	<g transform="matrix(1 0 1.490116e-08 1 0 0)" style="clip-path:url(#SVGID_4_);">
		
			<use xlink:href="#svg_14"  width="411.8" height="523.3" id="svg_15_4_" x="-205.9" y="-261.6" transform="matrix(-1.170639e-02 8.999987e-02 -8.995311e-02 -1.170031e-02 310.3855 158.5781)" style="overflow:visible;"/>
	</g>
</g>
<g id="svg_16_5_" transform="rotate(-10, 205.791, 261.613)" class="st1">
	<path id="svg_1_5_" class="st0" d="M600.9,310.8c-2.8,6.7,7.6,10.9,13,7.3c3.6-2.4,6-7,6.5-10.7c0.9-7-1.2-10.1-6.4-14
		c-5.2-3.9-21.6-9.2-26.9-3.5c-4.7,5.2-3.1,9,0,9.9c3.2,0.9,8.6-0.4,11.2,0.7C604.4,303.2,600.9,310.8,600.9,310.8L600.9,310.8z"/>
	<path id="svg_2_5_" class="st0" d="M608.6,329.5c-1.5-3-0.5-6.6,2.3-8c2.8-1.4,6.3-0.1,7.8,2.9c1.5,3,0.5,6.6-2.3,8
		C613.6,333.8,610.1,332.5,608.6,329.5z"/>
	<path id="svg_3_5_" class="st0" d="M617.2,317.3c0.5-1.6,2.2-2.4,3.7-1.9c1.5,0.5,3.1,2.6,2.6,4.2c-0.5,1.6-2.2,2.4-3.7,1.9
		C618.3,321,616.7,318.9,617.2,317.3z"/>
	<path id="svg_4_5_" class="st0" d="M620.8,313.2c-0.7-1.5-0.3-2.8,1.2-3.5c1.5-0.7,4.1,0.3,4.8,1.7c0.7,1.5,0.3,2.8-1.2,3.5
		C624.1,315.7,621.5,314.6,620.8,313.2L620.8,313.2z"/>
	<path id="svg_5_5_" class="st0" d="M622.6,307.7c-1.1-0.9-1.2-2.6-0.2-3.7c1-1.2,3.4-1.2,4.5-0.3s1.2,2.6,0.2,3.7
		S623.7,308.6,622.6,307.7z"/>
	<path id="svg_6_5_" class="st0" d="M623.8,301.5c-1.5,0.1-2.8-0.8-2.9-2c-0.1-1.2,1-2.4,2.5-2.5c1.5-0.1,2.8,0.8,2.9,2
		C626.4,300.2,625.3,301.3,623.8,301.5z"/>
</g>
<g class="st1">
	<defs>
		
			<rect id="SVGID_5_" x="478.8" y="189" transform="matrix(0.5704 -0.8214 0.8214 0.5704 37.7208 502.7652)" class="st1" width="41.4" height="52.5"/>
	</defs>
	<use xlink:href="#SVGID_5_"  style="overflow:visible;fill:#FFFFFF;"/>
	<clipPath id="SVGID_6_">
		<use xlink:href="#SVGID_5_"  style="overflow:visible;"/>
	</clipPath>
	<g transform="matrix(1 2.980232e-08 -2.980232e-08 1 3.051758e-05 1.525879e-05)" style="clip-path:url(#SVGID_6_);">
		
			<use xlink:href="#svg_14"  width="411.8" height="523.3" id="svg_15_5_" x="-205.9" y="-261.6" transform="matrix(-5.176570e-02 7.454749e-02 -7.450876e-02 -5.173881e-02 498.9969 214.1517)" style="overflow:visible;"/>
	</g>
</g>
<g class="st1">
	<defs>
		
			<rect id="SVGID_7_" x="672" y="272.2" transform="matrix(5.718172e-02 -0.9984 0.9984 5.718172e-02 355.1708 972.9524)" class="st1" width="41.4" height="52.5"/>
	</defs>
	<use xlink:href="#SVGID_7_"  style="overflow:visible;fill:#FFFFFF;"/>
	<clipPath id="SVGID_8_">
		<use xlink:href="#SVGID_7_"  style="overflow:visible;"/>
	</clipPath>
	<g transform="matrix(1 0 3.725290e-09 1 0 0)" style="clip-path:url(#SVGID_8_);">
		
			<use xlink:href="#svg_14"  width="411.8" height="523.3" id="svg_15_6_" x="-205.9" y="-261.6" transform="matrix(-5.189700e-03 9.060951e-02 -9.056243e-02 -5.187003e-03 691.7089 297.674)" style="overflow:visible;"/>
	</g>
</g>
<g id="svg_16_6_" transform="rotate(-10, 205.791, 261.613)" class="st1">
	<path id="svg_1_6_" class="st0" d="M779.9,380.5c0.4,7.2,11.5,6.6,14.9,1c2.2-3.7,2.4-8.9,1.3-12.4c-2.2-6.7-5.4-8.6-11.7-9.9
		c-6.4-1.3-23.5,0.9-25.8,8.4c-2.1,6.7,1.1,9.5,4.2,8.9c3.2-0.6,7.6-4.1,10.4-4.2C779.8,372.1,779.9,380.5,779.9,380.5L779.9,380.5z
		"/>
	<path id="svg_2_6_" class="st0" d="M794.8,394.1c-2.7-2.1-3.3-5.8-1.4-8.2c1.9-2.5,5.6-2.8,8.3-0.7c2.7,2.1,3.3,5.8,1.4,8.2
		C801.3,395.9,797.5,396.2,794.8,394.1z"/>
	<path id="svg_3_6_" class="st0" d="M797.4,379.4c-0.2-1.7,1-3.2,2.6-3.3c1.6-0.2,3.9,1,4.1,2.7c0.2,1.7-1,3.2-2.6,3.3
		C799.9,382.2,797.6,381.1,797.4,379.4z"/>
	<path id="svg_4_6_" class="st0" d="M798.9,374.1c-1.3-1-1.4-2.4-0.4-3.7c1-1.3,3.8-1.5,5.1-0.5c1.3,1,1.4,2.4,0.4,3.7
		C802.9,375,800.1,375.1,798.9,374.1L798.9,374.1z"/>
	<path id="svg_5_6_" class="st0" d="M798.2,368.4c-1.4-0.4-2.1-1.8-1.8-3.3c0.4-1.5,2.5-2.5,3.9-2.2c1.4,0.4,2.1,1.8,1.8,3.3
		C801.7,367.7,799.5,368.8,798.2,368.4z"/>
	<path id="svg_6_6_" class="st0" d="M796.5,362.3c-1.3,0.8-2.9,0.5-3.5-0.6s-0.1-2.6,1.2-3.3c1.3-0.8,2.9-0.5,3.5,0.6
		C798.4,360,797.8,361.5,796.5,362.3z"/>
</g>
<g class="st1">
	<defs>
		
			<rect id="SVGID_9_" x="858.4" y="286.7" transform="matrix(0.9901 -0.1404 0.1404 0.9901 -34.3928 127.2191)" class="st1" width="52.5" height="41.4"/>
	</defs>
	<use xlink:href="#SVGID_9_"  style="overflow:visible;fill:#FFFFFF;"/>
	<clipPath id="SVGID_10_">
		<use xlink:href="#SVGID_9_"  style="overflow:visible;"/>
	</clipPath>
	<g transform="matrix(1 -1.490116e-08 0 1 -6.103516e-05 0)" style="clip-path:url(#SVGID_10_);">
		
			<use xlink:href="#svg_14"  width="411.8" height="523.3" id="svg_15_7_" x="-205.9" y="-261.6" transform="matrix(1.273966e-02 8.985943e-02 -8.981274e-02 1.273304e-02 883.4905 306.8727)" style="overflow:visible;"/>
	</g>
</g>
<g id="svg_16_7_" transform="rotate(-10, 205.791, 261.613)" class="st1">
	<path id="svg_1_7_" class="st0" d="M950.1,385.2c0.4,7.2,11.5,6.6,14.9,1c2.2-3.7,2.4-8.9,1.3-12.4c-2.2-6.7-5.4-8.6-11.7-9.9
		c-6.4-1.3-23.5,0.9-25.8,8.4c-2.1,6.7,1.1,9.5,4.2,8.9c3.2-0.6,7.6-4.1,10.4-4.2C950,376.8,950.1,385.2,950.1,385.2L950.1,385.2z"
		/>
	<path id="svg_2_7_" class="st0" d="M965,398.8c-2.7-2.1-3.3-5.8-1.4-8.2c1.9-2.5,5.6-2.8,8.3-0.7c2.7,2.1,3.3,5.8,1.4,8.2
		C971.4,400.5,967.7,400.9,965,398.8z"/>
	<path id="svg_3_7_" class="st0" d="M967.6,384.1c-0.2-1.7,1-3.2,2.6-3.3c1.6-0.2,3.9,1,4.1,2.7c0.2,1.7-1,3.2-2.6,3.3
		S967.8,385.7,967.6,384.1z"/>
	<path id="svg_4_7_" class="st0" d="M969.1,378.8c-1.3-1-1.4-2.4-0.4-3.7c1-1.3,3.8-1.5,5.1-0.5c1.3,1,1.4,2.4,0.4,3.7
		C973.1,379.7,970.3,379.8,969.1,378.8L969.1,378.8z"/>
	<path id="svg_5_7_" class="st0" d="M968.4,373.1c-1.4-0.4-2.1-1.8-1.8-3.3c0.4-1.5,2.5-2.5,3.9-2.2c1.4,0.4,2.1,1.8,1.8,3.3
		C971.9,372.3,969.7,373.4,968.4,373.1z"/>
	<path id="svg_6_7_" class="st0" d="M966.7,367c-1.3,0.8-2.9,0.5-3.5-0.6s-0.1-2.6,1.2-3.3c1.3-0.8,2.9-0.5,3.5,0.6
		S968,366.2,966.7,367z"/>
</g>
</svg>
