<?xml version="1.0" encoding="utf-8"?>
<!-- Generator: Adobe Illustrator 23.0.1, SVG Export Plug-In . SVG Version: 6.00 Build 0)  -->
<svg version="1.1" id="Layer_1" xmlns="http://www.w3.org/2000/svg" xmlns:xlink="http://www.w3.org/1999/xlink" x="0px" y="0px"
	 viewBox="0 0 600 263.5" style="enable-background:new 0 0 600 263.5;" xml:space="preserve">
<style type="text/css">
	.st0{fill:#040015;fill-opacity:0.3333;}
	.st1{fill:#A29797;}
	.st2{fill:#000674;fill-opacity:0.9961;}
	.st3{fill:#E5EEFF;fill-opacity:0.9961;}
	.st4{fill:#1A1A1A;}
	.st5{fill:#FFC8B1;}
	.st6{fill:#FFFFFF;}
	.st7{fill:#0E0400;}
	.st8{fill:#FF0000;}
	.st9{fill:#FF4D00;fill-opacity:0.1137;}
	.st10{fill:#FF9100;}
</style>
<g id="layer1">
	<g>
		<path class="st0" d="M600,254l-2.7,1.4c-13,2.8-51,5-113.9,6.7c-63.4,1.7-138.1,2.4-224,2c-82-0.4-147.6-1.7-196.8-3.9
			c-15.8-0.7-28.7-1.5-38.9-2.3l-12.9-1.3C3.7,255.8,0.1,254.9,0,254c2.1-2.9,31.4-5.3,87.9-7.2c56.4-1.9,127.1-2.9,212.1-3
			c85,0.1,155.7,1.1,212.1,3C568.6,248.6,597.9,251.1,600,254"/>
	</g>
	<g>
	</g>
	<g>
	</g>
	<g>
		<path class="st1" d="M467.4,237.1l23.3,0l23.3,0c0,4.6,0,9.2,0,13.7c-15.5,0-31.1,0-46.6,0C467.4,246.2,467.4,241.6,467.4,237.1"
			/>
	</g>
	<g>
		<path class="st1" d="M256.1,229.4l67.8,0l67.8,0c0,6,0,12,0,17.9c-45.2,0-90.5,0-135.7,0C256.1,241.4,256.1,235.4,256.1,229.4"/>
	</g>
	<g>
		<path class="st1" d="M116.5,234.9l27.7,0l27.7,0c0,4.4,0,8.8,0,13.2c-18.5,0-36.9,0-55.4,0C116.5,243.7,116.5,239.3,116.5,234.9"
			/>
	</g>
	<g>
		<path class="st2" d="M154.2,3.4l165.1,0l165.1,0c0,74.7,0,149.4,0,224.2c-110.1,0-220.2,0-330.2,0
			C154.2,152.9,154.2,78.2,154.2,3.4"/>
	</g>
	<g>
		<path class="st3" d="M192.8,31.3l94.7,0l94.7,0c0,46.5,0,92.9,0,139.4c-63.1,0-126.3,0-189.4,0C192.8,124.3,192.8,77.8,192.8,31.3
			"/>
	</g>
	<g>
		<g>
			<path class="st4" d="M158.9,0.7c-6.5,0-11.7,5.1-11.7,11.4l0,208.9c0,6-0.8,10.9,4.6,11.4l-38.4,0c-4.5,0-2.2,3.5-2.2,7.9v5.3
				c0,4.4,3.7,7.9,8.2,7.9l397.5,0c4.5,0,8.2-3.5,8.2-7.9v-5.3c0-4.4,2.3-7.9-2.2-7.9l-38.4,0c5.5-0.5,4.6-5.4,4.6-11.4l0-208.9
				c0-6.3-5.2-11.4-11.7-11.4L158.9,0.7L158.9,0.7z M259.8,3.4c1.7,0,3,1.3,3,2.9c0,1.6-1.3,2.9-3,2.9c-1.7,0-3-1.3-3-2.9
				C256.8,4.8,258.1,3.4,259.8,3.4z M158.6,12.1l319.2,0l0,208.9l-319.2,0L158.6,12.1L158.6,12.1z M266.3,232.4l103.8,0
				c-0.2,2.2-1.7,3.9-3.6,3.9l-96.6,0C268,236.4,266.5,234.7,266.3,232.4L266.3,232.4z M477.1,238.7c2.4,0,4.4,1.9,4.4,4.3
				c0,2.4-2,4.3-4.4,4.3c-2.4,0-4.4-1.9-4.4-4.3C472.6,240.6,474.6,238.7,477.1,238.7z M491,238.7c2.4,0,4.4,1.9,4.4,4.3
				c0,2.4-2,4.3-4.4,4.3c-2.4,0-4.4-1.9-4.4-4.3C486.6,240.6,488.6,238.7,491,238.7z M505,238.7c2.4,0,4.4,1.9,4.4,4.3
				c0,2.4-2,4.3-4.4,4.3c-2.4,0-4.4-1.9-4.4-4.3C500.5,240.6,502.5,238.7,505,238.7z M129,241.5l23.2,0c1.1,0,2,0.6,2,1.4
				c0,0.8-0.9,1.4-2,1.4l-23.2,0c-1.1,0-2-0.6-2-1.4C126.9,242.2,127.8,241.5,129,241.5z"/>
		</g>
	</g>
	<g>
		<path class="st5" d="M377.9,113.9c-0.4,0.1-0.5,0.4-0.5,1c0,0.3,0,0.7,0.1,1.2c0.5,2.5,0.7,3.8,0.7,3.8c0,0.7-0.1,1.3-0.3,1.8
			c-0.9,0.4-1.7,0.5-2.5,0.2c-0.5-0.1-1.1-0.4-2-0.9l-3.7-2.3c-0.5-0.2-0.8-0.1-1.1,0.3c-0.1,0.3,0,0.7,0.3,1.1
			c0.2,0.2,0.4,0.5,0.7,0.7c1.7,1.4,2.6,2.1,2.6,2.2c0.4,0.4,0.7,0.9,0.8,1.4c-3.4-2-6.2-3.9-8.6-5.6c-0.8-0.4-1.4-0.3-1.8,0.2
			c-0.3,0.5,0,1.2,0.8,2c0.3,0.3,0.7,0.7,1.3,1.2l4.8,4c0.8,0.7,1.1,1,1,1.1c-0.6-0.1-1.8-0.8-3.6-2.1c-0.8-0.5-1.7-1.4-2.9-2.7
			c-0.2-0.2-0.4-0.3-0.6-0.4c-0.5-0.2-1.1-0.3-1.6-0.1c-0.4,0.2-0.6,0.5-0.5,0.9c0.1,0.8,1.9,2.3,5.2,4.7c-1.3-0.8-2.1-1.2-2.3-1
			c-0.2,0.1-0.1,0.4,0.1,0.9c0,0.2,0.2,0.4,0.6,0.8c2,1.8,4.2,3.4,6.6,4.7c1.5,0.8,2.9,1.2,4.2,1.3c1.2,0.2,2.9,0,5.1-0.4l2.5,0.2
			l0.7-7c-0.1-0.5-0.3-1.3-0.6-2.2c-0.3-1.2-0.6-2.1-1-2.9c-0.1-0.4-0.7-1.4-1.7-3c-0.2-0.3-0.3-0.6-0.5-1c-0.2-0.4-0.3-0.8-0.4-1.3
			c-0.1-0.4-0.2-0.9-0.4-1.8c0-0.1-0.1-0.3-0.1-0.4C379.2,114.1,378.6,113.9,377.9,113.9"/>
	</g>
	<g>
		<path class="st6" d="M383.5,125.8l-2.6,12.1l2.7,0.6l0,0l2.6-12.1L383.5,125.8"/>
	</g>
	<g>
		<path class="st7" d="M420.8,31c-2.3,0.1-4.1,0.9-5.4,2.3c-1.5,1.5-2.9,3.9-4.3,7.4c-1.2,3-1.8,4.5-1.8,4.5
			c-0.3,0.8-0.4,1.5-0.4,2.1c-0.1,1.3,0.5,4.1,1.7,8.4l28.1,9.2c1.8-6.3,2.6-10.9,2.6-14c0-3.5-0.9-6.9-2.6-10.2
			c-1.8-3.3-3.9-5.6-6.2-6.8C428.1,31.9,424.2,30.9,420.8,31"/>
	</g>
	<g>
		<path d="M441.7,76l-0.6,0.4L421,90.3l-7.9,5.5l-11,33.8l-17.6-3.5v0l1.8,0.4l-1.8-0.4l-0.6-0.1l-2.4,12.2l-0.6,3.2l17.4,5.4
			l-7.8,64.7l5,0.1c-0.1,2.3-0.2,4.5-0.3,6.7l0,0c-0.2,4-0.4,7.9-0.5,11.4l2.1,0v0l-2.1,0l0,0c-0.1,1.3-0.1,2.7-0.2,3.9l0.4,0v0
			l-0.4,0c-0.3,6.6-0.5,12.3-0.6,17.2h25.8c1.3-5.2,2.6-9.5,3.9-12.8c1,4.6,1.8,8.9,2.6,12.8l24.2,0l3.3-32.6l1.1-11.4l18.8-5.6
			l-8.2-29.9l13.7-17.8c-3.2-31-6.8-50.2-10.7-57.4c-1.9-3.8-4-6.6-6.5-8.4c-2.8-2.3-7.5-3.8-14.1-4.6l-5.7-6.7L441.7,76z"/>
	</g>
	<g>
		<path d="M443.2,189.1L443.2,189.1L443.2,189.1c-0.3,0.4-0.6,0.7-0.8,1.1l0,0C442.6,189.8,442.9,189.5,443.2,189.1z"/>
	</g>
	<g>
		<path d="M401,168l0.7,1.6l0,0L401,168z"/>
	</g>
	<g>
		<path d="M420.6,92.2l-0.1,0.1l-0.1,0.3l0,0l0.1-0.4L420.6,92.2L420.6,92.2z"/>
	</g>
	<g>
		<path class="st6" d="M440.2,75.4l-15.3,12l-3.2-0.7l-0.9,5.3c-5.6,11.2-9.1,18.8-10.5,23c-3,7.8-5.1,16.8-6.2,27
			c-0.8,6.7-1.7,17.2-2.4,31.6c0.1,0.2,0.5,0.7,1.3,1.7c1.8,2.1,4.3,3.2,7.6,3.3c3,0.2,9-0.6,18-2.4c-4.4-10.9-7.1-19.6-8.3-26.1
			c-1.5-7.4-1.8-14.5-1-21.4c0.8-6.8,2.8-13.8,6.1-21c2.9-6.7,8.5-16.7,16.8-30.1l0-0.1L440.2,75.4"/>
	</g>
	<g>
		<path class="st8" d="M423.8,89.1l-3.4,3.2l-1.1,3.8c-1.6,2-3.1,4.4-4.3,7.2c-2.4,5.3-4.8,12-7.2,20.2c-2.1,7.1-3.5,13.8-4.4,19.9
			c-1,6.3-1.8,14.5-2.4,24.6l2.5,5.3l6-6.2L422,97.5l3.8-3.7L423.8,89.1"/>
	</g>
	<g>
		<path class="st5" d="M425.9,42.5c-0.7,0-1.5,0.1-2.5,0.2c-3.2,0.6-6,1.1-8.4,1.4c-1.1,0.2-1.9,0.5-2.4,0.8c-1.6,1-2.4,3.7-2.5,8
			c-0.1,2,0.2,4.2,0.7,6.6c0.1,3.4,0.2,5.9,0.4,7.4c0.2,1.9,0.5,3.3,1,4.4c0.2,0.5,0.5,1,0.7,1.4l2.1,3.1c1.8,3.4,2.8,5.1,2.9,5
			c0.7,0.9,1.7,1.3,3.1,1l0.7,5.1l3.2,0.6l15.1-10.7l-0.2-12.1c1.5-1.2,2.4-4,2.7-8.3c0.1-3.3-1.1-4.3-3.6-3.2
			c-0.7,0.4-1.2,1-1.6,1.8c-0.5,1-0.8,2.7-0.9,5.3l-0.8,0.2c-1.1-7.4-2.3-12.2-3.6-14.4C430.9,43.7,428.8,42.5,425.9,42.5"/>
	</g>
	<g>
		<path class="st5" d="M443.7,188.4l-7.5-7.5l-4.9,4.5c-1.3,0-2.4,0.3-3.3,0.9c-0.9,0.5-2.3,1.8-4.4,3.9c2.1,3.5,4.2,5.7,6.2,6.4
			c1.9,0.9,5.5,1.1,10.9,0.6c0.4-0.7,0.6-1.3,0.6-1.7c0-0.5-0.2-1.1-0.6-2l0.2-0.7C441.2,191.7,442.1,190.3,443.7,188.4"/>
	</g>
	<g>
		<path class="st6" d="M448.5,187.3l-10-8.4l-3.3,2.3l9.4,9.4L448.5,187.3"/>
	</g>
	<g>
		<path class="st9" d="M432.3,74.7c-2.3,2.8-4.1,4.6-5.3,5.4c-1.3,0.9-3.2,1.5-5.9,1.8l0.7,5.1l3.2,0.7l9-6.6L432.3,74.7"/>
	</g>
	<g>
		<g>
			<path class="st10" d="M338.8,47.5c-0.9,0-1.7,0.1-2.4,0.4c-0.7,0.2-1.4,0.5-1.9,0.9c-0.6,0.4-1.1,0.8-1.5,1.3
				c-0.4,0.5-0.8,1-1.1,1.4c0-0.5,0-1.1-0.1-1.8c-0.1-0.7-0.2-1.3-0.3-1.7c-0.3-0.1-0.6-0.1-0.9-0.1c-0.3,0-0.5,0-0.8,0
				c-0.3,0-0.6,0-0.9,0c-0.3,0-0.6,0.1-0.9,0.1v21.7c0.3,0.1,0.7,0.1,1.1,0.1c0.4,0,0.7,0,1.1,0c0.3,0,0.7,0,1.1,0
				c0.4,0,0.7-0.1,1-0.1l0-11c0-1.3,0.2-2.5,0.5-3.4c0.3-0.9,0.7-1.7,1.3-2.3c0.5-0.6,1.2-1,1.9-1.3c0.7-0.3,1.5-0.4,2.2-0.4
				c1.4,0,2.3,0.5,3,1.4c0.6,0.9,0.9,2.4,0.9,4.4l0,12.6c0.3,0.1,0.7,0.1,1.1,0.1c0.4,0,0.7,0,1,0c0.3,0,0.7,0,1.1,0
				c0.4,0,0.7-0.1,1.1-0.1V56c0-2.8-0.6-4.9-1.8-6.3C343.1,48.2,341.3,47.5,338.8,47.5z"/>
		</g>
		<g>
			<path class="st10" d="M230.8,38.5c-0.3,0-0.7,0-1.1,0c-0.4,0-0.7,0.1-1,0.1l0,25.4c0,1.1,0.2,2.1,0.5,2.8
				c0.3,0.8,0.7,1.4,1.3,1.8c0.5,0.5,1.2,0.8,1.9,1c0.7,0.2,1.5,0.3,2.3,0.3c0.5,0,1,0,1.6-0.1c0.6,0,1-0.1,1.4-0.3
				c0-1.2-0.1-2.2-0.4-3.2c-0.2,0.1-0.5,0.1-0.8,0.1c-0.3,0-0.6,0-0.8,0c-0.4,0-0.7,0-1.1-0.1c-0.3-0.1-0.6-0.2-0.8-0.5
				c-0.2-0.2-0.4-0.6-0.6-1c-0.1-0.5-0.2-1.1-0.2-1.9l0-24.5c-0.3-0.1-0.7-0.1-1.1-0.1C231.5,38.6,231.1,38.5,230.8,38.5z"/>
		</g>
		<g>
			<path class="st10" d="M272.3,47.5c-2.7,0-4.7,0.6-6.1,1.7c-1.4,1.1-2,2.7-2,4.6c0,1.4,0.4,2.6,1.2,3.4s2.1,1.6,3.9,2.3l1.5,0.6
				c0.5,0.2,1,0.4,1.5,0.6c0.5,0.2,0.9,0.4,1.2,0.6c0.3,0.3,0.6,0.6,0.8,0.9c0.2,0.4,0.3,0.8,0.3,1.4c0,0.5-0.1,1-0.4,1.4
				c-0.3,0.4-0.6,0.7-1.1,1c-0.4,0.3-0.9,0.5-1.5,0.6c-0.6,0.1-1.2,0.2-1.9,0.2c-0.9,0-1.8-0.1-2.8-0.3c-0.9-0.2-1.7-0.4-2.5-0.7
				c-0.2,0.6-0.4,1.1-0.6,1.7c-0.2,0.6-0.3,1.1-0.3,1.7c0.9,0.3,1.8,0.6,2.8,0.8c1,0.2,2.2,0.3,3.6,0.3c1.3,0,2.5-0.2,3.6-0.5
				c1.1-0.3,2-0.8,2.8-1.4c0.8-0.6,1.4-1.3,1.8-2.2c0.4-0.8,0.6-1.8,0.6-2.8c0-0.9-0.1-1.7-0.4-2.4c-0.3-0.6-0.6-1.2-1.1-1.7
				c-0.4-0.5-0.9-0.8-1.6-1.1c-0.6-0.3-1.2-0.6-1.9-0.8l-1.9-0.6c-0.5-0.2-1-0.3-1.4-0.5c-0.4-0.2-0.8-0.4-1.1-0.6
				c-0.3-0.2-0.6-0.5-0.8-0.8c-0.2-0.3-0.3-0.7-0.3-1.2c0-0.9,0.4-1.6,1.2-1.9c0.8-0.4,1.7-0.6,2.8-0.6c1,0,1.9,0.1,2.8,0.3
				c0.8,0.2,1.6,0.4,2.2,0.6c0.2-0.5,0.4-1,0.6-1.6c0.1-0.6,0.2-1.1,0.3-1.7c-0.8-0.3-1.7-0.5-2.8-0.8
				C274.4,47.6,273.4,47.5,272.3,47.5z"/>
		</g>
		<g>
			<path class="st10" d="M291.5,47.5c-2.7,0-4.7,0.6-6.1,1.7c-1.4,1.1-2,2.7-2,4.6c0,1.4,0.4,2.6,1.2,3.4c0.8,0.8,2.1,1.6,3.9,2.3
				l1.5,0.6c0.5,0.2,1,0.4,1.5,0.6c0.5,0.2,0.9,0.4,1.2,0.6c0.3,0.3,0.6,0.6,0.8,0.9c0.2,0.4,0.3,0.8,0.3,1.4c0,0.5-0.1,1-0.4,1.4
				c-0.3,0.4-0.6,0.7-1.1,1c-0.4,0.3-0.9,0.5-1.5,0.6c-0.6,0.1-1.2,0.2-1.9,0.2c-0.9,0-1.8-0.1-2.8-0.3c-0.9-0.2-1.7-0.4-2.5-0.7
				c-0.2,0.6-0.4,1.1-0.6,1.7c-0.2,0.6-0.3,1.1-0.3,1.7c0.9,0.3,1.8,0.6,2.8,0.8c1,0.2,2.2,0.3,3.6,0.3c1.3,0,2.5-0.2,3.6-0.5
				c1.1-0.3,2-0.8,2.8-1.4c0.8-0.6,1.4-1.3,1.8-2.2c0.4-0.8,0.6-1.8,0.6-2.8c0-0.9-0.1-1.7-0.4-2.4c-0.3-0.6-0.6-1.2-1.1-1.7
				c-0.4-0.5-0.9-0.8-1.6-1.1c-0.6-0.3-1.2-0.6-1.9-0.8l-1.9-0.6c-0.5-0.2-1-0.3-1.4-0.5c-0.4-0.2-0.8-0.4-1.1-0.6
				c-0.3-0.2-0.6-0.5-0.8-0.8c-0.2-0.3-0.3-0.7-0.3-1.2c0-0.9,0.4-1.6,1.2-1.9c0.8-0.4,1.7-0.6,2.8-0.6c1,0,1.9,0.1,2.8,0.3
				c0.8,0.2,1.6,0.4,2.2,0.6c0.2-0.5,0.4-1,0.6-1.6c0.1-0.6,0.2-1.1,0.3-1.7c-0.8-0.3-1.7-0.5-2.8-0.8
				C293.7,47.6,292.6,47.5,291.5,47.5z"/>
		</g>
		<g>
			<path class="st10" d="M250.4,47.5c-1.7,0-3.3,0.3-4.6,0.9c-1.3,0.6-2.3,1.4-3.2,2.5c-0.8,1-1.5,2.2-1.9,3.6
				c-0.4,1.4-0.6,2.9-0.6,4.5c0,1.6,0.2,3.1,0.6,4.5c0.4,1.4,1.1,2.5,2,3.6c0.9,1,2.1,1.8,3.5,2.3c1.4,0.5,3.1,0.8,5.1,0.8
				c1.4,0,2.6-0.1,3.7-0.3c1.1-0.2,2.1-0.5,3-0.9c0-0.6-0.1-1.2-0.3-1.8c-0.1-0.6-0.3-1.1-0.6-1.5c-1.8,0.7-3.7,1.1-5.7,1.1
				c-2.3,0-4-0.6-5.2-1.7c-1.2-1.1-1.8-2.8-1.8-5.2l14.8,0c0-0.3,0.1-0.7,0.1-1.1c0-0.4,0-0.8,0-1.2c0-1.4-0.2-2.8-0.6-4
				c-0.4-1.2-1-2.3-1.7-3.2c-0.8-0.9-1.7-1.6-2.8-2.1C253.2,47.8,251.9,47.5,250.4,47.5z M250.2,50.9c0.9,0,1.6,0.2,2.3,0.5
				c0.6,0.3,1.1,0.7,1.6,1.3c0.4,0.5,0.7,1.2,0.9,1.9c0.2,0.7,0.3,1.5,0.3,2.2l-10.7,0c0.2-1.9,0.8-3.3,1.7-4.4
				C247.2,51.4,248.5,50.9,250.2,50.9z"/>
		</g>
		<g>
			<path class="st10" d="M312.3,47.5c-1.7,0-3.2,0.3-4.4,0.9s-2.3,1.4-3.2,2.4c-0.8,1-1.5,2.2-1.9,3.6c-0.4,1.4-0.6,2.9-0.6,4.5
				s0.2,3.1,0.6,4.5c0.4,1.4,1,2.6,1.9,3.6c0.8,1,1.9,1.8,3.2,2.4c1.3,0.6,2.8,0.8,4.4,0.8c1.7,0,3.2-0.3,4.4-0.9
				c1.3-0.6,2.3-1.4,3.2-2.4c0.8-1,1.5-2.2,1.9-3.6c0.4-1.4,0.6-2.9,0.6-4.5s-0.2-3.1-0.6-4.5c-0.4-1.4-1-2.6-1.9-3.6
				c-0.8-1-1.9-1.8-3.2-2.4C315.5,47.8,314,47.5,312.3,47.5z M312.3,50.9c1.9,0,3.4,0.7,4.3,2.1c0.9,1.4,1.4,3.3,1.4,5.8
				s-0.5,4.5-1.4,5.9c-0.9,1.4-2.4,2.1-4.3,2.1c-1.9,0-3.4-0.7-4.3-2.1c-0.9-1.4-1.4-3.4-1.4-5.9c0-2.5,0.5-4.5,1.4-5.9
				C308.9,51.6,310.3,50.9,312.3,50.9z"/>
		</g>
	</g>
	<g>
		<path class="st10" d="M289.6,84.5l-11.3,5.4c0.2,0.6,0.5,1.2,0.7,1.7c0.2,0.5,0.5,1,0.9,1.4l6.1-2.8v18.2l-6.3,0
			c-0.1,0.6-0.2,1.2-0.2,1.8c0,0.6,0.1,1.3,0.2,1.8l16.5,0c0.1-0.6,0.1-1.2,0.1-1.8c0-0.5,0-1.1-0.1-1.8l-6.1,0l0-23.9H289.6z"/>
	</g>
</g>
</svg>
