<?xml version="1.0" encoding="utf-8"?>
<!-- Generator: Adobe Illustrator 23.0.1, SVG Export Plug-In . SVG Version: 6.00 Build 0)  -->
<svg version="1.1" id="Layer_1" xmlns="http://www.w3.org/2000/svg" xmlns:xlink="http://www.w3.org/1999/xlink" x="0px" y="0px"
	 viewBox="0 0 1622.5 540" style="enable-background:new 0 0 1622.5 540;" xml:space="preserve">
<style type="text/css">
	.st0{fill:none;stroke:#5599FF;stroke-width:10.5833;stroke-linecap:round;stroke-linejoin:round;}
	.st1{fill-rule:evenodd;clip-rule:evenodd;fill:#5599FF;stroke:#5599FF;stroke-width:10.5833;}
	.st2{fill-rule:evenodd;clip-rule:evenodd;fill:#5599FF;stroke:#5599FF;stroke-width:10.5833;stroke-linecap:square;}
	
		.st3{fill-rule:evenodd;clip-rule:evenodd;fill:#393366;stroke:#5599FF;stroke-width:10.088;stroke-linecap:round;stroke-linejoin:round;}
	.st4{fill-rule:evenodd;clip-rule:evenodd;fill:#393366;stroke:#5599FF;stroke-width:13.9864;stroke-linecap:round;}
	.st5{fill-rule:evenodd;clip-rule:evenodd;fill:#FF9100;}
	.st6{fill-rule:evenodd;clip-rule:evenodd;fill:#013A63;}
	
		.st7{fill-rule:evenodd;clip-rule:evenodd;fill:#FF9100;stroke:#FF9100;stroke-width:16;stroke-linecap:round;stroke-linejoin:round;}
	.st8{fill:#FF9100;}
</style>
<g id="g1746">
	<path id="path1615" class="st0" d="M20.4,20.5v400h600v-400H20.4z"/>
	<path id="path1617" class="st1" d="M320.4,420.5v100"/>
	<path id="path1619" class="st2" d="M220.4,520.5h200"/>
	<g id="g1635" transform="matrix(0.44216321,0,0,0.44216321,767.3193,4840.4659)">
		<g id="g1625" transform="matrix(1.3113808,0,0,1.3113808,-64.448415,-158.9384)">
			<path id="path1621" class="st3" d="M-956.3-7846.4l109.3-87.9"/>
			<path id="path1623" class="st3" d="M-956.3-7846.4l109.3,87.9"/>
		</g>
		<g id="g1631" transform="matrix(-1.3113808,0,0,1.3113808,375.48291,-158.9384)">
			<path id="path1627" class="st3" d="M822.5-7846.4l109.3-87.9"/>
			<path id="path1629" class="st3" d="M822.5-7846.4l109.3,87.9"/>
		</g>
		<path id="path1633" class="st4" d="M-1058.3-10248.9l95.1-399.4"/>
	</g>
	<path id="path1722" class="st5" d="M20.4,0.5c-11,0-20,9-20,20v400c0,11,9,20,20,20h600c11,0,20-9,20-20v-400c0-11-9-20-20-20H20.4
		z"/>
	<path id="path1637" class="st6" d="M40.4,40.5h560v360h-560V40.5z"/>
	<path id="path1639" class="st5" d="M300.4,420.5v100h40v-100H300.4z"/>
	<path id="path1641" class="st5" d="M200.4,500.5v40h20h200h20v-40h-20h-200H200.4z"/>
	<g id="g1647" transform="matrix(0.57984434,0,0,0.57984434,738.82258,4770.1892)">
		<path id="path1643" class="st7" d="M-956.3-7846.4l109.3-87.9"/>
		<path id="path1645" class="st7" d="M-956.3-7846.4l109.3,87.9"/>
	</g>
	<g id="g1653" transform="matrix(-0.57984434,0,0,0.57984434,933.34403,4770.1892)">
		<path id="path1649" class="st7" d="M822.5-7846.4l109.3-87.9"/>
		<path id="path1651" class="st7" d="M822.5-7846.4l109.3,87.9"/>
	</g>
	<path id="path1655" class="st5" d="M341.7,120.3c-5.6-0.1-10.4,3.7-11.6,9.1l-42,176.6c-1.6,6.2,2.1,12.6,8.4,14.2
		c6.2,1.6,12.6-2.1,14.2-8.4c0-0.2,0.1-0.3,0.1-0.5l42-176.6c1.6-6.3-2.2-12.6-8.5-14.2C343.4,120.5,342.6,120.4,341.7,120.3z"/>
	<path class="st8" d="M758.1,197.3l-8.5,22.8c-5.8-2.5-9.4-4-10.7-4.3c-3.3-1.1-7.1-1.6-11.5-1.6c-5.8,0-10.6,1.3-14.5,4
		c-4.9,3.3-7.3,8.4-7.3,15.3c0,6.2,5.2,11.6,15.7,16c16.8,7,26.6,11.4,29.3,13.2c10.4,7.3,15.7,17.5,15.7,30.9
		c0,14.3-5.1,25-15.4,32.3c-9.1,6.3-21.3,9.5-36.4,9.5c-9.1,0-20.9-1.8-35.5-5.3l8.5-25c6.3,3.4,10.4,5.5,12.1,6.1
		c4,1.6,8.4,2.4,13.3,2.4c6.1,0,11.5-1.4,16.2-4.2c5.5-3.4,8.3-8,8.3-13.7c0-7-5.2-12.8-15.7-17.4c-18.1-8-27.9-12.5-29.3-13.4
		c-10.4-7.1-15.7-17.2-15.7-30.3c0-14.4,5-25.3,15-32.7c8.6-6.3,19.7-9.5,33.3-9.5C737.1,192.4,748.1,194,758.1,197.3z"/>
	<path class="st8" d="M949.2,197.3l-8.5,22.8c-5.8-2.5-9.4-4-10.7-4.3c-3.3-1.1-7.1-1.6-11.5-1.6c-5.8,0-10.6,1.3-14.5,4
		c-4.9,3.3-7.3,8.4-7.3,15.3c0,6.2,5.2,11.6,15.7,16c16.8,7,26.6,11.4,29.3,13.2c10.4,7.3,15.7,17.5,15.7,30.9
		c0,14.3-5.1,25-15.4,32.3c-9.1,6.3-21.3,9.5-36.4,9.5c-9.1,0-20.9-1.8-35.5-5.3l8.5-25c6.3,3.4,10.4,5.5,12.1,6.1
		c4,1.6,8.4,2.4,13.3,2.4c6.1,0,11.5-1.4,16.2-4.2c5.5-3.4,8.3-8,8.3-13.7c0-7-5.2-12.8-15.7-17.4c-18.1-8-27.9-12.5-29.3-13.4
		c-10.4-7.1-15.7-17.2-15.7-30.3c0-14.4,5-25.3,15-32.7c8.6-6.3,19.7-9.5,33.3-9.5C928.2,192.4,939.2,194,949.2,197.3z"/>
	<path class="st8" d="M1072.7,307.9l7.2,23.2c-12.3,2.9-22.8,4.4-31.5,4.4c-23.2,0-41.5-5.6-54.7-17c-14.1-12-21.2-29.4-21.2-52.1
		c0-23.5,6.7-41.7,20.2-54.6c13.5-12.9,32-19.3,55.6-19.4c11.1,0,21.5,1.9,31.3,5.7l-7.9,23.4c-5.2-2.9-9-4.7-11.5-5.5
		c-3.3-1.2-7.5-1.8-12.5-1.8c-14,0-25.2,4.7-33.7,14.2c-8.4,9.5-12.7,21.4-12.6,36c0,14.4,4.2,26.2,12.7,35.4
		c8.5,9.2,19.9,13.9,34.3,13.8C1057.2,313.6,1065.3,311.7,1072.7,307.9z"/>
	<path class="st8" d="M1097.5,333.1l-0.1-138.3l27.7,0l0,55.9l55.5,0l0-55.9l27.7,0l0.1,138.3l-27.7,0l-0.1-60.6l-55.5,0l0.1,60.6
		L1097.5,333.1z"/>
	<path class="st8" d="M1222.6,263.6c0-21.7,5.9-38.9,17.7-51.8c11.8-12.9,28.5-19.3,50-19.4c21.3,0,38,6.6,50.1,19.8
		c11.8,12.8,17.7,29.9,17.7,51.3c0,21.5-5.8,38.8-17.4,51.7c-12.1,13.5-28.9,20.2-50.3,20.2c-21.7,0-38.5-6.6-50.5-20
		C1228.4,302.7,1222.6,285.4,1222.6,263.6z M1251.5,263.6c0,14,2.9,25.5,8.7,34.5c6.9,10.4,16.9,15.6,30.1,15.6
		c13.2,0,23.2-5.2,30.1-15.7c5.8-9,8.7-20.5,8.7-34.5c0-13.6-3.1-24.9-9.1-33.9c-7-10.3-16.9-15.4-29.7-15.4
		c-12.8,0-22.7,5.2-29.7,15.5C1254.5,238.7,1251.5,250,1251.5,263.6z"/>
	<path class="st8" d="M1368.5,263.6c0-21.7,5.9-38.9,17.7-51.8c11.8-12.9,28.5-19.3,50-19.4c21.3,0,38,6.6,50.1,19.8
		c11.8,12.8,17.7,29.9,17.7,51.3c0,21.5-5.8,38.8-17.4,51.7c-12.1,13.5-28.9,20.2-50.3,20.2c-21.7,0-38.5-6.6-50.5-20
		C1374.3,302.7,1368.5,285.4,1368.5,263.6z M1397.4,263.6c0,14,2.9,25.5,8.7,34.5c6.9,10.4,16.9,15.6,30.1,15.6
		c13.2,0,23.2-5.2,30.1-15.7c5.8-9,8.7-20.5,8.7-34.5c0-13.6-3.1-24.9-9.1-33.9c-7-10.3-16.9-15.4-29.7-15.4
		c-12.8,0-22.7,5.2-29.7,15.5C1400.5,238.7,1397.4,250,1397.4,263.6z"/>
	<path class="st8" d="M1518.7,333.1l-0.1-138.3l27.7,0l0.1,116.5l53.7,0l0,21.8L1518.7,333.1z"/>
	<circle class="st8" cx="805.2" cy="320.7" r="16.4"/>
</g>
</svg>
