<?xml version="1.0" encoding="utf-8"?>
<!-- Generator: Adobe Illustrator 23.0.1, SVG Export Plug-In . SVG Version: 6.00 Build 0)  -->
<svg version="1.1" xmlns="http://www.w3.org/2000/svg" xmlns:xlink="http://www.w3.org/1999/xlink" x="0px" y="0px"
	 viewBox="0 0 300 300" style="enable-background:new 0 0 300 300;" xml:space="preserve">
<style type="text/css">
	.st0{fill:#FF9100;}
</style>
<g id="Layer_1">
</g>
<g id="Layer_2">
	<g id="layer1_1_">
		<g>
			<g>
				<path class="st0" d="M153.4,33.5c-3.9,0.1-10,0.7-13.4,1.2c-19.2,2.8-35.6,10.2-49.6,22.1c-1.9,1.6-6.6,6.3-8.2,8.2
					c-3.2,3.8-6,7.7-8.3,11.6c-3.9,6.8-7.4,15.4-8.9,22c-0.8,3.3-1.1,6.1-1.3,9.5c-0.1,2.1-0.1,2.3,0.1,3.8c0.4,2.2,0.7,3.7,1.1,4.7
					c0.2,0.4,0.4,1,0.5,1.2l0.2,0.4l-0.7,1.1c-2.8,4.3-5.8,8.1-12.8,16.7c-7.1,8.6-10.8,13.4-13.7,18c-2.6,4-3.8,6.6-4.4,9.5
					c-0.3,1.2-0.3,2-0.1,3.1c0.4,1.9,1,3,2.7,4.6c1.1,1,2.1,1.7,3.2,2.3c0.5,0.2,1.3,0.7,1.9,1c2.2,1.2,3.2,1.5,6.4,2
					c2.1,0.3,3.3,0.6,3.8,1c0.8,0.5,1.3,1.4,1.1,2c-0.4,1.8-2,6.9-2.4,7.7c-0.2,0.3-0.6,1-1,1.5c-0.4,0.5-0.9,1.1-1.1,1.4
					c-1.3,1.7-1.7,3.4-1.3,5.5c0.3,1.8,1.8,3.6,4,5.3c1.6,1.1,1.7,1.3,1.6,1.5c-0.1,0.1-0.7,0.8-1.4,1.6c-0.7,0.8-1.6,1.7-1.8,2.1
					c-0.6,1-1.1,2.1-1.1,3c0,0.6,0,0.7,0.4,1.5c0.5,1.1,1.4,2.2,2.9,3.8c0.7,0.8,1.4,1.6,1.6,2c0.2,0.3,0.5,0.8,0.7,1
					c0.4,0.5,1,1.9,1.2,2.8c0.3,1.4-0.1,3.1-1.7,7.3c-0.6,1.6-1.1,2.9-1.1,3.1c-0.3,0.6-1.1,3.7-1.4,4.8c-0.7,3.2-0.6,6.2,0.1,8.7
					c0.1,0.4,0.5,1.3,1,2c1.9,3.3,3.9,5.5,6.6,7.4c0.5,0.3,1.1,0.8,1.3,0.9c0.8,0.7,3.8,2,6.8,2.9l1.9,0.6l6.3,0.1
					c3.5,0.1,10.4,0.2,15.3,0.2c5,0.1,9.5,0.2,10.1,0.2c3.1,0.2,5.5,1.5,7.4,3.9c0.3,0.3,0.7,0.8,0.9,1c0.4,0.4,1.2,1.8,2.1,3.6
					c0.4,0.8,2.1,5.6,2.1,5.6h1.6c0.9,0,0.5-3.6-0.1-5c-1.1-2.6-3-6.1-3.8-6.7c-0.2-0.1-0.6-0.6-0.9-0.9c-0.9-1.1-2.7-2.5-4.1-3.2
					c-1.9-0.9-3.6-1.3-6.4-1.5c-1.1-0.1-8-0.2-15.4-0.2c-7.4-0.1-13.8-0.2-14.3-0.2c-1.8-0.1-6.8-2-7.9-2.9
					c-0.2-0.2-0.6-0.5-0.9-0.6c-2.5-1.4-5-4.3-6.5-7.2c-1-2-1.1-5.5-0.2-9c0.3-1.2,1-3.1,2.2-6.5c1.1-2.9,1.6-4.7,1.8-6.4
					c0.2-1.6-0.2-3.4-1.2-5.4c-0.3-0.5-0.6-1.1-0.7-1.3c-0.1-0.2-0.5-0.6-0.7-1c-0.3-0.4-1.1-1.4-1.9-2.3c-1.3-1.4-2.3-2.6-2.3-2.9
					c0-0.2,0.5-1.1,0.9-1.7c0.2-0.3,1-1.1,1.7-1.8c1.3-1.4,1.9-2.3,2-3.3c0.2-1.3-0.2-1.9-2.4-3.5c-1.8-1.3-2.9-2.3-3.3-3.2
					c-0.2-0.5-0.3-0.7-0.3-1.4c0-0.5,0.1-1,0.1-1.2c0.1-0.2,0.7-1.1,1.4-2c0.8-1,1.4-2,1.7-2.5c0.4-0.9,1.6-4.7,2.3-7.2
					c0.7-2.7,0.3-4.4-1.5-5.9c-1.3-1.1-2.4-1.5-5.6-2c-2.5-0.4-3.5-0.6-4.4-1.1c-2.4-1.2-4.1-2.2-4.8-2.7c-1.1-0.8-2.1-1.9-2.4-2.6
					c-0.9-2.1,0.1-5.6,3.1-10.2c3-4.7,6.2-8.9,14.4-19c5.6-6.8,8.3-10.3,10-12.7c1.5-2,3.8-5.5,4-6c0.3-0.6,0-1.6-0.8-3.5
					c-0.6-1.3-1.1-4.5-1.1-6.2c0-5.8,1.5-12.6,4.4-19.8c4.3-10.9,9.5-18.9,17-26.5c2.6-2.7,4.4-4.2,7-6.3c3.4-2.7,6.8-5.1,10.4-7.2
					c5.3-3.1,11.8-6.1,17.6-7.9c11-3.6,21.7-5.2,34.3-5.2c7.7,0,13.4,0.4,21.8,1.7C184.1,39,192,40.5,193,41
					c0.2,0.1,0.9,0.3,1.4,0.4c3.5,0.8,7.5,2,11.1,3.5c1.2,0.5,2.3,0.9,2.4,0.9c0.4,0,8.4,3.7,11,5.1c6.4,3.4,12.2,7.5,17.4,12.2
					c2.8,2.5,7.5,7.5,8.3,8.7c0.2,0.3,0.6,0.8,1,1.3c0.4,0.5,1,1.3,1.4,1.8c0.4,0.5,0.9,1.2,1.1,1.4c0.2,0.2,0.5,0.6,0.6,0.8
					c0.1,0.2,0.8,1.4,1.7,2.6c0.8,1.2,1.8,2.8,2.2,3.6c0.9,1.7,3.2,6.3,3.9,8c0.3,0.7,0.7,1.6,0.9,2.1c0.6,1.4,2.5,7.3,2.9,9.3
					c0.1,0.7,0.4,1.4,0.5,1.7c0.4,1,1.5,7.2,1.9,10.2c0.6,5.4,0.8,12.5,0.4,17.6c-1,14.3-4.2,27.2-10.1,40.4c-2,4.5-4.1,8-9.1,14.8
					c-3.6,4.9-6.1,8.7-7.5,11.3c-0.2,0.4-0.5,0.9-0.6,1c-0.1,0.2-0.4,0.6-0.6,1c-0.2,0.4-0.8,1.4-1.3,2.3c-1.6,2.9-3.5,7.7-4.2,10.9
					c-0.5,2.3-0.6,3-0.6,7.2c0,11.1,1.1,21.2,4.4,40.9c0.6,3.6,1.2,7.4,1.4,8.4l0.3,2h1.6l1.6-0.4c0-0.2-0.1-0.6-0.2-0.8
					c-0.3-1-0.5-2-0.6-2.8c-0.2-1.2-0.3-2-0.3-2.3c-0.5-3.1-1.2-6.9-2-11.9c0,0-3.1-12.2-3.2-32.6c0-4,0-4.7,0.2-5.6
					c0.5-2.9,1.6-6.2,3.3-9.8c0.6-1.3,2.4-4.5,2.6-4.8c0.1-0.1,0.4-0.6,0.6-0.9c1.1-2.2,2.8-4.7,8.1-12.2c5.2-7.3,7-10.5,9.6-16.4
					c4-9.5,6.7-18.5,8.2-28.2c1-6,1.3-10.3,1.4-16.3c0.1-7.2-0.2-12.3-1.2-17.9c-0.4-2.6-1.2-6.2-1.4-6.5c-0.1-0.2-0.2-0.7-0.3-1.1
					c-0.5-2.2-2.4-8.3-3.2-10.1c-1.6-3.8-2.9-6.6-4.1-8.9c-1.2-2.2-1.7-3-3.1-5.1c-0.7-1-1.4-2.1-1.5-2.4c-0.2-0.3-0.6-0.8-0.9-1.2
					c-0.3-0.4-0.8-1.1-1.1-1.5c-0.3-0.4-0.8-1.1-1.2-1.6c-0.4-0.4-0.8-1-0.9-1.1c-0.5-0.9-5.3-6.1-8-8.6
					c-6.1-5.7-13.2-10.6-20.5-14.3c-3.2-1.6-9.5-4.5-10.2-4.6c-0.3-0.1-1.3-0.4-2.3-0.8c-3.1-1.2-7.1-2.5-10.2-3.2
					c-0.9-0.2-1.8-0.5-2-0.6c-0.4-0.2-2.1-0.6-6-1.4c-10.5-2.1-19.7-3.1-29.4-3.2C156.4,33.4,153.9,33.4,153.4,33.5z"/>
			</g>
			<g>
				<path class="st0" d="M176.6,43.1c-0.8,0.4-1.6,1.3-1.8,1.9l-0.1,0.5l-6.2,0l-6.2,0l-7.9,4.2l-7.9,4.2h-2.7h-2.7l-0.1-0.3
					c-0.2-0.5-0.4-0.8-0.8-1.3c-0.6-0.7-1.3-1-2.3-1.1c-1.6-0.1-2.8,0.6-3.5,2c-0.3,0.6-0.3,0.8-0.3,1.5c0,0.7,0,0.9,0.3,1.5
					c0.4,0.8,1,1.4,1.7,1.7c0.5,0.2,0.7,0.3,1.6,0.3c0.8,0,1.1,0,1.6-0.3c0.7-0.3,1.4-1,1.7-1.7l0.2-0.5l1.1-0.1c0.6,0,2-0.1,3-0.1
					l1.9,0l7.9-4.2l7.9-4.2l5.8,0l5.8,0l0.2,0.5c0.3,0.7,1.2,1.6,1.8,1.9c0.7,0.3,2.2,0.3,2.9,0c0.7-0.3,1.5-1.1,1.8-1.7
					c0.2-0.5,0.3-0.7,0.3-1.6c0-0.9,0-1.1-0.3-1.6c-0.3-0.6-1.1-1.4-1.8-1.7c-0.3-0.1-0.8-0.2-1.4-0.3
					C177.3,42.8,177.2,42.8,176.6,43.1z M179.1,44.9c0.5,0.3,0.7,0.8,0.7,1.5c0,0.7-0.3,1.4-0.8,1.6c-0.5,0.3-1.6,0.2-2,0
					c-0.5-0.4-0.7-0.8-0.7-1.5c0-0.9,0.4-1.5,1.1-1.7C177.9,44.5,178.8,44.6,179.1,44.9z M138.2,53.1c0.4,0.2,0.8,0.5,1,1
					c0.3,0.7,0.2,1.5-0.4,2c-0.7,0.7-1.7,0.7-2.4,0.1c-0.6-0.5-0.7-0.9-0.7-1.9C135.8,53.4,137.2,52.7,138.2,53.1z"/>
			</g>
			<g>
				<path class="st0" d="M196.1,45.9c-0.9,0.4-1.4,0.9-1.8,1.7l-0.3,0.7l-2.9,0c-2.9,0-2.9,0-3.2,0.3l-0.2,0.2v17.7
					c0,9.7,0,17.8,0.1,18c0,0.2,0.2,0.3,0.3,0.4c0.1,0.1,5.4,0.1,11.9,0.1l11.7,0v16.6l0,16.6l-2.4,0l-2.4,0l-0.1-0.4
					c-0.4-1-1.3-1.9-2.3-2.2c-0.8-0.2-2.1-0.1-2.7,0.2c-0.7,0.3-1.3,1-1.7,1.6c-0.2,0.5-0.3,0.6-0.3,1.6s0,1.1,0.3,1.6
					c0.4,0.7,1,1.4,1.7,1.7c0.5,0.2,0.7,0.3,1.4,0.3c0.8,0,1,0,1.6-0.3c0.8-0.4,1.3-1,1.8-1.8l0.3-0.6l3,0c2.7,0,3-0.1,3.2-0.2
					c0.2-0.2,0.2-1,0.2-16.2c0-8.8,0-16.9,0-17.9l-0.1-1.9l-0.3-0.1c-0.3-0.1-9-0.3-18.6-0.3l-4.8,0l0-16.5V50.1l2.1,0
					c1.1,0,2.2,0,2.3,0c0.1,0,0.3,0.2,0.5,0.6c0.4,0.7,1,1.4,1.7,1.8c0.5,0.3,0.7,0.3,1.5,0.3c0.8,0,1.1,0,1.5-0.2
					c0.7-0.3,1.5-1.1,1.8-1.8c0.3-0.5,0.3-0.8,0.3-1.5c0-1.1-0.2-1.6-0.9-2.4c-0.7-0.7-1.4-1-2.5-1.1
					C196.8,45.6,196.7,45.6,196.1,45.9z M198.7,47.6c0.5,0.4,0.7,0.8,0.7,1.5c0,0.8-0.3,1.3-0.9,1.6c-1,0.5-2.1,0.2-2.5-0.7
					c-0.5-1-0.1-2.1,0.8-2.5C197.2,47.3,198.3,47.4,198.7,47.6z M203.9,117.4c1.3,0.4,1.5,2.5,0.3,3.3c-0.5,0.3-1.4,0.3-1.9,0
					c-0.7-0.4-1-1.6-0.6-2.5C202,117.4,202.9,117.1,203.9,117.4z"/>
			</g>
			<g>
				<path class="st0" d="M126.8,51.8c-1.9,0.5-3,2.5-2.6,4.4c0.1,0.4,0.1,0.6,0,0.6c-0.3,0.1-8.8,6-10.8,7.5c-0.3,0.2-1.2,0.8-2,1.4
					c-0.8,0.5-2,1.4-2.8,2c-0.8,0.5-1.8,1.3-2.3,1.6c-0.5,0.4-1.4,1-2.1,1.4c-0.6,0.4-1.4,1-1.8,1.3c-0.4,0.3-0.7,0.5-0.8,0.5
					c-0.1,0-0.3-0.1-0.6-0.3c-0.6-0.4-1.6-0.6-2.2-0.5c-1.2,0.2-2.3,0.9-2.8,1.9c-0.5,0.9-0.5,2-0.2,2.9c0.3,0.8,1.1,1.6,1.8,2
					c0.5,0.2,0.7,0.3,1.5,0.3c0.7,0,1,0,1.5-0.3c0.7-0.3,1.4-1,1.8-1.6c0.3-0.4,0.3-0.6,0.3-1.6c0-1.2,0-1.2,0.3-1.5
					c0.2-0.2,1.8-1.4,3.7-2.7c1.9-1.3,3.7-2.6,4.1-2.9c0.4-0.3,1.5-1.1,2.6-1.8c1.1-0.7,4.1-2.9,6.9-4.8l5-3.5l0.4,0.2
					c0.8,0.5,1.1,0.6,2,0.6c0.8,0,1,0,1.5-0.3c1.3-0.6,2-1.9,2-3.3c0-1.9-1.4-3.5-3.3-3.6C127.5,51.7,127.1,51.8,126.8,51.8z
					 M128.8,53.9c0.5,0.4,0.8,1.1,0.7,1.6c-0.2,0.9-1,1.6-1.9,1.6c-1.6,0-2.4-1.9-1.4-3.1c0.4-0.5,0.6-0.5,1.4-0.5
					C128.4,53.6,128.5,53.6,128.8,53.9z M99.7,73.5c1,0.3,1.6,1.3,1.3,2.2c-0.4,1.4-2,1.9-3,0.9c-1-1-0.7-2.6,0.7-3.1
					C99.1,73.4,99.3,73.4,99.7,73.5z"/>
			</g>
			<g>
				<path class="st0" d="M177.9,54.3c-0.8,0.4-1.6,1.2-1.8,1.9l-0.2,0.5l-8.4,0l-8.4,0l-0.4,0.2l-0.4,0.2V61l0,3.8h-7.9h-7.9
					l-0.3-0.5c-0.8-1.6-2.3-2.3-3.8-2.1c-1.8,0.3-2.9,1.5-3,3.4c-0.1,1.1,0.2,1.8,0.9,2.6c0.7,0.8,1.5,1.1,2.6,1.1
					c1.2,0,1.8-0.3,2.6-1c0.5-0.5,0.7-0.8,0.9-1.4c0.1-0.2,0.6-0.2,8.6-0.2c8,0,8.6,0,8.7-0.2c0.4-0.4,0.4-0.6,0.5-4.3l0.1-3.7
					l7.9,0l7.8,0l0.3,0.6c0.5,1.1,1.1,1.6,2.2,1.9c0.7,0.2,1.5,0.2,2.3,0c0.8-0.3,1.5-0.8,2-1.7c0.3-0.6,0.4-0.7,0.4-1.6
					c0-0.8,0-1.1-0.3-1.6c-0.4-0.8-0.9-1.4-1.6-1.7c-0.5-0.2-0.8-0.3-1.5-0.3C178.6,54,178.5,54,177.9,54.3z M180.3,55.9
					c0.9,0.5,1.2,1.8,0.7,2.6c-0.4,0.6-0.9,0.8-1.6,0.8c-0.5,0-0.7-0.1-1-0.3c-0.7-0.5-0.9-1.8-0.4-2.6
					C178.4,55.8,179.5,55.5,180.3,55.9z M139.4,64c0.8,0.2,1.4,1.3,1.2,2.1c-0.3,1.3-1.7,1.8-2.8,1.2c-1-0.6-1-2.3-0.2-3
					C138.2,63.9,138.7,63.8,139.4,64z"/>
			</g>
			<g>
				<path class="st0" d="M206,54.3c-0.8,0.4-1.4,1-1.8,1.7c-0.3,0.6-0.4,0.7-0.4,1.5c0,0.8,0,1,0.3,1.6c0.4,0.7,1,1.4,1.7,1.8
					c0.4,0.2,0.6,0.2,1.5,0.2c0.9,0,1.1,0,1.6-0.3c0.7-0.3,1.4-1,1.7-1.7l0.3-0.6l2.3,0c1.3,0,2.4,0,2.5,0c0.1,0,0.2,0,0.3,0.1
					c0.1,0.1,3.3,4.1,7.1,8.9c3.8,4.8,8.5,10.7,10.5,13.2l3.6,4.5l0,2.6v2.6l-0.6,0.3c-1.3,0.7-2,1.7-2.1,3.1
					c-0.1,1.4,0.4,2.4,1.5,3.2c1.8,1.3,4.3,0.6,5.2-1.3c0.3-0.5,0.3-0.7,0.3-1.6c0-0.9,0-1.1-0.3-1.6c-0.3-0.7-1-1.4-1.8-1.7
					l-0.6-0.2v-3v-3l-4.4-5.5c-2.4-3-6.8-8.5-9.7-12.3c-3-3.7-5.9-7.5-6.6-8.3l-1.3-1.6l-3,0l-3,0l-0.2-0.5
					c-0.3-0.7-1.1-1.5-1.8-1.9c-0.5-0.2-0.8-0.3-1.5-0.3C206.7,54.1,206.5,54.1,206,54.3z M208.1,55.9c0.5,0.1,1,0.7,1.1,1.3
					c0.2,0.9-0.2,1.7-1,2.1c-0.5,0.2-1.4,0.1-1.9-0.2c-0.4-0.3-0.8-1-0.8-1.5c0-0.5,0.3-1.1,0.8-1.5
					C206.8,55.8,207.4,55.7,208.1,55.9z M239.1,92.3c1.1,0.5,1.1,2.6,0,3.1c-0.5,0.2-1.4,0.3-1.8,0.1c-1.2-0.6-1.2-2.6-0.1-3.2
					C237.6,92.1,238.7,92.1,239.1,92.3z"/>
			</g>
			<g>
				<path class="st0" d="M125,62.7c-1.1,0.5-1.9,1.3-2.2,2.4c-0.8,2.7,1.9,5.2,4.7,4.3l0.6-0.2l1.4,1.6c1.7,2,5.1,5.9,5.8,6.6
					l0.5,0.6l1.9,0l1.9,0l0.2,0.4c0.4,1,1.5,1.8,2.5,2.1c1.8,0.4,3.4-0.5,4.1-2.2c0.2-0.6,0.2-1.9,0-2.6c-0.2-0.7-1-1.5-1.8-1.9
					c-0.6-0.3-0.8-0.3-1.6-0.3c-0.7,0-1,0.1-1.4,0.3c-0.7,0.3-1.4,1-1.8,1.8l-0.3,0.6H138h-1.6l-3.5-4.1l-3.5-4.1l0.3-0.8
					c0.2-0.6,0.2-0.9,0.2-1.4c-0.1-0.9-0.5-1.7-1.1-2.3c-0.7-0.7-1.3-0.9-2.3-1C125.7,62.5,125.5,62.5,125,62.7z M127.1,64.4
					c0.2,0.1,0.4,0.3,0.6,0.5c0.3,0.3,0.3,0.4,0.4,1.1l0,0.8l-0.5,0.5c-0.8,0.8-1.8,0.8-2.6,0l-0.5-0.5l0-0.8c0-0.9,0.2-1.1,0.9-1.6
					C125.8,64.2,126.7,64.2,127.1,64.4z M144.2,75.6c0.4,0.3,0.8,0.9,0.8,1.5c0,0.8-0.8,1.7-1.5,1.9c-0.4,0.1-1.1-0.1-1.5-0.4
					c-0.4-0.3-0.7-1-0.7-1.4c0-0.4,0.2-1,0.5-1.3C142.3,75.3,143.5,75.1,144.2,75.6z"/>
			</g>
			<g>
				<path class="st0" d="M165.2,64.2c-0.8,0.4-1.3,0.9-1.6,1.6c-0.2,0.4-0.2,0.7-0.2,1.6c0,1,0,1.2,0.3,1.7c0.3,0.6,1,1.2,1.7,1.6
					c0.8,0.4,2.1,0.4,2.9,0c0.7-0.3,1.4-1,1.8-1.8l0.3-0.6l3.3,0c1.8,0,3.4,0,3.5,0c0.1,0,0.3,0.3,0.4,0.6c0.3,0.7,1,1.4,1.8,1.7
					c0.5,0.3,0.7,0.3,1.5,0.3c0.7,0,1-0.1,1.5-0.3c0.7-0.3,1.5-1.1,1.8-1.7c0.3-0.6,0.3-2.6,0-3.1c-0.6-1.2-1.7-1.9-3-1.9
					c-1.7-0.1-3,0.7-3.6,2.2l-0.2,0.5h-3.5h-3.5l-0.2-0.6c-0.3-0.6-1.1-1.5-1.8-1.8c-0.4-0.2-0.7-0.2-1.4-0.3
					C166,63.8,165.9,63.8,165.2,64.2z M167.5,65.7c0.8,0.4,1.3,1.2,1.1,2c-0.3,1.5-2,2.1-3.1,1.1c-1-0.9-0.7-2.6,0.7-3.1
					C166.6,65.4,167,65.5,167.5,65.7z M181.6,65.6c0.8,0.3,1.1,0.9,1.1,1.9c0,0.6-0.2,1-0.9,1.5c-0.6,0.5-1.9,0.2-2.4-0.5
					c-0.3-0.4-0.3-1.7,0-2.2C179.9,65.5,180.8,65.3,181.6,65.6z"/>
			</g>
			<g>
				<path class="st0" d="M197.7,68.9c-1.6,0.5-2.4,1.7-2.4,3.4c0,1.5,0.6,2.5,1.9,3.2c0.7,0.4,1.9,0.5,2.7,0.2
					c0.9-0.2,1.7-1,2.1-1.8l0.3-0.7l4.1,0.1c2.2,0,4.7,0.1,5.4,0.1l1.4,0.1l0.2,0.5c0.3,0.8,1.2,1.6,2.1,1.9
					c1.8,0.6,3.7-0.2,4.5-1.9c0.3-0.6,0.3-0.7,0.2-1.6c-0.1-1.6-0.7-2.5-1.9-3.1c-0.5-0.3-0.7-0.3-1.6-0.3c-0.8,0-1.1,0.1-1.5,0.2
					c-0.8,0.4-1.3,0.9-1.7,1.6l-0.4,0.7l-4.6-0.1c-2.5,0-5-0.1-5.4-0.1l-0.8-0.1l-0.3-0.7c-0.4-0.7-1.1-1.4-1.8-1.7
					C199.6,68.8,198.3,68.7,197.7,68.9z M199.2,70.5c0.8,0.2,1.5,1.3,1.3,2.1c-0.3,1.4-2,2-3,1c-0.5-0.5-0.7-0.8-0.6-1.5
					c0.1-0.6,0.5-1.2,1.1-1.5C198.5,70.4,198.7,70.4,199.2,70.5z M217.5,71.1c0.8,0.4,1.1,1.1,0.9,2c-0.2,0.9-1.1,1.5-2.1,1.4
					c-0.4,0-0.5-0.1-0.9-0.5l-0.5-0.5l0-0.8c0-0.8,0-0.8,0.4-1.2c0.2-0.2,0.5-0.5,0.6-0.5C216.3,70.8,217,70.8,217.5,71.1z"/>
			</g>
			<g>
				<path class="st0" d="M113.4,70.9c-1.4,0.4-2.4,1.5-2.6,2.9c-0.3,2.1,0.9,3.8,2.9,4.2c1.6,0.2,3.1-0.6,3.8-2.1l0.3-0.6h3.8h3.8
					v8.9v8.9H120h-5.5l-0.3-0.7c-0.6-1.3-1.7-1.9-3.2-1.9c-1.1,0-1.8,0.3-2.5,1c-0.7,0.7-1,1.4-1,2.5c0,2.1,1.4,3.5,3.6,3.5
					c0.8,0,1.4-0.2,2.1-0.6c0.5-0.3,1.1-1.1,1.3-1.6l0.1-0.3l6-0.1c4.5,0,6.1-0.1,6.2-0.2c0.5-0.3,0.5-0.1,0.5-8.9
					c0-8.8,0-11.7-0.2-12c-0.1-0.2-0.4-0.2-4.6-0.2l-4.5,0l-0.2-0.5c-0.2-0.7-1.1-1.6-1.9-1.9C115.1,70.9,114,70.8,113.4,70.9z
					 M115.1,72.8c0.8,0.4,1.2,1.4,0.9,2.1c-0.2,0.8-0.9,1.3-1.7,1.3c-0.6,0-1.1-0.2-1.5-0.7c-0.4-0.4-0.5-0.7-0.4-1.4
					C112.6,73,114,72.2,115.1,72.8z M111.7,92.3c0.5,0.2,0.9,0.7,1,1.4c0.2,0.9-0.3,1.8-1.3,2.1c-1,0.3-2.1-0.4-2.3-1.5
					C108.9,92.9,110.4,91.8,111.7,92.3z"/>
			</g>
			<g>
				<path class="st0" d="M152.7,73.2c-1.7,0.5-2.9,2.6-2.4,4.4c0.3,1.1,1.1,2,2.2,2.4c1.7,0.7,3.9-0.2,4.6-1.9l0.3-0.7l11.3,0
					l11.3,0v8.1c0,5,0,8.2,0.1,8.5c0.1,0.2,0.2,0.5,0.3,0.6c0.2,0.2,0.2,0.2,3.9,0.2l3.7,0l0.3,0.6c0.3,0.6,1.1,1.4,1.6,1.7
					c0.5,0.2,1.5,0.4,2.2,0.3c1.2-0.2,2.1-0.9,2.6-2C195,95,195,94.8,195,94c0-0.8,0-1-0.3-1.5c-0.3-0.7-0.8-1.2-1.6-1.6
					c-0.5-0.3-0.6-0.3-1.7-0.3c-1,0-1.2,0-1.6,0.2c-0.7,0.3-1.3,1-1.6,1.7l-0.2,0.6h-3.1h-3.1l0-8.3c0-7.7,0-8.3-0.2-8.6l-0.2-0.3
					l-12,0l-12,0l-0.3-0.7c-0.4-0.8-1-1.4-1.8-1.7C154.7,73.2,153.3,73.1,152.7,73.2z M154.6,75c0.2,0.1,0.5,0.3,0.6,0.5
					c0.2,0.3,0.3,0.4,0.3,1c0.1,0.9-0.1,1.2-0.7,1.7c-0.4,0.3-0.5,0.3-1.1,0.3c-1.1-0.1-1.6-0.6-1.7-1.4c-0.1-1,0.2-1.7,1-2
					C153.3,74.8,154.1,74.8,154.6,75z M192.2,92.3c0.8,0.4,1.1,0.9,1.1,1.6c0,0.9-0.5,1.6-1.4,1.8c-0.5,0.1-1,0.1-1.5-0.3
					c-0.5-0.4-0.8-0.8-0.8-1.4C189.7,92.7,191,91.7,192.2,92.3z"/>
			</g>
			<g>
				<path class="st0" d="M221.8,80.7c-1.3,0.4-2.3,1.6-2.5,3c-0.1,0.6,0.1,1.6,0.4,2.2c0.3,0.5,1.4,1.5,1.9,1.7l0.4,0.2l0,6.9l0,6.9
					l1.1,1.1c0.6,0.6,2,2.2,3.2,3.4l2.1,2.3l-0.6,0.1c-0.3,0-1.1,0.1-1.7,0.1l-1.1,0l-0.1-0.4c-0.3-1-1.3-1.9-2.4-2.2
					c-2.3-0.7-4.6,1-4.6,3.4c0,1.4,0.7,2.6,1.9,3.2c0.5,0.3,0.6,0.3,1.6,0.3c0.9,0,1.2,0,1.6-0.3c0.7-0.4,1.4-1.1,1.7-1.8l0.2-0.6
					l3,0l3,0l0.3-0.2c0.3-0.3,0.3-0.6,0.1-0.9c-0.1-0.3-1.7-2-5.2-5.7l-2.5-2.6v-6.4v-6.4l0.7-0.3c0.8-0.4,1.3-0.9,1.8-1.9
					c0.7-1.4,0.3-3-0.8-4c-0.3-0.3-0.7-0.6-1-0.7C223.7,80.6,222.4,80.5,221.8,80.7z M223.7,82.5c0.7,0.3,0.9,0.8,1,1.7
					c0,0.7-0.3,1.2-0.9,1.5c-1,0.6-2.1,0.2-2.6-0.9c-0.4-0.9,0-1.8,0.9-2.3C222.7,82.2,223,82.1,223.7,82.5z M222.3,107.7
					c0.6,0.3,0.9,0.8,0.9,1.6c0,0.8-0.2,1.2-0.7,1.6c-0.4,0.3-1.4,0.3-1.9,0.1c-0.7-0.3-1.1-1.2-1-2
					C219.8,107.8,221.2,107.1,222.3,107.7z"/>
			</g>
			<g>
				<path class="st0" d="M117.3,82c-1.2,0.2-2.3,1-2.7,2l-0.2,0.5l-1.6,0c-0.9,0-5.6,0.1-10.4,0.1c-8.5,0-8.9,0-8.9-0.2
					c0-0.3-0.5-1.1-1.1-1.6C91.7,82.2,91,82,90,82c-1.4,0.1-2.5,0.8-3.1,2c-0.3,0.6-0.3,0.8-0.3,1.5c0,1.2,0.2,1.8,1.1,2.6
					c0.8,0.9,1.4,1.1,2.7,1c1.4-0.1,2.4-0.7,3-1.9l0.3-0.7l2.1,0c1.2,0,5.8-0.1,10.4-0.1l8.2,0l0.2,0.5c0.3,0.9,1.3,1.8,2.3,2
					c0.2,0.1,0.7,0.1,1.2,0.1c1.1,0,1.7-0.2,2.4-1c0.8-0.8,1-1.3,1-2.5c0-0.8,0-1.1-0.3-1.6C120.5,82.5,119,81.8,117.3,82z
					 M118.8,83.9c0.7,0.4,0.9,0.9,0.9,1.7c0,0.7-0.2,1-0.7,1.4c-0.4,0.3-1.5,0.4-1.9,0.1c-1-0.5-1.3-2-0.5-2.8
					C117.2,83.6,118,83.5,118.8,83.9z M91,84c0.6,0.3,0.9,0.7,1,1.3c0.1,0.9-0.3,1.6-1.2,2c-0.9,0.4-2-0.1-2.3-1
					c-0.2-0.6-0.2-0.9,0-1.4c0.2-0.5,0.5-0.7,1-0.9C90.1,83.7,90.5,83.7,91,84z"/>
			</g>
			<g>
				<path class="st0" d="M157.9,82c-1.2,0.2-2.3,1-2.7,2l-0.2,0.5l-1.9,0.1c-1.1,0-4.9,0.1-8.4,0.1h-6.5l-0.1-0.3
					c-0.1-0.4-0.6-1.1-1.3-1.6c-1-0.8-2.4-1-3.6-0.4c-2,0.9-2.7,3.4-1.4,5.3c0.7,1.1,1.7,1.5,3.1,1.4c1.4-0.1,2.5-0.8,3.1-2l0.2-0.5
					l1.8-0.1c1,0,4.8-0.1,8.4-0.1l6.6,0l0.2,0.5c0.3,0.7,1.1,1.5,1.8,1.8c0.4,0.2,0.7,0.2,1.4,0.2c1.2,0,2-0.3,2.7-1.1
					c0.7-0.8,1-1.5,0.9-2.6c-0.1-1.1-0.3-1.7-1-2.4C160.2,82.2,159,81.8,157.9,82z M159.4,83.9c0.7,0.4,0.9,0.7,0.9,1.6
					c0,0.8,0,0.8-0.3,1.1c-0.4,0.4-1,0.7-1.4,0.7c-0.4,0-1.2-0.4-1.4-0.8c-0.7-0.9-0.3-2.4,0.7-2.8
					C158.2,83.6,158.8,83.6,159.4,83.9z M135.4,84c1.2,0.5,1.4,2,0.4,3c-0.7,0.7-1.5,0.7-2.3,0.1c-0.5-0.4-0.8-1-0.7-1.6
					C133,84.1,134.2,83.4,135.4,84z"/>
			</g>
			<g>
				<path class="st0" d="M170,84.9c-0.7,0.2-1,0.4-1.5,1c-0.7,0.8-0.9,1.3-0.9,2.4c0,0.8,0,1,0.3,1.6c0.4,0.8,0.9,1.3,1.8,1.7
					l0.6,0.3v15.2l0,15.2l-0.5,0.2c-0.7,0.3-1.3,0.9-1.7,1.7c-0.3,0.6-0.3,0.8-0.3,1.6c0,1.2,0.3,1.9,1.1,2.6c1.1,1,2.7,1.2,4.1,0.5
					c0.7-0.4,1.5-1.3,1.7-2c0.3-0.9,0.2-2.1-0.2-2.8c-0.4-0.7-1.2-1.4-1.8-1.7l-0.5-0.2l-0.1-14.5c0-8-0.1-14.8-0.1-15.1l-0.1-0.6
					l0.5-0.3c1-0.5,1.5-1,1.9-1.6c0.3-0.6,0.3-0.7,0.3-1.7c0-0.9,0-1.1-0.3-1.6c-0.3-0.7-1-1.4-1.7-1.7
					C171.8,84.8,170.6,84.7,170,84.9z M171.9,86.8c0.6,0.3,0.8,0.7,0.8,1.6c0,0.9-0.2,1.3-0.8,1.6c-0.8,0.4-1.5,0.4-2.1-0.1
					c-0.3-0.3-0.7-0.9-0.7-1.4c0-0.7,0.5-1.6,1.1-1.8C170.6,86.5,171.5,86.6,171.9,86.8z M172.1,124.3c0.1,0.1,0.4,0.4,0.5,0.6
					c0.4,0.5,0.4,1.4,0.1,1.9c-0.4,0.6-0.8,0.8-1.6,0.8c-0.5,0-0.7-0.1-1-0.2c-0.6-0.4-0.8-0.8-0.8-1.5c0-0.7,0.2-1,0.7-1.5
					c0.3-0.3,0.4-0.3,1.1-0.3C171.6,124.1,171.9,124.2,172.1,124.3z"/>
			</g>
			<g>
				<path class="st0" d="M202.2,90.4c-1,0.3-1.9,1.1-2.3,2c-0.3,0.7-0.3,2.2,0,2.9c0.4,0.7,1,1.4,1.7,1.7c0.5,0.3,0.6,0.4,0.7,0.7
					c0,0.2,0.1,1.4,0.1,2.7v2.3l-0.6,0.2c-0.7,0.3-1.5,1.1-1.8,1.8c-0.3,0.7-0.4,1.8-0.2,2.5c0.4,1.5,1.9,2.5,3.6,2.5
					c1.3,0,2.5-0.8,3-2c0.2-0.5,0.3-0.7,0.3-1.6c0-0.8,0-1.1-0.3-1.6c-0.4-0.8-0.9-1.4-1.7-1.8l-0.7-0.3l0-2.6l0-2.6l0.4-0.2
					c1.1-0.5,1.8-1.3,2.1-2.4c0.6-2.2-0.9-4.4-3.2-4.6C202.9,90.3,202.5,90.3,202.2,90.4z M204.1,92.3c1.1,0.6,1.1,2.6,0,3.1
					c-0.5,0.3-1.5,0.2-2-0.1c-0.6-0.4-0.8-0.7-0.8-1.5c0-0.8,0.2-1.2,0.8-1.6C202.7,92.1,203.6,92.1,204.1,92.3z M204.1,104.8
					c0.6,0.4,0.8,0.7,0.8,1.5c0,0.7,0,0.8-0.3,1.1c-0.2,0.2-0.5,0.5-0.8,0.6c-0.4,0.2-0.5,0.2-1,0.1c-0.6-0.2-1-0.5-1.3-1
					c-0.2-0.5-0.3-1.2-0.1-1.6c0.2-0.4,0.7-0.8,1.1-1C203,104.4,203.7,104.5,204.1,104.8z"/>
			</g>
			<g>
				<path class="st0" d="M83.1,90.5c-1.5,0.5-2.3,2-2.2,3.7c0.1,1.4,0.7,2.3,2.1,3l0.7,0.3L83.6,98c0,0.2-0.1,1.4-0.1,2.6l-0.1,2.2
					l-0.5,0.3c-1.3,0.7-1.9,1.6-2,3.1c-0.1,1.2,0.2,1.9,0.9,2.7c1.1,1.1,2.7,1.4,4,0.8c0.8-0.4,1.5-1,1.8-1.8
					c0.2-0.5,0.3-0.7,0.3-1.5c0-0.9,0-1-0.4-1.6c-0.4-0.8-1.2-1.5-1.8-1.7l-0.5-0.2v-2.7v-2.7l0.5-0.2c1.2-0.5,2.2-1.9,2.2-3.1
					c0-0.7-0.1-1.1-0.4-1.7c-0.4-0.7-0.9-1.3-1.6-1.6c-0.5-0.2-0.7-0.3-1.6-0.3C83.8,90.4,83.4,90.4,83.1,90.5z M85.4,92.3
					c0.6,0.5,0.9,1,0.9,1.4c0,0.8-0.2,1.2-0.7,1.6c-0.4,0.3-0.5,0.4-1.1,0.4c-1.1,0-1.7-0.5-1.9-1.4c-0.1-0.7,0.3-1.7,1-2
					C84.1,92.1,85.1,92.1,85.4,92.3z M85.5,104.8c0.6,0.4,0.7,0.7,0.7,1.5c0,0.8-0.2,1.1-0.8,1.5c-1,0.7-2.4,0.2-2.8-1
					c-0.3-0.9,0.2-1.9,1.1-2.2C84.3,104.4,85,104.5,85.5,104.8z"/>
			</g>
			<g>
				<path class="st0" d="M95.7,90.5c-0.5,0.1-1.3,0.7-1.6,1.1c-0.9,1.2-1.1,2.7-0.5,4c0.3,0.6,1.2,1.5,1.8,1.7l0.4,0.2L96,99
					c0.1,2.1,0.1,2.3,0.4,2.6l0.2,0.2h10.9l10.9,0l0.3,0.6c0.3,0.7,1.1,1.5,1.8,1.8c0.4,0.2,0.7,0.3,1.6,0.3c0.9,0,1.1,0,1.6-0.3
					c0.7-0.3,1.3-0.9,1.6-1.7c0.2-0.5,0.3-0.7,0.3-1.5c0-0.8,0-1-0.3-1.5c-0.3-0.7-1-1.4-1.7-1.7c-0.5-0.2-0.7-0.3-1.6-0.3
					c-0.9,0-1.1,0-1.6,0.3c-0.7,0.3-1.3,1-1.7,1.8l-0.3,0.6h-5.7c-9.4,0-10.5,0-12.7-0.1l-2.2-0.1v-1.3v-1.3l0.4-0.2
					c0.9-0.3,1.7-1.3,2-2.2c0.1-0.2,0.1-0.8,0.1-1.3c0-0.7,0-1-0.2-1.4c-0.4-0.8-0.9-1.4-1.6-1.7c-0.5-0.2-0.7-0.3-1.6-0.3
					C96.5,90.4,95.9,90.4,95.7,90.5z M97.8,92.3c0.2,0.1,0.4,0.3,0.6,0.5c0.2,0.3,0.3,0.5,0.3,1.2v0.8l-0.5,0.4
					c-0.5,0.4-0.5,0.4-1.1,0.4c-0.9,0-1.5-0.3-1.8-0.9c-0.1-0.2-0.2-0.6-0.2-0.8c0-0.7,0.5-1.4,1.1-1.7
					C96.5,92.1,97.5,92.1,97.8,92.3z M123,99.4c1.1,0.6,1.2,2.1,0.3,2.9c-0.5,0.4-0.8,0.5-1.4,0.4c-1.2-0.2-1.8-1.1-1.6-2.1
					c0.1-0.6,0.4-1,0.9-1.2C121.8,99.1,122.4,99.1,123,99.4z"/>
			</g>
			<g>
				<path class="st0" d="M160.5,92c-1.1,0.2-2.2,1.2-2.5,2.2l-0.2,0.5h-12.4l-12.4,0l-0.3,0.3l-0.3,0.3v5.8v5.8l-16,0l-16,0
					l-0.2-0.5c-0.3-0.6-1.1-1.5-1.7-1.8c-0.4-0.2-0.6-0.2-1.6-0.2c-1.1,0-1.2,0-1.7,0.4c-0.7,0.4-1.2,1-1.5,1.7
					c-0.3,0.8-0.3,2.1,0,2.8c0.4,0.8,0.9,1.4,1.7,1.8c0.6,0.3,0.8,0.3,1.5,0.3c1.5,0,2.7-0.7,3.3-2l0.3-0.6l16.5,0
					c9.1,0,16.6-0.1,16.7-0.1c0.4-0.2,0.5-0.5,0.5-6.5l0.1-5.8l11.8,0h11.8l0.2,0.5c0.4,1.1,1.5,1.9,2.9,2.1
					c1.2,0.2,2.7-0.5,3.3-1.5c0.7-1,0.8-2.5,0.3-3.7c-0.3-0.7-1.1-1.5-1.7-1.7C162.2,92,161.1,91.9,160.5,92z M162,93.8
					c0.7,0.3,1.3,1.3,1.1,2.1c-0.3,1.3-2,1.9-3,1c-0.3-0.3-0.6-1-0.6-1.4c0-1,0.8-1.8,1.7-1.8C161.5,93.7,161.9,93.7,162,93.8z
					 M97.8,106.3c0.5,0.3,1,1.1,0.9,1.8c-0.1,0.8-0.9,1.6-1.7,1.7c-1.4,0.2-2.5-1.5-1.8-2.7C95.9,106.1,96.8,105.8,97.8,106.3z"/>
			</g>
			<g>
				<path class="st0" d="M141,101.7c-0.7,0.1-1.4,0.5-1.9,1c-0.7,0.7-0.9,1.3-1,2.3c-0.1,1,0.2,1.8,0.9,2.5c0.6,0.6,1.2,1,2.2,1.2
					c0.6,0.1,0.8,0.1,1.4-0.1c1.2-0.3,2-1,2.4-2.1l0.2-0.4h9h9l0,8.9v8.9h-12.8l-12.8,0l-0.2-0.5c-0.2-0.7-1.2-1.6-1.8-1.9
					c-0.8-0.3-2.3-0.4-3,0c-0.7,0.3-1.4,1-1.7,1.6c-0.2,0.5-0.3,0.6-0.3,1.6c0,1.1,0,1.1,0.4,1.8c1.2,2.2,3.9,2.5,5.7,0.7
					c0.3-0.3,0.6-0.7,0.7-1l0.2-0.5l13.2-0.1c7.4,0,13.3-0.1,13.5-0.1c0.2-0.1,0.3-0.2,0.4-0.4c0-0.2,0.1-4.8,0.1-10.3l0.1-10
					l-0.3-0.2c-0.1-0.1-0.5-0.2-0.9-0.2c-0.3,0-4.7-0.1-9.6-0.1l-9,0l-0.1-0.5c-0.2-0.7-1.2-1.7-2-2
					C142.4,101.6,141.6,101.5,141,101.7z M142.7,103.6c0.8,0.4,1.1,1.6,0.6,2.5c-0.6,1.2-2.5,1.2-3.1,0c-0.5-1-0.1-2.2,0.8-2.6
					C141.4,103.3,142.2,103.4,142.7,103.6z M135.3,123.3c0.7,0.7,0.9,1.4,0.5,2.2c-0.3,0.7-0.6,0.9-1.5,1c-0.8,0.1-1.2-0.1-1.6-0.5
					c-0.5-0.6-0.6-1.5,0-2.3c0.4-0.5,0.7-0.7,1.5-0.7C134.8,123,134.9,123,135.3,123.3z"/>
			</g>
			<g>
				<path class="st0" d="M178.7,101.7c-1,0.2-2,1-2.5,2c-0.2,0.5-0.3,0.7-0.3,1.5c0,0.8,0,1,0.3,1.6c0.4,0.9,1.1,1.5,2,1.8l0.3,0.1
					l0,10.1c0,11.7,0.1,13.3,0.3,13.6l0.2,0.2l12.5,0l12.5,0l0.1,0.4c0.4,1.3,2.3,2.3,3.8,2.2c2-0.2,3.5-2.2,3.1-4.2
					c-0.2-1.2-1-2.2-2.1-2.7c-0.7-0.3-2-0.3-2.8,0c-0.7,0.2-1.4,1-1.9,1.8l-0.3,0.5l-0.8,0.1c-0.4,0-3.7,0.1-7.3,0.1
					c-3.6,0-8.5,0.1-11,0.1l-4.5,0.1v-11.1l0-11.1l0.6-0.3c0.7-0.3,1.3-0.9,1.6-1.7c0.2-0.5,0.3-0.7,0.3-1.6c0-1,0-1.1-0.4-1.7
					c-0.2-0.4-0.5-0.8-0.7-0.9C181.1,101.9,179.7,101.5,178.7,101.7z M180.4,103.6c0.9,0.5,1.1,1.6,0.6,2.5c-0.7,1.1-2.3,1.2-3,0.1
					c-0.6-0.9-0.4-2,0.5-2.6C178.9,103.3,179.8,103.3,180.4,103.6z M208.5,130.1c1.1,0.7,1.1,2.4,0,3.1c-1.1,0.7-2.6,0.1-2.8-1.3
					c-0.1-0.8,0.3-1.7,1-2C207.2,129.7,208,129.8,208.5,130.1z"/>
			</g>
			<g>
				<path class="st0" d="M244.8,102.2c-0.7,0.1-1.8,0.7-2.2,1.2c-0.2,0.2-0.5,0.7-0.6,1l-0.2,0.5l-1.2,0c-0.6,0-1.2,0-1.3,0.1
					c-0.2,0.2-0.4,0.6-0.5,1.6c-0.1,0.6-0.1,6.3-0.1,12.7v11.7l-0.7,0.3c-1.2,0.6-1.8,1.6-1.9,3.1c-0.1,1.3,0.2,1.9,1,2.7
					c1.2,1.2,3,1.4,4.4,0.5c1.1-0.6,1.8-2.1,1.7-3.3c-0.1-1.4-1.3-2.8-2.6-3.2c-0.2-0.1-0.2-0.7-0.2-12.2l0-12.1l0.6,0
					c0.6,0,0.6,0,1.3,1.1c0.8,1.3,3,1.8,4.5,1.1c1.3-0.6,2.1-2.1,2-3.5C248.6,103.5,246.7,101.9,244.8,102.2z M245.8,104
					c0.5,0.1,1,0.7,1.2,1.2c0.1,0.5,0,1.3-0.3,1.7c-0.3,0.4-0.8,0.6-1.5,0.6c-1.4,0-2.2-1.3-1.7-2.6
					C244,104.1,244.8,103.7,245.8,104z M240.4,132.8c1.6,0.7,1.3,3.2-0.5,3.5c-0.8,0.1-1.6-0.3-1.9-1c-0.3-0.7-0.2-1.5,0.3-2
					C238.9,132.6,239.6,132.4,240.4,132.8z"/>
			</g>
			<g>
				<path class="st0" d="M189.6,106.1c-0.8,0.2-1.8,1.2-2.2,2c-0.4,0.9-0.4,2.2,0.1,3.1c0.3,0.6,1,1.3,1.7,1.6l0.5,0.3v2.6v2.6
					l-0.6,0.3c-0.7,0.3-1.5,1.1-1.8,1.8c-0.4,0.7-0.4,2.2,0,2.9c0.5,1.1,1.1,1.6,2.2,2c1.7,0.6,3.6-0.2,4.4-1.8
					c0.2-0.5,0.3-0.7,0.3-1.7c0-0.9,0-1.2-0.2-1.5c-0.4-0.7-1.5-1.7-2.1-1.8l-0.3-0.1v-2.7v-2.7l0.5-0.2c0.7-0.3,1.4-1,1.8-1.7
					c0.3-0.5,0.3-0.7,0.3-1.7c0-1,0-1.1-0.3-1.6c-0.6-1.1-1.7-1.8-3.1-1.9C190.3,106,189.8,106.1,189.6,106.1z M191.6,108.1
					c1,0.6,1.2,2.1,0.3,2.9c-0.8,0.8-2.3,0.5-2.8-0.5c-0.5-1-0.1-2.2,1.1-2.6C190.6,107.6,191,107.7,191.6,108.1z M191.5,120.3
					c0.7,0.3,1.1,1.2,1,1.9c-0.1,0.8-1,1.6-1.8,1.6c-0.8,0-1.7-0.7-1.8-1.4c-0.2-0.8,0.2-1.7,0.9-2
					C190.2,120.1,191.1,120.1,191.5,120.3z"/>
			</g>
			<g>
				<path class="st0" d="M153.3,112.7c-1,0.3-1.9,1.1-2.2,2l-0.2,0.5l-1.4,0.1c-2.7,0.1-10.4,0.2-35.6,0.2l-25.7,0.1l-0.3-0.6
					c-0.4-0.8-1-1.4-1.6-1.7c-0.4-0.2-0.7-0.2-1.6-0.2c-0.9,0-1.2,0-1.6,0.2c-0.7,0.3-1.3,1-1.7,1.8c-0.3,0.6-0.3,0.8-0.3,1.5
					c0,1.1,0.3,1.8,1.1,2.6c0.7,0.7,1.3,0.9,2.5,0.9c0.7,0,0.9,0,1.4-0.3c0.8-0.4,1.4-1,1.7-1.7l0.3-0.6l12-0.1
					c6.6,0,19.6-0.1,29-0.2c9.4-0.1,18-0.1,19.3-0.1l2.3,0l0.3,0.6c0.3,0.7,1,1.4,1.8,1.8c0.4,0.2,0.7,0.2,1.5,0.2
					c0.9,0,1,0,1.5-0.3c1.6-0.8,2.4-2.6,1.9-4.2c-0.3-1.2-1.1-2-2.1-2.4C155,112.6,153.8,112.5,153.3,112.7z M155.2,114.5
					c0.7,0.3,1.1,1.3,0.9,2.1c-0.2,0.8-0.9,1.4-1.7,1.4c-0.6,0-1.1-0.2-1.4-0.6c-0.6-0.7-0.6-1.5-0.1-2.3
					C153.4,114.2,154.3,114,155.2,114.5z M85.5,114.7c0.8,0.4,1.2,1.3,0.9,2.2c-0.2,0.9-0.9,1.4-1.9,1.3c-1.3-0.1-2-1.5-1.5-2.6
					C83.5,114.6,84.5,114.2,85.5,114.7z"/>
			</g>
			<g>
				<path class="st0" d="M250.8,115.7c-0.6,0.3-1.5,1.2-1.8,1.8c-0.1,0.3-0.3,0.7-0.4,1c-0.3,1.4,0.7,3.2,2.1,3.8l0.6,0.3v6.5v6.5
					l-3.2,4.7c-1.8,2.6-3.4,4.9-3.6,5.3l-0.4,0.6l-2.6,0h-2.6l-0.2-0.6c-0.3-0.7-1-1.4-1.8-1.8c-0.5-0.2-0.7-0.3-1.5-0.3
					c-0.7,0-1,0.1-1.4,0.2c-0.8,0.4-1.4,0.9-1.7,1.7c-0.3,0.6-0.3,0.8-0.3,1.6c0,0.8,0.1,1,0.3,1.5c0.3,0.7,1,1.4,1.7,1.7
					c0.6,0.3,1.9,0.4,2.6,0.2c1-0.3,2-1.2,2.3-2.2l0.1-0.4l2.3,0c2.6,0,3.7-0.1,3.9-0.2c0.2-0.1,1.9-2.6,3.5-4.9
					c0.6-0.9,1.9-2.8,2.9-4.1l1.7-2.5v-1.8c0-1,0-4.1,0.1-6.8l0.1-5l0.4-0.2c0.6-0.2,1.5-1,1.8-1.7c0.3-0.5,0.3-0.7,0.3-1.7
					c0-1,0-1.1-0.3-1.6c-0.3-0.6-1.1-1.3-1.7-1.6C253,115.5,251.4,115.4,250.8,115.7z M253.2,117.5c0.2,0.1,0.4,0.4,0.5,0.6
					c0.3,0.5,0.3,1.5-0.1,2c-1,1.4-3.3,0.6-3.3-1.1c0-0.5,0.2-1,0.7-1.4c0.4-0.4,0.4-0.4,1.1-0.4C252.8,117.3,253,117.4,253.2,117.5
					z M236.2,145.5c0.7,0.4,0.9,0.7,0.9,1.5l0,0.7l-0.6,0.6l-0.6,0.6l-0.7,0c-0.9,0-1.2-0.2-1.5-0.9c-0.3-0.5-0.3-1.3-0.1-1.7
					C234.1,145.4,235.3,145.1,236.2,145.5z"/>
			</g>
			<g>
				<path class="st0" d="M228.4,116.1c-1,0.3-1.9,1-2.3,1.9l-0.3,0.7l-2.9,0.1c-2.3,0.1-3,0.1-3.3,0.2l-0.4,0.2v5.2v5.2l-0.4,0.1
					c-0.7,0.2-1.8,1.4-2.1,2.2c-0.5,1.3-0.2,2.5,0.7,3.5c2.1,2.3,5.7,1.2,6.2-1.9c0.2-1.6-0.6-3.2-2-3.8l-0.5-0.2l-0.1-4
					c0-2.2-0.1-4.2-0.1-4.5l-0.1-0.5h2.5h2.5l0.2,0.5c0.2,0.6,1,1.4,1.6,1.7c0.6,0.3,1.6,0.5,2.2,0.5c0.7-0.1,1.7-0.6,2.1-1.1
					c1.7-1.8,1.1-4.7-1.1-5.7C230.1,116.1,229,116,228.4,116.1z M229.8,117.9c0.8,0.3,1.3,1,1.3,1.8c0,1.9-2.7,2.5-3.5,0.7
					c-0.3-0.8-0.2-1.6,0.4-2.1C228.6,117.8,229.2,117.7,229.8,117.9z M221.1,131.6c1,0.7,1,2.3,0,2.9c-0.5,0.4-1.5,0.4-2,0.1
					c-1.2-0.7-1.2-2.7,0.1-3.2C219.8,131.2,220.6,131.2,221.1,131.6z"/>
			</g>
			<g>
				<path class="st0" d="M95.3,122.8c-1,0.1-2.1,0.9-2.6,1.9c-0.3,0.5-0.3,0.6-0.3,1.7c0,1.3,0.1,1.7,1,2.5c0.7,0.7,1.4,1,2.5,1
					c0.7,0,1,0,1.5-0.3c0.8-0.3,1.5-1.1,1.8-1.8l0.2-0.5h11.4l11.4,0v3c0,3.6,0,3.4,1.1,3.5c0.4,0.1,5.8,0.1,12,0.1l11.3,0l0.2,0.6
					c0.3,0.8,1.4,1.7,2.2,2c1.3,0.4,2.8,0,3.7-0.9c1-1,1.3-2.6,0.8-3.8c-0.3-0.8-1-1.5-1.8-1.9c-0.6-0.3-0.8-0.3-1.6-0.3
					c-0.8,0-1,0-1.6,0.3c-0.8,0.4-1.3,0.9-1.7,1.7l-0.2,0.5l-11.3,0l-11.3,0l0-3c0-1.7-0.1-3.1-0.1-3.2c0-0.1-0.2-0.2-0.2-0.3
					c-0.1,0-5.5-0.1-12-0.1l-11.9,0l-0.4-0.7c-0.4-0.8-0.9-1.3-1.7-1.7C96.7,122.7,96,122.7,95.3,122.8z M96.8,124.7
					c1.1,0.5,1.3,2.1,0.3,3c-1.1,1-3,0.2-3-1.4c0-0.7,0.4-1.4,1.1-1.6C95.6,124.5,96.3,124.5,96.8,124.7z M150.9,131.4
					c0.9,0.5,1.2,1.9,0.6,2.7c-0.8,1.1-2.7,0.9-3.2-0.4C147.7,132.1,149.4,130.6,150.9,131.4z"/>
			</g>
			<g>
				<path class="st0" d="M228.6,129.6c-1.8,0.7-2.8,2.9-2.1,4.7l0.3,0.7l-2.1,2.1l-2.1,2.1l-24,0l-24,0l-0.1-0.4
					c-0.2-0.6-0.8-1.4-1.5-1.7c-1.9-1-4.2-0.3-5.1,1.6c-0.2,0.4-0.2,0.7-0.2,1.5c0,1.2,0.2,1.7,0.9,2.5c1.3,1.4,3.4,1.5,5,0.2
					c0.4-0.3,0.9-1.1,1-1.5c0-0.2,0.1-0.3,0.2-0.3c0.1,0,11,0,24.3,0l24.1,0l2.5-2.5l2.5-2.5l0.6,0.2c1.8,0.6,3.6-0.2,4.4-1.9
					c0.3-0.6,0.3-0.8,0.3-1.5c0-0.7-0.1-0.9-0.3-1.4c-0.4-0.8-1.1-1.5-1.8-1.8C230.5,129.3,229.3,129.3,228.6,129.6z M230.9,131.4
					c1,0.7,1.1,2.2,0.2,3c-0.6,0.5-1.7,0.5-2.4-0.1c-1.1-0.9-0.8-2.4,0.5-3.1C229.7,131,230.3,131,230.9,131.4z M172.1,138.6
					c0.5,0.3,0.7,0.8,0.7,1.6c0,1.6-1.9,2.4-3.1,1.2c-0.9-0.9-0.5-2.5,0.6-3C170.7,138.2,171.6,138.3,172.1,138.6z"/>
			</g>
			<g>
				<path class="st0" d="M160.4,129.6c-0.7,0.1-1.1,0.4-1.7,1c-0.8,0.8-1.1,1.8-1,3c0.2,1.3,0.9,2.2,2,2.7l0.6,0.3v2v2l-3.4,0.1
					c-1.9,0-9.6,0.1-17.3,0.1l-13.9,0.1l-0.2-0.5c-0.1-0.3-0.4-0.7-0.9-1.2c-0.8-0.8-1.3-1-2.6-1c-0.7,0-0.9,0.1-1.4,0.3
					c-1,0.5-1.8,1.4-2,2.6c-0.2,0.8-0.1,1.4,0.3,2.2c0.4,0.8,0.9,1.3,1.7,1.7c0.5,0.2,0.7,0.3,1.5,0.3c0.9,0,1,0,1.6-0.4
					c0.8-0.4,1.5-1.2,1.7-1.8l0.1-0.4l1.7-0.1c0.9,0,8.3-0.1,16.2-0.1c8,0,15.3-0.1,16.2-0.1c1.5,0,1.7-0.1,2-0.3l0.4-0.2v-2.6v-2.6
					l0.5-0.2c0.7-0.3,1.5-1.1,1.8-1.9c0.2-0.5,0.3-0.8,0.3-1.5c0-1.1-0.2-1.7-1-2.4c-0.7-0.7-1-0.8-1.8-1
					C161.2,129.5,161.1,129.5,160.4,129.6z M162,131.4c1.3,0.6,1.4,2.4,0.2,3.2c-0.5,0.3-1.3,0.3-1.9,0c-1.1-0.6-1.2-2.3-0.2-3
					C160.8,131.1,161.3,131.1,162,131.4z M123.1,140c1,0.6,1.3,1.9,0.5,2.8c-0.4,0.4-0.8,0.6-1.3,0.6c-1,0-1.8-0.8-1.8-1.9
					c0-0.7,0.4-1.3,1-1.6C121.8,139.8,122.8,139.8,123.1,140z"/>
			</g>
			<g>
				<path class="st0" d="M206.5,145c-1,0.3-2.2,1.3-2.5,2.2l-0.2,0.5l-2.6,0c-1.5,0-2.8,0.1-3.1,0.1c-0.8,0.2-0.8-0.3-0.8,7.3
					c0,7.4,0,8.4,0.3,8.7c0.2,0.2,0.5,0.2,7.7,0.3l0.5,0v6.4v6.4h-2.4h-2.4l-0.2-0.6c-0.3-0.7-0.9-1.3-1.7-1.7
					c-0.5-0.2-0.7-0.3-1.6-0.3c-0.9,0-1.1,0-1.6,0.3c-0.7,0.3-1.4,1-1.7,1.8c-0.2,0.5-0.3,0.7-0.2,1.5c0.1,1.1,0.3,1.8,1,2.4
					c1,1,2.9,1.3,4.2,0.6c0.6-0.3,1.5-1.2,1.7-1.8l0.2-0.5l2.9,0c1.6,0,3-0.1,3.1-0.1c0.4-0.2,0.4-0.2,0.5-7.5c0-3.8,0-7.3,0-7.6
					c0-0.4-0.1-0.7-0.3-0.9l-0.2-0.2l-4,0l-4,0v-6.5v-6.5h2.3h2.3l0.4,0.7c0.7,1.3,1.8,2,3.3,2c0.7,0,0.9,0,1.4-0.3
					c1.3-0.6,2-1.6,2-3.1c0.1-1.6-0.5-2.7-1.9-3.4C208.2,145,207.1,144.8,206.5,145z M208.3,146.9c1.1,0.5,1.2,2.4,0.1,3.1
					c-0.5,0.3-1.6,0.3-2.1,0c-0.4-0.3-0.8-1-0.8-1.5c0-0.5,0.4-1.2,0.8-1.5C206.7,146.7,207.7,146.7,208.3,146.9z M198.3,176.1
					c0.8,0.4,1.2,1.1,1,2.1c-0.2,1-1.5,1.7-2.5,1.3c-0.7-0.3-1.1-1-1.1-1.8c0-0.6,0.2-1.1,0.6-1.4
					C197,175.9,197.7,175.8,198.3,176.1z"/>
			</g>
			<g>
				<path class="st0" d="M214.4,145.1c-0.6,0.2-1.5,1-1.9,1.7c-0.2,0.5-0.3,0.7-0.3,1.4c-0.1,1.4,0.4,2.5,1.5,3.2
					c1.9,1.2,4.5,0.5,5.3-1.5l0.2-0.6h2.7h2.7l0.9,0.6c3.5,2.2,10.1,6.5,10.2,6.6c0.1,0.1,0.1,0.8,0.1,2.6v2.4l-0.7,0.4
					c-0.9,0.5-1.6,1.2-1.9,2c-0.3,0.8-0.2,2.2,0.1,2.8c0.4,0.7,1,1.3,1.6,1.6c0.5,0.2,0.7,0.3,1.6,0.3c0.7,0,1.2-0.1,1.4-0.2
					c0.5-0.2,1.4-1,1.7-1.6c0.5-0.8,0.5-2.6,0.1-3.4c-0.3-0.6-1.2-1.4-1.8-1.7l-0.6-0.3l0-2.9c0-1.6,0-2.9-0.1-3
					c-0.1-0.3-1.6-1.3-9.2-6.2l-3.1-2l-2.9,0l-2.9,0l-0.3-0.6c-0.3-0.7-1.1-1.5-1.7-1.8C216.8,144.9,215.2,144.8,214.4,145.1z
					 M216.6,146.8c0.4,0.2,0.8,0.8,0.9,1.3c0.2,1.6-1.4,2.8-2.8,1.9c-0.6-0.4-0.8-0.8-0.8-1.5c0-0.7,0.2-1,0.7-1.5
					c0.3-0.3,0.4-0.3,1-0.3C216.1,146.7,216.5,146.7,216.6,146.8z M237.8,163.7c0.7,0.5,0.9,1.7,0.5,2.5c-0.3,0.4-1,0.8-1.6,0.8
					c-0.6,0-1.3-0.4-1.6-0.8c-0.2-0.3-0.2-0.5-0.2-1c0-1.2,0.7-1.9,1.9-1.8C237.3,163.5,237.6,163.6,237.8,163.7z"/>
			</g>
			<g>
				<path class="st0" d="M169.8,146.2c-1,0.4-1.5,0.9-2,1.9l-0.3,0.5l-1.7,0.1c-1.7,0.1-5.6,0.1-12.9,0.2
					c-6.9,0.1-10.8,0.2-11.9,0.2l-1,0.1l-0.4-0.7c-0.4-0.8-1.1-1.5-1.8-1.8c-0.7-0.3-1.9-0.4-2.6-0.1c-1.1,0.4-1.9,1.3-2.3,2.4
					c-0.2,0.7-0.2,1.3,0,2.1c0.6,1.7,2,2.6,3.8,2.5c1.2-0.1,2.2-0.8,2.9-2l0.4-0.7l5.2-0.1c2.8,0,6.4-0.1,7.9-0.1
					c1.5,0,5.4-0.1,8.6-0.1l5.9-0.1l0.3,0.6c0.3,0.7,1.1,1.4,1.8,1.8c0.4,0.2,0.7,0.2,1.5,0.2c1,0,1.1,0,1.7-0.4
					c1.6-0.9,2.2-2.5,1.7-4.2c-0.4-1.2-1.1-1.9-2.4-2.3C171.2,145.9,170.5,145.9,169.8,146.2z M171.7,147.8c1.6,0.5,1.7,2.7,0.2,3.4
					c-0.5,0.3-0.9,0.3-1.5,0c-0.7-0.3-1-0.8-1.1-1.6c0-0.8,0.2-1.4,0.9-1.7C170.7,147.7,171.2,147.6,171.7,147.8z M137.4,148.5
					c0.7,0.6,0.9,1.5,0.5,2.3c-0.5,0.8-1.5,1.2-2.4,0.7c-0.7-0.4-0.9-0.6-1-1.4c-0.1-1,0.2-1.4,1-1.8
					C136,148,136.9,148.1,137.4,148.5z"/>
			</g>
			<g>
				<path class="st0" d="M189.3,150.5c-1.5,0.2-2.6,1.2-3,2.7c-0.4,1.7,0.3,3.2,2,4.1l0.6,0.3v2.6v2.6l-0.6,0.3
					c-0.9,0.5-1.4,1-1.8,1.7c-0.3,0.6-0.3,0.8-0.3,1.5c0,0.7,0.1,0.9,0.3,1.5c0.7,1.6,2.1,2.3,4,2c1.1-0.1,2-0.9,2.5-2
					c0.2-0.5,0.3-0.7,0.3-1.5c0-0.8,0-1-0.3-1.6c-0.4-0.8-0.9-1.2-1.8-1.7l-0.6-0.3v-2.6v-2.6l0.7-0.3c0.7-0.4,1.4-1,1.8-1.8
					c0.2-0.4,0.2-0.6,0.2-1.6c0-1.3-0.1-1.6-0.8-2.3C191.6,150.7,190.5,150.4,189.3,150.5z M190.9,152.5c1.1,0.8,0.9,2.5-0.3,3.2
					c-0.6,0.3-1.7,0.1-2.1-0.4c-0.4-0.4-0.5-0.7-0.5-1.3c0-0.9,0.3-1.4,1-1.7c0.1,0,0.5-0.1,0.8-0.1
					C190.4,152.3,190.6,152.3,190.9,152.5z M190.6,164.8c1,0.6,1.3,1.8,0.6,2.7c-0.2,0.3-0.4,0.5-0.8,0.6c-1.3,0.4-2.4-0.4-2.4-1.7
					C188,165,189.4,164.1,190.6,164.8z"/>
			</g>
			<g>
				<path class="st0" d="M222.8,152.5c-0.9,0.2-2,1.1-2.4,2l-0.2,0.5l-3,0.1c-3.4,0.1-3.4,0.1-3.5,0.8c0,0.2-0.1,2.5-0.1,5.2v4.8
					l-0.6,0.3c-0.8,0.4-1.4,1-1.8,1.8c-0.3,0.6-0.3,0.8-0.3,1.6c0,0.8,0,1,0.3,1.5c0.3,0.7,1,1.3,1.7,1.7c0.4,0.2,0.7,0.2,1.6,0.2
					c0.9,0,1.1,0,1.5-0.2c0.7-0.4,1.3-1,1.6-1.7c0.4-0.8,0.5-2,0.1-2.9c-0.3-0.8-1-1.5-1.8-2l-0.6-0.3l0-4.5l0-4.5h2.4l2.4,0
					l0.3,0.6c0.3,0.7,1.2,1.5,1.9,1.8c0.3,0.1,0.8,0.2,1.4,0.3c0.8,0,0.9,0,1.6-0.3c1.2-0.6,1.9-1.6,2-2.9c0.2-2.1-1.3-3.7-3.4-3.8
					C223.5,152.5,223,152.5,222.8,152.5z M224.5,154.3c0.6,0.3,1.1,1.1,1.1,1.7c0,1.6-1.9,2.4-3.1,1.3c-0.4-0.4-0.6-0.8-0.6-1.4
					c0-0.6,0.2-1,0.6-1.4C223.2,154.1,223.9,154,224.5,154.3z M215.4,167.8c0.6,0.3,0.9,0.9,0.9,1.5c0,0.7-0.2,1.1-0.8,1.5
					c-1.3,0.9-3,0-2.9-1.6C212.8,167.9,214.1,167.2,215.4,167.8z"/>
			</g>
			<g>
				<path class="st0" d="M159,153.4c-1,0.2-1.9,0.9-2.4,1.9c-0.2,0.5-0.3,0.7-0.3,1.6c0,0.9,0,1.1,0.3,1.6c0.8,1.4,2.4,2.2,4,1.9
					c1.1-0.2,2-1,2.6-2.1l0.3-0.5l2.2,0l2.2,0l5.1,11c2.8,6,5.5,12,6.1,13.4l1.1,2.4l-0.5,0.7c-0.7,0.9-0.9,1.5-0.8,2.5
					c0.1,2.4,2.3,3.9,4.7,3.1c1.2-0.4,2-1.2,2.3-2.4c0.4-1.4,0-2.6-1-3.5c-0.7-0.6-1.1-0.8-2.3-1l-0.8-0.1l-3.3-7.2
					c-8.3-17.9-9.4-20.3-9.8-20.4c-0.2-0.1-1.3-0.1-2.7-0.1l-2.4,0l-0.3-0.7C162.3,153.9,160.7,153.1,159,153.4z M160.3,155.1
					c0.5,0.1,1,0.5,1.2,0.9c0.2,0.5,0.2,1.3-0.1,1.8c-0.4,0.6-1,0.9-1.7,0.9c-1.1-0.1-1.7-0.8-1.7-1.9c0.1-0.9,0.5-1.5,1.3-1.6
					C159.9,155,159.9,155,160.3,155.1z M183.2,186c1.7,1,0.5,3.9-1.4,3.4c-0.6-0.2-1-0.5-1.3-1.2c-0.2-0.5-0.2-0.6-0.1-1
					c0.1-0.2,0.2-0.6,0.3-0.8C181.3,185.7,182.4,185.5,183.2,186z"/>
			</g>
			<g>
				<path class="st0" d="M176.5,155.4c-1.1,0.3-2,0.9-2.4,1.8c-0.3,0.6-0.5,1.6-0.3,2.3c0.3,1.7,1.5,2.8,3.3,3l0.8,0.1l6,13.8
					c3.3,7.6,6,13.8,6,13.9c0,0.1-0.1,0.2-0.3,0.4c-0.2,0.2-0.5,0.6-0.6,0.9c-0.4,0.8-0.5,2.1-0.2,3c0.3,0.8,1,1.6,1.7,1.9
					c0.5,0.3,0.7,0.3,1.6,0.3c0.8,0,1.1,0,1.6-0.3c0.7-0.3,1.4-1,1.7-1.7c0.2-0.4,0.2-0.7,0.2-1.4c0-0.8,0-1-0.3-1.6
					c-0.6-1.2-1.6-1.9-3-2l-0.8-0.1l-0.4-1.1c-0.5-1.4-3.8-8.8-8.2-18.8c-1.8-4.2-3.3-7.6-3.3-7.7c0-0.1,0.2-0.3,0.4-0.6
					c0.8-1,1.1-2.1,0.9-3.1c-0.3-1.5-1.3-2.5-2.6-2.9C177.4,155.2,177.2,155.2,176.5,155.4z M178,157.2c0.6,0.3,0.9,0.7,1,1.6
					c0,0.9-0.2,1.4-0.9,1.7c-0.5,0.3-1,0.3-1.5,0.1c-0.5-0.2-0.7-0.4-1-0.9c-0.2-0.5-0.2-1,0-1.6C176.1,157.1,177.1,156.8,178,157.2
					z M193,191.6c1.1,0.6,1.2,2.1,0.2,3c-0.8,0.7-1.7,0.7-2.4-0.1c-0.9-1-0.7-2.3,0.4-2.9C191.8,191.3,192.4,191.3,193,191.6z"/>
			</g>
			<g>
				<path class="st0" d="M225.5,164.9c-0.8,0.4-1.4,1-1.8,1.8c-0.2,0.5-0.3,0.7-0.2,1.6c0,0.9,0.1,1.1,0.3,1.6
					c0.4,0.6,1.3,1.5,1.9,1.7l0.4,0.1v2.6v2.6l-2.1,1.5l-2.1,1.5h-2.7l-2.7,0l-0.3-0.5c-0.3-0.7-0.7-1.1-1.3-1.5
					c-1.4-1-3.4-0.8-4.6,0.5c-0.7,0.8-1,1.4-0.9,2.7c0,0.8,0.1,1.1,0.3,1.5c0.4,0.7,1.4,1.5,2,1.7c0.8,0.2,2.1,0.2,2.7-0.1
					c0.6-0.3,1.5-1.2,1.8-1.8l0.2-0.5l3-0.1l3-0.1l2.1-1.5c1.2-0.8,2.4-1.7,2.6-2l0.5-0.4l0.1-1.2c0-0.7,0.1-2,0.1-2.9l0-1.8
					l0.6-0.3c0.7-0.3,1.3-1,1.7-1.8c0.2-0.4,0.3-0.6,0.3-1.4s0-1-0.3-1.6c-0.6-1.3-1.6-1.9-3.2-2
					C226.2,164.5,226.1,164.6,225.5,164.9z M227.4,166.3c1.2,0.3,1.8,1.5,1.3,2.6c-0.3,0.7-0.9,1-1.9,0.9c-0.5-0.1-0.6-0.1-1.1-0.6
					c-0.5-0.5-0.5-0.5-0.5-1.1c0-0.3,0.1-0.7,0.1-0.9c0.2-0.4,0.6-0.9,1-1C226.9,166.2,226.8,166.2,227.4,166.3z M213.9,179
					c1.4,0.7,1.4,2.6,0,3.3c-0.4,0.2-0.6,0.2-1,0.2c-1.6-0.2-2.3-2-1.1-3.1C212.3,178.8,213.1,178.7,213.9,179z"/>
			</g>
		</g>
	</g>
</g>
</svg>
