<?xml version="1.0" encoding="utf-8"?>
<!-- Generator: Adobe Illustrator 23.0.1, SVG Export Plug-In . SVG Version: 6.00 Build 0)  -->
<svg version="1.1" id="Layer_1" xmlns="http://www.w3.org/2000/svg" xmlns:xlink="http://www.w3.org/1999/xlink" x="0px" y="0px"
	 viewBox="0 0 1618 1000" style="enable-background:new 0 0 1618 1000;" xml:space="preserve">
<style type="text/css">
	.st0{display:none;}
	.st1{display:inline;}
	.st2{fill:#00B2E6;}
	.st3{fill:#014963;fill-opacity:0.1686;}
	.st4{fill:#535D66;}
	.st5{fill:#FFFFFF;}
	.st6{fill:#716565;}
	.st7{fill:#FEBEAE;}
	.st8{fill-opacity:0.1255;}
	.st9{fill-opacity:0.1882;}
	.st10{fill:#FF0000;}
	.st11{fill-opacity:9.411765e-02;}
	.st12{fill:#FCE9EA;}
	.st13{fill:#406B8B;fill-opacity:0.9961;}
	.st14{fill:#3C464F;}
	.st15{fill:#FFBFAF;fill-opacity:0.9961;}
	.st16{fill:#222B32;}
	.st17{fill-opacity:0.9961;}
	.st18{fill:#234B69;fill-opacity:0.9961;}
	.st19{fill:#B3449B;}
	.st20{fill:#B3449B;fill-opacity:0.9961;}
	.st21{fill:#6B2725;}
	.st22{fill:#FF9100;}
</style>
<g id="layer1" class="st0">
	<g class="st1">
		<path class="st2" d="M0-1.1c-0.3,0-0.6,0.1-0.8,0.3S-1.1-0.3-1.1,0v1000c0,0.6,0.5,1.1,1.1,1.1h1618c0.3,0,0.6-0.1,0.8-0.3
			s0.3-0.5,0.3-0.8V0c0-0.6-0.5-1.1-1.1-1.1H0z"/>
	</g>
</g>
<g id="layer2">
	<g>
		<path class="st3" d="M1496.9,897.7l-6.1,6.4c-29,12.9-113.7,23.2-254.2,30.9c-141.5,7.7-308.1,10.8-499.8,9.4
			c-183-2-329.3-8-439-17.9c-35.1-3.2-64.1-6.7-86.9-10.4l-28.7-5.8c-15.8-4-23.7-8.2-23.9-12.5c4.8-13.3,70.1-24.4,196-33.3
			c125.9-8.9,283.6-13.5,473.2-13.8c189.6,0.3,347.3,4.9,473.2,13.8C1426.8,873.3,1492.1,884.4,1496.9,897.7"/>
	</g>
	<g>
		<path class="st4" d="M685.9,586.8l-6.7,0.4l-19.8,271.3c0,2.3,1.1,3.5,3.3,3.7c1.9-0.2,3-1.2,3.3-3.1L685.9,586.8z"/>
	</g>
	<g>
		<path d="M916.2,840l-38.3-6.2c-9.8,17.4-16.2,29.5-19.2,36.1c-3.3,7.2-4.7,12.3-4,15c0.4,2.3,2.2,3.8,5.4,4.4
			c4.2,0.9,9.6,1,16,0.4c12.8-1.4,23-4.7,30.7-9.8c4.2-2.7,6.1-7.1,5.8-13.2l8.1-4.8L916.2,840"/>
	</g>
	<g>
		<path class="st5" d="M777.9,208.7l-246.6,0.6L562,594.9L817.7,572L777.9,208.7"/>
	</g>
	<g>
		<path d="M559.8,571.1l2,23.9l32.6-2L559.8,571.1"/>
	</g>
	<g>
		<path class="st4" d="M553.7,208l-23.5,1.1l3.3,31.7L553.7,208"/>
	</g>
	<g>
		<path class="st4" d="M764.1,208.2l16.3,23.2l-1.9-23.3L764.1,208.2"/>
	</g>
	<g>
		<path d="M815.8,550.6l-16,23.6l18.3-1.4L815.8,550.6"/>
	</g>
	<g>
		<path class="st6" d="M572.2,594.4l-6.7,0.4l-19.8,271.3c0,2.3,1.1,3.5,3.3,3.7c1.9-0.2,3-1.2,3.3-3.1L572.2,594.4z"/>
	</g>
	<g>
		<path class="st6" d="M795.7,574l-1.9,0.2l1.9,11.9c0-2.3-0.1-4.7-0.1-7C795.6,577.7,795.6,576,795.7,574L795.7,574z"/>
	</g>
	<g>
		<path d="M855.4,842.3l-50.5-16.7c-10.5,10.1-18.6,16.9-24.4,20.4c-2.5,1.6-5.1,3.1-7.9,4.4c-1,0.6-6.7,2.9-17.1,7
			c-2.3,1-4.1,2-5.4,2.9c-2.7,1.9-3.7,4-3.2,6.5c2.4,6.8,12.1,10.4,29.2,11c7.5,0.1,14-0.4,19.7-1.7c2.1-0.5,4.2-1.1,6.3-1.8
			c1.2-0.3,4.8-1.9,10.9-4.6c1.4-0.5,2.7-0.9,3.9-1c1.1-0.1,2.4-0.1,3.8,0.1c-0.1-0.1,2.8,0.5,8.6,1.8c1.6,0.2,3.2,0.4,4.8,0.4
			c4.4,0.1,9.2-0.5,14.4-1.7c3.8-0.9,7.8-2,12.2-3.4L855.4,842.3"/>
	</g>
	<g>
		<path class="st7" d="M769.8,349.3c-9.8-0.2-17.5,0.6-23,2.3c-1.4,0.4-3.1,1-5.1,1.7c-9.6,3.7-15.5,5.9-17.5,6.5
			c-1.4,0.5-8.2,2.6-20.4,6.1c-2.2,0.7-4,1.3-5.4,1.8c-3.7,1.4-5.9,2.8-6.5,4.3l-0.9,5.9c-0.1,0.6,0,1,0.1,1.4c0.3,1,1.7,1.4,4,1.3
			c5.7,0,17.9-3.2,36.6-9.5c-5.4,2-8.1,4.1-8,6.2c0,1.6,0.7,2.9,2.2,3.7c1.4,0.7,3.1,0.7,5.2,0.1c1.2-0.3,2.5-0.9,4-1.6
			c0.4-0.1,3.1-1.5,8.2-4.1c1.1-0.5,2-0.9,2.8-1.3c1.3-0.5,2.4-0.8,3.5-0.9c0.5-0.1,2-0.2,4.4-0.1c0.4,0,0.8-0.1,1.3-0.2
			c1.2-0.4,2.7-1.3,4.4-2.7l1.2-1L769.8,349.3"/>
	</g>
	<g>
		<path d="M876.1,139.4c-6.6,0-12.1,1.8-16.7,5.3c-3.8,2.8-7.6,8.3-11.4,16.6c-4,1.4-6.5,3.4-7.5,6.2c-1.2,2.7-1.6,7.2-1.1,13.5
			c0.2,2.6,0.5,5.8,1,9.4c2.4,16.2,3.6,24.3,3.3,24.1l58.5,3.8c3.3-1.1,5.6-2.9,7.1-5.4c1.7-2.7,3.2-6.9,4.3-12.5
			c2.6-13.8,2.3-25.6-0.7-35.3c-2.4-7.3-7-13.4-13.7-18.3C892.1,142.1,884.4,139.5,876.1,139.4"/>
	</g>
	<g>
		<path d="M920.2,243.9l-71.8,23.8c-5.7,2-10.1,4.3-13.2,7c-5.5,4.1-9.6,12.5-12.5,25.2c-2.8,11.2-5.5,33.1-8.2,65.8l-47.8-18.2
			l-13.9,39.8l58.8,21.3l-3.9,33.9c-5.9,36.9-8.7,55.7-8.3,56.4c-1,8.7,0.1,17,3.3,24.9c-7.1,36.2-10.4,58.8-10,67.6
			c2.4,115.5,5,195,7.8,238.3c21,16.5,40.1,21,57.5,13.4c-0.5-18.9-1.1-32.9-2-42.2l-1.8-14.7l-5.6-33.3c-0.9-8.4-1.2-17-0.8-25.6
			c0.4-10.5,1.6-21.5,3.4-32.9c8.1-43.9,13.5-74.7,16-92.3c10.8,46.6,16.5,83.9,17,112c0.6,16.7-0.8,39.1-4.1,67.2
			c-5.8,17-8.7,28.2-8.9,33.8c-0.5,5.7,0.1,12.4,1.8,20.1l0.7,3c6.5-1.4,12.6-1.6,18-0.6l28.9,9.3l22.1-314.5l32.6-19.6L940,403.3
			c15.5,4.8,25.3,1.8,29.4-8.8c2.1-4.9,3.7-12.3,4.9-22.2l6.5-67.5c0.1-10-3.1-18.1-9.7-24.3c-6.4-6.8-20.3-15.4-41.8-26
			L920.2,243.9"/>
	</g>
	<g>
		<path class="st5" d="M909.9,234.2l-40.4,31l-7.5-10.5l-3.5,14.3c-6,9.2-10.4,17.2-13.1,24.1c-4.9,11.4-9.2,29.6-12.8,54.6
			c-4.8,34.2-8.5,69.2-10.9,104.9c7.1,4.4,17.9,5.2,32.5,2.3l-1.3-77.1c18.3-44.5,31.2-74,38.6-88.6c7.8-15.9,16.6-30.1,26.6-42.4
			l-7.9-12.2"/>
	</g>
	<g>
		<path class="st5" d="M773.8,350.3l-7.2-2.7L754.9,375l6.1,3.5L773.8,350.3"/>
	</g>
	<g>
		<path class="st7" d="M851.6,174.7c-3.1,0.4-4.9,2.9-5.2,7.3c-0.2,1.9-0.3,4.2-0.2,6.9c0.8,11.1,1.2,18.7,1.2,22.7l-1.5-0.3
			c0.9-3.5,0.7-6.6-0.6-9.3c-1.6-3.5-3.1-5.3-4.3-5.4c-1.5,0.3-1.4,5.4,0.3,15.5c0.9,4.8,1.8,8,2.7,9.6c0.4,0.7,0.8,1.1,1.1,1.2
			c0.3,0.2,1,0.2,1.9-0.1c0.3,0.1,0.5,0.3,0.6,0.7c1,6.7,1.6,10.3,1.8,10.7c0.5,2.3,1.3,4.3,2.1,5.9c1.5,3.2,4.8,7.2,9.9,12l0.7,5.8
			l6.5,7.8l15.5-8.4l26.3-21.3l0.1-0.1c-1-0.9-1.7-1.6-2.1-2.3c-0.4-0.7-0.7-1.4-0.8-2.1c-0.3-0.5-0.1-3.5,0.5-9.2
			c0-1.1-0.1-2.1-0.3-3.2c2.4,0.4,4.1-1.2,5.1-4.7c2-7.3,2.8-13.4,2.4-18.2c-0.7-3-2.3-3.2-4.5-0.7c-1.5,1.8-2.8,5.7-4,11.8
			c-0.1-10-0.6-17.1-1.3-21.1c-0.7-3.8-2.2-6.3-4.3-7.5c-1.5-0.9-3.6-1.2-6.4-1l-4.3,0.6c-7.9,1.7-12,2.5-12.4,2.5
			c-2.4,0.4-4.5,0.5-6.2,0.3c-2-0.2-4-0.6-5.9-1.3l-10.1-4.4C854.3,174.8,852.8,174.6,851.6,174.7"/>
	</g>
	<g>
		<path d="M867.9,265l-6.7,11.3l0.8,4.9c-4.3,1.7-7.7,5.6-10.1,11.9c-2.5,6.2-5,16-7.5,29.5c-3.5,18.6-9,57.7-16.3,117.3l5.7,11.1
			l9.6-11.9c6.2-50.7,11.4-86.3,15.6-106.9c1.6-8.1,3-14.6,4.4-19.5c0.5-1.9,1.1-3.8,1.8-5.8l3.2-8.5c0.3-0.9,0.6-1.8,0.8-2.6
			c0.6-2.4,0.7-6.5,0.2-12.4l5.7-6.9L867.9,265"/>
	</g>
	<g>
		<path d="M865.6,296.1l-1.3,1.1l-0.2,4.2h1.6L865.6,296.1"/>
	</g>
	<g>
		<path class="st8" d="M849.2,530.2l14.4,70.2v0.1l1.7-3.4l0,0c0.4-2.7,0.8-5.1,1-7.3l0.7,3.7l1.4-2.8L849.2,530.2L849.2,530.2z"/>
	</g>
	<g>
		<path class="st8" d="M855,477.5c1.3,13.5,3.5,24.5,6.5,32.9c5.2,15,13.2,23.3,24,24.7c2.1,0.3,4.3,0.5,6.6,0.5
			c4.8,0,10.1-0.7,16.1-2.1c10-2.5,19.2-6,27.5-10.5l0,0c0,0,0,0-0.1,0c-0.2,0-0.7,0.1-1.6,0.4c-10.3,3.5-17.3,5.7-21.2,6.7
			c-4.6,1.3-8.8,2.1-12.7,2.6c-2,0.2-4,0.4-5.8,0.4c-5.8,0-10.8-1.2-14.9-3.5c-3.6-1.9-7.7-5.7-12.4-11.2L855,477.5L855,477.5z"/>
	</g>
	<g>
		<path class="st8" d="M812.4,520c-0.4,0-0.7,0-1,0c-2,0.1-2.8,0.6-2.4,1.6c0.2,0.8,1.9,2.2,4.9,4.4l29.9-1.6h0.1
			C827.5,521.5,817,520,812.4,520z"/>
	</g>
	<g>
		<path class="st8" d="M813.8,509c-3.1,1.3-5,2.3-5.5,3c-0.7,0.8-0.3,1.4,1.1,1.9c2.8,1.1,11.3,2,25.4,2.9l0,0L813.8,509z"/>
	</g>
	<g>
		<path class="st8" d="M832.8,344.8c-1.4,0.4-5.3,14.5-11.5,42.3c-7,31.8-12.3,58.6-15.9,80.5c-2.3,14.5-3.5,25.3-3.5,32.4
			c0.2,7.4,1.4,12.4,3.6,15l15.5-58.5c5.6-43,9.2-71.5,10.6-85.7C833.4,353.6,833.9,344.9,832.8,344.8L832.8,344.8z"/>
	</g>
	<g>
		<path class="st8" d="M823.1,447.6L823.1,447.6c1.9,4,3.6,6.9,5,8.9c1.6,2.3,3.5,4.2,5.7,5.9c4.3,3.4,11.4,6.7,21.3,10l0,0
			l-1.5-23.1l0,0L823.1,447.6L823.1,447.6z"/>
	</g>
	<g>
		<path class="st8" d="M887.1,377l-1.9,5.9l49.6,19.5l0,0L887.1,377z"/>
	</g>
	<g>
		<path class="st8" d="M928.5,309.5l-1.6,32.8l4,0.1L928.5,309.5L928.5,309.5z"/>
	</g>
	<g>
		<path class="st8" d="M927.4,256.7l-6.9,21.3l-9.3,3l3.9,8.7l-54.3,80.5l63.7-76.1L927.4,256.7L927.4,256.7L927.4,256.7
			L927.4,256.7z"/>
	</g>
	<g>
		<path class="st9" d="M904.2,234.5c-5.8,7.8-10.2,13.4-13.3,16.5c-3.5,3.7-6.7,6.1-9.5,7.4c-5.6,2.5-12.1,0.8-19.2-5.2l9.5,11.1
			c9.9-5.1,16.8-9.5,20.8-13.3C896.2,247.8,900,242.4,904.2,234.5"/>
	</g>
	<g>
		<path class="st5" d="M896.1,323.5l-20.4,26.2l4.7,12.8l13.7,1.8l7.2-21.5l-1.3-14.9L896.1,323.5"/>
	</g>
	<g>
		<path class="st7" d="M867.7,297.1c-0.8-0.1-2.1,0.7-4,2.3l-0.3,6c-5.4-1.2-8.7,0.2-10,4.1c-0.5,1.8-0.1,3.1,1.3,4
			c1.2,0.8,3.9,1.5,8.2,2c-3.2,1.6-5.1,3.6-5.8,6c-0.9,3.2-1,7-0.1,11.3c0.6,2.7,1.6,4.7,2.9,6c0.7,0.7,1.5,1.2,2.4,1.5
			c0.4,0.2,1.9,0.6,4.7,1.2c0.5,0.2,1,0.4,1.4,0.7c0.9,0.6,1.4,1.9,1.8,4.1l10.7,9c6.3-5.9,10.6-11.9,12.8-18.1
			c2.8-7.9,3.6-15.1,2.4-21.6c-0.7-3.1-2-5.3-3.9-6.5c-1-0.6-2.3-1.1-3.8-1.5c-0.2-0.2-3.4-0.6-9.4-1.2c-1.4-0.2-2.5-0.6-3.3-1
			c-1-0.5-1.8-1.1-2.6-1.9c-0.6-0.4-1.8-2.3-3.8-5.6C868.9,297.4,868.3,297.1,867.7,297.1"/>
	</g>
	<g>
		<path class="st10" d="M870.9,295.3l-6,0.2l-0.5,10.3l5.6,0.2L870.9,295.3"/>
	</g>
	<g>
		<path class="st10" d="M869,286.4l-2.8,0.3l-2,10.6l7.3-0.5L869,286.4"/>
	</g>
	<g>
		<path class="st11" d="M881.2,363.1l5.1,18.5l7.6-17.1L881.2,363.1"/>
	</g>
	<g>
		<path d="M508.4,466.1h39.2h39.2c0,33,0,66,0,99.1c-26.1,0-52.3,0-78.4,0C508.4,532.1,508.4,499.1,508.4,466.1z"/>
	</g>
	<g>
		<path d="M452,554.3h95.6h95.6c0,5.1,0,10.1,0,15.2c-63.7,0-127.4,0-191.1,0C452,564.4,452,559.3,452,554.3z"/>
	</g>
	<g>
		<path class="st12" d="M554.2,485.8L554.2,485.8L554.2,485.8c0,0.4-0.3,0.7-0.7,0.7s-0.7-0.3-0.7-0.7l0,0l0,0
			c0-0.4,0.3-0.7,0.7-0.7C553.9,485.1,554.2,485.4,554.2,485.8z"/>
	</g>
	<g>
		<path d="M523.4,878.5l7.5,35c-13.2,2.6-22.4,4-27.6,4.1c-4.8,0.4-11.5-0.4-20.2-2.4l3.7-50.5L523.4,878.5"/>
	</g>
	<g>
		<path d="M611.8,875.1l4.8,40.3c-9.6,2.8-16.7,4.2-21.3,4.1c-4.8,0.1-11.5-1.1-20.2-3.8l6.2-35.7L611.8,875.1"/>
	</g>
	<g>
		<path class="st13" d="M529.9,721.7l-0.8,82.2l-0.8,82.2l-45,0.7c-6.1-54.9-12.1-109.8-18.2-164.8L529.9,721.7"/>
	</g>
	<g>
		<path class="st13" d="M571.2,720.2l1.9,83.5l1.9,83.5c15.5-0.1,31-0.2,46.6-0.3c6.4-56.7,12.7-113.4,19.1-170.1L571.2,720.2"/>
	</g>
	<g>
		<path class="st14" d="M307.7,570.5h246.2h246.2c0,6.2,0,12.5,0,18.7c-164.1,0-328.2,0-492.3,0
			C307.7,582.9,307.7,576.7,307.7,570.5"/>
	</g>
	<g>
		<path class="st15" d="M435.7,511.9L435.7,511.9v67.4c15.1,8.9,30.2,17.8,45.3,26.7c-6.1-27.3-12.2-54.5-18.2-81.8L435.7,511.9"/>
	</g>
	<g>
		<path class="st15" d="M664.9,498.5L664.9,498.5v67.4c-15.1,8.9-30.2,17.8-45.3,26.7c6.1-27.3,12.2-54.5,18.2-81.8L664.9,498.5"/>
	</g>
	<g>
		<path class="st14" d="M362.1,588.6h10.4h10.4c0,109.7,0,219.3,0,329c-6.9,0-13.9,0-20.8,0C362.1,807.9,362.1,698.2,362.1,588.6"/>
	</g>
	<g>
		<path class="st14" d="M741.9,588.6h10.4h10.4c0,109.7,0,219.3,0,329c-6.9,0-13.9,0-20.8,0C741.9,807.9,741.9,698.2,741.9,588.6"/>
	</g>
	<g>
		<path class="st16" d="M643.9,603.6h13h13c0,42.8,0,85.6,0,128.4c-8.7,0-17.4,0-26,0C643.9,689.2,643.9,646.4,643.9,603.6"/>
	</g>
	<g>
		<path class="st16" d="M430.5,602.1h13h13c0,42.8,0,85.6,0,128.4c-8.7,0-17.4,0-26,0C430.5,687.7,430.5,644.9,430.5,602.1"/>
	</g>
	<g>
		<path d="M647.3,923.5l-0.9,1.9c-4.1,3.8-16.2,6.8-36.3,9c-20.2,2.3-44,3.2-71.4,2.7c-26.1-0.6-47-2.3-62.7-5.2
			c-5-0.9-9.2-1.9-12.4-3l-4.1-1.7c-2.3-1.2-3.4-2.4-3.4-3.7c0.7-3.9,10-7.1,28-9.7c18-2.6,40.5-3.9,67.6-4
			c27.1,0.1,49.6,1.4,67.6,4C637.3,916.4,646.6,919.6,647.3,923.5"/>
	</g>
	<g>
		<path class="st17" d="M657.7,717.5l-1,6c-3.3,7.5-8.6,13.5-16,17.9c-6.1,4.1-14.7,7.9-25.7,11.5c-21.2,6.6-46,9.5-74.5,8.6
			c-29.6-1.4-53.4-6.6-71.5-15.5c-1.5-0.4-4.4-2-8.7-4.9l-4.7-3.4c-2.9-2.3-5.2-4.5-7.1-6.8c-3.7-4.6-5.4-9.3-5.1-14
			c1-12.3,11.5-22.6,31.4-30.7c20.7-8.6,45.9-12.9,75.6-13.1c27.9,0.1,52.4,4.1,73.6,12C645.7,693.7,656.8,704.4,657.7,717.5"/>
	</g>
	<g>
		<path class="st18" d="M572.3,876.1h26.1h26.1c0,4,0,8,0,12c-17.4,0-34.7,0-52.1,0C572.3,884.1,572.3,880.1,572.3,876.1"/>
	</g>
	<g>
		<path class="st18" d="M481.2,878.4h24.9H531c0,3.9,0,7.9,0,11.8c-16.6,0-33.2,0-49.8,0C481.2,886.2,481.2,882.3,481.2,878.4"/>
	</g>
	<g>
		<path class="st18" d="M353.4,414.2L353.4,414.2L353.4,414.2L353.4,414.2L353.4,414.2L353.4,414.2L353.4,414.2L353.4,414.2"/>
	</g>
	<g>
		<path d="M540.5,741.4h11.2h11.2c0,61.8,0,123.5,0,185.3c-7.5,0-14.9,0-22.4,0C540.5,864.9,540.5,803.2,540.5,741.4"/>
	</g>
	<g>
		<path d="M341.8,521.1h24.5h24.5c0,16.3,0,32.7,0,49c-16.3,0-32.7,0-49,0C341.8,553.8,341.8,537.4,341.8,521.1"/>
	</g>
	<g>
		<path d="M328.3,533.2L328.3,533.2h22.6c1.3,0,2.4,1.1,2.4,2.4l0,0v22.6c0,1.3-1.1,2.4-2.4,2.4l0,0h-22.6c-0.6,0-1.2-0.3-1.7-0.7
			c-0.4-0.4-0.7-1.1-0.7-1.7l0,0v-22.6c0-0.6,0.3-1.2,0.7-1.7S327.6,533.2,328.3,533.2L328.3,533.2 M328.3,537.9l2.4-2.4v22.6
			l-2.4-2.4h22.6l-2.4,2.4v-22.6l2.4,2.4H328.3z"/>
	</g>
	<g>
		<path d="M421,668.7h126.4h126.4c0,11.2,0,22.3,0,33.5c-84.3,0-168.6,0-252.9,0C421,691.1,421,679.9,421,668.7"/>
	</g>
	<g>
		<path class="st15" d="M514,379.1l0.2,2.8c1.1,12.3,1,21.4-0.3,27.3c-1,5.4-4.5,11-10.5,16.8l82-11.8c-8.9-3.5-14.6-7.9-17.1-13.1
			c-2.8-4.6-5-15-6.6-31.1L514,379.1"/>
	</g>
	<g>
		<path class="st15" d="M503.1,364.9v1.8c-0.4,3.7-1.9,6.6-4.5,8.9s-5.7,3.3-9.4,3.1c-3.5-0.4-6.4-2-8.6-4.7
			c-0.7-0.9-1.3-1.8-1.8-2.9l-0.6-1.6c-0.3-1.1-0.6-2.3-0.6-3.5c-0.1-3.8,1-7,3.3-9.6s5.2-4,8.8-4.3c3.6-0.1,6.7,1.1,9.2,3.5
			C501.5,358.1,502.8,361.2,503.1,364.9"/>
	</g>
	<g>
		<path class="st15" d="M586.9,356.5v1.8c-0.4,3.7-1.9,6.6-4.5,8.9s-5.7,3.3-9.4,3.1c-3.5-0.4-6.4-2-8.6-4.7c-2.2-2.7-3.2-6-3-9.8
			c0.4-3.7,1.9-6.6,4.5-8.9s5.7-3.3,9.4-3.1c3.5,0.4,6.4,2,8.6,4.7c0.7,0.9,1.3,1.8,1.8,2.9l0.6,1.6
			C586.6,354.1,586.8,355.3,586.9,356.5"/>
	</g>
	<g>
		<path class="st19" d="M586.2,403L586.2,403L586.2,403L586.2,403L586.2,403l-83.2,8.2c-24.8,12.6-41.7,22.5-51,29.4
			c-9.6,7.1-16.4,14.9-20.4,23.6c-4.6,9.9-22.1,87-4.4,107.2c17.8,20.2,35.1,37.1,44.6,30.4c10.1-7.1-8.1-66.1-8.1-66.1l4.2,15.6
			c13.5,49.9,5.4,95.2-2.8,141.8l158.1,0.8c-4.9-11.8-6.9-50.7-7.8-67.8c-1.8-31.8,10-97.7,10-97.7l23.5,54.5
			c-0.5-6.8,23.1-5.1,27.8-28.3c4.5-22.2-9.8-69.4-10.3-72.9c-3.1-24.1-9.1-39.8-17.9-47.5c-3.7-3.3-8-6.6-13.4-9.3L604.7,413
			C599.5,410.6,593.3,407.3,586.2,403L586.2,403L586.2,403L586.2,403L586.2,403L586.2,403z"/>
	</g>
	<g>
		<path class="st5" d="M514.4,329.8c-1.1,0-2.1,0.4-2.9,1.2c-0.8,0.8-1.2,1.7-1.2,2.8c0,1.1,0.4,2.1,1.2,2.8
			c0.8,0.8,1.7,1.2,2.8,1.2c1.1,0,2.1-0.4,2.9-1.2c0.8-0.8,1.2-1.7,1.2-2.8c0-1.1-0.4-2.1-1.1-2.9
			C516.4,330.2,515.5,329.8,514.4,329.8L514.4,329.8z"/>
	</g>
	<g>
		<path d="M513.8,329.8c-0.5,0-0.9,0.1-1.1,0.2l-2.4,1.6l1.3-0.5c-0.2,0.9-0.2,1.6-0.1,2.2s0.3,1.3,0.6,2.1c0.9,1.8,1.8,2.6,2.7,2.6
			c0.4,0,0.8-0.2,1.2-0.6c0.3-0.4,0.5-0.9,0.5-1.4c0.1-0.9-0.3-2.7-1.3-5.3l0.1-0.6l1.4-0.1C515.3,329.8,514.3,329.8,513.8,329.8
			L513.8,329.8z"/>
	</g>
	<g>
		<path d="M512.4,322.9c-1.5,0.4-3,1.6-4.5,3.7l11.9-2.1l-0.1-0.1l-1.3-0.5c-0.4-0.2-0.8-0.3-1.2-0.5c-0.7-0.2-1.3-0.4-1.9-0.6
			C514.3,322.6,513.3,322.6,512.4,322.9L512.4,322.9z"/>
	</g>
	<g>
		<path class="st5" d="M492.1,334.1c-1.1,0-2.1,0.4-2.9,1.2c-0.8,0.8-1.2,1.7-1.2,2.8c0,1.1,0.4,2.1,1.2,2.8
			c0.8,0.8,1.7,1.2,2.8,1.2c1.1,0,2.1-0.4,2.9-1.2c0.8-0.8,1.2-1.7,1.2-2.8c0-1.1-0.4-2.1-1.1-2.8
			C494.2,334.6,493.3,334.2,492.1,334.1L492.1,334.1z"/>
	</g>
	<g>
		<path d="M491.5,334.1c-0.5,0-0.9,0.1-1.1,0.2l-2.4,1.6l1.4-0.5c-0.2,0.9-0.2,1.6-0.1,2.2s0.3,1.3,0.6,2.1c0.9,1.8,1.8,2.6,2.7,2.6
			c0.4,0,0.8-0.2,1.2-0.6c0.3-0.4,0.5-0.9,0.5-1.4c0.1-0.9-0.3-2.7-1.3-5.3l0.1-0.6l1.4-0.1C493.1,334.2,492.1,334.1,491.5,334.1
			L491.5,334.1z"/>
	</g>
	<g>
		<path d="M490.2,327.2c-1.5,0.4-3,1.6-4.5,3.7l11.9-2.1l-0.1-0.1l-1.3-0.5c-0.4-0.2-0.8-0.3-1.2-0.5c-0.7-0.2-1.3-0.4-1.9-0.6
			C492,327,491,327,490.2,327.2L490.2,327.2z"/>
	</g>
	<g>
		<path d="M446.6,488.7h105.1h105.1c0,79.3,0,158.7,0,238c-70.1,0-140.2,0-210.2,0C446.6,647.4,446.6,568.1,446.6,488.7"/>
	</g>
	<g>
		<path class="st20" d="M490.7,420.2l13.4-6.5l2.3-10.4l69.5-10.5l10,17.8L490.7,420.2"/>
	</g>
	<g>
		<path class="st20" d="M580.3,270L580.3,270L580.3,270L580.3,270"/>
	</g>
	<g>
		<path class="st21" d="M562,294.2l2.5,0.7c5.2,1.1,9.8,3.2,13.7,6.4c1.2,1.1,2.3,2.5,3.3,4.1l1.3,2.6c0.8,1.9,1.3,4,1.7,6.5
			c1.6,13.1-1.4,31.3-9.1,54.6c-2.2,6.1-4.6,11.2-7.1,15.2c-1.3,2-2.6,3.8-3.9,5.4c-0.6,1-2.8,3-6.6,5.9c-11.7,6.7-22.9,8.7-33.5,6
			c-13.5-3.2-25.7-16-36.6-38.2c-4-8.5-6.8-17.1-8.4-25.9s-1.4-16.9,0.6-24.2c1.1-3.6,2.5-6.9,4.3-10l3-4.4c2.2-2.8,4.6-5.3,7.2-7.6
			c2.6-2.3,5.4-4.2,8.3-5.9c1.4-1.2,5.9-3,13.3-5.5c6.8-1.8,13.6-1.8,20.2,0C543.4,281.8,552.1,286.6,562,294.2"/>
	</g>
	<g>
		<path d="M1108.9,464.2h-39.2h-39.2c0,33,0,66,0,99.1c26.1,0,52.3,0,78.4,0C1108.9,530.2,1108.9,497.2,1108.9,464.2z"/>
	</g>
	<g>
		<path d="M1165.3,552.4h-95.6h-95.6c0,5.1,0,10.1,0,15.2c63.7,0,127.4,0,191.1,0C1165.3,562.5,1165.3,557.4,1165.3,552.4z"/>
	</g>
	<g>
		<path class="st12" d="M1063.1,483.9L1063.1,483.9L1063.1,483.9c0,0.4,0.3,0.7,0.7,0.7c0.4,0,0.7-0.3,0.7-0.7l0,0l0,0
			c0-0.4-0.3-0.7-0.7-0.7S1063.1,483.5,1063.1,483.9z"/>
	</g>
	<g>
		<path d="M1093.9,876.6l-7.5,35c13.2,2.6,22.4,4,27.6,4.1c4.8,0.4,11.5-0.4,20.2-2.4l-3.7-50.5L1093.9,876.6"/>
	</g>
	<g>
		<path d="M1005.5,873.2l-4.8,40.3c9.6,2.8,16.7,4.2,21.3,4.1c4.8,0.1,11.5-1.1,20.2-3.8l-6.2-35.7L1005.5,873.2"/>
	</g>
	<g>
		<path class="st4" d="M1087.4,719.8l0.8,82.2l0.8,82.2l45,0.7c6.1-54.9,12.1-109.8,18.2-164.8L1087.4,719.8"/>
	</g>
	<g>
		<path class="st4" d="M1046.1,718.3l-1.9,83.5l-1.9,83.5c-15.5-0.1-31-0.2-46.6-0.3c-6.4-56.7-12.7-113.4-19.1-170.1L1046.1,718.3"
			/>
	</g>
	<g>
		<path class="st14" d="M1309.6,568.6h-246.2H817.2c0,6.2,0,12.5,0,18.7c164.1,0,328.2,0,492.3,0
			C1309.6,581,1309.6,574.8,1309.6,568.6"/>
	</g>
	<g>
		<path class="st15" d="M1181.6,510L1181.6,510v67.4c-15.1,8.9-30.2,17.8-45.3,26.7c6.1-27.3,12.2-54.5,18.2-81.8L1181.6,510"/>
	</g>
	<g>
		<path class="st15" d="M952.4,496.6L952.4,496.6V564c15.1,8.9,30.2,17.8,45.3,26.7c-6.1-27.3-12.2-54.5-18.2-81.8L952.4,496.6"/>
	</g>
	<g>
		<path class="st14" d="M1255.2,586.7h-10.4h-10.4c0,109.7,0,219.3,0,329c6.9,0,13.9,0,20.8,0C1255.2,806,1255.2,696.3,1255.2,586.7
			"/>
	</g>
	<g>
		<path class="st14" d="M875.4,586.7H865h-10.4c0,109.7,0,219.3,0,329c6.9,0,13.9,0,20.8,0C875.4,806,875.4,696.3,875.4,586.7"/>
	</g>
	<g>
		<path class="st16" d="M973.4,601.7h-13h-13c0,42.8,0,85.6,0,128.4c8.7,0,17.4,0,26,0C973.4,687.3,973.4,644.5,973.4,601.7"/>
	</g>
	<g>
		<path class="st16" d="M1186.8,600.2h-13h-13c0,42.8,0,85.6,0,128.4c8.7,0,17.4,0,26,0C1186.8,685.8,1186.8,643,1186.8,600.2"/>
	</g>
	<g>
		<path d="M970,921.6l0.9,1.9c4.1,3.8,16.2,6.8,36.3,9c20.2,2.3,44,3.2,71.4,2.7c26.1-0.6,47-2.3,62.7-5.2c5-0.9,9.2-1.9,12.4-3
			l4.1-1.7c2.3-1.2,3.4-2.4,3.4-3.7c-0.7-3.9-10-7.1-28-9.7c-18-2.6-40.5-3.9-67.6-4c-27.1,0.1-49.6,1.4-67.6,4
			C980,914.5,970.7,917.7,970,921.6"/>
	</g>
	<g>
		<path class="st17" d="M959.6,715.6l1,6c3.3,7.5,8.6,13.5,16,17.9c6.1,4.1,14.7,7.9,25.7,11.5c21.2,6.6,46,9.5,74.5,8.6
			c29.6-1.4,53.4-6.6,71.5-15.5c1.5-0.4,4.4-2,8.7-4.9l4.7-3.4c2.9-2.3,5.2-4.5,7.1-6.8c3.7-4.6,5.4-9.3,5.1-14
			c-1-12.3-11.5-22.6-31.4-30.7c-20.7-8.6-45.9-12.9-75.6-13.1c-27.9,0.1-52.4,4.1-73.6,12C971.6,691.8,960.5,702.5,959.6,715.6"/>
	</g>
	<g>
		<path class="st14" d="M1045,874.2h-26.1h-26.1c0,4,0,8,0,12c17.4,0,34.7,0,52.1,0C1045,882.2,1045,878.2,1045,874.2"/>
	</g>
	<g>
		<path class="st14" d="M1136.1,876.5h-24.9h-24.9c0,3.9,0,7.9,0,11.8c16.6,0,33.2,0,49.8,0C1136.1,884.3,1136.1,880.4,1136.1,876.5
			"/>
	</g>
	<g>
		<path class="st18" d="M863,412.3L863,412.3L863,412.3L863,412.3L863,412.3L863,412.3L863,412.3L863,412.3"/>
	</g>
	<g>
		<path d="M1076.8,739.5h-11.2h-11.2c0,61.8,0,123.5,0,185.3c7.5,0,14.9,0,22.4,0C1076.8,863,1076.8,801.3,1076.8,739.5"/>
	</g>
	<g>
		<path class="st22" d="M1275.5,519.2H1251h-24.5c0,16.3,0,32.7,0,49c16.3,0,32.7,0,49,0C1275.5,551.8,1275.5,535.5,1275.5,519.2"/>
	</g>
	<g>
		<path class="st22" d="M1289.1,531.3L1289.1,531.3h-22.6c-1.3,0-2.4,1.1-2.4,2.4l0,0v22.6c0,1.3,1.1,2.4,2.4,2.4l0,0h22.6
			c0.6,0,1.2-0.3,1.7-0.7c0.4-0.4,0.7-1.1,0.7-1.7l0,0v-22.6c0-0.6-0.3-1.2-0.7-1.7C1290.3,531.5,1289.7,531.3,1289.1,531.3
			L1289.1,531.3 M1289.1,536l-2.4-2.4v22.6l2.4-2.4h-22.6l2.4,2.4v-22.6l-2.4,2.4H1289.1z"/>
	</g>
	<g>
		<path d="M1196.3,666.8h-126.4H943.5c0,11.2,0,22.3,0,33.5c84.3,0,168.6,0,252.9,0C1196.3,689.2,1196.3,678,1196.3,666.8"/>
	</g>
	<g>
		<path class="st15" d="M1103.3,377.2l-0.2,2.8c-1.1,12.3-1,21.4,0.3,27.3c1,5.4,4.5,11,10.5,16.8l-82-11.8
			c8.9-3.5,14.6-7.9,17.1-13.1c2.8-4.6,5-15,6.6-31.1L1103.3,377.2"/>
	</g>
	<g>
		<path class="st15" d="M1114.2,363v1.8c0.4,3.7,1.9,6.6,4.5,8.9s5.7,3.3,9.4,3.1c3.5-0.4,6.4-2,8.6-4.7c0.7-0.9,1.3-1.8,1.8-2.9
			l0.6-1.6c0.3-1.1,0.6-2.3,0.6-3.5c0.1-3.8-1-7-3.3-9.6s-5.2-4-8.8-4.3c-3.6-0.1-6.7,1.1-9.2,3.5
			C1115.9,356.2,1114.5,359.3,1114.2,363"/>
	</g>
	<g>
		<path class="st15" d="M1030.4,354.6v1.8c0.4,3.7,1.9,6.6,4.5,8.9s5.7,3.3,9.4,3.1c3.5-0.4,6.4-2,8.6-4.7s3.2-6,3-9.8
			c-0.4-3.7-1.9-6.6-4.5-8.9s-5.7-3.3-9.4-3.1c-3.5,0.4-6.4,2-8.6,4.7c-0.7,0.9-1.3,1.8-1.8,2.9l-0.6,1.6
			C1030.7,352.2,1030.5,353.4,1030.4,354.6"/>
	</g>
	<g>
		<path class="st5" d="M1031.1,401.1L1031.1,401.1L1031.1,401.1L1031.1,401.1L1031.1,401.1l83.2,8.2c24.8,12.6,41.7,22.5,51,29.4
			c9.6,7.1,16.4,14.9,20.4,23.6c4.6,9.9,24.9,88.3,7.2,108.5c-17.8,20.2-37.9,35.8-47.4,29.2c-10.1-7.1,8.1-66.1,8.1-66.1l-4.2,15.6
			c-13.5,49.9-5.4,95.2,2.8,141.8l-158.1,0.8c4.9-11.8,6.9-50.7,7.8-67.8c1.8-31.8-10-97.7-10-97.7l-23.5,54.5
			c0.5-6.8-23.1-5.1-27.8-28.3c-4.5-22.2,9.8-69.4,10.3-72.9c3.1-24.1,9.1-39.8,17.9-47.5c3.7-3.3,8-6.6,13.4-9.3l30.4-11.9
			C1017.8,408.7,1024,405.4,1031.1,401.1L1031.1,401.1L1031.1,401.1L1031.1,401.1L1031.1,401.1L1031.1,401.1z"/>
	</g>
	<g>
		<path class="st5" d="M1102.9,327.9c1.1,0,2.1,0.4,2.9,1.2c0.8,0.8,1.2,1.7,1.2,2.8c0,1.1-0.4,2.1-1.2,2.8
			c-0.8,0.8-1.7,1.2-2.8,1.2c-1.1,0-2.1-0.4-2.9-1.2c-0.8-0.8-1.2-1.7-1.2-2.8c0-1.1,0.4-2.1,1.1-2.9
			C1100.9,328.3,1101.8,327.9,1102.9,327.9L1102.9,327.9z"/>
	</g>
	<g>
		<path d="M1103.5,327.9c0.5,0,0.9,0.1,1.1,0.2l2.4,1.6l-1.3-0.5c0.2,0.9,0.2,1.6,0.1,2.2s-0.3,1.3-0.6,2.1
			c-0.9,1.8-1.8,2.6-2.7,2.6c-0.4,0-0.8-0.2-1.2-0.6c-0.3-0.4-0.5-0.9-0.5-1.4c-0.1-0.9,0.3-2.7,1.3-5.3l-0.1-0.6l-1.4-0.1
			C1102,327.9,1103,327.9,1103.5,327.9L1103.5,327.9z"/>
	</g>
	<g>
		<path d="M1104.9,321c1.5,0.4,3,1.6,4.5,3.7l-11.9-2.1l0.1-0.1l1.3-0.5c0.4-0.2,0.8-0.3,1.2-0.5c0.7-0.2,1.3-0.4,1.9-0.6
			C1103,320.7,1104,320.7,1104.9,321L1104.9,321z"/>
	</g>
	<g>
		<path class="st5" d="M1125.2,332.2c1.1,0,2.1,0.4,2.9,1.2c0.8,0.8,1.2,1.7,1.2,2.8c0,1.1-0.4,2.1-1.2,2.8
			c-0.8,0.8-1.7,1.2-2.8,1.2c-1.1,0-2.1-0.4-2.9-1.2c-0.8-0.8-1.2-1.7-1.2-2.8c0-1.1,0.4-2.1,1.1-2.9
			C1123.1,332.7,1124,332.3,1125.2,332.2L1125.2,332.2z"/>
	</g>
	<g>
		<path d="M1125.8,332.2c0.5,0,0.9,0.1,1.1,0.2l2.4,1.6l-1.4-0.5c0.2,0.9,0.2,1.6,0.1,2.2s-0.3,1.3-0.6,2.1
			c-0.9,1.8-1.8,2.6-2.7,2.6c-0.4,0-0.8-0.2-1.2-0.6c-0.3-0.4-0.5-0.9-0.5-1.4c-0.1-0.9,0.3-2.7,1.3-5.3l-0.1-0.6l-1.4-0.1
			C1124.2,332.3,1125.2,332.2,1125.8,332.2L1125.8,332.2z"/>
	</g>
	<g>
		<path d="M1127.1,325.3c1.5,0.4,3,1.6,4.5,3.7l-11.9-2.1l0.1-0.1l1.3-0.5c0.4-0.2,0.8-0.3,1.2-0.5c0.7-0.2,1.3-0.4,1.9-0.6
			C1125.3,325.1,1126.3,325.1,1127.1,325.3L1127.1,325.3z"/>
	</g>
	<g>
		<path d="M1170.7,486.8h-105.1H960.5c0,79.3,0,158.7,0,238c70.1,0,140.2,0,210.2,0C1170.7,645.5,1170.7,566.2,1170.7,486.8"/>
	</g>
	<g>
		<path class="st5" d="M1126.6,418.3l-13.4-6.5l-2.3-10.4l-69.5-10.5l-10,17.8L1126.6,418.3"/>
	</g>
	<g>
		<path class="st20" d="M1037,268.1L1037,268.1L1037,268.1L1037,268.1"/>
	</g>
	<g>
		<path d="M1055.3,292.3l-2.5,0.7c-5.2,1.1-9.8,3.2-13.7,6.4c-1.2,1.1-2.3,2.5-3.3,4.1l-1.3,2.6c-0.8,1.9-1.3,4-1.7,6.5
			c-1.6,13.1,1.4,31.3,9.1,54.6c2.2,6.1,4.6,11.2,7.1,15.2c1.3,2,2.6,3.8,3.9,5.4c0.6,1,2.8,3,6.6,5.9c11.7,6.7,22.9,8.7,33.5,6
			c13.5-3.2,25.7-16,36.6-38.2c4-8.5,6.8-17.1,8.4-25.9s1.4-16.9-0.6-24.2c-1.1-3.6-2.5-6.9-4.3-10l-3-4.4c-2.2-2.8-4.6-5.3-7.2-7.6
			c-2.6-2.3-5.4-4.2-8.3-5.9c-1.4-1.2-5.9-3-13.3-5.5c-6.8-1.8-13.6-1.8-20.2,0C1073.9,279.9,1065.2,284.7,1055.3,292.3"/>
	</g>
	<path class="st22" d="M636.5,235.3c-0.6,0.3-1.2,0.7-1.3,0.9c-0.1,0.2-0.3,0.3-0.5,0.4c-0.7,0.1-2.4,1.3-3,2
		c-0.3,0.4-0.6,0.7-0.7,0.7c-0.3,0-2.9,2.3-2.9,2.5c0,0.1-0.7,0.9-1.4,1.7c-0.8,0.8-1.7,1.7-1.9,2c-1.7,2.2-2.3,2.9-2.3,3.3
		c-0.1,0.2-0.2,0.6-0.5,0.8c-0.6,0.4-1.9,2.7-1.9,3.3c0,0.2-0.2,0.6-0.4,0.7c-0.5,0.3-1.9,3.1-1.7,3.4c0.1,0.1,0,0.3-0.2,0.4
		c-0.4,0.2-1.4,2.5-1.5,3.5c-0.1,0.4-0.2,0.9-0.4,1.1c-0.4,0.4-1.2,3.3-1,3.5c0.1,0.1-0.1,0.6-0.3,1.1c-0.2,0.5-0.5,1.5-0.6,2.3
		c-0.1,0.8-0.3,1.8-0.4,2.2c-0.4,1.1-0.6,4.7-0.6,10.8c0,6.9,0.2,9.4,0.7,10.4c0.2,0.4,0.3,0.9,0.3,1.1c-0.2,0.5,1.1,2.9,1.7,3.2
		c0.3,0.2,0.7,0.5,0.9,0.7c0.2,0.2,1.9,0.3,6.5,0.3c5,0,6.2-0.1,6.5-0.4c0.2-0.2,0.4-0.6,0.4-0.7c0-0.4-1.4-2.8-1.7-3
		c-0.1-0.1-0.3-0.4-0.3-0.7c-0.1-0.7-1.3-3.2-1.5-3.4c-0.1-0.1-0.4-1-0.6-2.1c-0.2-1.1-0.5-2.1-0.6-2.2c-0.1-0.2-0.1-1.1,0.1-2.1
		c0.2-1,0.3-2,0.3-2.2c0-0.2,0.7-1.1,1.4-1.9c0.7-0.8,1.4-1.6,1.4-1.7c0.1-0.1,0.2-0.2,0.5-0.2c0.2,0,0.9-0.2,1.7-0.6
		c0.7-0.3,1.6-0.7,1.9-0.8c0.9-0.4,4.2-0.9,6.6-1c1.2-0.1,2.3-0.2,2.4-0.3c0.1-0.1,1.2,0.1,2.5,0.3c1.8,0.4,2.5,0.6,3.1,1.2
		c1.3,1.3,1.6,2.3,1.2,4.9c-0.1,1.3-0.4,2.6-0.5,2.9c-0.6,1.3-1.1,3.2-0.9,3.3c0.1,0.1,0,0.4-0.2,0.6c-0.5,0.6-1.6,3.2-1.6,3.8
		c0,0.2-0.1,0.4-0.2,0.5c-0.4,0.1-1.7,2.9-1.7,3.5c0,0.3-0.1,0.6-0.3,0.8s-0.1,0.5,0.1,0.9c0.4,0.6,0.6,0.6,6.9,0.6
		c3.5,0,6.6-0.1,6.8-0.2c0.8-0.5,2-3.2,2-4.6c0-0.6,0.1-1.3,0.3-1.5c0.7-1.1,0.7-20.5,0.1-21.6c-0.1-0.2-0.2-1.1-0.3-2.1
		c-0.1-1-0.2-2-0.4-2.2c-0.1-0.2-0.3-1-0.4-1.9s-0.4-2-0.6-2.6c-0.2-0.5-0.4-1.1-0.3-1.1c0.2-0.2-0.8-3.2-1.2-3.5
		c-0.2-0.2-0.3-0.5-0.3-0.9c0-0.7-1-3-1.4-3.2c-0.2-0.1-0.3-0.5-0.4-0.9c-0.1-0.8-1.5-3.2-1.8-3.2c-0.2,0-0.3-0.2-0.3-0.5
		c0-0.6-1.6-3.1-2.3-3.4c-0.3-0.1-0.4-0.4-0.4-0.5c0.2-0.4-4.6-5.3-5.6-5.7c-0.5-0.2-0.9-0.5-0.9-0.7c0-0.4-2.5-1.9-3.2-1.9
		c-0.4,0-0.7-0.1-0.8-0.3C638.5,234.7,637.8,234.8,636.5,235.3z M639.7,248.7c0.4,0.3,0.9,0.6,1.2,0.7c0.3,0.1,0.6,0.4,0.7,0.7
		c0.1,0.3,0.7,1.3,1.3,2.1c0.6,0.8,1.1,1.6,1.1,1.8c0,0.4,1.2,3,1.5,3.2c0.1,0.1,0.4,1.2,0.7,2.6c0.4,2.2,0.4,2.5,0,3.1
		c-0.5,0.8-1.5,1.1-4.3,1.1c-3.3,0.1-6.2,0.4-6.9,0.6c-0.4,0.1-1.5,0.4-2.5,0.4c-1,0.1-1.9,0.3-2,0.4c-0.3,0.4-2.8,0.3-3.2-0.1
		c-0.6-0.7-0.2-3.2,0.8-5.1c0.5-1,0.8-1.9,0.7-2c-0.1-0.1,0-0.3,0.1-0.4c0.4-0.2,2.2-3.1,2.2-3.4c0-0.1,0.4-0.7,1-1.3
		c0.6-0.6,1.2-1.4,1.5-1.8s1.2-1.4,2.2-2.1C637.8,247.8,638.4,247.7,639.7,248.7z"/>
	<path class="st22" d="M681.3,233.8c-0.1,0.1-0.9,0.2-1.9,0.3c-1,0.1-2.4,0.2-3.2,0.4c-0.7,0.1-2.2,0.4-3.1,0.6
		c-1,0.2-1.7,0.4-1.7,0.5c0,0.1-0.4,0.2-0.9,0.2c-0.9,0-2.3,0.6-4,1.6c-0.7,0.4-1.8,3-1.5,3.5c0.1,0.1,0,0.4-0.2,0.7
		c-0.5,0.6-1.1,3.3-0.9,4c0.1,0.3,0,0.6-0.1,0.6c-0.3,0-0.6,1.4-0.8,3.6c-0.3,3.8,0,4.3,2.4,3c0.9-0.5,2.1-1.3,2.6-1.7
		c0.5-0.5,1.4-1.1,2-1.4c0.6-0.3,1.4-0.9,1.9-1.3c0.4-0.4,0.9-0.7,1.1-0.7c0.4,0,2.5-1,3-1.5c0.4-0.4,2.6-0.9,4-1.1l0.8-0.1l0.2,2.4
		c0.1,1.3,0.1,2.5-0.1,2.8c-0.4,0.7-0.8,3.1-0.6,3.5c0.1,0.2,0,0.5-0.1,0.7c-0.2,0.3-0.5,1.4-0.7,3.7c-0.1,0.4-0.2,1.6-0.4,2.4
		c-0.2,0.9-0.2,1.8-0.1,2c0.1,0.2,0,0.6-0.1,0.7c-0.3,0.3-0.6,3.4-0.7,7.4c0,1-0.1,2.5-0.1,3.5c-0.1,0.9,0,1.8,0.1,2
		c0.1,0.2,0.1,0.5-0.1,0.7c-0.2,0.3-0.3,0.9-0.2,2c0.1,0.9,0.2,3.6,0.3,6.1c0.1,2.9,0.2,4.7,0.4,4.9c0.2,0.2,0.2,0.6,0.1,0.8
		c-0.2,0.6,0.4,3.5,0.7,3.5c0.1,0,0.2,0.3,0.2,0.6s0.3,0.9,0.6,1.2c0.6,0.6,0.9,0.6,6.8,0.6c6.9,0,7.3-0.1,7.3-1.7
		c0-0.5-0.2-1.2-0.4-1.5c-0.2-0.3-0.4-0.7-0.3-0.9c0.2-0.3-0.7-3.4-1-3.7c-0.2-0.1-0.2-0.4-0.1-0.6c0.2-0.5-0.2-2.9-0.7-3.7
		c-0.2-0.3-0.2-0.7-0.1-0.8c0.1-0.1,0-0.8-0.1-1.5c-0.7-3.8-1.1-9.3-1.1-16.5c0-6.3,0.1-8.7,0.5-11.1c0.1-0.9,0.2-1.8,0.1-2
		c-0.1-0.2,0-0.5,0.1-0.7c0.2-0.2,0.4-1.1,0.6-2.1c0.4-1.8,0.9-2.8,2.2-4.2c0.6-0.6,0.8-0.7,1.7-0.6c0.6,0.1,1.5,0.3,2,0.6
		c0.6,0.2,1,0.3,1,0.2s0.7,0.5,1.6,1.3c0.9,0.9,1.8,1.6,2.1,1.7c0.2,0.1,0.5,0.4,0.5,0.6c0,0.5,1.6,1.9,2,1.7
		c0.2-0.1,0.4-0.4,0.6-0.7c0.2-0.3,0.5-0.8,0.7-1.1c0.7-0.7,1.6-2.8,1.6-3.4c0-0.3,0.1-0.6,0.2-0.6c0.4,0,1.1-2.4,1.3-4.1
		c0.1-1.3,0.1-1.5-0.7-2.4c-0.5-0.5-1-1-1.2-1c-0.2,0-0.6-0.2-0.8-0.4c-0.6-0.6-2.8-1.5-3.6-1.5c-0.4,0-0.7-0.1-0.8-0.2
		c-0.2-0.2-3-0.9-3.4-0.8c-0.1,0-0.7-0.1-1.2-0.3c-0.6-0.2-1.8-0.4-2.8-0.5C692,233.8,681.4,233.7,681.3,233.8z"/>
	<path class="st22" d="M728.2,235.5c-0.1,0.1-2.7,0.1-5.9,0.1l-5.8,0l-0.4,0.8c-0.3,0.4-0.5,1.1-0.5,1.5s-0.1,0.7-0.2,0.7
		c-0.2,0-1,3-0.8,3.5c0,0.1-0.1,0.8-0.2,1.4s-0.4,1.9-0.4,2.8c-0.1,0.9-0.2,1.9-0.2,2.1c-0.2,0.6-0.8,7.4-0.9,10.7
		c0,1.1-0.1,2.1-0.2,2.3c-0.2,0.4-0.2,0.6-0.3,14.1c0,9.3,0.2,16.3,0.6,16.9c0.1,0.2,0.2,0.6,0.1,1.1c-0.1,1.2,0.5,3,1.1,3.5
		c0.5,0.4,1.3,0.5,6.8,0.5h6.2l0.4-0.8c0.4-0.7,0.3-0.9-0.1-2.2c-0.3-0.8-0.7-1.6-0.8-1.9c-0.3-0.6-1.1-4.1-1.3-5.5
		c-0.1-0.6-0.2-1.7-0.4-2.5c-0.1-0.8-0.2-2.2-0.3-3.3c0-1.1-0.1-2-0.2-2.1c-0.1-0.1,0.1-1,0.4-2c0.2-0.9,0.5-1.9,0.5-2.2
		c0-0.4,0.3-0.8,1.9-2.6c0.4-0.5,0.7-1,0.7-1.1c0-0.1,0.8-0.6,1.7-1.1c0.9-0.5,1.8-1,2-1.1c0.4-0.3,3.8-1.2,5.2-1.4
		c3.2-0.3,4.6-0.2,6.5,0.4c1.9,0.7,1.9,0.7,2.5,2.2c0.4,1.1,0.6,2.3,0.6,4.7c0,1.7,0,3.1-0.1,3.2c-0.1,0-0.2,1-0.3,2.1
		c-0.1,1.1-0.2,2.1-0.3,2.3c-0.3,0.5-0.9,3.4-0.7,3.7c0.1,0.1,0,0.4-0.2,0.6c-0.5,0.6-1.2,2.7-1.2,3.5c0,0.4-0.1,0.8-0.2,0.8
		c-0.3,0-1.3,2.9-1.6,4.3c-0.3,1.9-0.1,1.9,7,2c6,0,7.5-0.1,7.1-0.8c-0.1-0.2,0-0.5,0.2-0.7c0.6-0.6,0.8-2.2,1.2-8.2
		c0.2-3.3,0.2-21.2,0-24.4c-0.4-6.1-0.5-7.2-0.8-7.5c-0.2-0.2-0.2-0.6-0.1-0.8c0.1-0.3,0-1.2-0.1-2c-0.1-0.8-0.3-1.9-0.4-2.4
		c-0.2-1.6-0.5-3.6-0.7-3.9c-0.1-0.2-0.2-0.7-0.2-1.3c0-0.6-0.3-1.6-0.5-2.2c-0.2-0.7-0.4-1.4-0.4-1.6c0-0.6-0.8-3.1-1.2-3.6
		c-0.2-0.2-0.4-0.8-0.6-1.2l-0.3-0.9l-4.4,0c-2.4,0-5.1-0.1-5.9-0.2c-0.9-0.1-1.5-0.1-1.6,0.1c-0.1,0.2-0.4,0.2-0.7,0.1
		c-1.1-0.4-1,1.2,0.1,3c0.4,0.6,0.7,1,0.6,1c-0.2,0,1.3,3.2,1.6,3.4c0.1,0.1,0.3,0.5,0.4,0.9c0.1,0.4,0.5,1.5,0.9,2.3
		c0.4,0.9,0.7,1.7,0.7,1.8c0.1,0.8,0.8,3.5,1,3.5c0.1,0,0.2,1.1,0.2,2.4c0.1,2.3,0,2.4-0.7,2.6c-0.4,0.1-3.1,0.3-6.1,0.4
		c-3.1,0.1-5.6,0.2-5.9,0.4c-0.3,0.2-0.9,0.3-1.4,0.3c-0.9,0-3.2,1-3.5,1.4c-0.3,0.5-1.6-0.2-1.9-1.1c-0.2-0.4-0.4-1-0.5-1.2
		c-0.1-0.2-0.1-1.2,0.1-2.2c0.1-1,0.2-2,0.1-2.3c-0.1-0.3,0-0.7,0.1-0.8c0.1-0.2,0.4-1.1,0.6-2.1c0.2-1,0.4-2,0.6-2.4
		c0.4-0.9,0.9-2.7,1-3.4c0-0.3,0.2-0.8,0.4-1.1c0.5-0.9,1.1-2.7,1.1-3.2c0-0.3,0.2-0.8,0.4-1.1c0.2-0.3,0.5-1,0.5-1.5
		c0-0.8-0.1-1.1-0.6-1.2C728.6,235.5,728.3,235.5,728.2,235.5z"/>
	<path class="st22" d="M576.2,236.1c-0.7,0.7-1.7,3.1-1.5,3.7c0.1,0.2,0,0.5-0.1,0.7c-0.3,0.3-0.6,1.9-0.8,3.8
		c-0.1,0.6-0.2,2.2-0.4,3.8s-0.3,4.5-0.4,6.6c-0.1,2.1-0.2,4.1-0.2,4.3c-0.2,0.5,0,24.4,0.2,27.8c0.1,1.2,0.2,2.4,0.3,2.7
		c0.1,0.3,0.2,1.3,0.2,2.3c0.1,1,0.2,2,0.4,2.3c0.2,0.3,0.4,0.9,0.5,1.3c0.1,0.4,0.4,1,0.7,1.3c0.5,0.5,1.1,0.5,6.8,0.5
		c3.5,0,6.6-0.1,6.8-0.3c0.6-0.3,0.6-1.3,0-2.1c-0.2-0.3-0.4-0.7-0.2-0.9c0.2-0.3-0.3-2.6-0.7-3.5c-0.2-0.3-0.2-0.7-0.2-0.8
		c0.1-0.4-0.3-3.2-0.5-3.6c-0.2-0.3-0.2-1.2-0.4-4.7c-0.1-2.2,0.8-3.9,2.8-5.4c0.8-0.6,1.6-1.3,1.7-1.6c0.1-0.2,0.4-0.4,0.6-0.4
		c0.5,0,2.6-1.3,3-1.8c0.2-0.2,0.6-0.5,0.9-0.5c0.7-0.1,2.4-1.1,3.3-1.9c0.4-0.3,0.7-0.5,0.7-0.4c0.1,0.2,2.9-1.4,2.9-1.7
		c0-0.1,0.6-0.5,1.2-0.8c0.7-0.3,1.7-1,2.2-1.6c0.6-0.5,1.1-1,1.2-1c0.4,0,2.5-2.3,2.7-2.9c0.1-0.2,0.3-0.5,0.5-0.5
		c0.3,0,0.9-0.8,2.4-3.2c0.7-1.2,1.7-3.5,1.6-3.7c-0.1-0.1,0-0.6,0.3-1.1c0.7-1.4,0.6-8-0.2-8c-0.1,0-0.2-0.3-0.2-0.8
		c0-0.8-1.2-3.1-1.8-3.5c-0.2-0.1-0.4-0.3-0.4-0.5c0-0.4-1.8-1.9-2.9-2.5c-2-1.1-3.3-1.6-4.2-1.6c-0.5,0-1-0.1-1.1-0.2
		c-0.1-0.2-5.8-0.2-13.7-0.2l-13.5,0L576.2,236.1z M595,244.5c0.8,0.2,1.9,0.3,2.5,0.3s1.1,0.1,1.2,0.3c0.1,0.1,1,0.7,1.8,1.2
		c1.2,0.7,1.6,1.2,1.8,1.9c0.7,3,0.7,3.1-0.1,4.9c-0.4,1-0.9,2-1.2,2.2s-1,1-1.7,1.8c-0.6,0.8-1.6,1.7-2.2,2.1
		c-0.6,0.4-1.4,1.2-1.9,1.7c-0.5,0.5-0.9,0.8-0.9,0.7c0-0.2-2.5,1.4-2.9,1.9c-0.1,0.2-1.3,0.7-2.5,1.1c-1.9,0.7-2.4,0.7-2.9,0.4
		c-0.9-0.6-1.4-2.3-1.2-4.7c0.1-1.2,0.1-2.2,0-2.3c-0.1-0.1-0.1-0.4,0.1-0.7c0.2-0.3,0.3-1.5,0.4-2.6c0-1.1,0.1-2.1,0.2-2.1
		c0.1,0,0.8-2.5,0.9-3.3c0.1-0.5,1.1-2.1,2.2-3.2c0.6-0.7,1.1-0.9,2.2-1.1c1.1-0.2,2.1-0.4,2.5-0.7
		C593.5,244.2,594.2,244.3,595,244.5z"/>
</g>
</svg>
