<?xml version="1.0" encoding="utf-8"?>
<!-- Generator: Adobe Illustrator 23.0.1, SVG Export Plug-In . SVG Version: 6.00 Build 0)  -->
<svg version="1.1" id="Layer_1" xmlns="http://www.w3.org/2000/svg" xmlns:xlink="http://www.w3.org/1999/xlink" x="0px" y="0px"
	 viewBox="0 0 900 900" style="enable-background:new 0 0 900 900;" xml:space="preserve">
<style type="text/css">
	.st0{fill:#F2F2F2;}
	.st1{fill:#CCCCCC;}
	.st2{fill-rule:evenodd;clip-rule:evenodd;fill:#FFFFFF;}
	.st3{fill-rule:evenodd;clip-rule:evenodd;fill:#333333;}
	.st4{fill:#333333;}
	.st5{fill-rule:evenodd;clip-rule:evenodd;fill:#ECECEC;}
	.st6{fill:#FFFFFF;}
	.st7{fill-rule:evenodd;clip-rule:evenodd;fill:#4D4D4D;}
	.st8{fill-rule:evenodd;clip-rule:evenodd;fill:#039BE5;}
	.st9{fill:#B3B3B3;}
	.st10{fill-rule:evenodd;clip-rule:evenodd;fill:#F9F9F9;}
	.st11{fill:#00628A;}
	.st12{fill:#EFE2D3;}
	.st13{fill:none;stroke:#1D1D1B;stroke-width:2.33;stroke-miterlimit:10;}
	.st14{fill:#1D1D1B;}
	.st15{fill:none;stroke:#1D1D1B;stroke-width:1.165;stroke-miterlimit:10;}
	.st16{fill:#935F36;}
	.st17{fill:#28170B;}
	.st18{fill:#BE1622;}
	.st19{fill:#9C7248;}
	.st20{fill:#E30613;}
	.st21{fill:none;stroke:#1D1D1B;stroke-width:1.215;stroke-miterlimit:10;}
	.st22{fill:#EBD21A;}
</style>
<g id="layer1" transform="translate(0,-11.249983)">
	<g id="g10959" transform="matrix(0.34349377,0,0,0.34349377,136.09405,-51.265908)">
		<g id="g10789_11_" transform="translate(-31.031,273.23)">
			<path id="path10773_11_" class="st0" d="M659.6,1858l572.9,13l47.1,448.3H610.2L659.6,1858z"/>
			<path id="path10775_11_" class="st1" d="M659.6,1858l-15,139.6h601.1l-13.3-126.6L659.6,1858L659.6,1858z"/>
			<path id="rect10777_11_" class="st2" d="M-232.7,1965.5h2355.2c65.2,0,118-52.8,118-118V382.2c0-65.2-52.8-118-118-118H-232.7
				c-65.2,0-118,52.8-118,118v1465.4C-350.7,1912.7-297.8,1965.5-232.7,1965.5z"/>
			<path id="path10779_11_" class="st3" d="M-351,228.2v1500h2591.9v-1500H-351z M-290,305.7h2458.4l-329.7,1235.5L-3.6,1418
				L-290,305.7z"/>
			<path id="rect10781_11_" class="st4" d="M-216.9,118.4h2323.5c74.1,0,134.1,60,134.1,134.1v446c0,74.1-60,134.1-134.1,134.1
				H-216.9c-74.1,0-134.1-60-134.1-134.1v-446C-351,178.4-290.9,118.4-216.9,118.4z"/>
			<rect id="rect10783_11_" x="-246.2" y="232.3" class="st5" width="2382.2" height="1372.6"/>
			<path id="rect10785_11_" class="st6" d="M436.7,2251.4h1016.5c10.8,0,19.6,8.8,19.6,19.6v28.7c0,10.8-8.8,19.6-19.6,19.6H436.7
				c-10.8,0-19.6-8.8-19.6-19.6V2271C417,2260.2,425.8,2251.4,436.7,2251.4z"/>
			<circle id="circle10787_11_" class="st4" cx="944.9" cy="1849.9" r="66.6"/>
		</g>
		<rect id="rect10791_11_" x="-277.6" y="505.2" class="st7" width="2386.1" height="1374.9"/>
		<rect id="rect10803_11_" x="-277.6" y="1834.4" class="st5" width="2386.1" height="45.6"/>
		<rect id="rect10807_11_" x="-277.6" y="505.2" class="st8" width="2386.1" height="65.2"/>
		<g id="g960_11_" transform="matrix(0.64372596,0,0,0.64372596,11.069434,121.09399)">
			<rect id="rect10809_11_" x="-430.5" y="614.6" class="st6" width="33" height="33.6"/>
			<rect id="rect10813_11_" x="-391.7" y="628.6" class="st6" width="19.3" height="19.6"/>
			<rect id="rect10815_11_" x="-391.7" y="653.4" class="st6" width="25" height="25.5"/>
		</g>
		<rect id="rect10879_11_" x="-259.8" y="1843.9" class="st9" width="160.6" height="28.5"/>
		<rect id="rect10881_11_" x="2062.1" y="1843.9" class="st9" width="28.6" height="28.5"/>
		<rect id="rect10883_11_" x="2026.3" y="1843.9" class="st9" width="28.6" height="28.5"/>
		<g id="g1656_11_" transform="matrix(0.84702344,0,0,0.84702344,59.460506,55.790926)">
			<g id="g1135_11_" transform="matrix(0.83595122,0,0,0.83595122,40.549187,81.848557)">
				<rect id="rect1099_11_" x="397.8" y="745" class="st10" width="727.8" height="727.8"/>
				<g id="g2142_11_" transform="matrix(0.86054871,0,0,0.86054871,-804.83795,-851.95324)">
					<g id="g108_11_" transform="matrix(1.0270281,0,0,-1.0270281,1260.23,1555.8615)">
						<path id="path110_11_" class="st11" d="M683.4-860.1c-2.6-26.7-63.1-48-137.5-48c-74.5,0-135.2,21.4-137.5,48.2
							c-107.2-18.6-181.3-63-181.3-255.6h636.7C863.8-923.1,790.1-878.7,683.4-860.1"/>
					</g>
					<g id="g112_11_" transform="matrix(1.0270281,0,0,-1.0270281,1222.8699,1568.918)">
						<path id="path114_11_" class="st12" d="M582.2-895.4c74.4,0,134.9,21.4,137.5,48c-20,3.5-52.2,6.1-74.2,7.8v25.7
							c38.9,3.7,120.2,109.8,119.8,211.8c-0.1,22.3-3.2,43.8-9.2,63.9c-24.1,81.3-93,140-174.3,140c-91.7,0-167.7-74.8-181.3-172.5
							c-1.4-10.2-3.3-20.8-2.2-31.4c12.2-116.4,79.1-200.3,117-210v-27.6c-20.7-1.7-51.7-4.2-70.6-7.5
							C447.1-874,507.7-895.4,582.2-895.4"/>
					</g>
					<g id="g116_11_" transform="matrix(1.0270281,0,0,-1.0270281,1169.318,1488.2161)">
						<path id="path118_11_" class="st13" d="M437.3-677c0,121.1,88.3,219.2,197.3,219.2S831.9-555.9,831.9-677"/>
					</g>
					<g id="g120_11_" transform="matrix(1.0270281,0,0,-1.0270281,1172.006,1501.6256)">
						<path id="path122_11_" class="st14" d="M444.6-713.3c0-5.8-4.7-10.4-10.4-10.4h-4.9c-5.8,0-10.4,4.7-10.4,10.4v83.6
							c0,5.8,4.7,10.4,10.4,10.4h4.9c5.8,0,10.4-4.7,10.4-10.4V-713.3z"/>
					</g>
					<g id="g124_11_" transform="matrix(1.0270281,0,0,-1.0270281,1280.219,1501.6256)">
						<path id="path126_11_" class="st14" d="M737.4-713.3c0-5.8-4.7-10.4-10.4-10.4h-4.9c-5.8,0-10.4,4.7-10.4,10.4v83.6
							c0,5.8,4.7,10.4,10.4,10.4h4.9c5.8,0,10.4-4.7,10.4-10.4V-713.3z"/>
					</g>
					<g id="g128_11_" transform="matrix(1.0270281,0,0,-1.0270281,1275.3787,1498.4443)">
						<path id="path130_11_" class="st15" d="M724.4-704.7c0-50.3-75.4-91.1-168.5-91.1"/>
					</g>
					<g id="g132_11_" transform="matrix(1.0270281,0,0,-1.0270281,1239.184,1525.0507)">
						<path id="path134_11_" class="st14" d="M626.4-776.7c0-5.9-4.8-10.7-10.7-10.7h-59.6c-5.9,0-10.7,4.8-10.7,10.7v6.6
							c0,5.9,4.8,10.7,10.7,10.7h59.6c5.9,0,10.7-4.8,10.7-10.7V-776.7z"/>
					</g>
					<g id="g136_11_" transform="matrix(1.0270281,0,0,-1.0270281,1209.2778,1490.6894)">
						<path id="path138_11_" class="st14" d="M545.5-683.7c0-12.8-8.8-23.1-19.7-23.1c-10.9,0-19.7,10.3-19.7,23.1
							c0,12.8,8.8,23.1,19.7,23.1C536.6-660.6,545.5-670.9,545.5-683.7"/>
					</g>
					<g id="g140_11_" transform="matrix(1.0270281,0,0,-1.0270281,1248.7863,1490.6894)">
						<path id="path142_11_" class="st14" d="M652.4-683.7c0-12.8-8.8-23.1-19.7-23.1c-10.9,0-19.7,10.3-19.7,23.1
							c0,12.8,8.8,23.1,19.7,23.1C643.6-660.6,652.4-670.9,652.4-683.7"/>
					</g>
					<g id="g144_11_" transform="matrix(1.0270281,0,0,-1.0270281,1200.7306,1453.1512)">
						<path id="path146_11_" class="st16" d="M522.3-582.1c-0.8,2.4-1.2,4.8-1.2,7.3C521.1-577.3,521.5-579.7,522.3-582.1
							c0.1,2,0.2,3.9,0.2,5.9C522.5-578.2,522.4-580.1,522.3-582.1c6.7-20.6,79.1-56.3,130.6-68.8c13.9-3.4-34,28.5-34,28.5
							s116.3-28.3,158.7-28.5c-24.1,81.3-93,140-174.3,140c-91.7,0-167.7-74.8-181.3-172.5C476-681.3,519.4-637.3,522.3-582.1"/>
					</g>
					<g id="g148_11_" transform="matrix(1.0270281,0,0,-1.0270281,1203.9722,1485.9344)">
						<path id="path150_11_" class="st6" d="M531.1-670.8c0,0,0.4,0,1-0.1c0.3-0.1,0.7-0.1,1.2-0.2c0.4-0.1,1-0.1,1.5-0.4
							c1-0.5,2.5-0.8,3.6-1.8c1.2-0.8,2.4-1.9,3.4-3.2c0.6-0.6,0.8-1.4,1.2-2c0.4-0.7,0.7-1.4,0.9-2.1c0.5-1.4,0.5-2.8,0.5-4
							c0.1-1.2-0.5-2.1-0.6-2.8c-0.2-0.6-0.3-1-0.3-1s0,0.4-0.1,1.1c-0.1,0.7,0,1.6-0.3,2.6c-0.1,0.5-0.2,1.1-0.3,1.7
							c-0.2,0.6-0.5,1.1-0.7,1.8c-0.2,0.6-0.5,1.2-0.9,1.8c-0.4,0.6-0.6,1.2-1.2,1.7c-0.8,1.1-1.7,2.2-2.8,3c-0.9,1-2,1.5-2.9,2.2
							c-0.4,0.3-0.9,0.5-1.3,0.8c-0.4,0.2-0.8,0.4-1,0.6C531.4-671,531.1-670.8,531.1-670.8"/>
					</g>
					<g id="g152_11_" transform="matrix(1.0270281,0,0,-1.0270281,1243.5107,1485.9344)">
						<path id="path154_11_" class="st6" d="M638.1-670.8c0,0,0.4,0,1-0.1c0.3-0.1,0.7-0.1,1.2-0.2c0.4-0.1,1-0.1,1.5-0.4
							c1-0.5,2.5-0.8,3.6-1.8c1.2-0.8,2.4-1.9,3.4-3.2c0.6-0.6,0.8-1.4,1.2-2c0.4-0.7,0.7-1.4,0.9-2.1c0.5-1.4,0.5-2.8,0.5-4
							c0.1-1.2-0.5-2.1-0.6-2.8c-0.2-0.6-0.3-1-0.3-1s0,0.4-0.1,1.1c-0.1,0.7,0.1,1.6-0.3,2.6c-0.1,0.5-0.2,1.1-0.3,1.7
							c-0.2,0.6-0.5,1.1-0.7,1.8c-0.2,0.6-0.5,1.2-0.9,1.8c-0.4,0.6-0.6,1.2-1.2,1.7c-0.8,1.1-1.7,2.2-2.8,3c-0.9,1-2,1.5-2.9,2.2
							c-0.4,0.3-0.9,0.5-1.3,0.8c-0.4,0.2-0.8,0.4-1.1,0.6C638.4-671,638.1-670.8,638.1-670.8"/>
					</g>
				</g>
			</g>
			<g id="g1330_11_" transform="matrix(0.83595122,0,0,0.83595122,216.93188,81.848557)">
				<g id="g1328_11_" transform="matrix(0.86054871,0,0,0.86054871,-804.83795,-851.95324)">
					<g id="g1282_11_" transform="matrix(1.0270281,0,0,-1.0270281,1260.23,1555.8615)">
						<path id="path1280_11_" class="st11" d="M1346.9-860.1c-2.6-26.7-63.1-48-137.5-48c-74.5,0-135.2,21.4-137.5,48.2
							c-107.2-18.6-181.3-63-181.3-255.6h636.7C1527.3-923.1,1453.7-878.7,1346.9-860.1"/>
					</g>
					<g id="g1286_11_" transform="matrix(1.0270281,0,0,-1.0270281,1222.8699,1568.918)">
						<path id="path1284_11_" class="st12" d="M1245.8-895.4c74.4,0,134.9,21.4,137.5,48c-20,3.5-52.2,6.1-74.2,7.8v25.7
							c38.9,3.7,120.2,109.8,119.8,211.8c-0.1,22.3-3.2,43.8-9.2,63.9c-24.1,81.3-93,140-174.3,140c-91.7,0-167.7-74.8-181.3-172.5
							c-1.4-10.2-3.3-20.8-2.2-31.4c12.2-116.4,79.1-200.3,117-210v-27.6c-20.7-1.7-51.7-4.2-70.6-7.5
							C1110.7-874,1171.3-895.4,1245.8-895.4"/>
					</g>
					<g id="g1290_11_" transform="matrix(1.0270281,0,0,-1.0270281,1169.318,1488.2161)">
						<path id="path1288_11_" class="st13" d="M1100.9-677c0,121.1,88.3,219.2,197.3,219.2s197.3-98.2,197.3-219.2"/>
					</g>
					<g id="g1294_11_" transform="matrix(1.0270281,0,0,-1.0270281,1172.006,1501.6256)">
						<path id="path1292_11_" class="st14" d="M1108.2-713.3c0-5.8-4.7-10.4-10.4-10.4h-4.9c-5.8,0-10.4,4.7-10.4,10.4v83.6
							c0,5.8,4.7,10.4,10.4,10.4h4.9c5.8,0,10.4-4.7,10.4-10.4V-713.3z"/>
					</g>
					<g id="g1298_11_" transform="matrix(1.0270281,0,0,-1.0270281,1280.219,1501.6256)">
						<path id="path1296_11_" class="st14" d="M1401-713.3c0-5.8-4.7-10.4-10.4-10.4h-4.9c-5.8,0-10.4,4.7-10.4,10.4v83.6
							c0,5.8,4.7,10.4,10.4,10.4h4.9c5.8,0,10.4-4.7,10.4-10.4V-713.3z"/>
					</g>
					<g id="g1302_11_" transform="matrix(1.0270281,0,0,-1.0270281,1275.3787,1498.4443)">
						<path id="path1300_11_" class="st15" d="M1387.9-704.7c0-50.3-75.4-91.1-168.5-91.1"/>
					</g>
					<g id="g1306_11_" transform="matrix(1.0270281,0,0,-1.0270281,1239.184,1525.0507)">
						<path id="path1304_11_" class="st14" d="M1290-776.7c0-5.9-4.8-10.7-10.7-10.7h-59.6c-5.9,0-10.7,4.8-10.7,10.7v6.6
							c0,5.9,4.8,10.7,10.7,10.7h59.6c5.9,0,10.7-4.8,10.7-10.7V-776.7z"/>
					</g>
					<g id="g1310_11_" transform="matrix(1.0270281,0,0,-1.0270281,1209.2778,1490.6894)">
						<path id="path1308_11_" class="st14" d="M1209-683.7c0-12.8-8.8-23.1-19.7-23.1c-10.9,0-19.7,10.3-19.7,23.1
							c0,12.8,8.8,23.1,19.7,23.1C1200.2-660.6,1209-670.9,1209-683.7"/>
					</g>
					<g id="g1314_11_" transform="matrix(1.0270281,0,0,-1.0270281,1248.7863,1490.6894)">
						<path id="path1312_11_" class="st14" d="M1316-683.7c0-12.8-8.8-23.1-19.7-23.1c-10.9,0-19.7,10.3-19.7,23.1
							c0,12.8,8.8,23.1,19.7,23.1C1307.1-660.6,1316-670.9,1316-683.7"/>
					</g>
					<g id="g1318_11_" transform="matrix(1.0270281,0,0,-1.0270281,1200.7306,1453.1512)">
						<path id="path1316_11_" class="st16" d="M1185.9-582.1c-0.8,2.4-1.2,4.8-1.2,7.3C1184.7-577.3,1185.1-579.7,1185.9-582.1
							c0.1,2,0.2,3.9,0.2,5.9C1186.1-578.2,1186-580.1,1185.9-582.1c6.7-20.6,79.1-56.3,130.6-68.8c13.9-3.4-34,28.5-34,28.5
							s116.3-28.3,158.7-28.5c-24.1,81.3-93,140-174.3,140c-91.7,0-167.7-74.8-181.3-172.5C1139.6-681.3,1183-637.3,1185.9-582.1"/>
					</g>
					<g id="g1322_11_" transform="matrix(1.0270281,0,0,-1.0270281,1203.9722,1485.9344)">
						<path id="path1320_11_" class="st6" d="M1194.7-670.8c0,0,0.4,0,1-0.1c0.3-0.1,0.7-0.1,1.2-0.2c0.4-0.1,1-0.1,1.5-0.4
							c1-0.5,2.5-0.8,3.6-1.8c1.2-0.8,2.4-1.9,3.4-3.2c0.6-0.6,0.8-1.4,1.2-2c0.4-0.7,0.7-1.4,0.9-2.1c0.5-1.4,0.5-2.8,0.5-4
							c0.1-1.2-0.5-2.1-0.6-2.8c-0.2-0.6-0.3-1-0.3-1s0,0.4-0.1,1.1c-0.1,0.7,0,1.6-0.3,2.6c-0.1,0.5-0.2,1.1-0.3,1.7
							c-0.2,0.6-0.5,1.1-0.7,1.8c-0.2,0.6-0.5,1.2-0.9,1.8c-0.4,0.6-0.6,1.2-1.2,1.7c-0.8,1.1-1.7,2.2-2.8,3c-0.9,1-2,1.5-2.9,2.2
							c-0.4,0.3-0.9,0.5-1.3,0.8c-0.4,0.2-0.8,0.4-1,0.6C1195-671,1194.7-670.8,1194.7-670.8"/>
					</g>
					<g id="g1326_11_" transform="matrix(1.0270281,0,0,-1.0270281,1243.5107,1485.9344)">
						<path id="path1324_11_" class="st6" d="M1301.7-670.8c0,0,0.4,0,1-0.1c0.3-0.1,0.7-0.1,1.2-0.2c0.4-0.1,1-0.1,1.5-0.4
							c1-0.5,2.5-0.8,3.6-1.8c1.2-0.8,2.4-1.9,3.4-3.2c0.6-0.6,0.8-1.4,1.2-2c0.4-0.7,0.7-1.4,0.9-2.1c0.5-1.4,0.5-2.8,0.5-4
							c0.1-1.2-0.5-2.1-0.6-2.8c-0.2-0.6-0.3-1-0.3-1s0,0.4-0.1,1.1c-0.1,0.7,0.1,1.6-0.3,2.6c-0.1,0.5-0.2,1.1-0.3,1.7
							c-0.2,0.6-0.5,1.1-0.7,1.8c-0.2,0.6-0.5,1.2-0.9,1.8c-0.4,0.6-0.6,1.2-1.2,1.7c-0.8,1.1-1.7,2.2-2.8,3c-0.9,1-2,1.5-2.9,2.2
							c-0.4,0.3-0.9,0.5-1.3,0.8c-0.4,0.2-0.8,0.4-1.1,0.6C1302-671,1301.7-670.8,1301.7-670.8"/>
					</g>
				</g>
				<rect id="rect1278_11_" x="984.3" y="745" class="st10" width="727.8" height="727.8"/>
				<g id="g2651-2_11_" transform="matrix(2.5031865,0,0,2.5031865,-644.67229,-530.18449)">
					<g id="g132-5-0_11_" transform="matrix(0.35277777,0,0,-0.35277777,373.31823,394.29006)">
						<path id="path134-0-2_11_" class="st17" d="M1380-765.9c27-59.3-1.9-130.6-1.9-130.6s-72.7,25-99.7,84.3
							c-27,59.3,2,130.6,2,130.6S1353.1-706.6,1380-765.9"/>
					</g>
					<g id="g136-3-2_11_" transform="matrix(0.35277777,0,0,-0.35277777,369.24926,406.35203)">
						<path id="path138-6-9_11_" class="st18" d="M1348-860.9c-2.6-26.7-63.1-48-137.5-48c-74.5,0-135.2,21.4-137.5,48.2
							c-107.2-18.6-181.3-63-181.3-255.6h636.7C1528.4-924,1454.7-879.6,1348-860.9"/>
					</g>
					<g id="g140-1-7_11_" transform="matrix(0.35277777,0,0,-0.35277777,356.41488,410.83685)">
						<path id="path142-0-4_11_" class="st19" d="M1246.9-896.3c74.4,0,134.9,21.4,137.5,48c-20,3.5-52.2,6.1-74.2,7.8v25.6
							c38.9,3.7,120.2,109.8,119.7,211.8c-0.1,22.3-3.2,43.8-9.2,63.9c-24.1,81.3-93,140-174.3,140c-91.7,0-167.7-74.8-181.3-172.5
							c-1.4-10.2-3.3-20.8-2.2-31.4c12.2-116.4,79.1-200.3,117-210v-27.6c-20.7-1.7-51.7-4.2-70.6-7.5
							C1111.7-874.8,1172.3-896.3,1246.9-896.3"/>
					</g>
					<g id="g144-6-3_11_" transform="matrix(0.35277777,0,0,-0.35277777,351.74714,383.96581)">
						<path id="path146-3-5_11_" class="st14" d="M1210.1-684.6c0-12.8-8.8-23.1-19.7-23.1s-19.7,10.3-19.7,23.1
							c0,12.8,8.8,23.1,19.7,23.1S1210.1-671.8,1210.1-684.6"/>
					</g>
					<g id="g148-2-6_11_" transform="matrix(0.35277777,0,0,-0.35277777,365.31737,383.96581)">
						<path id="path150-0-1_11_" class="st14" d="M1317-684.6c0-12.8-8.8-23.1-19.7-23.1c-10.9,0-19.7,10.3-19.7,23.1
							c0,12.8,8.8,23.1,19.7,23.1C1308.2-661.5,1317-671.8,1317-684.6"/>
					</g>
					<g id="g152-6-4_11_" transform="matrix(0.35277777,0,0,-0.35277777,347.53067,371.48284)">
						<path id="path154-1-0_11_" class="st17" d="M1176.9-586.2c-0.9,2.8-1.4,5.7-1.4,8.6C1175.5-580.5,1175.9-583.4,1176.9-586.2
							c0.1,2.3,0.2,4.6,0.2,7C1177.1-581.6,1177-583.9,1176.9-586.2c7.9-24.2,43.7-67.7,104.2-82.4c16.4-4,9.5,35,9.5,35
							s132.1-79.5,181.9-79.7c-28.4,95.7-54.2,207.3-200.3,210.8c-169.7,4.1-179.3-124.6-195.3-239.6
							C1140.5-739.5,1173.4-651.1,1176.9-586.2"/>
					</g>
					<g id="g156-3_11_" transform="matrix(0.35277777,0,0,-0.35277777,349.92398,382.33283)">
						<path id="path158-1_11_" class="st6" d="M1195.7-671.7c0,0,0.4,0,1-0.1c0.3-0.1,0.7-0.1,1.2-0.2c0.4-0.1,1-0.1,1.5-0.4
							c1-0.5,2.5-0.9,3.6-1.8c1.2-0.8,2.4-1.9,3.4-3.2c0.6-0.6,0.8-1.4,1.2-2c0.4-0.7,0.7-1.4,0.9-2.1c0.5-1.4,0.6-2.8,0.5-4
							c0.1-1.2-0.5-2.1-0.6-2.8c-0.2-0.6-0.3-1-0.3-1s0,0.4-0.1,1.1c-0.1,0.7,0.1,1.6-0.3,2.6c-0.1,0.5-0.2,1.1-0.3,1.7
							c-0.2,0.6-0.5,1.1-0.7,1.8c-0.2,0.6-0.5,1.2-0.9,1.8c-0.4,0.6-0.6,1.2-1.2,1.7c-0.8,1.1-1.7,2.2-2.8,3c-0.9,1-2,1.5-2.9,2.2
							c-0.4,0.3-0.9,0.5-1.3,0.8c-0.4,0.2-0.8,0.4-1,0.6C1196-671.9,1195.7-671.7,1195.7-671.7"/>
					</g>
					<g id="g160-2_11_" transform="matrix(0.35277777,0,0,-0.35277777,363.50628,382.33283)">
						<path id="path162-7_11_" class="st6" d="M1302.7-671.7c0,0,0.4,0,1-0.1c0.3-0.1,0.7-0.1,1.2-0.2c0.4-0.1,1-0.1,1.5-0.4
							c1-0.5,2.5-0.9,3.6-1.8c1.2-0.8,2.4-1.9,3.4-3.2c0.6-0.6,0.8-1.4,1.2-2c0.4-0.7,0.7-1.4,0.9-2.1c0.5-1.4,0.5-2.8,0.5-4
							c0.1-1.2-0.5-2.1-0.6-2.8c-0.2-0.6-0.3-1-0.3-1s0,0.4-0.1,1.1c-0.1,0.7,0,1.6-0.3,2.6c-0.1,0.5-0.2,1.1-0.3,1.7
							c-0.2,0.6-0.5,1.1-0.7,1.8c-0.2,0.6-0.5,1.2-0.9,1.8c-0.4,0.6-0.6,1.2-1.2,1.7c-0.8,1.1-1.7,2.2-2.8,3c-0.9,1-2,1.5-2.9,2.2
							c-0.4,0.3-0.9,0.5-1.3,0.8c-0.4,0.2-0.8,0.4-1.1,0.6C1303.1-671.9,1302.7-671.7,1302.7-671.7"/>
					</g>
					<g id="g164-7_11_" transform="matrix(0.35277777,0,0,-0.35277777,362.65912,393.30581)">
						<path id="path166-9_11_" class="st20" d="M1296.1-758.2c0,0-1.2-2-3.5-5.2c-1.1-1.6-2.7-3.5-4.6-5.7c-1.9-2.1-4.2-4.4-6.9-6.7
							c-2.9-2-5.8-4.7-9.6-6.5c-1.8-1-3.7-2-5.7-2.9c-2-0.8-4.1-1.5-6.3-2.2c-1.1-0.4-2.1-0.8-3.2-1.1c-1.1-0.2-2.2-0.5-3.4-0.7
							c-2.3-0.5-4.5-0.9-6.9-1.3c-2.3-0.4-4.6-0.4-7-0.6l-3.5-0.2l-1.8-0.1l-0.9,0l-0.4,0l-0.2,0l-0.1,0l-0.4,0
							c-4.5,0.3-8.8,0.3-13.4,0.9c-2.4,0.4-4.7,0.8-7,1.3c-1.2,0.2-2.3,0.4-3.4,0.7c-1.1,0.4-2.2,0.7-3.3,1.1
							c-2.1,0.7-4.3,1.4-6.3,2.1c-2,0.9-3.9,1.9-5.7,2.9c-0.9,0.5-1.8,1-2.7,1.4c-0.8,0.6-1.7,1.1-2.4,1.7c-1.6,1.1-3.1,2.3-4.5,3.3
							c-2.6,2.4-5,4.6-6.8,6.8c-1.8,2.2-3.4,4.1-4.5,5.8c-2.2,3.4-3.3,5.4-3.3,5.4s2-1.2,5.3-3.4c1.6-1.1,3.7-2.2,6-3.7
							c1.1-0.8,2.4-1.3,3.7-2c1.3-0.7,2.6-1.4,4-2.2c1.5-0.6,3-1.2,4.6-1.8c0.8-0.3,1.6-0.7,2.3-1c0.8-0.2,1.7-0.5,2.5-0.7
							c1.7-0.5,3.4-1,5.2-1.6c1.9-0.3,3.7-0.7,5.6-1.1c0.9-0.2,1.9-0.4,2.8-0.6c1-0.1,1.9-0.2,2.9-0.3c1.9-0.2,3.9-0.4,5.8-0.6
							c4.2-0.2,8.8-0.3,13.2-0.5c4.1,0.2,8.2,0.3,12.2,0.5c2,0.3,4,0.5,6,0.7c1,0.1,2,0.2,3,0.3c1,0.2,1.9,0.4,2.8,0.6
							c1.9,0.4,3.7,0.8,5.6,1.1c1.8,0.5,3.5,1.1,5.2,1.6c0.9,0.3,1.7,0.5,2.5,0.8c0.8,0.3,1.6,0.7,2.4,1c1.6,0.6,3.1,1.3,4.6,1.9
							c2.8,1.5,5.5,2.8,7.8,4.1c2.2,1.4,4.4,2.5,6,3.6C1294-759.3,1296.1-758.2,1296.1-758.2"/>
					</g>
					<g id="g168-8_11_" transform="matrix(0.35277777,0,0,-0.35277777,337.69769,383.06044)">
						<path id="path170-1_11_" class="st13" d="M1099.4-677.4c0,121.1,88.3,219.2,197.3,219.2c109,0,197.3-98.2,197.3-219.2"/>
					</g>
					<g id="g172-0_11_" transform="matrix(0.35277777,0,0,-0.35277777,338.62063,387.66652)">
						<path id="path174-7_11_" class="st14" d="M1106.7-713.7c0-5.8-4.7-10.4-10.4-10.4h-4.9c-5.8,0-10.4,4.7-10.4,10.4v83.6
							c0,5.8,4.7,10.4,10.4,10.4h4.9c5.8,0,10.4-4.7,10.4-10.4V-713.7z"/>
					</g>
					<g id="g176-6_11_" transform="matrix(0.35277777,0,0,-0.35277777,375.79113,387.66652)">
						<path id="path178-0_11_" class="st14" d="M1399.5-713.7c0-5.8-4.7-10.4-10.4-10.4h-4.9c-5.8,0-10.4,4.7-10.4,10.4v83.6
							c0,5.8,4.7,10.4,10.4,10.4h4.9c5.8,0,10.4-4.7,10.4-10.4V-713.7z"/>
					</g>
					<g id="g180-1_11_" transform="matrix(0.35277777,0,0,-0.35277777,374.12817,386.57375)">
						<path id="path182-0_11_" class="st21" d="M1386.4-705.1c0-54.8-75.4-99.1-168.5-99.1"/>
					</g>
					<g id="g184-2_11_" transform="matrix(0.35277777,0,0,-0.35277777,361.69621,396.51835)">
						<path id="path186-5_11_" class="st14" d="M1288.5-783.5c0-6.4-4.8-11.7-10.7-11.7h-59.6c-5.9,0-10.7,5.2-10.7,11.7v7.2
							c0,6.4,4.8,11.7,10.7,11.7h59.6c5.9,0,10.7-5.2,10.7-11.7V-783.5z"/>
					</g>
				</g>
			</g>
			<g id="g1492_11_" transform="matrix(0.83595122,0,0,0.83595122,40.549187,258.23125)">
				<rect id="rect1440_11_" x="397.8" y="1331.5" class="st10" width="727.8" height="727.8"/>
				<g id="g2651_11_" transform="matrix(2.5031861,0,0,2.5031861,-644.67215,-530.18434)">
					<g id="g132-5_11_" transform="matrix(0.35277777,0,0,-0.35277777,373.31823,394.29006)">
						<path id="path134-0_11_" class="st22" d="M715.9-1430c27-59.3-1.9-130.6-1.9-130.6s-72.7,25-99.7,84.3
							c-27,59.3,2,130.6,2,130.6S688.9-1370.7,715.9-1430"/>
					</g>
					<g id="g136-3_11_" transform="matrix(0.35277777,0,0,-0.35277777,369.24926,406.35203)">
						<path id="path138-6_11_" class="st18" d="M683.8-1525.1c-2.6-26.7-63.1-48-137.5-48c-74.5,0-135.2,21.4-137.5,48.2
							c-107.2-18.6-181.3-63-181.3-255.6h636.7C864.2-1588.1,790.6-1543.7,683.8-1525.1"/>
					</g>
					<g id="g140-1_11_" transform="matrix(0.35277777,0,0,-0.35277777,356.41488,410.83685)">
						<path id="path142-0_11_" class="st12" d="M582.7-1560.4c74.4,0,134.9,21.4,137.5,48c-20,3.5-52.2,6.1-74.2,7.8v25.6
							c38.9,3.7,120.2,109.8,119.7,211.8c-0.1,22.3-3.2,43.8-9.2,63.9c-24.1,81.3-93,140-174.3,140c-91.7,0-167.7-74.8-181.3-172.5
							c-1.4-10.2-3.3-20.8-2.2-31.4c12.2-116.4,79.1-200.3,117-210v-27.6c-20.7-1.7-51.7-4.2-70.6-7.5
							C447.6-1539,508.2-1560.4,582.7-1560.4"/>
					</g>
					<g id="g144-6_11_" transform="matrix(0.35277777,0,0,-0.35277777,351.74714,383.96581)">
						<path id="path146-3_11_" class="st14" d="M546-1348.7c0-12.8-8.8-23.1-19.7-23.1c-10.9,0-19.7,10.3-19.7,23.1
							c0,12.8,8.8,23.1,19.7,23.1C537.1-1325.6,546-1335.9,546-1348.7"/>
					</g>
					<g id="g148-2_11_" transform="matrix(0.35277777,0,0,-0.35277777,365.31737,383.96581)">
						<path id="path150-0_11_" class="st14" d="M652.9-1348.7c0-12.8-8.8-23.1-19.7-23.1c-10.9,0-19.7,10.3-19.7,23.1
							c0,12.8,8.8,23.1,19.7,23.1C644-1325.6,652.9-1335.9,652.9-1348.7"/>
					</g>
					<g id="g152-6_11_" transform="matrix(0.35277777,0,0,-0.35277777,347.53067,371.48284)">
						<path id="path154-1_11_" class="st22" d="M512.7-1250.3c-0.9,2.8-1.4,5.7-1.4,8.6C511.3-1244.7,511.8-1247.5,512.7-1250.3
							c0.1,2.3,0.2,4.6,0.2,7C512.9-1245.7,512.8-1248,512.7-1250.3c7.9-24.2,43.7-67.7,104.2-82.4c16.4-4,9.5,35,9.5,35
							s132.1-79.5,181.9-79.7c-28.4,95.7-54.2,207.3-200.3,210.8c-169.7,4.1-179.3-124.6-195.3-239.6
							C476.3-1403.6,509.3-1315.3,512.7-1250.3"/>
					</g>
					<g id="g156_11_" transform="matrix(0.35277777,0,0,-0.35277777,349.92398,382.33283)">
						<path id="path158_11_" class="st6" d="M531.6-1335.8c0,0,0.4,0,1-0.1c0.3-0.1,0.7-0.1,1.2-0.2c0.4-0.1,1-0.1,1.5-0.4
							c1-0.5,2.5-0.9,3.6-1.8c1.2-0.8,2.4-1.9,3.4-3.2c0.6-0.6,0.8-1.4,1.2-2c0.4-0.7,0.7-1.4,0.9-2.1c0.5-1.4,0.6-2.8,0.5-4
							c0.1-1.2-0.5-2.1-0.6-2.8c-0.2-0.6-0.3-1-0.3-1s0,0.4-0.1,1.1c-0.1,0.7,0.1,1.6-0.3,2.6c-0.1,0.5-0.2,1.1-0.3,1.7
							c-0.2,0.6-0.5,1.1-0.7,1.8c-0.2,0.6-0.5,1.2-0.9,1.8c-0.4,0.6-0.6,1.2-1.2,1.7c-0.8,1.1-1.7,2.2-2.8,3c-0.9,1-2,1.5-2.9,2.2
							c-0.4,0.3-0.9,0.5-1.3,0.8c-0.4,0.2-0.8,0.4-1,0.6C531.9-1336,531.6-1335.8,531.6-1335.8"/>
					</g>
					<g id="g160_11_" transform="matrix(0.35277777,0,0,-0.35277777,363.50628,382.33283)">
						<path id="path162_11_" class="st6" d="M638.6-1335.8c0,0,0.4,0,1-0.1c0.3-0.1,0.7-0.1,1.2-0.2c0.4-0.1,1-0.1,1.5-0.4
							c1-0.5,2.5-0.9,3.6-1.8c1.2-0.8,2.4-1.9,3.4-3.2c0.6-0.6,0.8-1.4,1.2-2c0.4-0.7,0.7-1.4,0.9-2.1c0.5-1.4,0.5-2.8,0.5-4
							c0.1-1.2-0.5-2.1-0.6-2.8c-0.2-0.6-0.3-1-0.3-1s0,0.4-0.1,1.1c-0.1,0.7,0,1.6-0.3,2.6c-0.1,0.5-0.2,1.1-0.3,1.7
							c-0.2,0.6-0.5,1.1-0.7,1.8c-0.2,0.6-0.5,1.2-0.9,1.8c-0.4,0.6-0.6,1.2-1.2,1.7c-0.8,1.1-1.7,2.2-2.8,3c-0.9,1-2,1.5-2.9,2.2
							c-0.4,0.3-0.9,0.5-1.3,0.8c-0.4,0.2-0.8,0.4-1.1,0.6C638.9-1336,638.6-1335.8,638.6-1335.8"/>
					</g>
					<g id="g164_11_" transform="matrix(0.35277777,0,0,-0.35277777,362.65912,393.30581)">
						<path id="path166_11_" class="st20" d="M631.9-1422.3c0,0-1.2-2-3.5-5.2c-1.1-1.6-2.7-3.5-4.6-5.7c-1.9-2.1-4.2-4.4-6.9-6.7
							c-2.9-2-5.8-4.7-9.6-6.5c-1.8-1-3.7-2-5.7-2.9c-2-0.8-4.1-1.5-6.3-2.2c-1.1-0.4-2.1-0.8-3.2-1.1c-1.1-0.2-2.2-0.5-3.4-0.7
							c-2.3-0.5-4.5-0.9-6.9-1.3c-2.3-0.4-4.6-0.4-7-0.6l-3.5-0.2l-1.8-0.1l-0.9,0l-0.4,0l-0.2,0l-0.1,0l-0.4,0
							c-4.5,0.3-8.8,0.3-13.4,0.9c-2.4,0.4-4.7,0.8-7,1.3c-1.2,0.2-2.3,0.4-3.4,0.7c-1.1,0.4-2.2,0.7-3.3,1.1
							c-2.1,0.7-4.3,1.4-6.3,2.1c-2,0.9-3.9,1.9-5.7,2.9c-0.9,0.5-1.8,1-2.7,1.4c-0.8,0.6-1.7,1.1-2.4,1.7c-1.6,1.1-3.1,2.3-4.5,3.3
							c-2.6,2.4-5,4.6-6.8,6.8c-1.8,2.2-3.4,4.1-4.5,5.8c-2.2,3.4-3.3,5.4-3.3,5.4s2-1.2,5.3-3.4c1.6-1.1,3.7-2.2,6-3.7
							c1.1-0.8,2.4-1.3,3.7-2c1.3-0.7,2.6-1.4,4-2.2c1.5-0.6,3-1.2,4.6-1.8c0.8-0.3,1.6-0.7,2.3-1c0.8-0.2,1.7-0.5,2.5-0.7
							c1.7-0.5,3.4-1,5.2-1.6c1.9-0.3,3.7-0.7,5.6-1.1c0.9-0.2,1.9-0.4,2.8-0.6c1-0.1,1.9-0.2,2.9-0.3c1.9-0.2,3.9-0.4,5.8-0.6
							c4.2-0.2,8.8-0.3,13.2-0.5c4.1,0.2,8.2,0.3,12.2,0.5c2,0.3,4,0.5,6,0.7c1,0.1,2,0.2,3,0.3c1,0.2,1.9,0.4,2.8,0.6
							c1.9,0.4,3.7,0.8,5.6,1.1c1.8,0.5,3.5,1.1,5.2,1.6c0.9,0.3,1.7,0.5,2.5,0.8c0.8,0.3,1.6,0.7,2.4,1c1.6,0.6,3.1,1.3,4.6,1.9
							c2.8,1.5,5.5,2.8,7.8,4.1c2.2,1.4,4.4,2.5,6,3.6C629.9-1423.4,631.9-1422.3,631.9-1422.3"/>
					</g>
					<g id="g168_11_" transform="matrix(0.35277777,0,0,-0.35277777,337.69769,383.06044)">
						<path id="path170_11_" class="st13" d="M435.3-1341.6c0,121.1,88.3,219.2,197.3,219.2c109,0,197.3-98.2,197.3-219.2"/>
					</g>
					<g id="g172_11_" transform="matrix(0.35277777,0,0,-0.35277777,338.62063,387.66652)">
						<path id="path174_11_" class="st14" d="M442.5-1377.9c0-5.8-4.7-10.4-10.4-10.4h-4.9c-5.8,0-10.4,4.7-10.4,10.4v83.6
							c0,5.8,4.7,10.4,10.4,10.4h4.9c5.8,0,10.4-4.7,10.4-10.4V-1377.9z"/>
					</g>
					<g id="g176_11_" transform="matrix(0.35277777,0,0,-0.35277777,375.79113,387.66652)">
						<path id="path178_11_" class="st14" d="M735.4-1377.9c0-5.8-4.7-10.4-10.4-10.4h-4.9c-5.8,0-10.4,4.7-10.4,10.4v83.6
							c0,5.8,4.7,10.4,10.4,10.4h4.9c5.8,0,10.4-4.7,10.4-10.4V-1377.9z"/>
					</g>
					<g id="g180_11_" transform="matrix(0.35277777,0,0,-0.35277777,374.12817,386.57375)">
						<path id="path182_11_" class="st21" d="M722.3-1369.2c0-54.8-75.4-99.1-168.5-99.1"/>
					</g>
					<g id="g184_11_" transform="matrix(0.35277777,0,0,-0.35277777,361.69621,396.51835)">
						<path id="path186_11_" class="st14" d="M624.3-1447.6c0-6.4-4.8-11.7-10.7-11.7h-59.6c-5.9,0-10.7,5.2-10.7,11.7v7.2
							c0,6.4,4.8,11.7,10.7,11.7h59.6c5.9,0,10.7-5.2,10.7-11.7V-1447.6z"/>
					</g>
				</g>
			</g>
			<g id="g1546_11_" transform="matrix(0.83595122,0,0,0.83595122,216.93188,258.23125)">
				<rect id="rect1494_11_" x="984.3" y="1331.5" class="st10" width="727.8" height="727.8"/>
				<g id="g2142-6_11_" transform="matrix(0.86054824,0,0,0.86054824,-804.83737,-851.95258)">
					<g id="g108-6_11_" transform="matrix(1.0270281,0,0,-1.0270281,1260.23,1555.8615)">
						<path id="path110-4_11_" class="st11" d="M1346.9-1523.6c-2.6-26.7-63.1-48-137.5-48c-74.5,0-135.2,21.4-137.5,48.2
							c-107.2-18.6-181.3-63-181.3-255.6h636.7C1527.3-1586.7,1453.7-1542.3,1346.9-1523.6"/>
					</g>
					<g id="g112-6_11_" transform="matrix(1.0270281,0,0,-1.0270281,1222.8699,1568.918)">
						<path id="path114-2_11_" class="st19" d="M1245.8-1559c74.4,0,134.9,21.4,137.5,48c-20,3.5-52.2,6.1-74.2,7.8v25.7
							c38.9,3.7,120.2,109.8,119.8,211.8c-0.1,22.3-3.2,43.8-9.2,63.9c-24.1,81.3-93,140-174.3,140c-91.7,0-167.7-74.8-181.3-172.5
							c-1.4-10.2-3.3-20.8-2.2-31.4c12.2-116.4,79.1-200.3,117-210v-27.6c-20.7-1.7-51.7-4.2-70.6-7.5
							C1110.7-1537.5,1171.3-1559,1245.8-1559"/>
					</g>
					<g id="g116-8_11_" transform="matrix(1.0270281,0,0,-1.0270281,1169.318,1488.2161)">
						<path id="path118-9_11_" class="st13" d="M1100.9-1340.6c0,121.1,88.3,219.2,197.3,219.2c109,0,197.3-98.2,197.3-219.2"/>
					</g>
					<g id="g120-6_11_" transform="matrix(1.0270281,0,0,-1.0270281,1172.006,1501.6256)">
						<path id="path122-0_11_" class="st14" d="M1108.2-1376.9c0-5.8-4.7-10.4-10.4-10.4h-4.9c-5.8,0-10.4,4.7-10.4,10.4v83.6
							c0,5.8,4.7,10.4,10.4,10.4h4.9c5.8,0,10.4-4.7,10.4-10.4V-1376.9z"/>
					</g>
					<g id="g124-7_11_" transform="matrix(1.0270281,0,0,-1.0270281,1280.219,1501.6256)">
						<path id="path126-0_11_" class="st14" d="M1401-1376.9c0-5.8-4.7-10.4-10.4-10.4h-4.9c-5.8,0-10.4,4.7-10.4,10.4v83.6
							c0,5.8,4.7,10.4,10.4,10.4h4.9c5.8,0,10.4-4.7,10.4-10.4V-1376.9z"/>
					</g>
					<g id="g128-1_11_" transform="matrix(1.0270281,0,0,-1.0270281,1275.3787,1498.4443)">
						<path id="path130-0_11_" class="st15" d="M1387.9-1368.3c0-50.3-75.4-91.1-168.5-91.1"/>
					</g>
					<g id="g132-1_11_" transform="matrix(1.0270281,0,0,-1.0270281,1239.184,1525.0507)">
						<path id="path134-3_11_" class="st14" d="M1290-1440.3c0-5.9-4.8-10.7-10.7-10.7h-59.6c-5.9,0-10.7,4.8-10.7,10.7v6.6
							c0,5.9,4.8,10.7,10.7,10.7h59.6c5.9,0,10.7-4.8,10.7-10.7V-1440.3z"/>
					</g>
					<g id="g136-7_11_" transform="matrix(1.0270281,0,0,-1.0270281,1209.2778,1490.6894)">
						<path id="path138-7_11_" class="st14" d="M1209-1347.3c0-12.8-8.8-23.1-19.7-23.1c-10.9,0-19.7,10.3-19.7,23.1
							c0,12.8,8.8,23.1,19.7,23.1C1200.2-1324.2,1209-1334.5,1209-1347.3"/>
					</g>
					<g id="g140-2_11_" transform="matrix(1.0270281,0,0,-1.0270281,1248.7863,1490.6894)">
						<path id="path142-6_11_" class="st14" d="M1316-1347.3c0-12.8-8.8-23.1-19.7-23.1c-10.9,0-19.7,10.3-19.7,23.1
							c0,12.8,8.8,23.1,19.7,23.1C1307.1-1324.2,1316-1334.5,1316-1347.3"/>
					</g>
					<g id="g144-4_11_" transform="matrix(1.0270281,0,0,-1.0270281,1200.7306,1453.1512)">
						<path id="path146-5_11_" class="st17" d="M1185.9-1245.7c-0.8,2.4-1.2,4.8-1.2,7.3C1184.7-1240.8,1185.1-1243.3,1185.9-1245.7
							c0.1,2,0.2,3.9,0.2,5.9C1186.1-1241.7,1186-1243.7,1185.9-1245.7c6.7-20.6,79.1-56.3,130.6-68.8c13.9-3.4-34,28.5-34,28.5
							s116.3-28.3,158.7-28.5c-24.1,81.3-93,140-174.3,140c-91.7,0-167.7-74.8-181.3-172.5C1139.6-1344.8,1183-1300.8,1185.9-1245.7
							"/>
					</g>
					<g id="g148-20_11_" transform="matrix(1.0270281,0,0,-1.0270281,1203.9722,1485.9344)">
						<path id="path150-2_11_" class="st6" d="M1194.7-1334.4c0,0,0.4,0,1-0.1c0.3-0.1,0.7-0.1,1.2-0.2c0.4-0.1,1-0.1,1.5-0.4
							c1-0.5,2.5-0.8,3.6-1.8c1.2-0.8,2.4-1.9,3.4-3.2c0.6-0.6,0.8-1.4,1.2-2c0.4-0.7,0.7-1.4,0.9-2.1c0.5-1.4,0.5-2.8,0.5-4
							c0.1-1.2-0.5-2.1-0.6-2.8c-0.2-0.6-0.3-1-0.3-1s0,0.4-0.1,1.1c-0.1,0.7,0,1.6-0.3,2.6c-0.1,0.5-0.2,1.1-0.3,1.7
							c-0.2,0.6-0.5,1.1-0.7,1.8c-0.2,0.6-0.5,1.2-0.9,1.8c-0.4,0.6-0.6,1.2-1.2,1.7c-0.8,1.1-1.7,2.2-2.8,3c-0.9,1-2,1.5-2.9,2.2
							c-0.4,0.3-0.9,0.5-1.3,0.8c-0.4,0.2-0.8,0.4-1,0.6C1195-1334.6,1194.7-1334.4,1194.7-1334.4"/>
					</g>
					<g id="g152-9_11_" transform="matrix(1.0270281,0,0,-1.0270281,1243.5107,1485.9344)">
						<path id="path154-0_11_" class="st6" d="M1301.7-1334.4c0,0,0.4,0,1-0.1c0.3-0.1,0.7-0.1,1.2-0.2c0.4-0.1,1-0.1,1.5-0.4
							c1-0.5,2.5-0.8,3.6-1.8c1.2-0.8,2.4-1.9,3.4-3.2c0.6-0.6,0.8-1.4,1.2-2c0.4-0.7,0.7-1.4,0.9-2.1c0.5-1.4,0.5-2.8,0.5-4
							c0.1-1.2-0.5-2.1-0.6-2.8c-0.2-0.6-0.3-1-0.3-1s0,0.4-0.1,1.1c-0.1,0.7,0.1,1.6-0.3,2.6c-0.1,0.5-0.2,1.1-0.3,1.7
							c-0.2,0.6-0.5,1.1-0.7,1.8c-0.2,0.6-0.5,1.2-0.9,1.8c-0.4,0.6-0.6,1.2-1.2,1.7c-0.8,1.1-1.7,2.2-2.8,3c-0.9,1-2,1.5-2.9,2.2
							c-0.4,0.3-0.9,0.5-1.3,0.8c-0.4,0.2-0.8,0.4-1.1,0.6C1302-1334.6,1301.7-1334.4,1301.7-1334.4"/>
					</g>
				</g>
			</g>
		</g>
	</g>
</g>
</svg>
