<?xml version="1.0" encoding="utf-8"?>
<!-- Generator: Adobe Illustrator 23.0.1, SVG Export Plug-In . SVG Version: 6.00 Build 0)  -->
<svg version="1.1" id="Layer_1" xmlns="http://www.w3.org/2000/svg" xmlns:xlink="http://www.w3.org/1999/xlink" x="0px" y="0px"
	 viewBox="0 0 900 600" style="enable-background:new 0 0 900 600;" xml:space="preserve">
<style type="text/css">
	.st0{fill:url(#rect4845_1_);stroke:#000000;stroke-miterlimit:10;}
	.st1{fill:#616161;}
	.st2{fill:#4D4D4D;}
	.st3{fill:#1A1A1A;}
	.st4{fill:#333333;}
	.st5{fill:#646464;}
	.st6{fill:#AB37C8;}
	.st7{fill:#D4AA00;}
	.st8{fill:#5AA02C;}
	.st9{fill:#CCCCCC;}
	.st10{opacity:0.614;fill:#191919;enable-background:new    ;}
	.st11{fill:#9A9A9A;}
	.st12{fill:#DADADA;}
	.st13{fill:#F4F4F4;}
	.st14{fill:#CCCCCC;fill-opacity:0.5331;}
	.st15{fill:#E0E0E0;fill-opacity:0.6618;}
	.st16{fill:#003694;}
	.st17{fill:#D8D8D8;}
	.st18{fill:#FFFFFF;}
	.st19{fill:#6C5353;}
	.st20{fill:#F9F9F9;}
	.st21{fill:#ECECEC;}
	.st22{fill:#FF7F2A;}
	.st23{fill:#2A7FFF;}
	.st24{fill:#FF0066;}
	.st25{fill:#70737E;}
	.st26{opacity:0.614;enable-background:new    ;}
	.st27{fill:#6D6F7A;}
	.st28{fill:#0B1229;fill-opacity:0.6287;}
	.st29{fill:#EFD9CE;}
	.st30{fill:#FFA69E;fill-opacity:0.7243;}
</style>
<g id="layer2" transform="translate(0,-87)">
	
		<linearGradient id="rect4845_1_" gradientUnits="userSpaceOnUse" x1="-76.3177" y1="298.3523" x2="1003.0818" y2="305.8333" gradientTransform="matrix(1 0 0 -1 0 689)">
		<stop  offset="0" style="stop-color:#3900D4"/>
		<stop  offset="0.1348" style="stop-color:#2B04B1"/>
		<stop  offset="0.315" style="stop-color:#1C0888"/>
		<stop  offset="0.492" style="stop-color:#100C68"/>
		<stop  offset="0.6623" style="stop-color:#070E51"/>
		<stop  offset="0.8231" style="stop-color:#020F44"/>
		<stop  offset="0.9645" style="stop-color:#00103F"/>
	</linearGradient>
	<rect id="rect4845" y="87" class="st0" width="900" height="600"/>
</g>
<g id="layer1" transform="translate(0,-87)">
	<g id="g6669">
		<rect id="rect4538" x="242.2" y="466.3" class="st1" width="28.1" height="40.8"/>
		<path id="rect4494" class="st2" d="M211.8,506.8c-0.4,0-0.5,0.4-0.7,0.6l-2.9,3.1c-0.3,0.3,0.3,0.6,0.7,0.6h41.8h11h41.8
			c0.4,0,1-0.4,0.7-0.6l-2.9-3.1c-0.3-0.3-0.3-0.6-0.7-0.6h-39h-11H211.8z"/>
		<rect id="rect4536" x="120" y="317" class="st3" width="272.5" height="149.4"/>
		<rect id="rect4540" x="123.4" y="318.6" class="st4" width="265.7" height="137.3"/>
		<rect id="rect4544" x="123.4" y="336.7" class="st2" width="51.9" height="119.2"/>
		<rect id="rect4546" x="174.9" y="318.9" class="st5" width="213.5" height="4.9"/>
		<g id="g4649" transform="matrix(0.69261506,0,0,0.69261506,234.28663,94.287796)">
			<path id="rect4548" class="st6" d="M-75.6,345h9.3c0.6,0,1,0.5,1,1v0.6c0,0.6-0.5,1-1,1h-9.3c-0.6,0-1-0.5-1-1V346
				C-76.6,345.5-76.1,345-75.6,345z"/>
			<path id="rect4550" class="st7" d="M-58,345h8.5c0.6,0,1,0.5,1,1v0.6c0,0.6-0.5,1-1,1H-58c-0.6,0-1-0.5-1-1V346
				C-59.1,345.5-58.6,345-58,345z"/>
			<path id="rect4552" class="st7" d="M-40.3,345H-4c0.6,0,1,0.5,1,1v0.6c0,0.6-0.5,1-1,1h-36.3c-0.6,0-1-0.5-1-1V346
				C-41.4,345.5-40.9,345-40.3,345z"/>
			<path id="rect4554" class="st7" d="M6.4,345h9.3c0.6,0,1,0.5,1,1v0.6c0,0.6-0.5,1-1,1H6.4c-0.6,0-1-0.5-1-1V346
				C5.4,345.5,5.8,345,6.4,345z"/>
		</g>
		<g id="g4643" transform="matrix(0.69261506,0,0,0.69261506,234.28663,94.309528)">
			<g id="g4635">
				<path id="rect4556" class="st6" d="M-75.6,353.7h9.3c0.6,0,1,0.5,1,1v0.6c0,0.6-0.5,1-1,1h-9.3c-0.6,0-1-0.5-1-1v-0.6
					C-76.6,354.1-76.1,353.7-75.6,353.7z"/>
				<path id="rect4558" class="st7" d="M-58,353.7h8.5c0.6,0,1,0.5,1,1v0.6c0,0.6-0.5,1-1,1H-58c-0.6,0-1-0.5-1-1v-0.6
					C-59.1,354.1-58.6,353.7-58,353.7z"/>
			</g>
			<path id="rect4560" class="st7" d="M-40.3,353.7h15c0.6,0,1,0.5,1,1v0.6c0,0.6-0.5,1-1,1h-15c-0.6,0-1-0.5-1-1v-0.6
				C-41.4,354.1-40.9,353.7-40.3,353.7z"/>
			<path id="rect4562" class="st7" d="M12.4,353.7h21.3c0.6,0,1,0.5,1,1v0.6c0,0.6-0.5,1-1,1H12.4c-0.6,0-1-0.5-1-1v-0.6
				C11.4,354.1,11.8,353.7,12.4,353.7z"/>
			<path id="rect4564" class="st7" d="M-17.4,353.7H0.9c0.6,0,1,0.5,1,1v0.6c0,0.6-0.5,1-1,1h-18.3c-0.6,0-1-0.5-1-1v-0.6
				C-18.5,354.1-18,353.7-17.4,353.7z"/>
		</g>
		<g id="g4631" transform="matrix(0.69261506,0,0,0.69261506,234.28663,94.148007)">
			<path id="rect4566" class="st6" d="M-75.6,362.6h9.3c0.6,0,1,0.5,1,1v0.6c0,0.6-0.5,1-1,1h-9.3c-0.6,0-1-0.5-1-1v-0.6
				C-76.6,363.1-76.1,362.6-75.6,362.6z"/>
			<path id="rect4568" class="st7" d="M-58,362.6h14.5c0.6,0,1,0.5,1,1v0.6c0,0.6-0.5,1-1,1H-58c-0.6,0-1-0.5-1-1v-0.6
				C-59.1,363.1-58.6,362.6-58,362.6z"/>
		</g>
		<g id="g4627" transform="matrix(0.69261506,0,0,0.69261506,234.28663,94.169739)">
			<path id="rect4570" class="st7" d="M-60.6,371.3h9.3c0.6,0,1,0.5,1,1v0.6c0,0.6-0.5,1-1,1h-9.3c-0.6,0-1-0.5-1-1v-0.6
				C-61.6,371.8-61.1,371.3-60.6,371.3z"/>
			<path id="rect4572" class="st7" d="M-43,371.3h8.5c0.6,0,1,0.5,1,1v0.6c0,0.6-0.5,1-1,1H-43c-0.6,0-1-0.5-1-1v-0.6
				C-44.1,371.8-43.6,371.3-43,371.3z"/>
			<path id="rect4574" class="st7" d="M-25.3,371.3h15c0.6,0,1,0.5,1,1v0.6c0,0.6-0.5,1-1,1h-15c-0.6,0-1-0.5-1-1v-0.6
				C-26.4,371.8-25.9,371.3-25.3,371.3z"/>
		</g>
		<g id="g4622" transform="matrix(0.69261506,0,0,0.69261506,234.28663,94.099847)">
			<path id="rect4576" class="st7" d="M-60.6,380.1h9.3c0.6,0,1,0.5,1,1v0.6c0,0.6-0.5,1-1,1h-9.3c-0.6,0-1-0.5-1-1v-0.6
				C-61.6,380.6-61.1,380.1-60.6,380.1z"/>
			<path id="rect4578" class="st7" d="M-38.3,380.1h11.8c0.6,0,1,0.5,1,1v0.6c0,0.6-0.5,1-1,1h-11.8c-0.6,0-1-0.5-1-1v-0.6
				C-39.4,380.6-38.9,380.1-38.3,380.1z"/>
			<path id="rect4580" class="st7" d="M-18.6,380.1h12.9c0.6,0,1,0.5,1,1v0.6c0,0.6-0.5,1-1,1h-12.9c-0.6,0-1-0.5-1-1v-0.6
				C-19.6,380.6-19.1,380.1-18.6,380.1z"/>
			<path id="rect4582" class="st7" d="M2.1,380.1H54c0.6,0,1,0.5,1,1v0.6c0,0.6-0.5,1-1,1H2.1c-0.6,0-1-0.5-1-1v-0.6
				C1,380.6,1.5,380.1,2.1,380.1z"/>
		</g>
		<g id="g4616" transform="matrix(0.69261506,0,0,0.69261506,234.28663,93.89656)">
			<path id="rect4584" class="st7" d="M-49.7,389.1h9.3c0.6,0,1,0.5,1,1v0.6c0,0.6-0.5,1-1,1h-9.3c-0.6,0-1-0.5-1-1v-0.6
				C-50.7,389.6-50.3,389.1-49.7,389.1z"/>
			<path id="rect4586" class="st7" d="M-31.2,389.1h11.8c0.6,0,1,0.5,1,1v0.6c0,0.6-0.5,1-1,1h-11.8c-0.6,0-1-0.5-1-1v-0.6
				C-32.2,389.6-31.8,389.1-31.2,389.1z"/>
			<path id="rect4588" class="st7" d="M-13.9,389.1h6.3c0.6,0,1,0.5,1,1v0.6c0,0.6-0.5,1-1,1h-6.3c-0.6,0-1-0.5-1-1v-0.6
				C-15,389.6-14.5,389.1-13.9,389.1z"/>
		</g>
		<g id="g4611" transform="matrix(0.69261506,0,0,0.69261506,234.28663,94.017223)">
			<path id="rect4590" class="st7" d="M-49.7,397.7h9.3c0.6,0,1,0.5,1,1v0.6c0,0.6-0.5,1-1,1h-9.3c-0.6,0-1-0.5-1-1v-0.6
				C-50.7,398.1-50.3,397.7-49.7,397.7z"/>
			<path id="rect4592" class="st7" d="M-31.2,397.7h11.8c0.6,0,1,0.5,1,1v0.6c0,0.6-0.5,1-1,1h-11.8c-0.6,0-1-0.5-1-1v-0.6
				C-32.2,398.1-31.8,397.7-31.2,397.7z"/>
		</g>
		<g id="g4607" transform="matrix(0.69261506,0,0,0.69261506,234.28663,94.332251)">
			<path id="rect4596" class="st7" d="M-49.7,405.9h9.3c0.6,0,1,0.5,1,1v0.6c0,0.6-0.5,1-1,1h-9.3c-0.6,0-1-0.5-1-1V407
				C-50.7,406.4-50.3,405.9-49.7,405.9z"/>
			<path id="rect4598" class="st7" d="M-31.2,405.9h41.3c0.6,0,1,0.5,1,1v0.6c0,0.6-0.5,1-1,1h-41.3c-0.6,0-1-0.5-1-1V407
				C-32.2,406.4-31.8,405.9-31.2,405.9z"/>
		</g>
		<g id="g4603" transform="matrix(0.69261506,0,0,0.69261506,234.28663,94.370026)">
			<path id="rect4600" class="st6" d="M-75.6,414.6h9.3c0.6,0,1,0.5,1,1v0.6c0,0.6-0.5,1-1,1h-9.3c-0.6,0-1-0.5-1-1v-0.6
				C-76.6,415-76.1,414.6-75.6,414.6z"/>
			<path id="rect4602" class="st7" d="M-58,414.6h14.5c0.6,0,1,0.5,1,1v0.6c0,0.6-0.5,1-1,1H-58c-0.6,0-1-0.5-1-1v-0.6
				C-59.1,415-58.6,414.6-58,414.6z"/>
		</g>
		<g id="g4599" transform="matrix(0.69261506,0,0,0.69261506,234.28663,94.375715)">
			<path id="rect4604" class="st8" d="M-15.8,423.3h-9.3c-0.6,0-1,0.5-1,1v0.6c0,0.6,0.5,1,1,1h9.3c0.6,0,1-0.5,1-1v-0.6
				C-14.7,423.8-15.2,423.3-15.8,423.3z"/>
			<path id="rect4606" class="st8" d="M-34.3,423.3h-41.3c-0.6,0-1,0.5-1,1v0.6c0,0.6,0.5,1,1,1h41.3c0.6,0,1-0.5,1-1v-0.6
				C-33.3,423.8-33.7,423.3-34.3,423.3z"/>
		</g>
		<g id="g4595" transform="matrix(0.69261506,0,0,0.69261506,234.28663,94.580704)">
			<path id="rect4608" class="st8" d="M-9.8,431.7h-9.3c-0.6,0-1,0.5-1,1v0.6c0,0.6,0.5,1,1,1h9.3c0.6,0,1-0.5,1-1v-0.6
				C-8.7,432.2-9.2,431.7-9.8,431.7z"/>
			<path id="rect4610" class="st8" d="M-53.8,431.7h-21.8c-0.6,0-1,0.5-1,1v0.6c0,0.6,0.5,1,1,1h21.8c0.6,0,1-0.5,1-1v-0.6
				C-52.8,432.2-53.2,431.7-53.8,431.7z"/>
			<path id="rect4612" class="st8" d="M-25.3,431.7h-21.8c-0.6,0-1,0.5-1,1v0.6c0,0.6,0.5,1,1,1h21.8c0.6,0,1-0.5,1-1v-0.6
				C-24.3,432.2-24.7,431.7-25.3,431.7z"/>
		</g>
		<g id="g4590" transform="matrix(0.69261506,0,0,0.69261506,234.28663,94.435221)">
			<path id="rect4614" class="st6" d="M-75.6,440.6h9.3c0.6,0,1,0.5,1,1v0.6c0,0.6-0.5,1-1,1h-9.3c-0.6,0-1-0.5-1-1v-0.6
				C-76.6,441.1-76.1,440.6-75.6,440.6z"/>
			<path id="rect4616" class="st7" d="M-58,440.6h14.5c0.6,0,1,0.5,1,1v0.6c0,0.6-0.5,1-1,1H-58c-0.6,0-1-0.5-1-1v-0.6
				C-59.1,441.1-58.6,440.6-58,440.6z"/>
		</g>
		<g id="g4586" transform="matrix(0.69261506,0,0,0.69261506,234.28663,94.415196)">
			<path id="rect4618" class="st7" d="M-56.4,449.4h9.3c0.6,0,1,0.5,1,1v0.6c0,0.6-0.5,1-1,1h-9.3c-0.6,0-1-0.5-1-1v-0.6
				C-57.5,449.8-57,449.4-56.4,449.4z"/>
			<path id="rect4620" class="st7" d="M-37.9,449.4h11.8c0.6,0,1,0.5,1,1v0.6c0,0.6-0.5,1-1,1h-11.8c-0.6,0-1-0.5-1-1v-0.6
				C-39,449.8-38.5,449.4-37.9,449.4z"/>
			<path id="rect4622" class="st7" d="M-20.7,449.4h6.3c0.6,0,1,0.5,1,1v0.6c0,0.6-0.5,1-1,1h-6.3c-0.6,0-1-0.5-1-1v-0.6
				C-21.7,449.8-21.3,449.4-20.7,449.4z"/>
		</g>
		<path id="rect4581" class="st6" d="M181.9,411.7h6.5c0.4,0,0.7,0.3,0.7,0.7v0.4c0,0.4-0.3,0.7-0.7,0.7h-6.5
			c-0.4,0-0.7-0.3-0.7-0.7v-0.4C181.2,412,181.5,411.7,181.9,411.7z"/>
		<path id="rect4653" class="st9" d="M127.6,344.6H160c0.3,0,0.6,0.3,0.6,0.6v0.3c0,0.3-0.3,0.6-0.6,0.6h-32.4
			c-0.3,0-0.6-0.3-0.6-0.6v-0.3C127,344.8,127.2,344.6,127.6,344.6z"/>
		<path id="rect4667" class="st9" d="M127.6,350.9H160c0.3,0,0.6,0.3,0.6,0.6v0.3c0,0.3-0.3,0.6-0.6,0.6h-32.4
			c-0.3,0-0.6-0.3-0.6-0.6v-0.3C127,351.1,127.2,350.9,127.6,350.9z"/>
		<path id="rect4669" class="st9" d="M127.6,357.2H160c0.3,0,0.6,0.3,0.6,0.6v0.3c0,0.3-0.3,0.6-0.6,0.6h-32.4
			c-0.3,0-0.6-0.3-0.6-0.6v-0.3C127,357.4,127.2,357.2,127.6,357.2z"/>
		<path id="rect4671" class="st9" d="M127.6,363.5H160c0.3,0,0.6,0.3,0.6,0.6v0.3c0,0.3-0.3,0.6-0.6,0.6h-32.4
			c-0.3,0-0.6-0.3-0.6-0.6v-0.3C127,363.7,127.2,363.5,127.6,363.5z"/>
		<path id="rect4673" class="st9" d="M127.6,369.8H160c0.3,0,0.6,0.3,0.6,0.6v0.3c0,0.3-0.3,0.6-0.6,0.6h-32.4
			c-0.3,0-0.6-0.3-0.6-0.6v-0.3C127,370.1,127.2,369.8,127.6,369.8z"/>
		<path id="rect4675" class="st9" d="M127.6,376.1H160c0.3,0,0.6,0.3,0.6,0.6v0.3c0,0.3-0.3,0.6-0.6,0.6h-32.4
			c-0.3,0-0.6-0.3-0.6-0.6v-0.3C127,376.4,127.2,376.1,127.6,376.1z"/>
		<path id="rect4677" class="st9" d="M127.6,382.4H160c0.3,0,0.6,0.3,0.6,0.6v0.3c0,0.3-0.3,0.6-0.6,0.6h-32.4
			c-0.3,0-0.6-0.3-0.6-0.6V383C127,382.7,127.2,382.4,127.6,382.4z"/>
		<path id="rect4679" class="st9" d="M127.6,388.7H160c0.3,0,0.6,0.3,0.6,0.6v0.3c0,0.3-0.3,0.6-0.6,0.6h-32.4
			c-0.3,0-0.6-0.3-0.6-0.6v-0.3C127,389,127.2,388.7,127.6,388.7z"/>
		<path id="rect4681" class="st9" d="M127.6,395H160c0.3,0,0.6,0.3,0.6,0.6v0.3c0,0.3-0.3,0.6-0.6,0.6h-32.4c-0.3,0-0.6-0.3-0.6-0.6
			v-0.3C127,395.3,127.2,395,127.6,395z"/>
		<path id="rect4683" class="st9" d="M127.6,401.3H160c0.3,0,0.6,0.3,0.6,0.6v0.3c0,0.3-0.3,0.6-0.6,0.6h-32.4
			c-0.3,0-0.6-0.3-0.6-0.6v-0.3C127,401.6,127.2,401.3,127.6,401.3z"/>
		<path id="rect4685" class="st9" d="M127.6,407.6H160c0.3,0,0.6,0.3,0.6,0.6v0.3c0,0.3-0.3,0.6-0.6,0.6h-32.4
			c-0.3,0-0.6-0.3-0.6-0.6v-0.3C127,407.9,127.2,407.6,127.6,407.6z"/>
		<path id="rect4687" class="st9" d="M127.6,413.9H160c0.3,0,0.6,0.3,0.6,0.6v0.3c0,0.3-0.3,0.6-0.6,0.6h-32.4
			c-0.3,0-0.6-0.3-0.6-0.6v-0.3C127,414.2,127.2,413.9,127.6,413.9z"/>
		<path id="rect4689" class="st9" d="M127.6,420.2H160c0.3,0,0.6,0.3,0.6,0.6v0.3c0,0.3-0.3,0.6-0.6,0.6h-32.4
			c-0.3,0-0.6-0.3-0.6-0.6v-0.3C127,420.5,127.2,420.2,127.6,420.2z"/>
		<path id="rect4691" class="st9" d="M127.6,426.5H160c0.3,0,0.6,0.3,0.6,0.6v0.3c0,0.3-0.3,0.6-0.6,0.6h-32.4
			c-0.3,0-0.6-0.3-0.6-0.6v-0.3C127,426.8,127.2,426.5,127.6,426.5z"/>
		<path id="rect4693" class="st9" d="M127.6,432.8H160c0.3,0,0.6,0.3,0.6,0.6v0.3c0,0.3-0.3,0.6-0.6,0.6h-32.4
			c-0.3,0-0.6-0.3-0.6-0.6v-0.3C127,433.1,127.2,432.8,127.6,432.8z"/>
		<path id="rect4695" class="st9" d="M127.6,439.1H160c0.3,0,0.6,0.3,0.6,0.6v0.3c0,0.3-0.3,0.6-0.6,0.6h-32.4
			c-0.3,0-0.6-0.3-0.6-0.6v-0.3C127,439.4,127.2,439.1,127.6,439.1z"/>
		<g id="g4701" transform="matrix(0.69261506,0,0,0.69261506,234.28663,121.0864)">
			<path id="rect4697" class="st6" d="M-75.6,434h9.3c0.6,0,1,0.5,1,1v0.6c0,0.6-0.5,1-1,1h-9.3c-0.6,0-1-0.5-1-1V435
				C-76.6,434.4-76.1,434-75.6,434z"/>
			<path id="rect4699" class="st7" d="M-58,434h14.5c0.6,0,1,0.5,1,1v0.6c0,0.6-0.5,1-1,1H-58c-0.6,0-1-0.5-1-1V435
				C-59.1,434.4-58.6,434-58,434z"/>
		</g>
		<g id="g4709" transform="matrix(0.69261506,0,0,0.69261506,234.28663,121.10814)">
			<path id="rect4703" class="st7" d="M-60.6,442.7h9.3c0.6,0,1,0.5,1,1v0.6c0,0.6-0.5,1-1,1h-9.3c-0.6,0-1-0.5-1-1v-0.6
				C-61.6,443.1-61.1,442.7-60.6,442.7z"/>
			<path id="rect4705" class="st7" d="M-43,442.7h8.5c0.6,0,1,0.5,1,1v0.6c0,0.6-0.5,1-1,1H-43c-0.6,0-1-0.5-1-1v-0.6
				C-44.1,443.1-43.6,442.7-43,442.7z"/>
			<path id="rect4707" class="st7" d="M-25.3,442.7h15c0.6,0,1,0.5,1,1v0.6c0,0.6-0.5,1-1,1h-15c-0.6,0-1-0.5-1-1v-0.6
				C-26.4,443.1-25.9,442.7-25.3,442.7z"/>
		</g>
		<g id="g4719" transform="matrix(0.69261506,0,0,0.69261506,234.28663,121.03825)">
			<path id="rect4711" class="st7" d="M-60.6,451.5h9.3c0.6,0,1,0.5,1,1v0.6c0,0.6-0.5,1-1,1h-9.3c-0.6,0-1-0.5-1-1v-0.6
				C-61.6,451.9-61.1,451.5-60.6,451.5z"/>
			<path id="rect4713" class="st7" d="M-38.3,451.5h11.8c0.6,0,1,0.5,1,1v0.6c0,0.6-0.5,1-1,1h-11.8c-0.6,0-1-0.5-1-1v-0.6
				C-39.4,451.9-38.9,451.5-38.3,451.5z"/>
			<path id="rect4715" class="st7" d="M-18.6,451.5h12.9c0.6,0,1,0.5,1,1v0.6c0,0.6-0.5,1-1,1h-12.9c-0.6,0-1-0.5-1-1v-0.6
				C-19.6,451.9-19.1,451.5-18.6,451.5z"/>
			<path id="rect4717" class="st7" d="M2.1,451.5H54c0.6,0,1,0.5,1,1v0.6c0,0.6-0.5,1-1,1H2.1c-0.6,0-1-0.5-1-1v-0.6
				C1,451.9,1.5,451.5,2.1,451.5z"/>
		</g>
		<g id="g4725" transform="matrix(0.69261506,0,0,0.69261506,234.28663,127.95844)">
			<path id="rect4721" class="st6" d="M-75.6,452.2h9.3c0.6,0,1,0.5,1,1v0.6c0,0.6-0.5,1-1,1h-9.3c-0.6,0-1-0.5-1-1v-0.6
				C-76.6,452.6-76.1,452.2-75.6,452.2z"/>
			<path id="rect4723" class="st7" d="M-58,452.2h14.5c0.6,0,1,0.5,1,1v0.6c0,0.6-0.5,1-1,1H-58c-0.6,0-1-0.5-1-1v-0.6
				C-59.1,452.6-58.6,452.2-58,452.2z"/>
		</g>
		<g id="g4733" transform="matrix(0.69261506,0,0,0.69261506,234.28663,114.18892)">
			<path id="rect4727" class="st8" d="M-9.8,483.6h-9.3c-0.6,0-1,0.5-1,1v0.6c0,0.6,0.5,1,1,1h9.3c0.6,0,1-0.5,1-1v-0.6
				C-8.7,484.1-9.2,483.6-9.8,483.6z"/>
			<path id="rect4729" class="st8" d="M-53.8,483.6h-21.8c-0.6,0-1,0.5-1,1v0.6c0,0.6,0.5,1,1,1h21.8c0.6,0,1-0.5,1-1v-0.6
				C-52.8,484.1-53.2,483.6-53.8,483.6z"/>
			<path id="rect4731" class="st8" d="M-25.3,483.6h-21.8c-0.6,0-1,0.5-1,1v0.6c0,0.6,0.5,1,1,1h21.8c0.6,0,1-0.5,1-1v-0.6
				C-24.3,484.1-24.7,483.6-25.3,483.6z"/>
		</g>
		<rect id="rect4843" x="242.2" y="466.3" class="st10" width="28.1" height="5.9"/>
		<path id="rect4716" class="st5" d="M172.1,336.3h3.3v119.6h-3.3V336.3z M123.4,318.9h51.9v17.9h-51.9V318.9z"/>
		<path id="rect4714" class="st9" d="M128.6,325.8h29.9c0.7,0,1.3,0.6,1.3,1.3v0.7c0,0.7-0.6,1.3-1.3,1.3h-29.9
			c-0.7,0-1.3-0.6-1.3-1.3V327C127.4,326.3,127.9,325.8,128.6,325.8z"/>
		<path id="rect4718" class="st11" d="M175.3,361.8v5.9c0,0.7-0.6,1.3-1.3,1.3h-0.7c-0.7,0-1.3-0.6-1.3-1.3v-5.9
			c0-0.7,0.6-1.3,1.3-1.3h0.7C174.8,360.6,175.3,361.1,175.3,361.8z"/>
	</g>
	<g id="g6043">
		<path id="rect4674" class="st12" d="M703.4,466.1c-1.6,0-2.9,1.7-2.9,3.9v27.3c0,2.2,1.3,3.9,2.9,3.9H719c1.6,0,2.9-1.7,2.9-3.9
			V470c0-2.2-1.3-3.9-2.9-3.9H703.4z M705.2,472.2H716c1.1,0,2,1.3,2,2.9v17.3c0,1.6-0.9,2.9-2,2.9h-10.9c-1.1,0-2-1.3-2-2.9v-17.3
			C703.2,473.5,704.1,472.2,705.2,472.2z"/>
		<path id="rect4672" class="st13" d="M663.4,456v52.3c0,1.6,1.3,2.9,2.9,2.9h39.6c1.6,0,2.9-1.3,2.9-2.9V456H663.4z"/>
		<path id="rect4680" class="st14" d="M685.7,456v55.2h-19.4c-1.6,0-2.9-1.3-2.9-2.9V456H685.7z"/>
		<path id="path4723" class="st15" d="M686,398.8c0.7,0.6-1.1,4.4-4.6,9.9l0,0c-0.6,1.9-0.9,4.2-0.1,6c0.7,2.3,3.1,4.2,6.2,6
			c0.4,0.2,0.8,0.4,1.2,0.7c3.6,2.2,6.4,5.5,7.5,9.6c0.9,4.1,0,7.9-1.3,10.6l0,0c-1.6,3.3-3.6,5.7-5.2,7.1l0,0
			c-0.9,0.8-1.7,1.4-2.3,1.8l0,0l0,0c-0.3,0.2-0.6,0.3-0.8,0.3l0,0l0,0c-0.2-0.1-0.3-0.1-0.4-0.1l0,0c-0.1,0-0.1,0-0.1,0l0,0l0,0
			l0,0l0,0l0,0l0,0l0,0l0,0l0,0l0,0l0,0l0,0l0,0l0,0l0,0l0,0l0,0l0,0l0,0l0,0l0,0l0,0c0,0,0,0,0-0.1l0,0c0-0.1,0-0.2-0.1-0.4l0,0
			l0,0c0-0.2,0.1-0.5,0.2-0.8l0,0l0,0c0.2-0.6,0.7-1.5,1.2-2.5l0,0c0.8-1.7,2.2-4.3,3-7.1l0,0c0.6-2.3,1.1-5,0.3-7.3
			c-0.6-2.2-2.6-4.1-5.2-5.9c-0.3-0.2-0.6-0.4-0.9-0.5c-4-2-7.3-5.4-8.6-9.8c-0.9-4,0.2-7.5,1.5-10l0,0
			C682,401.1,685.2,398.3,686,398.8L686,398.8z"/>
	</g>
	<g id="g4812">
		<path id="rect4485" class="st16" d="M318.9,258.1h329.8c4.8,0,8.6,3.9,8.6,8.6v173c0,4.8-3.9,8.6-8.6,8.6H318.9
			c-4.8,0-8.6-3.9-8.6-8.6v-173C310.3,262,314.2,258.1,318.9,258.1z"/>
		<path id="rect4487" class="st17" d="M461.2,448.3l-9.8,58.6h32.5h32.5l-9.8-58.6h-22.7H461.2z"/>
		<path id="rect4507" class="st18" d="M324.2,266.7h319.3c1.2,0,2.2,1,2.2,2.2v144.9c0,1.2-1,2.2-2.2,2.2H324.2
			c-1.2,0-2.2-1-2.2-2.2V268.9C322,267.7,323,266.7,324.2,266.7z"/>
		<rect id="rect4495" x="321.9" y="410.8" class="st19" width="323.8" height="5.3"/>
		<rect id="rect4497" x="321.9" y="380.4" class="st20" width="323.8" height="29.3"/>
		<rect id="rect4499" x="322" y="376.6" class="st9" width="323.8" height="5.3"/>
		<rect id="rect4501" x="584.7" y="381.9" class="st21" width="3.2" height="28.9"/>
		<path id="rect4503" class="st6" d="M328.8,386.1h6c0.4,0,0.7,0.3,0.7,0.7v0.4c0,0.4-0.3,0.7-0.7,0.7h-6c-0.4,0-0.7-0.3-0.7-0.7
			v-0.4C328.1,386.4,328.4,386.1,328.8,386.1z"/>
		<path id="rect4505" class="st22" d="M340,386.1h5.4c0.4,0,0.7,0.3,0.7,0.7v0.4c0,0.4-0.3,0.7-0.7,0.7H340c-0.4,0-0.7-0.3-0.7-0.7
			v-0.4C339.4,386.4,339.7,386.1,340,386.1z"/>
		<path id="rect4508" class="st23" d="M351.4,386.1h23.3c0.4,0,0.7,0.3,0.7,0.7v0.4c0,0.4-0.3,0.7-0.7,0.7h-23.3
			c-0.4,0-0.7-0.3-0.7-0.7v-0.4C350.7,386.4,351,386.1,351.4,386.1z"/>
		<path id="rect4510" class="st6" d="M328.8,391.4h6c0.4,0,0.7,0.3,0.7,0.7v0.4c0,0.4-0.3,0.7-0.7,0.7h-6c-0.4,0-0.7-0.3-0.7-0.7
			v-0.4C328.1,391.7,328.4,391.4,328.8,391.4z"/>
		<path id="rect4512" class="st22" d="M340,391.4h5.4c0.4,0,0.7,0.3,0.7,0.7v0.4c0,0.4-0.3,0.7-0.7,0.7H340c-0.4,0-0.7-0.3-0.7-0.7
			v-0.4C339.4,391.7,339.7,391.4,340,391.4z"/>
		<path id="rect4514" class="st23" d="M351.4,391.4h5.7c0.4,0,0.7,0.3,0.7,0.7v0.4c0,0.4-0.3,0.7-0.7,0.7h-5.7
			c-0.4,0-0.7-0.3-0.7-0.7v-0.4C350.7,391.7,351,391.4,351.4,391.4z"/>
		<path id="rect4516" class="st22" d="M363.2,391.4h10.9c0.4,0,0.7,0.3,0.7,0.7v0.4c0,0.4-0.3,0.7-0.7,0.7h-10.9
			c-0.4,0-0.7-0.3-0.7-0.7v-0.4C362.6,391.7,362.9,391.4,363.2,391.4z"/>
		<path id="rect4518" class="st4" d="M380.9,391.4h28.9c0.4,0,0.7,0.3,0.7,0.7v0.4c0,0.4-0.3,0.7-0.7,0.7h-28.9
			c-0.4,0-0.7-0.3-0.7-0.7v-0.4C380.3,391.7,380.6,391.4,380.9,391.4z"/>
		<path id="rect4520" class="st6" d="M414.9,391.4h6c0.4,0,0.7,0.3,0.7,0.7v0.4c0,0.4-0.3,0.7-0.7,0.7h-6c-0.4,0-0.7-0.3-0.7-0.7
			v-0.4C414.3,391.7,414.6,391.4,414.9,391.4z"/>
		<path id="rect4522" class="st6" d="M381.4,386.1h6c0.4,0,0.7,0.3,0.7,0.7v0.4c0,0.4-0.3,0.7-0.7,0.7h-6c-0.4,0-0.7-0.3-0.7-0.7
			v-0.4C380.8,386.4,381.1,386.1,381.4,386.1z"/>
		<path id="rect4509" class="st6" d="M333.9,396h10.3c0.4,0,0.7,0.3,0.7,0.7v0.4c0,0.4-0.3,0.7-0.7,0.7h-10.3
			c-0.4,0-0.7-0.3-0.7-0.7v-0.4C333.2,396.3,333.5,396,333.9,396z"/>
		<path id="rect4511" class="st22" d="M349.1,396.1h16.8c0.4,0,0.7,0.3,0.7,0.7v0.4c0,0.4-0.3,0.7-0.7,0.7h-16.8
			c-0.4,0-0.7-0.3-0.7-0.7v-0.4C348.5,396.4,348.8,396.1,349.1,396.1z"/>
		<path id="rect4513" class="st22" d="M370,396.1h5.4c0.4,0,0.7,0.3,0.7,0.7v0.4c0,0.4-0.3,0.7-0.7,0.7H370c-0.4,0-0.7-0.3-0.7-0.7
			v-0.4C369.3,396.4,369.6,396.1,370,396.1z"/>
		<path id="rect4515" class="st4" d="M379.2,396.2h6.7c0.4,0,0.7,0.3,0.7,0.7v0.4c0,0.4-0.3,0.7-0.7,0.7h-6.7
			c-0.4,0-0.7-0.3-0.7-0.7v-0.4C378.5,396.5,378.8,396.2,379.2,396.2z"/>
		<path id="rect4517" class="st4" d="M389.8,396.2h11.5c0.4,0,0.7,0.3,0.7,0.7v0.4c0,0.4-0.3,0.7-0.7,0.7h-11.5
			c-0.4,0-0.7-0.3-0.7-0.7v-0.4C389.1,396.5,389.4,396.2,389.8,396.2z"/>
		<path id="rect4519" class="st23" d="M405.3,396.4h5.8c0.4,0,0.7,0.3,0.7,0.7v0.4c0,0.4-0.3,0.7-0.7,0.7h-5.8
			c-0.4,0-0.7-0.3-0.7-0.7V397C404.6,396.7,404.9,396.4,405.3,396.4z"/>
		<path id="rect4521" class="st6" d="M415.2,396.6h9.7c0.4,0,0.7,0.3,0.7,0.7v0.4c0,0.4-0.3,0.7-0.7,0.7h-9.7
			c-0.4,0-0.7-0.3-0.7-0.7v-0.4C414.5,396.9,414.8,396.6,415.2,396.6z"/>
		<path id="rect4523" class="st6" d="M328.8,401.8h6c0.4,0,0.7,0.3,0.7,0.7v0.4c0,0.4-0.3,0.7-0.7,0.7h-6c-0.4,0-0.7-0.3-0.7-0.7
			v-0.4C328.1,402.1,328.4,401.8,328.8,401.8z"/>
		<path id="rect4525" class="st22" d="M340,401.8h5.4c0.4,0,0.7,0.3,0.7,0.7v0.4c0,0.4-0.3,0.7-0.7,0.7H340c-0.4,0-0.7-0.3-0.7-0.7
			v-0.4C339.4,402.1,339.7,401.8,340,401.8z"/>
		<path id="rect4527" class="st4" d="M351.7,401.8h10.9c0.4,0,0.7,0.3,0.7,0.7v0.4c0,0.4-0.3,0.7-0.7,0.7h-10.9
			c-0.4,0-0.7-0.3-0.7-0.7v-0.4C351,402.1,351.3,401.8,351.7,401.8z"/>
		<path id="rect4529" class="st6" d="M368.9,401.8h6c0.4,0,0.7,0.3,0.7,0.7v0.4c0,0.4-0.3,0.7-0.7,0.7h-6c-0.4,0-0.7-0.3-0.7-0.7
			v-0.4C368.2,402.1,368.5,401.8,368.9,401.8z"/>
		<path id="rect4531" class="st9" d="M587.6,385.8v6.4c0,0.6-0.5,1.1-1.1,1.1H586c-0.6,0-1.1-0.5-1.1-1.1v-6.4
			c0-0.6,0.5-1.1,1.1-1.1h0.6C587.2,384.8,587.6,385.3,587.6,385.8z"/>
		<path id="rect4533" class="st2" d="M596.6,387h-4.5c-0.4,0-0.7-0.3-0.7-0.7v-0.4c0-0.4,0.3-0.7,0.7-0.7h4.5c0.4,0,0.7,0.3,0.7,0.7
			v0.4C597.3,386.7,596.9,387,596.6,387z"/>
		<path id="rect4537" class="st24" d="M599.4,390.6H595c-0.4,0-0.7-0.3-0.7-0.7v-0.4c0-0.4,0.3-0.7,0.7-0.7h4.5
			c0.4,0,0.7,0.3,0.7,0.7v0.4C600.1,390.3,599.8,390.6,599.4,390.6z"/>
		<path id="rect4539" class="st2" d="M607.8,390.6h-4.5c-0.4,0-0.7-0.3-0.7-0.7v-0.4c0-0.4,0.3-0.7,0.7-0.7h4.5
			c0.4,0,0.7,0.3,0.7,0.7v0.4C608.5,390.3,608.1,390.6,607.8,390.6z"/>
		<path id="rect4541" class="st24" d="M602.5,395H595c-0.4,0-0.7-0.3-0.7-0.7v-0.4c0-0.4,0.3-0.7,0.7-0.7h7.5c0.4,0,0.7,0.3,0.7,0.7
			v0.4C603.2,394.7,602.8,395,602.5,395z"/>
		<path id="rect4543" class="st2" d="M612.5,395H608c-0.4,0-0.7-0.3-0.7-0.7v-0.4c0-0.4,0.3-0.7,0.7-0.7h4.5c0.4,0,0.7,0.3,0.7,0.7
			v0.4C613.1,394.7,612.8,395,612.5,395z"/>
		<path id="rect4545" class="st24" d="M600.7,398.6H595c-0.4,0-0.7-0.3-0.7-0.7v-0.4c0-0.4,0.3-0.7,0.7-0.7h5.7
			c0.4,0,0.7,0.3,0.7,0.7v0.4C601.3,398.3,601,398.6,600.7,398.6z"/>
		<path id="rect4547" class="st2" d="M606.9,398.7h-2.7c-0.4,0-0.7-0.3-0.7-0.7v-0.4c0-0.4,0.3-0.7,0.7-0.7h2.7
			c0.4,0,0.7,0.3,0.7,0.7v0.4C607.6,398.4,607.3,398.7,606.9,398.7z"/>
		<path id="rect4549" class="st2" d="M596.6,405.5h-4.5c-0.4,0-0.7-0.3-0.7-0.7v-0.4c0-0.4,0.3-0.7,0.7-0.7h4.5
			c0.4,0,0.7,0.3,0.7,0.7v0.4C597.3,405.1,596.9,405.5,596.6,405.5z"/>
		<path id="rect4551" class="st24" d="M599,408.8h-4c-0.4,0-0.7-0.3-0.7-0.7v-0.4c0-0.4,0.3-0.7,0.7-0.7h4c0.4,0,0.7,0.3,0.7,0.7
			v0.4C599.7,408.5,599.4,408.8,599,408.8z"/>
		<path id="rect4553" class="st2" d="M606.9,408.9h-4.3c-0.4,0-0.7-0.3-0.7-0.7v-0.4c0-0.4,0.3-0.7,0.7-0.7h4.3
			c0.4,0,0.7,0.3,0.7,0.7v0.4C607.6,408.6,607.3,408.9,606.9,408.9z"/>
		<path id="path4542" class="st25" d="M414.1,506.4c-0.6,0-0.8,0.4-1.2,0.7l-4.5,3.4c-0.4,0.3,0.5,0.7,1.2,0.7h65.6h17.2H558
			c0.6,0,1.6-0.4,1.2-0.7l-4.5-3.4c-0.4-0.3-0.5-0.7-1.2-0.7h-61.1h-17.2H414.1z"/>
		<g id="g4740" transform="matrix(0.76037534,0,0,0.76037534,362.30205,82.304452)">
			<path id="rect4734" class="st8" d="M243.8,400.3h-9.3c-0.6,0-1,0.5-1,1v0.6c0,0.6,0.5,1,1,1h9.3c0.6,0,1-0.5,1-1v-0.6
				C244.8,400.8,244.4,400.3,243.8,400.3z"/>
			<path id="rect4736" class="st8" d="M199.8,400.3H178c-0.6,0-1,0.5-1,1v0.6c0,0.6,0.5,1,1,1h21.8c0.6,0,1-0.5,1-1v-0.6
				C200.8,400.8,200.4,400.3,199.8,400.3z"/>
			<path id="rect4738" class="st8" d="M228.3,400.3h-21.8c-0.6,0-1,0.5-1,1v0.6c0,0.6,0.5,1,1,1h21.8c0.6,0,1-0.5,1-1v-0.6
				C229.3,400.8,228.9,400.3,228.3,400.3z"/>
		</g>
		<path id="rect4744" class="st8" d="M514.2,391.8h-16.6c-0.4,0-0.8,0.4-0.8,0.8v0.5c0,0.4,0.4,0.8,0.8,0.8h16.6
			c0.4,0,0.8-0.4,0.8-0.8v-0.5C515,392.1,514.6,391.8,514.2,391.8z"/>
		<path id="rect4746" class="st8" d="M565.2,391.8h-45.8c-0.4,0-0.8,0.4-0.8,0.8v0.5c0,0.4,0.4,0.8,0.8,0.8h45.8
			c0.4,0,0.8-0.4,0.8-0.8v-0.5C566,392.1,565.6,391.8,565.2,391.8z"/>
		<path id="rect4753" class="st8" d="M536,396.6h-38.4c-0.4,0-0.8,0.4-0.8,0.8v0.5c0,0.4,0.4,0.8,0.8,0.8H536c0.4,0,0.8-0.4,0.8-0.8
			v-0.5C536.8,396.9,536.4,396.6,536,396.6z"/>
		<g id="path4803" class="st26">
			<polygon class="st27" points="461.2,448.3 460,455.1 507.6,455.1 506.5,448.3 			"/>
		</g>
		<path id="rect4663" class="st21" d="M310.3,421.5v18.2c0,4.8,3.8,8.6,8.6,8.6h329.8c4.8,0,8.6-3.8,8.6-8.6v-18.2H310.3z"/>
		<circle id="path4801" class="st28" cx="483.8" cy="434.9" r="7.2"/>
		<g id="g4840" transform="matrix(0.58499465,0,0,0.58499465,287.80187,102.23108)">
			<rect id="rect4557" x="93.1" y="387.1" class="st29" width="138.3" height="21.2"/>
			<rect id="rect4830" x="93.1" y="419.9" class="st29" width="138.3" height="9.2"/>
			<rect id="rect4832" x="93.1" y="436.8" class="st29" width="138.3" height="9.2"/>
			<rect id="rect4834" x="93.1" y="453.6" class="st29" width="138.3" height="9.2"/>
		</g>
		<g id="g4850" transform="matrix(0.58499465,0,0,0.58499465,323.47328,102.23108)">
			<rect id="rect4842" x="204.9" y="387.1" class="st29" width="138.3" height="21.2"/>
			<rect id="rect4844" x="204.9" y="419.9" class="st29" width="138.3" height="9.2"/>
			<rect id="rect4846" x="204.9" y="436.8" class="st29" width="138.3" height="9.2"/>
			<rect id="rect4848" x="204.9" y="453.6" class="st29" width="138.3" height="9.2"/>
		</g>
		<g id="g4860" transform="matrix(0.58499465,0,0,0.58499465,359.1447,102.23108)">
			<rect id="rect4852" x="316.8" y="387.1" class="st29" width="138.3" height="21.2"/>
			<rect id="rect4854" x="316.8" y="419.9" class="st29" width="138.3" height="9.2"/>
			<rect id="rect4856" x="316.8" y="436.8" class="st29" width="138.3" height="9.2"/>
			<rect id="rect4858" x="316.8" y="453.6" class="st29" width="138.3" height="9.2"/>
		</g>
		<g id="g4741" transform="translate(-0.09354877)">
			<rect id="rect4555" x="341.6" y="280.8" class="st30" width="82.1" height="39"/>
			<rect id="rect4733" x="442.9" y="280.8" class="st30" width="82.1" height="39"/>
			<rect id="rect4735" x="544.2" y="280.8" class="st30" width="82.1" height="39"/>
		</g>
	</g>
</g>
</svg>
